# Blender 5.1.0
# www.blender.org
o Tsunami
v 1.920000 -0.000000 0.600000
v 1.920000 0.100000 0.600000
v 1.920000 0.100000 -0.500000
v 1.920000 -0.000000 -0.800000
v 1.920000 0.100000 -0.800000
v -1.920000 0.100000 0.600000
v -1.920000 -0.000000 0.600000
v -1.920000 0.100000 -0.500000
v -1.920000 -0.000000 -0.800000
v -1.920000 0.100000 -0.800000
v 1.920000 0.100000 0.700000
v 1.920000 0.200000 -0.200000
v 1.920000 0.200000 -0.500000
v -1.920000 0.100000 0.700000
v -1.920000 0.200000 -0.200000
v -1.920000 0.200000 -0.500000
v 1.920000 0.300000 0.700000
v 1.920000 0.300000 0.000000
v 1.920000 0.300000 -0.200000
v -1.920000 0.300000 0.700000
v -1.920000 0.300000 0.000000
v -1.920000 0.300000 -0.200000
v 1.920000 0.300000 0.800000
v 1.920000 0.400000 0.100000
v 1.920000 0.400000 0.000000
v -1.920000 0.300000 0.800000
v -1.920000 0.400000 0.100000
v -1.920000 0.400000 0.000000
v 1.920000 0.500000 0.200000
v 1.920000 0.500000 0.100000
v -1.920000 0.500000 0.200000
v -1.920000 0.500000 0.100000
v 1.920000 0.600000 0.300000
v 1.920000 0.600000 0.200000
v -1.920000 0.600000 0.300000
v -1.920000 0.600000 0.200000
v 1.920000 0.800000 -0.400000
v 1.920000 0.900000 -0.400000
v 1.920000 0.800000 -0.600000
v 1.920000 0.900000 -0.600000
v -1.920000 0.900000 -0.400000
v -1.920000 0.800000 -0.400000
v -1.920000 0.800000 -0.600000
v -1.920000 0.900000 -0.600000
v 1.920000 1.000000 0.800000
v 1.920000 1.000000 0.700000
v 1.920000 1.000000 0.300000
v 1.920000 0.900000 -0.300000
v 1.920000 0.900000 -0.700000
v -1.920000 1.000000 0.700000
v -1.920000 1.000000 0.800000
v -1.920000 1.000000 0.300000
v -1.920000 0.900000 -0.300000
v -1.920000 0.900000 -0.700000
v 1.920000 1.000000 0.200000
v 1.920000 1.100000 0.200000
v 1.920000 1.100000 -0.300000
v -1.920000 1.000000 0.200000
v -1.920000 1.100000 0.200000
v -1.920000 1.100000 -0.300000
v 1.920000 1.100000 0.100000
v 1.920000 1.200000 0.100000
v 1.920000 1.100000 -0.200000
v 1.920000 1.200000 -0.200000
v 1.920000 1.200000 -0.600000
v 1.920000 1.200000 -0.700000
v -1.920000 1.100000 0.100000
v -1.920000 1.200000 0.100000
v -1.920000 1.200000 -0.200000
v -1.920000 1.100000 -0.200000
v -1.920000 1.200000 -0.600000
v -1.920000 1.200000 -0.700000
v 1.920000 1.300000 0.700000
v 1.920000 1.300000 0.600000
v 1.920000 1.300000 -0.500000
v 1.920000 1.300000 -0.600000
v -1.920000 1.300000 0.600000
v -1.920000 1.300000 0.700000
v -1.920000 1.300000 -0.500000
v -1.920000 1.300000 -0.600000
v 1.920000 1.400000 0.600000
v 1.920000 1.400000 0.500000
v 1.920000 1.400000 -0.400000
v 1.920000 1.400000 -0.500000
v -1.920000 1.400000 0.500000
v -1.920000 1.400000 0.600000
v -1.920000 1.400000 -0.400000
v -1.920000 1.400000 -0.500000
v 1.920000 1.500000 0.500000
v 1.920000 1.500000 0.400000
v 1.920000 1.500000 -0.300000
v 1.920000 1.500000 -0.400000
v -1.920000 1.500000 0.400000
v -1.920000 1.500000 0.500000
v -1.920000 1.500000 -0.300000
v -1.920000 1.500000 -0.400000
v 1.920000 1.600000 0.400000
v 1.920000 1.600000 -0.300000
v -1.920000 1.600000 0.400000
v -1.920000 1.600000 -0.300000
vn -0.0000 1.0000 -0.0000
vn 1.0000 -0.0000 -0.0000
vn -0.0000 -0.0000 -1.0000
vn -0.0000 -1.0000 -0.0000
vn -0.0000 -0.0000 1.0000
vn -1.0000 -0.0000 -0.0000
vt -0.693468 0.375567
vt 1.702210 0.375567
vt 1.702210 0.812278
vt 1.702210 0.874666
vt -0.693468 0.126017
vt 1.702210 0.188404
vt 1.702210 0.126017
vt -0.693468 0.625116
vt 1.702210 0.625116
vt -0.693468 0.937053
vt 1.702210 0.999441
vt -0.693468 0.999441
vt -0.693468 0.313179
vt 1.702210 0.313179
vt -0.693468 0.001242
vt 1.702210 0.063629
vt 1.702210 0.001242
vt 1.702210 0.001242
vt -0.693468 0.001242
vt -0.693468 0.874666
vt -0.693468 0.812278
vt -0.693468 0.749891
vt 1.702210 0.812279
vt -0.693468 0.687504
vt 1.702210 0.687504
vt -0.693468 0.812279
vt -0.693468 0.063629
vt -0.693468 0.188404
vt 1.702210 0.937053
vt 1.702210 0.250791
vt -0.693468 0.188404
vt 1.702210 0.749891
vt -0.693468 0.250791
vt -0.693468 0.562729
vt -0.693468 0.500341
vt 1.702210 0.500341
vt 1.702210 0.562729
vt 1.702210 0.188404
vt -0.693468 0.063629
vt 1.702210 0.063629
s 0
f 36/1/1 33/2/1 34/2/1
f 75/3/2 84/4/2 83/4/2
f 15/5/3 19/6/3 12/7/3
f 58/8/4 55/9/4 47/9/4
f 93/10/5 97/11/5 99/12/5
f 32/13/1 31/13/1 29/14/1
f 9/15/3 5/16/3 4/17/3
f 1/18/4 7/19/4 9/15/4
f 87/20/6 79/21/6 69/22/6
f 95/10/3 100/12/3 98/11/3
f 74/23/2 46/9/2 47/9/2
f 58/8/3 59/24/3 56/25/3
f 50/8/6 77/26/6 52/8/6
f 16/5/1 12/7/1 13/7/1
f 8/27/6 10/27/6 9/15/6
f 15/5/6 16/5/6 8/27/6
f 7/19/6 6/27/6 21/28/6
f 33/2/3 52/8/3 47/9/3
f 3/16/2 13/7/2 12/7/2
f 9/15/6 7/19/6 8/27/6
f 93/10/5 90/29/5 97/11/5
f 85/20/6 68/22/6 59/24/6
f 2/16/2 24/30/2 29/14/2
f 82/4/2 74/23/2 56/25/2
f 20/31/6 26/31/6 51/8/6
f 2/16/2 18/6/2 24/30/2
f 73/23/5 50/8/5 46/9/5
f 47/9/2 56/25/2 74/23/2
f 77/26/6 86/20/6 85/20/6
f 10/27/1 3/16/1 5/16/1
f 74/23/2 73/23/2 46/9/2
f 62/32/2 82/4/2 56/25/2
f 28/33/1 24/30/1 25/30/1
f 88/20/3 84/4/3 75/3/3
f 90/29/2 82/4/2 62/32/2
f 2/16/2 1/18/2 18/6/2
f 21/28/6 22/28/6 15/5/6
f 71/22/6 54/34/6 44/34/6
f 44/34/6 43/35/6 42/35/6
f 10/27/1 8/27/1 3/16/1
f 32/13/1 29/14/1 30/14/1
f 71/22/6 44/34/6 41/34/6
f 42/35/4 43/35/4 39/36/4
f 8/27/6 7/19/6 15/5/6
f 62/32/4 68/22/4 69/22/4
f 79/21/6 71/22/6 60/24/6
f 42/35/5 37/36/5 38/37/5
f 95/10/6 87/20/6 69/22/6
f 65/32/2 76/3/2 75/3/2
f 38/37/2 40/37/2 65/32/2
f 73/23/5 78/26/5 50/8/5
f 80/21/3 76/3/3 65/32/3
f 71/22/6 72/22/6 54/34/6
f 64/32/2 91/29/2 62/32/2
f 75/3/2 83/4/2 64/32/2
f 41/34/6 53/34/6 60/24/6
f 31/13/6 32/13/6 27/33/6
f 20/31/6 51/8/6 50/8/6
f 26/31/4 17/38/4 23/38/4
f 95/10/6 69/22/6 68/22/6
f 21/28/6 6/27/6 27/33/6
f 95/10/3 98/11/3 91/29/3
f 29/14/2 33/2/2 17/38/2
f 12/7/2 19/6/2 18/6/2
f 85/20/1 81/4/1 82/4/1
f 28/33/1 27/33/1 24/30/1
f 85/20/1 86/20/1 81/4/1
f 31/13/3 36/1/3 34/2/3
f 42/35/4 39/36/4 37/36/4
f 1/18/2 12/7/2 18/6/2
f 6/27/5 1/18/5 2/16/5
f 57/25/5 60/24/5 53/34/5
f 14/39/4 2/16/4 11/40/4
f 91/29/2 98/11/2 97/11/2
f 58/8/4 47/9/4 52/8/4
f 50/8/6 78/26/6 77/26/6
f 80/21/1 79/21/1 75/3/1
f 32/13/3 24/30/3 27/33/3
f 54/34/4 49/37/4 40/37/4
f 43/35/3 44/34/3 40/37/3
f 6/27/6 20/31/6 31/13/6
f 67/24/4 61/25/4 56/25/4
f 94/10/1 89/29/1 90/29/1
f 46/9/2 17/38/2 33/2/2
f 46/9/2 45/9/2 23/38/2
f 20/31/6 50/8/6 35/1/6
f 49/37/3 72/22/3 66/32/3
f 53/34/4 38/37/4 48/37/4
f 64/32/2 57/25/2 75/3/2
f 16/5/1 15/5/1 12/7/1
f 51/8/1 46/9/1 50/8/1
f 42/35/5 38/37/5 41/34/5
f 17/38/2 2/16/2 29/14/2
f 31/13/3 34/2/3 29/14/3
f 14/39/4 6/27/4 2/16/4
f 36/1/1 35/1/1 33/2/1
f 47/9/2 46/9/2 33/2/2
f 31/13/6 27/33/6 6/27/6
f 86/20/5 74/23/5 81/4/5
f 24/30/2 30/14/2 29/14/2
f 8/27/3 16/5/3 13/7/3
f 91/29/2 90/29/2 62/32/2
f 46/9/2 23/38/2 17/38/2
f 47/9/2 55/9/2 56/25/2
f 72/22/1 71/22/1 65/32/1
f 54/34/4 40/37/4 44/34/4
f 97/11/1 98/11/1 100/12/1
f 93/10/6 100/12/6 95/10/6
f 17/38/5 20/31/5 14/39/5
f 8/27/3 13/7/3 3/16/3
f 29/14/2 34/2/2 33/2/2
f 68/22/3 62/32/3 61/25/3
f 33/2/3 35/1/3 52/8/3
f 1/18/2 4/17/2 3/16/2
f 1/18/2 3/16/2 12/7/2
f 88/20/1 87/20/1 83/4/1
f 70/24/4 60/24/4 57/25/4
f 87/20/3 92/29/3 83/4/3
f 35/1/6 31/13/6 20/31/6
f 17/38/2 11/40/2 2/16/2
f 91/29/2 97/11/2 90/29/2
f 51/8/1 45/9/1 46/9/1
f 56/25/2 61/25/2 62/32/2
f 72/22/1 65/32/1 66/32/1
f 57/25/2 38/37/2 65/32/2
f 86/20/5 77/26/5 74/23/5
f 27/33/6 28/33/6 21/28/6
f 77/26/1 78/26/1 73/23/1
f 4/17/2 5/16/2 3/16/2
f 38/37/2 37/36/2 39/36/2
f 58/8/3 56/25/3 55/9/3
f 87/20/3 96/10/3 92/29/3
f 90/29/2 89/29/2 82/4/2
f 88/20/1 83/4/1 84/4/1
f 57/25/2 48/37/2 38/37/2
f 38/37/2 39/36/2 40/37/2
f 93/10/6 95/10/6 68/22/6
f 15/5/3 22/28/3 19/6/3
f 70/24/5 63/25/5 64/32/5
f 68/22/3 61/25/3 67/24/3
f 70/24/5 64/32/5 69/22/5
f 95/10/6 96/10/6 87/20/6
f 40/37/2 49/37/2 66/32/2
f 96/10/1 91/29/1 92/29/1
f 77/26/1 73/23/1 74/23/1
f 60/24/6 70/24/6 69/22/6
f 64/32/2 63/25/2 57/25/2
f 6/27/6 14/39/6 20/31/6
f 17/38/5 14/39/5 11/40/5
f 44/34/6 42/35/6 41/34/6
f 59/24/6 58/8/6 52/8/6
f 94/10/1 90/29/1 93/10/1
f 21/28/3 28/33/3 25/30/3
f 32/13/3 30/14/3 24/30/3
f 87/20/6 88/20/6 79/21/6
f 35/1/6 36/1/6 31/13/6
f 97/11/1 100/12/1 99/12/1
f 80/21/1 75/3/1 76/3/1
f 15/5/6 7/19/6 21/28/6
f 53/34/4 41/34/4 38/37/4
f 79/21/6 80/21/6 71/22/6
f 83/4/2 91/29/2 64/32/2
f 83/4/2 92/29/2 91/29/2
f 51/8/5 23/38/5 45/9/5
f 88/20/3 75/3/3 79/21/3
f 65/32/2 75/3/2 57/25/2
f 82/4/2 81/4/2 74/23/2
f 6/27/5 7/19/5 1/18/5
f 68/22/6 67/24/6 59/24/6
f 49/37/3 54/34/3 72/22/3
f 67/24/4 56/25/4 59/24/4
f 40/37/2 66/32/2 65/32/2
f 69/22/6 79/21/6 60/24/6
f 26/31/4 20/31/4 17/38/4
f 94/10/5 82/4/5 89/29/5
f 70/24/4 57/25/4 63/25/4
f 62/32/4 69/22/4 64/32/4
f 71/22/6 41/34/6 60/24/6
f 43/35/3 40/37/3 39/36/3
f 85/20/6 93/10/6 68/22/6
f 94/10/5 85/20/5 82/4/5
f 80/21/3 65/32/3 71/22/3
f 21/28/3 25/30/3 18/6/3
f 1/18/4 9/15/4 4/17/4
f 59/24/6 52/8/6 85/20/6
f 51/8/5 26/31/5 23/38/5
f 96/10/1 95/10/1 91/29/1
f 35/1/6 50/8/6 52/8/6
f 85/20/6 94/10/6 93/10/6
f 93/10/6 99/12/6 100/12/6
f 9/15/3 10/27/3 5/16/3
f 18/6/2 25/30/2 24/30/2
f 77/26/6 85/20/6 52/8/6
f 19/6/1 21/28/1 18/6/1
f 19/6/1 22/28/1 21/28/1
f 57/25/5 53/34/5 48/37/5
