# Created by Kenney (www.kenney.nl)

mtllib Bat_Wing_1_L.mtl

v 4 8 -1.5
v 4 6 -1.5
v 4 8 1.5
v 4 6 1.5
v 3 8 -1.5
v 3 8 1.5
v 3 6 1.5
v 3 6 -1.5
v 3 7 -1.5
v 3 7 1.5
v -3 7 -1.5
v -3 7 1.5
v -3 6 1.5
v -3 6 -1.5
v 5 6 -1.5
v 5 -1 -1.5
v 5 6 1.5
v 5 -1 1.5
v 4 -1 1.5
v 4 -1 -1.5
v 4 6 -1
v 4 4 -1
v 4 6 1
v 4 4 1
v -3 6 -1
v -3 6 1
v -3 4 1
v -3 4 -1
v -3 5 -1.5
v -3 5 1.5
v -5 6 -1.5
v -5 6 1.5
v -5 5 1.5
v -5 5 -1.5
v -3 5 -1
v -3 3 -1
v -3 5 1
v -3 3 1
v -5 5 -1
v -5 5 1
v -5 3 1
v -5 3 -1
v -5 4 -1.5
v -5 4 1.5
v -7 5 -1.5
v -7 5 1.5
v -7 4 1.5
v -7 4 -1.5
v 4 4 -1.5
v 4 3 -1.5
v 4 4 1.5
v 4 3 1.5
v 2 4 -1.5
v 2 4 1.5
v 2 3 1.5
v 2 3 -1.5
v 2 4 -0.5
v 2 3 -0.5
v 2 4 0.5
v 2 3 0.5
v 0 4 -0.5
v 0 4 0.5
v 0 3 0.5
v 0 3 -0.5
v -1 4 -0.5
v -1 4 0.5
v -1 3 0.5
v -1 3 -0.5
v -1 1 -0.5
v -1 1 0.5
v -3 4 -0.5
v -3 4 0.5
v -3 1 0.5
v -3 1 -0.5
v -5 4 -1
v -5 2 -1
v -5 4 1
v -5 2 1
v -6 4 -1
v -6 4 1
v -6 2 1
v -6 2 -1
v -6 3 -1
v -6 3 1
v -7 4 -1
v -7 4 1
v -7 3 1
v -7 3 -1
v -7 3 -1.5
v -7 3 1.5
v -8 4 -1.5
v -8 4 1.5
v -8 3 1.5
v -8 3 -1.5
v 6 3 -1.5
v 6 1 -1.5
v 6 3 1.5
v 6 1 1.5
v 5 3 -1.5
v 5 3 1.5
v 5 1 1.5
v 5 1 -1.5
v 4 3 -1
v 4 1 -1
v 4 3 1
v 4 1 1
v 2 3 -1
v 2 3 1
v 2 1 1
v 2 1 -1
v 2 2 -1.5
v 2 2 1.5
v 0 3 -1.5
v 0 3 1.5
v 0 2 1.5
v 0 2 -1.5
v 0 2 -0.5
v 0 2 0.5
v -1 2 0.5
v -1 2 -0.5
v -3 3 -0.5
v -3 -1 -0.5
v -3 3 0.5
v -3 -1 0.5
v -4 3 -0.5
v -4 3 0.5
v -4 -1 0.5
v -4 -1 -0.5
v -4 3 -1
v -4 2 -1
v -4 3 1
v -4 2 1
v -6 3 -1.5
v -6 2 -1.5
v -6 3 1.5
v -6 2 1.5
v -7 2 1.5
v -7 2 -1.5
v 7 2 -1.5
v 7 0 -1.5
v 7 2 1.5
v 7 0 1.5
v 6 2 -1.5
v 6 2 1.5
v 6 0 1.5
v 6 0 -1.5
v 2 2 -1
v 2 0 -1
v 2 2 1
v 2 0 1
v 1 2 -1
v 1 2 1
v 1 0 1
v 1 0 -1
v 1 2 -1.5
v 1 1 -1.5
v 1 2 1.5
v 1 1 1.5
v -1 2 -1.5
v -1 2 1.5
v -1 1 1.5
v -1 1 -1.5
v -4 2 -0.5
v -4 1 -0.5
v -4 2 0.5
v -4 1 0.5
v -5 2 -0.5
v -5 2 0.5
v -5 1 0.5
v -5 1 -0.5
v -5 2 -1.5
v -5 0 -1.5
v -5 2 1.5
v -5 0 1.5
v -6 0 1.5
v -6 0 -1.5
v 6 1 -1
v 6 -2 -1
v 6 1 1
v 6 -2 1
v 5 1 -1
v 5 1 1
v 5 -2 1
v 5 -2 -1
v 4 1 -0.5
v 4 0 -0.5
v 4 1 0.5
v 4 0 0.5
v 2 1 -0.5
v 2 1 0.5
v 2 0 0.5
v 2 0 -0.5
v 1 1 -1
v 1 -1 -1
v 1 1 1
v 1 -1 1
v 0 1 -1
v 0 1 1
v 0 -1 1
v 0 -1 -1
v 0 1 -1.5
v 0 0 -1.5
v 0 1 1.5
v 0 0 1.5
v -2 1 -1.5
v -2 1 1.5
v -2 0 1.5
v -2 0 -1.5
v -2 1 -0.5
v -2 0 -0.5
v -2 1 0.5
v -2 0 0.5
v -3 0 0.5
v -3 0 -0.5
v -4 1 -1.5
v -4 -4 -1.5
v -4 1 1.5
v -4 -4 1.5
v -5 1 -1.5
v -5 1 1.5
v -5 -4 1.5
v -5 -4 -1.5
v 8 0 -1.5
v 8 -3 -1.5
v 8 0 1.5
v 8 -3 1.5
v 7 -3 1.5
v 7 -3 -1.5
v 7 0 -1
v 7 -2 -1
v 7 0 1
v 7 -2 1
v 6 0 -1
v 6 0 1
v 4 0 -1.5
v 4 -3 -1.5
v 4 0 1.5
v 4 -3 1.5
v 3 0 -1.5
v 3 0 1.5
v 3 -3 1.5
v 3 -3 -1.5
v 3 0 -0.5
v 3 -2 -0.5
v 3 0 0.5
v 3 -2 0.5
v 1 0 -0.5
v 1 0 0.5
v 1 -2 0.5
v 1 -2 -0.5
v 0 0 -1
v 0 -2 -1
v 0 0 1
v 0 -2 1
v -1 0 -1
v -1 0 1
v -1 -2 1
v -1 -2 -1
v -1 0 -1.5
v -1 -1 -1.5
v -1 0 1.5
v -1 -1 1.5
v -3 0 -1.5
v -3 0 1.5
v -3 -1 1.5
v -3 -1 -1.5
v 5 -1 -1
v 5 -4 -1
v 5 -1 1
v 5 -4 1
v 4 -1 -1
v 4 -1 1
v 4 -4 1
v 4 -4 -1
v 1 -1 -0.5
v 1 -5 -0.5
v 1 -1 0.5
v 1 -5 0.5
v 0 -1 -0.5
v 0 -1 0.5
v 0 -5 0.5
v 0 -5 -0.5
v -1 -1 -1
v -1 -1 1
v -2 -1 -1
v -2 -1 1
v -2 -2 1
v -2 -2 -1
v -2 -1 -1.5
v -2 -3 -1.5
v -2 -1 1.5
v -2 -3 1.5
v -4 -1 -1.5
v -4 -1 1.5
v -4 -3 1.5
v -4 -3 -1.5
v 7 -2 -1.5
v 7 -8 -1.5
v 7 -2 1.5
v 7 -8 1.5
v 6 -2 -1.5
v 6 -2 1.5
v 6 -8 1.5
v 6 -8 -1.5
v 6 -2 -0.5
v 6 -6 -0.5
v 6 -2 0.5
v 6 -6 0.5
v 5 -2 -0.5
v 5 -2 0.5
v 5 -6 0.5
v 5 -6 -0.5
v 3 -2 -1.5
v 3 -4 -1.5
v 3 -2 1.5
v 3 -4 1.5
v 2 -2 -1.5
v 2 -2 1.5
v 2 -4 1.5
v 2 -4 -1.5
v 2 -2 -0.5
v 2 -4 -0.5
v 2 -2 0.5
v 2 -4 0.5
v 1 -4 0.5
v 1 -4 -0.5
v 0 -2 -0.5
v 0 -3 -0.5
v 0 -2 0.5
v 0 -3 0.5
v -1 -2 -0.5
v -1 -2 0.5
v -1 -3 0.5
v -1 -3 -0.5
v -1 -2 -1.5
v -1 -3 -1.5
v -1 -2 1.5
v -1 -3 1.5
v -2 -2 -1.5
v -2 -2 1.5
v 4 -3 -1
v 4 -5 -1
v 4 -3 1
v 4 -5 1
v 3 -3 -1
v 3 -3 1
v 3 -5 1
v 3 -5 -1
v 0 -3 -1.5
v 0 -5 -1.5
v 0 -3 1.5
v 0 -5 1.5
v -1 -5 1.5
v -1 -5 -1.5
v -5 -3 -1.5
v -5 -3 1.5
v -6 -3 -1.5
v -6 -3 1.5
v -6 -4 1.5
v -6 -4 -1.5
v 5 -4 -0.5
v 5 -5 -0.5
v 5 -4 0.5
v 5 -5 0.5
v 4 -4 -0.5
v 4 -4 0.5
v 4 -5 0.5
v 4 -5 -0.5
v 3 -4 -1
v 3 -6 -1
v 3 -4 1
v 3 -6 1
v 2 -4 -1
v 2 -4 1
v 2 -6 1
v 2 -6 -1
v 2 -7 -1.5
v 2 -7 1.5
v 1 -4 -1.5
v 1 -4 1.5
v 1 -7 1.5
v 1 -7 -1.5
v 5 -5 -1.5
v 5 -6 -1.5
v 5 -5 1.5
v 5 -6 1.5
v 3 -5 -1.5
v 3 -5 1.5
v 3 -6 1.5
v 3 -6 -1.5
v 1 -5 -1.5
v 1 -6 -1.5
v 1 -5 1.5
v 1 -6 1.5
v 0 -6 1.5
v 0 -6 -1.5
v 6 -6 -1.5
v 6 -7 -1.5
v 6 -6 1.5
v 6 -7 1.5
v 5 -7 1.5
v 5 -7 -1.5
v 3 -7 -1.5
v 3 -7 1.5
v 2 -6 -1.5
v 2 -6 1.5
v 8 -7 -1.5
v 8 -8 -1.5
v 8 -7 1.5
v 8 -8 1.5
v 7 -7 -1.5
v 7 -7 1.5

vn 1 0 0
vn 0 1 0
vn 0 -1 0
vn -1 0 0
vn 0 0 -1
vn 0 0 1

vt 0.0625 0.0625
vt 0.3125 0.0625

usemtl Bat_Wing_1_L

f 3/1/1 2/1/1 1/1/1
f 2/1/1 3/1/1 4/1/1
f 5/1/2 3/1/2 1/1/2
f 3/1/2 5/1/2 6/1/2
f 7/1/3 2/1/3 4/1/3
f 2/1/3 7/1/3 8/1/3
f 7/1/4 5/1/4 8/1/4
f 5/1/4 7/1/4 6/1/4
f 5/1/5 2/1/5 8/1/5
f 2/1/5 5/1/5 1/1/5
f 3/1/6 7/1/6 4/1/6
f 7/1/6 3/1/6 6/1/6
f 10/1/1 8/1/1 9/1/1
f 8/1/1 10/1/1 7/1/1
f 11/1/2 10/1/2 9/1/2
f 10/1/2 11/1/2 12/1/2
f 13/1/3 8/1/3 7/1/3
f 8/1/3 13/1/3 14/1/3
f 13/1/4 11/1/4 14/1/4
f 11/1/4 13/1/4 12/1/4
f 11/1/5 8/1/5 14/1/5
f 8/1/5 11/1/5 9/1/5
f 10/1/6 13/1/6 7/1/6
f 13/1/6 10/1/6 12/1/6
f 17/1/1 16/1/1 15/1/1
f 16/1/1 17/1/1 18/1/1
f 2/1/2 17/1/2 15/1/2
f 17/1/2 2/1/2 4/1/2
f 19/1/3 16/1/3 18/1/3
f 16/1/3 19/1/3 20/1/3
f 19/1/4 2/1/4 20/1/4
f 2/1/4 19/1/4 4/1/4
f 2/1/5 16/1/5 20/1/5
f 16/1/5 2/1/5 15/1/5
f 17/1/6 19/1/6 18/1/6
f 19/1/6 17/1/6 4/1/6
f 23/2/1 22/2/1 21/2/1
f 22/2/1 23/2/1 24/2/1
f 25/2/2 23/2/2 21/2/2
f 23/2/2 25/2/2 26/2/2
f 27/2/3 22/2/3 24/2/3
f 22/2/3 27/2/3 28/2/3
f 27/2/4 25/2/4 28/2/4
f 25/2/4 27/2/4 26/2/4
f 25/2/5 22/2/5 28/2/5
f 22/2/5 25/2/5 21/2/5
f 23/2/6 27/2/6 24/2/6
f 27/2/6 23/2/6 26/2/6
f 13/1/1 29/1/1 14/1/1
f 29/1/1 13/1/1 30/1/1
f 31/1/2 13/1/2 14/1/2
f 13/1/2 31/1/2 32/1/2
f 33/1/3 29/1/3 30/1/3
f 29/1/3 33/1/3 34/1/3
f 33/1/4 31/1/4 34/1/4
f 31/1/4 33/1/4 32/1/4
f 31/1/5 29/1/5 34/1/5
f 29/1/5 31/1/5 14/1/5
f 13/1/6 33/1/6 30/1/6
f 33/1/6 13/1/6 32/1/6
f 37/2/1 36/2/1 35/2/1
f 36/2/1 37/2/1 38/2/1
f 39/2/2 37/2/2 35/2/2
f 37/2/2 39/2/2 40/2/2
f 41/2/3 36/2/3 38/2/3
f 36/2/3 41/2/3 42/2/3
f 41/2/4 39/2/4 42/2/4
f 39/2/4 41/2/4 40/2/4
f 39/2/5 36/2/5 42/2/5
f 36/2/5 39/2/5 35/2/5
f 37/2/6 41/2/6 38/2/6
f 41/2/6 37/2/6 40/2/6
f 33/1/1 43/1/1 34/1/1
f 43/1/1 33/1/1 44/1/1
f 45/1/2 33/1/2 34/1/2
f 33/1/2 45/1/2 46/1/2
f 47/1/3 43/1/3 44/1/3
f 43/1/3 47/1/3 48/1/3
f 47/1/4 45/1/4 48/1/4
f 45/1/4 47/1/4 46/1/4
f 45/1/5 43/1/5 48/1/5
f 43/1/5 45/1/5 34/1/5
f 33/1/6 47/1/6 44/1/6
f 47/1/6 33/1/6 46/1/6
f 51/1/1 50/1/1 49/1/1
f 50/1/1 51/1/1 52/1/1
f 53/1/2 51/1/2 49/1/2
f 51/1/2 53/1/2 54/1/2
f 55/1/3 50/1/3 52/1/3
f 50/1/3 55/1/3 56/1/3
f 55/1/4 53/1/4 56/1/4
f 53/1/4 55/1/4 54/1/4
f 53/1/5 50/1/5 56/1/5
f 50/1/5 53/1/5 49/1/5
f 51/1/6 55/1/6 52/1/6
f 55/1/6 51/1/6 54/1/6
f 59/2/1 58/2/1 57/2/1
f 58/2/1 59/2/1 60/2/1
f 61/2/2 59/2/2 57/2/2
f 59/2/2 61/2/2 62/2/2
f 63/2/3 58/2/3 60/2/3
f 58/2/3 63/2/3 64/2/3
f 63/2/4 61/2/4 64/2/4
f 61/2/4 63/2/4 62/2/4
f 61/2/5 58/2/5 64/2/5
f 58/2/5 61/2/5 57/2/5
f 59/2/6 63/2/6 60/2/6
f 63/2/6 59/2/6 62/2/6
f 62/2/1 64/2/1 61/2/1
f 64/2/1 62/2/1 63/2/1
f 65/2/2 62/2/2 61/2/2
f 62/2/2 65/2/2 66/2/2
f 67/2/3 64/2/3 63/2/3
f 64/2/3 67/2/3 68/2/3
f 67/2/4 65/2/4 68/2/4
f 65/2/4 67/2/4 66/2/4
f 65/2/5 64/2/5 68/2/5
f 64/2/5 65/2/5 61/2/5
f 62/2/6 67/2/6 63/2/6
f 67/2/6 62/2/6 66/2/6
f 66/2/1 69/2/1 65/2/1
f 69/2/1 66/2/1 70/2/1
f 71/2/2 66/2/2 65/2/2
f 66/2/2 71/2/2 72/2/2
f 73/2/3 69/2/3 70/2/3
f 69/2/3 73/2/3 74/2/3
f 73/2/4 71/2/4 74/2/4
f 71/2/4 73/2/4 72/2/4
f 71/2/5 69/2/5 74/2/5
f 69/2/5 71/2/5 65/2/5
f 66/2/6 73/2/6 70/2/6
f 73/2/6 66/2/6 72/2/6
f 77/2/1 76/2/1 75/2/1
f 76/2/1 77/2/1 78/2/1
f 79/2/2 77/2/2 75/2/2
f 77/2/2 79/2/2 80/2/2
f 81/2/3 76/2/3 78/2/3
f 76/2/3 81/2/3 82/2/3
f 81/2/4 79/2/4 82/2/4
f 79/2/4 81/2/4 80/2/4
f 79/2/5 76/2/5 82/2/5
f 76/2/5 79/2/5 75/2/5
f 77/2/6 81/2/6 78/2/6
f 81/2/6 77/2/6 80/2/6
f 80/2/1 83/2/1 79/2/1
f 83/2/1 80/2/1 84/2/1
f 85/2/2 80/2/2 79/2/2
f 80/2/2 85/2/2 86/2/2
f 87/2/3 83/2/3 84/2/3
f 83/2/3 87/2/3 88/2/3
f 87/2/4 85/2/4 88/2/4
f 85/2/4 87/2/4 86/2/4
f 85/2/5 83/2/5 88/2/5
f 83/2/5 85/2/5 79/2/5
f 80/2/6 87/2/6 84/2/6
f 87/2/6 80/2/6 86/2/6
f 47/1/1 89/1/1 48/1/1
f 89/1/1 47/1/1 90/1/1
f 91/1/2 47/1/2 48/1/2
f 47/1/2 91/1/2 92/1/2
f 93/1/3 89/1/3 90/1/3
f 89/1/3 93/1/3 94/1/3
f 93/1/4 91/1/4 94/1/4
f 91/1/4 93/1/4 92/1/4
f 91/1/5 89/1/5 94/1/5
f 89/1/5 91/1/5 48/1/5
f 47/1/6 93/1/6 90/1/6
f 93/1/6 47/1/6 92/1/6
f 97/1/1 96/1/1 95/1/1
f 96/1/1 97/1/1 98/1/1
f 99/1/2 97/1/2 95/1/2
f 97/1/2 99/1/2 100/1/2
f 101/1/3 96/1/3 98/1/3
f 96/1/3 101/1/3 102/1/3
f 101/1/4 99/1/4 102/1/4
f 99/1/4 101/1/4 100/1/4
f 99/1/5 96/1/5 102/1/5
f 96/1/5 99/1/5 95/1/5
f 97/1/6 101/1/6 98/1/6
f 101/1/6 97/1/6 100/1/6
f 105/2/1 104/2/1 103/2/1
f 104/2/1 105/2/1 106/2/1
f 107/2/2 105/2/2 103/2/2
f 105/2/2 107/2/2 108/2/2
f 109/2/3 104/2/3 106/2/3
f 104/2/3 109/2/3 110/2/3
f 109/2/4 107/2/4 110/2/4
f 107/2/4 109/2/4 108/2/4
f 107/2/5 104/2/5 110/2/5
f 104/2/5 107/2/5 103/2/5
f 105/2/6 109/2/6 106/2/6
f 109/2/6 105/2/6 108/2/6
f 55/1/1 111/1/1 56/1/1
f 111/1/1 55/1/1 112/1/1
f 113/1/2 55/1/2 56/1/2
f 55/1/2 113/1/2 114/1/2
f 115/1/3 111/1/3 112/1/3
f 111/1/3 115/1/3 116/1/3
f 115/1/4 113/1/4 116/1/4
f 113/1/4 115/1/4 114/1/4
f 113/1/5 111/1/5 116/1/5
f 111/1/5 113/1/5 56/1/5
f 55/1/6 115/1/6 112/1/6
f 115/1/6 55/1/6 114/1/6
f 63/2/1 117/2/1 64/2/1
f 117/2/1 63/2/1 118/2/1
f 68/2/2 63/2/2 64/2/2
f 63/2/2 68/2/2 67/2/2
f 119/2/3 117/2/3 118/2/3
f 117/2/3 119/2/3 120/2/3
f 119/2/4 68/2/4 120/2/4
f 68/2/4 119/2/4 67/2/4
f 68/2/5 117/2/5 120/2/5
f 117/2/5 68/2/5 64/2/5
f 63/2/6 119/2/6 118/2/6
f 119/2/6 63/2/6 67/2/6
f 123/2/1 122/2/1 121/2/1
f 122/2/1 123/2/1 124/2/1
f 125/2/2 123/2/2 121/2/2
f 123/2/2 125/2/2 126/2/2
f 127/2/3 122/2/3 124/2/3
f 122/2/3 127/2/3 128/2/3
f 127/2/4 125/2/4 128/2/4
f 125/2/4 127/2/4 126/2/4
f 125/2/5 122/2/5 128/2/5
f 122/2/5 125/2/5 121/2/5
f 123/2/6 127/2/6 124/2/6
f 127/2/6 123/2/6 126/2/6
f 131/2/1 130/2/1 129/2/1
f 130/2/1 131/2/1 132/2/1
f 42/2/2 131/2/2 129/2/2
f 131/2/2 42/2/2 41/2/2
f 78/2/3 130/2/3 132/2/3
f 130/2/3 78/2/3 76/2/3
f 78/2/4 42/2/4 76/2/4
f 42/2/4 78/2/4 41/2/4
f 42/2/5 130/2/5 76/2/5
f 130/2/5 42/2/5 129/2/5
f 131/2/6 78/2/6 132/2/6
f 78/2/6 131/2/6 41/2/6
f 135/1/1 134/1/1 133/1/1
f 134/1/1 135/1/1 136/1/1
f 89/1/2 135/1/2 133/1/2
f 135/1/2 89/1/2 90/1/2
f 137/1/3 134/1/3 136/1/3
f 134/1/3 137/1/3 138/1/3
f 137/1/4 89/1/4 138/1/4
f 89/1/4 137/1/4 90/1/4
f 89/1/5 134/1/5 138/1/5
f 134/1/5 89/1/5 133/1/5
f 135/1/6 137/1/6 136/1/6
f 137/1/6 135/1/6 90/1/6
f 141/1/1 140/1/1 139/1/1
f 140/1/1 141/1/1 142/1/1
f 143/1/2 141/1/2 139/1/2
f 141/1/2 143/1/2 144/1/2
f 145/1/3 140/1/3 142/1/3
f 140/1/3 145/1/3 146/1/3
f 145/1/4 143/1/4 146/1/4
f 143/1/4 145/1/4 144/1/4
f 143/1/5 140/1/5 146/1/5
f 140/1/5 143/1/5 139/1/5
f 141/1/6 145/1/6 142/1/6
f 145/1/6 141/1/6 144/1/6
f 149/2/1 148/2/1 147/2/1
f 148/2/1 149/2/1 150/2/1
f 151/2/2 149/2/2 147/2/2
f 149/2/2 151/2/2 152/2/2
f 153/2/3 148/2/3 150/2/3
f 148/2/3 153/2/3 154/2/3
f 153/2/4 151/2/4 154/2/4
f 151/2/4 153/2/4 152/2/4
f 151/2/5 148/2/5 154/2/5
f 148/2/5 151/2/5 147/2/5
f 149/2/6 153/2/6 150/2/6
f 153/2/6 149/2/6 152/2/6
f 157/1/1 156/1/1 155/1/1
f 156/1/1 157/1/1 158/1/1
f 159/1/2 157/1/2 155/1/2
f 157/1/2 159/1/2 160/1/2
f 161/1/3 156/1/3 158/1/3
f 156/1/3 161/1/3 162/1/3
f 161/1/4 159/1/4 162/1/4
f 159/1/4 161/1/4 160/1/4
f 159/1/5 156/1/5 162/1/5
f 156/1/5 159/1/5 155/1/5
f 157/1/6 161/1/6 158/1/6
f 161/1/6 157/1/6 160/1/6
f 165/2/1 164/2/1 163/2/1
f 164/2/1 165/2/1 166/2/1
f 167/2/2 165/2/2 163/2/2
f 165/2/2 167/2/2 168/2/2
f 169/2/3 164/2/3 166/2/3
f 164/2/3 169/2/3 170/2/3
f 169/2/4 167/2/4 170/2/4
f 167/2/4 169/2/4 168/2/4
f 167/2/5 164/2/5 170/2/5
f 164/2/5 167/2/5 163/2/5
f 165/2/6 169/2/6 166/2/6
f 169/2/6 165/2/6 168/2/6
f 173/1/1 172/1/1 171/1/1
f 172/1/1 173/1/1 174/1/1
f 134/1/2 173/1/2 171/1/2
f 173/1/2 134/1/2 136/1/2
f 175/1/3 172/1/3 174/1/3
f 172/1/3 175/1/3 176/1/3
f 175/1/4 134/1/4 176/1/4
f 134/1/4 175/1/4 136/1/4
f 134/1/5 172/1/5 176/1/5
f 172/1/5 134/1/5 171/1/5
f 173/1/6 175/1/6 174/1/6
f 175/1/6 173/1/6 136/1/6
f 179/2/1 178/2/1 177/2/1
f 178/2/1 179/2/1 180/2/1
f 181/2/2 179/2/2 177/2/2
f 179/2/2 181/2/2 182/2/2
f 183/2/3 178/2/3 180/2/3
f 178/2/3 183/2/3 184/2/3
f 183/2/4 181/2/4 184/2/4
f 181/2/4 183/2/4 182/2/4
f 181/2/5 178/2/5 184/2/5
f 178/2/5 181/2/5 177/2/5
f 179/2/6 183/2/6 180/2/6
f 183/2/6 179/2/6 182/2/6
f 187/2/1 186/2/1 185/2/1
f 186/2/1 187/2/1 188/2/1
f 189/2/2 187/2/2 185/2/2
f 187/2/2 189/2/2 190/2/2
f 191/2/3 186/2/3 188/2/3
f 186/2/3 191/2/3 192/2/3
f 191/2/4 189/2/4 192/2/4
f 189/2/4 191/2/4 190/2/4
f 189/2/5 186/2/5 192/2/5
f 186/2/5 189/2/5 185/2/5
f 187/2/6 191/2/6 188/2/6
f 191/2/6 187/2/6 190/2/6
f 195/2/1 194/2/1 193/2/1
f 194/2/1 195/2/1 196/2/1
f 197/2/2 195/2/2 193/2/2
f 195/2/2 197/2/2 198/2/2
f 199/2/3 194/2/3 196/2/3
f 194/2/3 199/2/3 200/2/3
f 199/2/4 197/2/4 200/2/4
f 197/2/4 199/2/4 198/2/4
f 197/2/5 194/2/5 200/2/5
f 194/2/5 197/2/5 193/2/5
f 195/2/6 199/2/6 196/2/6
f 199/2/6 195/2/6 198/2/6
f 203/1/1 202/1/1 201/1/1
f 202/1/1 203/1/1 204/1/1
f 205/1/2 203/1/2 201/1/2
f 203/1/2 205/1/2 206/1/2
f 207/1/3 202/1/3 204/1/3
f 202/1/3 207/1/3 208/1/3
f 207/1/4 205/1/4 208/1/4
f 205/1/4 207/1/4 206/1/4
f 205/1/5 202/1/5 208/1/5
f 202/1/5 205/1/5 201/1/5
f 203/1/6 207/1/6 204/1/6
f 207/1/6 203/1/6 206/1/6
f 211/2/1 210/2/1 209/2/1
f 210/2/1 211/2/1 212/2/1
f 74/2/2 211/2/2 209/2/2
f 211/2/2 74/2/2 73/2/2
f 213/2/3 210/2/3 212/2/3
f 210/2/3 213/2/3 214/2/3
f 213/2/4 74/2/4 214/2/4
f 74/2/4 213/2/4 73/2/4
f 74/2/5 210/2/5 214/2/5
f 210/2/5 74/2/5 209/2/5
f 211/2/6 213/2/6 212/2/6
f 213/2/6 211/2/6 73/2/6
f 217/1/1 216/1/1 215/1/1
f 216/1/1 217/1/1 218/1/1
f 219/1/2 217/1/2 215/1/2
f 217/1/2 219/1/2 220/1/2
f 221/1/3 216/1/3 218/1/3
f 216/1/3 221/1/3 222/1/3
f 221/1/4 219/1/4 222/1/4
f 219/1/4 221/1/4 220/1/4
f 219/1/5 216/1/5 222/1/5
f 216/1/5 219/1/5 215/1/5
f 217/1/6 221/1/6 218/1/6
f 221/1/6 217/1/6 220/1/6
f 225/1/1 224/1/1 223/1/1
f 224/1/1 225/1/1 226/1/1
f 140/1/2 225/1/2 223/1/2
f 225/1/2 140/1/2 142/1/2
f 227/1/3 224/1/3 226/1/3
f 224/1/3 227/1/3 228/1/3
f 227/1/4 140/1/4 228/1/4
f 140/1/4 227/1/4 142/1/4
f 140/1/5 224/1/5 228/1/5
f 224/1/5 140/1/5 223/1/5
f 225/1/6 227/1/6 226/1/6
f 227/1/6 225/1/6 142/1/6
f 231/2/1 230/2/1 229/2/1
f 230/2/1 231/2/1 232/2/1
f 233/2/2 231/2/2 229/2/2
f 231/2/2 233/2/2 234/2/2
f 180/2/3 230/2/3 232/2/3
f 230/2/3 180/2/3 178/2/3
f 180/2/4 233/2/4 178/2/4
f 233/2/4 180/2/4 234/2/4
f 233/2/5 230/2/5 178/2/5
f 230/2/5 233/2/5 229/2/5
f 231/2/6 180/2/6 232/2/6
f 180/2/6 231/2/6 234/2/6
f 237/1/1 236/1/1 235/1/1
f 236/1/1 237/1/1 238/1/1
f 239/1/2 237/1/2 235/1/2
f 237/1/2 239/1/2 240/1/2
f 241/1/3 236/1/3 238/1/3
f 236/1/3 241/1/3 242/1/3
f 241/1/4 239/1/4 242/1/4
f 239/1/4 241/1/4 240/1/4
f 239/1/5 236/1/5 242/1/5
f 236/1/5 239/1/5 235/1/5
f 237/1/6 241/1/6 238/1/6
f 241/1/6 237/1/6 240/1/6
f 245/2/1 244/2/1 243/2/1
f 244/2/1 245/2/1 246/2/1
f 247/2/2 245/2/2 243/2/2
f 245/2/2 247/2/2 248/2/2
f 249/2/3 244/2/3 246/2/3
f 244/2/3 249/2/3 250/2/3
f 249/2/4 247/2/4 250/2/4
f 247/2/4 249/2/4 248/2/4
f 247/2/5 244/2/5 250/2/5
f 244/2/5 247/2/5 243/2/5
f 245/2/6 249/2/6 246/2/6
f 249/2/6 245/2/6 248/2/6
f 253/2/1 252/2/1 251/2/1
f 252/2/1 253/2/1 254/2/1
f 255/2/2 253/2/2 251/2/2
f 253/2/2 255/2/2 256/2/2
f 257/2/3 252/2/3 254/2/3
f 252/2/3 257/2/3 258/2/3
f 257/2/4 255/2/4 258/2/4
f 255/2/4 257/2/4 256/2/4
f 255/2/5 252/2/5 258/2/5
f 252/2/5 255/2/5 251/2/5
f 253/2/6 257/2/6 254/2/6
f 257/2/6 253/2/6 256/2/6
f 261/1/1 260/1/1 259/1/1
f 260/1/1 261/1/1 262/1/1
f 263/1/2 261/1/2 259/1/2
f 261/1/2 263/1/2 264/1/2
f 265/1/3 260/1/3 262/1/3
f 260/1/3 265/1/3 266/1/3
f 265/1/4 263/1/4 266/1/4
f 263/1/4 265/1/4 264/1/4
f 263/1/5 260/1/5 266/1/5
f 260/1/5 263/1/5 259/1/5
f 261/1/6 265/1/6 262/1/6
f 265/1/6 261/1/6 264/1/6
f 269/2/1 268/2/1 267/2/1
f 268/2/1 269/2/1 270/2/1
f 271/2/2 269/2/2 267/2/2
f 269/2/2 271/2/2 272/2/2
f 273/2/3 268/2/3 270/2/3
f 268/2/3 273/2/3 274/2/3
f 273/2/4 271/2/4 274/2/4
f 271/2/4 273/2/4 272/2/4
f 271/2/5 268/2/5 274/2/5
f 268/2/5 271/2/5 267/2/5
f 269/2/6 273/2/6 270/2/6
f 273/2/6 269/2/6 272/2/6
f 277/2/1 276/2/1 275/2/1
f 276/2/1 277/2/1 278/2/1
f 279/2/2 277/2/2 275/2/2
f 277/2/2 279/2/2 280/2/2
f 281/2/3 276/2/3 278/2/3
f 276/2/3 281/2/3 282/2/3
f 281/2/4 279/2/4 282/2/4
f 279/2/4 281/2/4 280/2/4
f 279/2/5 276/2/5 282/2/5
f 276/2/5 279/2/5 275/2/5
f 277/2/6 281/2/6 278/2/6
f 281/2/6 277/2/6 280/2/6
f 284/2/1 258/2/1 283/2/1
f 258/2/1 284/2/1 257/2/1
f 285/2/2 284/2/2 283/2/2
f 284/2/2 285/2/2 286/2/2
f 287/2/3 258/2/3 257/2/3
f 258/2/3 287/2/3 288/2/3
f 287/2/4 285/2/4 288/2/4
f 285/2/4 287/2/4 286/2/4
f 285/2/5 258/2/5 288/2/5
f 258/2/5 285/2/5 283/2/5
f 284/2/6 287/2/6 257/2/6
f 287/2/6 284/2/6 286/2/6
f 291/1/1 290/1/1 289/1/1
f 290/1/1 291/1/1 292/1/1
f 293/1/2 291/1/2 289/1/2
f 291/1/2 293/1/2 294/1/2
f 295/1/3 290/1/3 292/1/3
f 290/1/3 295/1/3 296/1/3
f 295/1/4 293/1/4 296/1/4
f 293/1/4 295/1/4 294/1/4
f 293/1/5 290/1/5 296/1/5
f 290/1/5 293/1/5 289/1/5
f 291/1/6 295/1/6 292/1/6
f 295/1/6 291/1/6 294/1/6
f 299/1/1 298/1/1 297/1/1
f 298/1/1 299/1/1 300/1/1
f 301/1/2 299/1/2 297/1/2
f 299/1/2 301/1/2 302/1/2
f 303/1/3 298/1/3 300/1/3
f 298/1/3 303/1/3 304/1/3
f 303/1/4 301/1/4 304/1/4
f 301/1/4 303/1/4 302/1/4
f 301/1/5 298/1/5 304/1/5
f 298/1/5 301/1/5 297/1/5
f 299/1/6 303/1/6 300/1/6
f 303/1/6 299/1/6 302/1/6
f 307/2/1 306/2/1 305/2/1
f 306/2/1 307/2/1 308/2/1
f 309/2/2 307/2/2 305/2/2
f 307/2/2 309/2/2 310/2/2
f 311/2/3 306/2/3 308/2/3
f 306/2/3 311/2/3 312/2/3
f 311/2/4 309/2/4 312/2/4
f 309/2/4 311/2/4 310/2/4
f 309/2/5 306/2/5 312/2/5
f 306/2/5 309/2/5 305/2/5
f 307/2/6 311/2/6 308/2/6
f 311/2/6 307/2/6 310/2/6
f 315/1/1 314/1/1 313/1/1
f 314/1/1 315/1/1 316/1/1
f 317/1/2 315/1/2 313/1/2
f 315/1/2 317/1/2 318/1/2
f 319/1/3 314/1/3 316/1/3
f 314/1/3 319/1/3 320/1/3
f 319/1/4 317/1/4 320/1/4
f 317/1/4 319/1/4 318/1/4
f 317/1/5 314/1/5 320/1/5
f 314/1/5 317/1/5 313/1/5
f 315/1/6 319/1/6 316/1/6
f 319/1/6 315/1/6 318/1/6
f 323/2/1 322/2/1 321/2/1
f 322/2/1 323/2/1 324/2/1
f 250/2/2 323/2/2 321/2/2
f 323/2/2 250/2/2 249/2/2
f 325/2/3 322/2/3 324/2/3
f 322/2/3 325/2/3 326/2/3
f 325/2/4 250/2/4 326/2/4
f 250/2/4 325/2/4 249/2/4
f 250/2/5 322/2/5 326/2/5
f 322/2/5 250/2/5 321/2/5
f 323/2/6 325/2/6 324/2/6
f 325/2/6 323/2/6 249/2/6
f 329/2/1 328/2/1 327/2/1
f 328/2/1 329/2/1 330/2/1
f 331/2/2 329/2/2 327/2/2
f 329/2/2 331/2/2 332/2/2
f 333/2/3 328/2/3 330/2/3
f 328/2/3 333/2/3 334/2/3
f 333/2/4 331/2/4 334/2/4
f 331/2/4 333/2/4 332/2/4
f 331/2/5 328/2/5 334/2/5
f 328/2/5 331/2/5 327/2/5
f 329/2/6 333/2/6 330/2/6
f 333/2/6 329/2/6 332/2/6
f 337/1/1 336/1/1 335/1/1
f 336/1/1 337/1/1 338/1/1
f 339/1/2 337/1/2 335/1/2
f 337/1/2 339/1/2 340/1/2
f 292/1/3 336/1/3 338/1/3
f 336/1/3 292/1/3 290/1/3
f 292/1/4 339/1/4 290/1/4
f 339/1/4 292/1/4 340/1/4
f 339/1/5 336/1/5 290/1/5
f 336/1/5 339/1/5 335/1/5
f 337/1/6 292/1/6 338/1/6
f 292/1/6 337/1/6 340/1/6
f 343/2/1 342/2/1 341/2/1
f 342/2/1 343/2/1 344/2/1
f 345/2/2 343/2/2 341/2/2
f 343/2/2 345/2/2 346/2/2
f 347/2/3 342/2/3 344/2/3
f 342/2/3 347/2/3 348/2/3
f 347/2/4 345/2/4 348/2/4
f 345/2/4 347/2/4 346/2/4
f 345/2/5 342/2/5 348/2/5
f 342/2/5 345/2/5 341/2/5
f 343/2/6 347/2/6 344/2/6
f 347/2/6 343/2/6 346/2/6
f 351/1/1 350/1/1 349/1/1
f 350/1/1 351/1/1 352/1/1
f 336/1/2 351/1/2 349/1/2
f 351/1/2 336/1/2 338/1/2
f 353/1/3 350/1/3 352/1/3
f 350/1/3 353/1/3 354/1/3
f 353/1/4 336/1/4 354/1/4
f 336/1/4 353/1/4 338/1/4
f 336/1/5 350/1/5 354/1/5
f 350/1/5 336/1/5 349/1/5
f 351/1/6 353/1/6 352/1/6
f 353/1/6 351/1/6 338/1/6
f 356/1/1 222/1/1 355/1/1
f 222/1/1 356/1/1 221/1/1
f 357/1/2 356/1/2 355/1/2
f 356/1/2 357/1/2 358/1/2
f 359/1/3 222/1/3 221/1/3
f 222/1/3 359/1/3 360/1/3
f 359/1/4 357/1/4 360/1/4
f 357/1/4 359/1/4 358/1/4
f 357/1/5 222/1/5 360/1/5
f 222/1/5 357/1/5 355/1/5
f 356/1/6 359/1/6 221/1/6
f 359/1/6 356/1/6 358/1/6
f 363/2/1 362/2/1 361/2/1
f 362/2/1 363/2/1 364/2/1
f 365/2/2 363/2/2 361/2/2
f 363/2/2 365/2/2 366/2/2
f 367/2/3 362/2/3 364/2/3
f 362/2/3 367/2/3 368/2/3
f 367/2/4 365/2/4 368/2/4
f 365/2/4 367/2/4 366/2/4
f 365/2/5 362/2/5 368/2/5
f 362/2/5 365/2/5 361/2/5
f 363/2/6 367/2/6 364/2/6
f 367/2/6 363/2/6 366/2/6
f 371/2/1 370/2/1 369/2/1
f 370/2/1 371/2/1 372/2/1
f 373/2/2 371/2/2 369/2/2
f 371/2/2 373/2/2 374/2/2
f 375/2/3 370/2/3 372/2/3
f 370/2/3 375/2/3 376/2/3
f 375/2/4 373/2/4 376/2/4
f 373/2/4 375/2/4 374/2/4
f 373/2/5 370/2/5 376/2/5
f 370/2/5 373/2/5 369/2/5
f 371/2/6 375/2/6 372/2/6
f 375/2/6 371/2/6 374/2/6
f 319/1/1 377/1/1 320/1/1
f 377/1/1 319/1/1 378/1/1
f 379/1/2 319/1/2 320/1/2
f 319/1/2 379/1/2 380/1/2
f 381/1/3 377/1/3 378/1/3
f 377/1/3 381/1/3 382/1/3
f 381/1/4 379/1/4 382/1/4
f 379/1/4 381/1/4 380/1/4
f 379/1/5 377/1/5 382/1/5
f 377/1/5 379/1/5 320/1/5
f 319/1/6 381/1/6 378/1/6
f 381/1/6 319/1/6 380/1/6
f 385/1/1 384/1/1 383/1/1
f 384/1/1 385/1/1 386/1/1
f 387/1/2 385/1/2 383/1/2
f 385/1/2 387/1/2 388/1/2
f 389/1/3 384/1/3 386/1/3
f 384/1/3 389/1/3 390/1/3
f 389/1/4 387/1/4 390/1/4
f 387/1/4 389/1/4 388/1/4
f 387/1/5 384/1/5 390/1/5
f 384/1/5 387/1/5 383/1/5
f 385/1/6 389/1/6 386/1/6
f 389/1/6 385/1/6 388/1/6
f 393/1/1 392/1/1 391/1/1
f 392/1/1 393/1/1 394/1/1
f 350/1/2 393/1/2 391/1/2
f 393/1/2 350/1/2 352/1/2
f 395/1/3 392/1/3 394/1/3
f 392/1/3 395/1/3 396/1/3
f 395/1/4 350/1/4 396/1/4
f 350/1/4 395/1/4 352/1/4
f 350/1/5 392/1/5 396/1/5
f 392/1/5 350/1/5 391/1/5
f 393/1/6 395/1/6 394/1/6
f 395/1/6 393/1/6 352/1/6
f 399/1/1 398/1/1 397/1/1
f 398/1/1 399/1/1 400/1/1
f 384/1/2 399/1/2 397/1/2
f 399/1/2 384/1/2 386/1/2
f 401/1/3 398/1/3 400/1/3
f 398/1/3 401/1/3 402/1/3
f 401/1/4 384/1/4 402/1/4
f 384/1/4 401/1/4 386/1/4
f 384/1/5 398/1/5 402/1/5
f 398/1/5 384/1/5 397/1/5
f 399/1/6 401/1/6 400/1/6
f 401/1/6 399/1/6 386/1/6
f 389/1/1 403/1/1 390/1/1
f 403/1/1 389/1/1 404/1/1
f 405/1/2 389/1/2 390/1/2
f 389/1/2 405/1/2 406/1/2
f 378/1/3 403/1/3 404/1/3
f 403/1/3 378/1/3 377/1/3
f 378/1/4 405/1/4 377/1/4
f 405/1/4 378/1/4 406/1/4
f 405/1/5 403/1/5 377/1/5
f 403/1/5 405/1/5 390/1/5
f 389/1/6 378/1/6 404/1/6
f 378/1/6 389/1/6 406/1/6
f 409/1/1 408/1/1 407/1/1
f 408/1/1 409/1/1 410/1/1
f 411/1/2 409/1/2 407/1/2
f 409/1/2 411/1/2 412/1/2
f 300/1/3 408/1/3 410/1/3
f 408/1/3 300/1/3 298/1/3
f 300/1/4 411/1/4 298/1/4
f 411/1/4 300/1/4 412/1/4
f 411/1/5 408/1/5 298/1/5
f 408/1/5 411/1/5 407/1/5
f 409/1/6 300/1/6 410/1/6
f 300/1/6 409/1/6 412/1/6
f 80/2/1 83/2/1 79/2/1
f 83/2/1 80/2/1 84/2/1
f 85/2/2 80/2/2 79/2/2
f 80/2/2 85/2/2 86/2/2
f 87/2/3 83/2/3 84/2/3
f 83/2/3 87/2/3 88/2/3
f 87/2/4 85/2/4 88/2/4
f 85/2/4 87/2/4 86/2/4
f 85/2/5 83/2/5 88/2/5
f 83/2/5 85/2/5 79/2/5
f 80/2/6 87/2/6 84/2/6
f 87/2/6 80/2/6 86/2/6

