# Created by Kenney (www.kenney.nl)

mtllib Bat_Head_1.mtl

v 6 7 -0.5
v 6 3 -0.5
v 6 7 0.5
v 6 3 0.5
v 5 7 -0.5
v 5 7 0.5
v 5 3 0.5
v 5 3 -0.5
v -5 7 -0.5
v -5 3 -0.5
v -5 7 0.5
v -5 3 0.5
v -6 7 -0.5
v -6 7 0.5
v -6 3 0.5
v -6 3 -0.5
v 6 6 -0.5
v 6 6 0.5
v 5 6 0.5
v 5 6 -0.5
v 5 4 -0.5
v 5 4 0.5
v 4 6 -0.5
v 4 6 0.5
v 4 4 0.5
v 4 4 -0.5
v -4 6 -0.5
v -4 4 -0.5
v -4 6 0.5
v -4 4 0.5
v -5 6 -0.5
v -5 6 0.5
v -5 4 0.5
v -5 4 -0.5
v 4 5 -0.5
v 4 5 0.5
v 3 5 -0.5
v 3 5 0.5
v 3 4 0.5
v 3 4 -0.5
v -3 5 -0.5
v -3 4 -0.5
v -3 5 0.5
v -3 4 0.5
v -4 5 -0.5
v -4 5 0.5
v 5 4 -1
v 5 -3 -1
v 5 4 1
v 5 -3 1
v 4 4 -1
v 4 4 1
v 4 -3 1
v 4 -3 -1
v 4 3 -1
v 4 3 1
v 3 4 -1
v 3 4 1
v 3 3 1
v 3 3 -1
v 0 4 -1
v 0 4 1
v 0 3 1
v 0 3 -1
v 0 0 -1
v 0 0 1
v -1 4 -1
v -1 4 1
v -1 0 1
v -1 0 -1
v -1 3 -1
v -1 3 1
v -2 4 -1
v -2 4 1
v -2 3 1
v -2 3 -1
v -2 2 -1
v -2 2 1
v -3 4 -1
v -3 4 1
v -3 2 1
v -3 2 -1
v -3 1 -1
v -3 1 1
v -5 4 -1
v -5 4 1
v -5 1 1
v -5 1 -1
v 6 3 -1
v 6 1 -1
v 6 3 1
v 6 1 1
v 5 3 -1
v 5 3 1
v 5 1 1
v 5 1 -1
v 4 1 -1
v 4 1 1
v 0 1 1
v 0 1 -1
v -1 1 -1
v -1 1 1
v -2 1 1
v -2 1 -1
v -5 3 -1
v -5 -3 -1
v -5 3 1
v -5 -3 1
v -6 3 -1
v -6 3 1
v -6 -3 1
v -6 -3 -1
v 6 0 -1
v 6 0 1
v 5 0 1
v 5 0 -1
v 4 1 -0.5
v 4 -1 -0.5
v 4 -1 1
v 2 1 -0.5
v 2 1 1
v 2 -1 1
v 2 -1 -0.5
v 2 1 -1
v 2 -2 -1
v 2 -2 1
v 1 1 -1
v 1 1 1
v 1 -2 1
v 1 -2 -1
v 1 0 -1
v 1 0 1
v -1 -5 -1
v -1 -5 1
v -2 -5 1
v -2 -5 -1
v -2 1 -0.5
v -2 -1 -0.5
v -2 -1 1
v -4 1 -0.5
v -4 1 1
v -4 -1 1
v -4 -1 -0.5
v -4 1 -1
v -4 -4 -1
v -4 -4 1
v -5 -4 1
v -5 -4 -1
v 6 -1 -1
v 6 -1 1
v 5 -1 1
v 5 -1 -1
v 1 0 -1.5
v 1 -1 -1.5
v 1 -1 1
v 0 0 -1.5
v 0 -1 1
v 0 -1 -1.5
v -1 0 -1.5
v -1 -1 1
v -1 -1 -1.5
v 6 -3 -1
v 6 -3 1
v 4 -1 -1
v 2 -1 -1
v 2 -3 1
v 2 -3 -1
v 1 -1 -1
v 0 -1 -1
v 0 -2 1
v 0 -2 -1
v 0 -5 -1
v 0 -5 1
v -1 -1 -1
v -2 -1 -1
v -3 -1 -1
v -3 -1 1
v -3 -5 1
v -3 -5 -1
v -3 -2 -1
v -3 -2 1
v -4 -1 -1
v -4 -2 1
v -4 -2 -1
v 2 -5 -1
v 2 -5 1
v -3 -4 -1
v -3 -4 1
v 5 -4 -1
v 5 -4 1
v 2 -4 1
v 2 -4 -1
v 3 -4 -1
v 3 -5 -1
v 3 -4 1
v 3 -5 1

vn 1 0 0
vn 0 1 0
vn 0 -1 0
vn -1 0 0
vn 0 0 -1
vn 0 0 1

vt 0.1875 0.0625
vt 0.0625 0.0625
vt 0.3125 0.0625

usemtl Bat_Head_1

f 3/1/1 2/1/1 1/1/1
f 2/1/1 3/1/1 4/1/1
f 5/1/2 3/1/2 1/1/2
f 3/1/2 5/1/2 6/1/2
f 7/1/3 2/1/3 4/1/3
f 2/1/3 7/1/3 8/1/3
f 7/1/4 5/1/4 8/1/4
f 5/1/4 7/1/4 6/1/4
f 5/1/5 2/1/5 8/1/5
f 2/1/5 5/1/5 1/1/5
f 3/1/6 7/1/6 4/1/6
f 7/1/6 3/1/6 6/1/6
f 11/2/1 10/2/1 9/2/1
f 10/2/1 11/2/1 12/2/1
f 13/2/2 11/2/2 9/2/2
f 11/2/2 13/2/2 14/2/2
f 15/2/3 10/2/3 12/2/3
f 10/2/3 15/2/3 16/2/3
f 15/2/4 13/2/4 16/2/4
f 13/2/4 15/2/4 14/2/4
f 13/2/5 10/2/5 16/2/5
f 10/2/5 13/2/5 9/2/5
f 11/2/6 15/2/6 12/2/6
f 15/2/6 11/2/6 14/2/6
f 3/1/1 17/1/1 1/1/1
f 17/1/1 3/1/1 18/1/1
f 5/1/2 3/1/2 1/1/2
f 3/1/2 5/1/2 6/1/2
f 19/1/3 17/1/3 18/1/3
f 17/1/3 19/1/3 20/1/3
f 19/1/4 5/1/4 20/1/4
f 5/1/4 19/1/4 6/1/4
f 5/1/5 17/1/5 20/1/5
f 17/1/5 5/1/5 1/1/5
f 3/1/6 19/1/6 18/1/6
f 19/1/6 3/1/6 6/1/6
f 19/1/1 21/1/1 20/1/1
f 21/1/1 19/1/1 22/1/1
f 23/1/2 19/1/2 20/1/2
f 19/1/2 23/1/2 24/1/2
f 25/1/3 21/1/3 22/1/3
f 21/1/3 25/1/3 26/1/3
f 25/1/4 23/1/4 26/1/4
f 23/1/4 25/1/4 24/1/4
f 23/1/5 21/1/5 26/1/5
f 21/1/5 23/1/5 20/1/5
f 19/1/6 25/1/6 22/1/6
f 25/1/6 19/1/6 24/1/6
f 29/2/1 28/2/1 27/2/1
f 28/2/1 29/2/1 30/2/1
f 31/2/2 29/2/2 27/2/2
f 29/2/2 31/2/2 32/2/2
f 33/2/3 28/2/3 30/2/3
f 28/2/3 33/2/3 34/2/3
f 33/2/4 31/2/4 34/2/4
f 31/2/4 33/2/4 32/2/4
f 31/2/5 28/2/5 34/2/5
f 28/2/5 31/2/5 27/2/5
f 29/2/6 33/2/6 30/2/6
f 33/2/6 29/2/6 32/2/6
f 36/3/1 26/3/1 35/3/1
f 26/3/1 36/3/1 25/3/1
f 37/3/2 36/3/2 35/3/2
f 36/3/2 37/3/2 38/3/2
f 39/3/3 26/3/3 25/3/3
f 26/3/3 39/3/3 40/3/3
f 39/3/4 37/3/4 40/3/4
f 37/3/4 39/3/4 38/3/4
f 37/3/5 26/3/5 40/3/5
f 26/3/5 37/3/5 35/3/5
f 36/3/6 39/3/6 25/3/6
f 39/3/6 36/3/6 38/3/6
f 43/2/1 42/2/1 41/2/1
f 42/2/1 43/2/1 44/2/1
f 45/2/2 43/2/2 41/2/2
f 43/2/2 45/2/2 46/2/2
f 30/2/3 42/2/3 44/2/3
f 42/2/3 30/2/3 28/2/3
f 30/2/4 45/2/4 28/2/4
f 45/2/4 30/2/4 46/2/4
f 45/2/5 42/2/5 28/2/5
f 42/2/5 45/2/5 41/2/5
f 43/2/6 30/2/6 44/2/6
f 30/2/6 43/2/6 46/2/6
f 49/3/1 48/3/1 47/3/1
f 48/3/1 49/3/1 50/3/1
f 51/3/2 49/3/2 47/3/2
f 49/3/2 51/3/2 52/3/2
f 53/3/3 48/3/3 50/3/3
f 48/3/3 53/3/3 54/3/3
f 53/3/4 51/3/4 54/3/4
f 51/3/4 53/3/4 52/3/4
f 51/3/5 48/3/5 54/3/5
f 48/3/5 51/3/5 47/3/5
f 49/3/6 53/3/6 50/3/6
f 53/3/6 49/3/6 52/3/6
f 52/3/1 55/3/1 51/3/1
f 55/3/1 52/3/1 56/3/1
f 57/3/2 52/3/2 51/3/2
f 52/3/2 57/3/2 58/3/2
f 59/3/3 55/3/3 56/3/3
f 55/3/3 59/3/3 60/3/3
f 59/3/4 57/3/4 60/3/4
f 57/3/4 59/3/4 58/3/4
f 57/3/5 55/3/5 60/3/5
f 55/3/5 57/3/5 51/3/5
f 52/3/6 59/3/6 56/3/6
f 59/3/6 52/3/6 58/3/6
f 58/1/1 60/1/1 57/1/1
f 60/1/1 58/1/1 59/1/1
f 61/1/2 58/1/2 57/1/2
f 58/1/2 61/1/2 62/1/2
f 63/1/3 60/1/3 59/1/3
f 60/1/3 63/1/3 64/1/3
f 63/1/4 61/1/4 64/1/4
f 61/1/4 63/1/4 62/1/4
f 61/1/5 60/1/5 64/1/5
f 60/1/5 61/1/5 57/1/5
f 58/1/6 63/1/6 59/1/6
f 63/1/6 58/1/6 62/1/6
f 62/3/1 65/3/1 61/3/1
f 65/3/1 62/3/1 66/3/1
f 67/3/2 62/3/2 61/3/2
f 62/3/2 67/3/2 68/3/2
f 69/3/3 65/3/3 66/3/3
f 65/3/3 69/3/3 70/3/3
f 69/3/4 67/3/4 70/3/4
f 67/3/4 69/3/4 68/3/4
f 67/3/5 65/3/5 70/3/5
f 65/3/5 67/3/5 61/3/5
f 62/3/6 69/3/6 66/3/6
f 69/3/6 62/3/6 68/3/6
f 68/1/1 71/1/1 67/1/1
f 71/1/1 68/1/1 72/1/1
f 73/1/2 68/1/2 67/1/2
f 68/1/2 73/1/2 74/1/2
f 75/1/3 71/1/3 72/1/3
f 71/1/3 75/1/3 76/1/3
f 75/1/4 73/1/4 76/1/4
f 73/1/4 75/1/4 74/1/4
f 73/1/5 71/1/5 76/1/5
f 71/1/5 73/1/5 67/1/5
f 68/1/6 75/1/6 72/1/6
f 75/1/6 68/1/6 74/1/6
f 74/3/1 77/3/1 73/3/1
f 77/3/1 74/3/1 78/3/1
f 79/3/2 74/3/2 73/3/2
f 74/3/2 79/3/2 80/3/2
f 81/3/3 77/3/3 78/3/3
f 77/3/3 81/3/3 82/3/3
f 81/3/4 79/3/4 82/3/4
f 79/3/4 81/3/4 80/3/4
f 79/3/5 77/3/5 82/3/5
f 77/3/5 79/3/5 73/3/5
f 74/3/6 81/3/6 78/3/6
f 81/3/6 74/3/6 80/3/6
f 80/2/1 83/2/1 79/2/1
f 83/2/1 80/2/1 84/2/1
f 85/2/2 80/2/2 79/2/2
f 80/2/2 85/2/2 86/2/2
f 87/2/3 83/2/3 84/2/3
f 83/2/3 87/2/3 88/2/3
f 87/2/4 85/2/4 88/2/4
f 85/2/4 87/2/4 86/2/4
f 85/2/5 83/2/5 88/2/5
f 83/2/5 85/2/5 79/2/5
f 80/2/6 87/2/6 84/2/6
f 87/2/6 80/2/6 86/2/6
f 91/1/1 90/1/1 89/1/1
f 90/1/1 91/1/1 92/1/1
f 93/1/2 91/1/2 89/1/2
f 91/1/2 93/1/2 94/1/2
f 95/1/3 90/1/3 92/1/3
f 90/1/3 95/1/3 96/1/3
f 95/1/4 93/1/4 96/1/4
f 93/1/4 95/1/4 94/1/4
f 93/1/5 90/1/5 96/1/5
f 90/1/5 93/1/5 89/1/5
f 91/1/6 95/1/6 92/1/6
f 95/1/6 91/1/6 94/1/6
f 56/3/1 97/3/1 55/3/1
f 97/3/1 56/3/1 98/3/1
f 64/3/2 56/3/2 55/3/2
f 56/3/2 64/3/2 63/3/2
f 99/3/3 97/3/3 98/3/3
f 97/3/3 99/3/3 100/3/3
f 99/3/4 64/3/4 100/3/4
f 64/3/4 99/3/4 63/3/4
f 64/3/5 97/3/5 100/3/5
f 97/3/5 64/3/5 55/3/5
f 56/3/6 99/3/6 98/3/6
f 99/3/6 56/3/6 63/3/6
f 72/3/1 101/3/1 71/3/1
f 101/3/1 72/3/1 102/3/1
f 76/3/2 72/3/2 71/3/2
f 72/3/2 76/3/2 75/3/2
f 103/3/3 101/3/3 102/3/3
f 101/3/3 103/3/3 104/3/3
f 103/3/4 76/3/4 104/3/4
f 76/3/4 103/3/4 75/3/4
f 76/3/5 101/3/5 104/3/5
f 101/3/5 76/3/5 71/3/5
f 72/3/6 103/3/6 102/3/6
f 103/3/6 72/3/6 75/3/6
f 107/2/1 106/2/1 105/2/1
f 106/2/1 107/2/1 108/2/1
f 109/2/2 107/2/2 105/2/2
f 107/2/2 109/2/2 110/2/2
f 111/2/3 106/2/3 108/2/3
f 106/2/3 111/2/3 112/2/3
f 111/2/4 109/2/4 112/2/4
f 109/2/4 111/2/4 110/2/4
f 109/2/5 106/2/5 112/2/5
f 106/2/5 109/2/5 105/2/5
f 107/2/6 111/2/6 108/2/6
f 111/2/6 107/2/6 110/2/6
f 78/2/1 104/2/1 77/2/1
f 104/2/1 78/2/1 103/2/1
f 82/2/2 78/2/2 77/2/2
f 78/2/2 82/2/2 81/2/2
f 84/2/3 104/2/3 103/2/3
f 104/2/3 84/2/3 83/2/3
f 84/2/4 82/2/4 83/2/4
f 82/2/4 84/2/4 81/2/4
f 82/2/5 104/2/5 83/2/5
f 104/2/5 82/2/5 77/2/5
f 78/2/6 84/2/6 103/2/6
f 84/2/6 78/2/6 81/2/6
f 92/3/1 113/3/1 90/3/1
f 113/3/1 92/3/1 114/3/1
f 96/3/2 92/3/2 90/3/2
f 92/3/2 96/3/2 95/3/2
f 115/3/3 113/3/3 114/3/3
f 113/3/3 115/3/3 116/3/3
f 115/3/4 96/3/4 116/3/4
f 96/3/4 115/3/4 95/3/4
f 96/3/5 113/3/5 116/3/5
f 113/3/5 96/3/5 90/3/5
f 92/3/6 115/3/6 114/3/6
f 115/3/6 92/3/6 95/3/6
f 98/2/1 118/2/1 117/2/1
f 118/2/1 98/2/1 119/2/1
f 120/2/2 98/2/2 117/2/2
f 98/2/2 120/2/2 121/2/2
f 122/2/3 118/2/3 119/2/3
f 118/2/3 122/2/3 123/2/3
f 122/2/4 120/2/4 123/2/4
f 120/2/4 122/2/4 121/2/4
f 120/2/5 118/2/5 123/2/5
f 118/2/5 120/2/5 117/2/5
f 98/2/6 122/2/6 119/2/6
f 122/2/6 98/2/6 121/2/6
f 121/3/1 125/3/1 124/3/1
f 125/3/1 121/3/1 126/3/1
f 127/3/2 121/3/2 124/3/2
f 121/3/2 127/3/2 128/3/2
f 129/3/3 125/3/3 126/3/3
f 125/3/3 129/3/3 130/3/3
f 129/3/4 127/3/4 130/3/4
f 127/3/4 129/3/4 128/3/4
f 127/3/5 125/3/5 130/3/5
f 125/3/5 127/3/5 124/3/5
f 121/3/6 129/3/6 126/3/6
f 129/3/6 121/3/6 128/3/6
f 128/3/1 131/3/1 127/3/1
f 131/3/1 128/3/1 132/3/1
f 100/3/2 128/3/2 127/3/2
f 128/3/2 100/3/2 99/3/2
f 66/3/3 131/3/3 132/3/3
f 131/3/3 66/3/3 65/3/3
f 66/3/4 100/3/4 65/3/4
f 100/3/4 66/3/4 99/3/4
f 100/3/5 131/3/5 65/3/5
f 131/3/5 100/3/5 127/3/5
f 128/3/6 66/3/6 132/3/6
f 66/3/6 128/3/6 99/3/6
f 102/2/1 133/2/1 101/2/1
f 133/2/1 102/2/1 134/2/1
f 104/2/2 102/2/2 101/2/2
f 102/2/2 104/2/2 103/2/2
f 135/2/3 133/2/3 134/2/3
f 133/2/3 135/2/3 136/2/3
f 135/2/4 104/2/4 136/2/4
f 104/2/4 135/2/4 103/2/4
f 104/2/5 133/2/5 136/2/5
f 133/2/5 104/2/5 101/2/5
f 102/2/6 135/2/6 134/2/6
f 135/2/6 102/2/6 103/2/6
f 103/1/1 138/1/1 137/1/1
f 138/1/1 103/1/1 139/1/1
f 140/1/2 103/1/2 137/1/2
f 103/1/2 140/1/2 141/1/2
f 142/1/3 138/1/3 139/1/3
f 138/1/3 142/1/3 143/1/3
f 142/1/4 140/1/4 143/1/4
f 140/1/4 142/1/4 141/1/4
f 140/1/5 138/1/5 143/1/5
f 138/1/5 140/1/5 137/1/5
f 103/1/6 142/1/6 139/1/6
f 142/1/6 103/1/6 141/1/6
f 141/2/1 145/2/1 144/2/1
f 145/2/1 141/2/1 146/2/1
f 88/2/2 141/2/2 144/2/2
f 141/2/2 88/2/2 87/2/2
f 147/2/3 145/2/3 146/2/3
f 145/2/3 147/2/3 148/2/3
f 147/2/4 88/2/4 148/2/4
f 88/2/4 147/2/4 87/2/4
f 88/2/5 145/2/5 148/2/5
f 145/2/5 88/2/5 144/2/5
f 141/2/6 147/2/6 146/2/6
f 147/2/6 141/2/6 87/2/6
f 114/1/1 149/1/1 113/1/1
f 149/1/1 114/1/1 150/1/1
f 116/1/2 114/1/2 113/1/2
f 114/1/2 116/1/2 115/1/2
f 151/1/3 149/1/3 150/1/3
f 149/1/3 151/1/3 152/1/3
f 151/1/4 116/1/4 152/1/4
f 116/1/4 151/1/4 115/1/4
f 116/1/5 149/1/5 152/1/5
f 149/1/5 116/1/5 113/1/5
f 114/1/6 151/1/6 150/1/6
f 151/1/6 114/1/6 115/1/6
f 132/2/1 154/2/1 153/2/1
f 154/2/1 132/2/1 155/2/1
f 156/2/2 132/2/2 153/2/2
f 132/2/2 156/2/2 66/2/2
f 157/2/3 154/2/3 155/2/3
f 154/2/3 157/2/3 158/2/3
f 157/2/4 156/2/4 158/2/4
f 156/2/4 157/2/4 66/2/4
f 156/2/5 154/2/5 158/2/5
f 154/2/5 156/2/5 153/2/5
f 132/2/6 157/2/6 155/2/6
f 157/2/6 132/2/6 66/2/6
f 66/1/1 158/1/1 156/1/1
f 158/1/1 66/1/1 157/1/1
f 159/1/2 66/1/2 156/1/2
f 66/1/2 159/1/2 69/1/2
f 160/1/3 158/1/3 157/1/3
f 158/1/3 160/1/3 161/1/3
f 160/1/4 159/1/4 161/1/4
f 159/1/4 160/1/4 69/1/4
f 159/1/5 158/1/5 161/1/5
f 158/1/5 159/1/5 156/1/5
f 66/1/6 160/1/6 157/1/6
f 160/1/6 66/1/6 69/1/6
f 150/3/1 162/3/1 149/3/1
f 162/3/1 150/3/1 163/3/1
f 152/3/2 150/3/2 149/3/2
f 150/3/2 152/3/2 151/3/2
f 50/3/3 162/3/3 163/3/3
f 162/3/3 50/3/3 48/3/3
f 50/3/4 152/3/4 48/3/4
f 152/3/4 50/3/4 151/3/4
f 152/3/5 162/3/5 48/3/5
f 162/3/5 152/3/5 149/3/5
f 150/3/6 50/3/6 163/3/6
f 50/3/6 150/3/6 151/3/6
f 119/3/1 54/3/1 164/3/1
f 54/3/1 119/3/1 53/3/1
f 165/3/2 119/3/2 164/3/2
f 119/3/2 165/3/2 122/3/2
f 166/3/3 54/3/3 53/3/3
f 54/3/3 166/3/3 167/3/3
f 166/3/4 165/3/4 167/3/4
f 165/3/4 166/3/4 122/3/4
f 165/3/5 54/3/5 167/3/5
f 54/3/5 165/3/5 164/3/5
f 119/3/6 166/3/6 53/3/6
f 166/3/6 119/3/6 122/3/6
f 155/3/1 130/3/1 168/3/1
f 130/3/1 155/3/1 129/3/1
f 169/3/2 155/3/2 168/3/2
f 155/3/2 169/3/2 157/3/2
f 170/3/3 130/3/3 129/3/3
f 130/3/3 170/3/3 171/3/3
f 170/3/4 169/3/4 171/3/4
f 169/3/4 170/3/4 157/3/4
f 169/3/5 130/3/5 171/3/5
f 130/3/5 169/3/5 168/3/5
f 155/3/6 170/3/6 129/3/6
f 170/3/6 155/3/6 157/3/6
f 157/2/1 172/2/1 169/2/1
f 172/2/1 157/2/1 173/2/1
f 174/2/2 157/2/2 169/2/2
f 157/2/2 174/2/2 160/2/2
f 134/2/3 172/2/3 173/2/3
f 172/2/3 134/2/3 133/2/3
f 134/2/4 174/2/4 133/2/4
f 174/2/4 134/2/4 160/2/4
f 174/2/5 172/2/5 133/2/5
f 172/2/5 174/2/5 169/2/5
f 157/2/6 134/2/6 173/2/6
f 134/2/6 157/2/6 160/2/6
f 139/2/1 136/2/1 175/2/1
f 136/2/1 139/2/1 135/2/1
f 176/2/2 139/2/2 175/2/2
f 139/2/2 176/2/2 177/2/2
f 178/2/3 136/2/3 135/2/3
f 136/2/3 178/2/3 179/2/3
f 178/2/4 176/2/4 179/2/4
f 176/2/4 178/2/4 177/2/4
f 176/2/5 136/2/5 179/2/5
f 136/2/5 176/2/5 175/2/5
f 139/2/6 178/2/6 135/2/6
f 178/2/6 139/2/6 177/2/6
f 177/2/1 180/2/1 176/2/1
f 180/2/1 177/2/1 181/2/1
f 182/2/2 177/2/2 176/2/2
f 177/2/2 182/2/2 142/2/2
f 183/2/3 180/2/3 181/2/3
f 180/2/3 183/2/3 184/2/3
f 183/2/4 182/2/4 184/2/4
f 182/2/4 183/2/4 142/2/4
f 182/2/5 180/2/5 184/2/5
f 180/2/5 182/2/5 176/2/5
f 177/2/6 183/2/6 181/2/6
f 183/2/6 177/2/6 142/2/6
f 126/2/1 185/2/1 125/2/1
f 185/2/1 126/2/1 186/2/1
f 171/2/2 126/2/2 125/2/2
f 126/2/2 171/2/2 170/2/2
f 173/2/3 185/2/3 186/2/3
f 185/2/3 173/2/3 172/2/3
f 173/2/4 171/2/4 172/2/4
f 171/2/4 173/2/4 170/2/4
f 171/2/5 185/2/5 172/2/5
f 185/2/5 171/2/5 125/2/5
f 126/2/6 173/2/6 186/2/6
f 173/2/6 126/2/6 170/2/6
f 181/2/1 187/2/1 180/2/1
f 187/2/1 181/2/1 188/2/1
f 184/2/2 181/2/2 180/2/2
f 181/2/2 184/2/2 183/2/2
f 146/2/3 187/2/3 188/2/3
f 187/2/3 146/2/3 145/2/3
f 146/2/4 184/2/4 145/2/4
f 184/2/4 146/2/4 183/2/4
f 184/2/5 187/2/5 145/2/5
f 187/2/5 184/2/5 180/2/5
f 181/2/6 146/2/6 188/2/6
f 146/2/6 181/2/6 183/2/6
f 50/2/1 189/2/1 48/2/1
f 189/2/1 50/2/1 190/2/1
f 167/2/2 50/2/2 48/2/2
f 50/2/2 167/2/2 166/2/2
f 191/2/3 189/2/3 190/2/3
f 189/2/3 191/2/3 192/2/3
f 191/2/4 167/2/4 192/2/4
f 167/2/4 191/2/4 166/2/4
f 167/2/5 189/2/5 192/2/5
f 189/2/5 167/2/5 48/2/5
f 50/2/6 191/2/6 190/2/6
f 191/2/6 50/2/6 166/2/6
f 195/2/1 194/2/1 193/2/1
f 194/2/1 195/2/1 196/2/1
f 192/2/2 195/2/2 193/2/2
f 195/2/2 192/2/2 191/2/2
f 186/2/3 194/2/3 196/2/3
f 194/2/3 186/2/3 185/2/3
f 186/2/4 192/2/4 185/2/4
f 192/2/4 186/2/4 191/2/4
f 192/2/5 194/2/5 185/2/5
f 194/2/5 192/2/5 193/2/5
f 195/2/6 186/2/6 196/2/6
f 186/2/6 195/2/6 191/2/6
f 52/3/1 55/3/1 51/3/1
f 55/3/1 52/3/1 56/3/1
f 57/3/2 52/3/2 51/3/2
f 52/3/2 57/3/2 58/3/2
f 59/3/3 55/3/3 56/3/3
f 55/3/3 59/3/3 60/3/3
f 59/3/4 57/3/4 60/3/4
f 57/3/4 59/3/4 58/3/4
f 57/3/5 55/3/5 60/3/5
f 55/3/5 57/3/5 51/3/5
f 52/3/6 59/3/6 56/3/6
f 59/3/6 52/3/6 58/3/6
f 128/3/1 131/3/1 127/3/1
f 131/3/1 128/3/1 132/3/1
f 100/3/2 128/3/2 127/3/2
f 128/3/2 100/3/2 99/3/2
f 66/3/3 131/3/3 132/3/3
f 131/3/3 66/3/3 65/3/3
f 66/3/4 100/3/4 65/3/4
f 100/3/4 66/3/4 99/3/4
f 100/3/5 131/3/5 65/3/5
f 131/3/5 100/3/5 127/3/5
f 128/3/6 66/3/6 132/3/6
f 66/3/6 128/3/6 99/3/6
f 177/2/1 180/2/1 176/2/1
f 180/2/1 177/2/1 181/2/1
f 182/2/2 177/2/2 176/2/2
f 177/2/2 182/2/2 142/2/2
f 183/2/3 180/2/3 181/2/3
f 180/2/3 183/2/3 184/2/3
f 183/2/4 182/2/4 184/2/4
f 182/2/4 183/2/4 142/2/4
f 182/2/5 180/2/5 184/2/5
f 180/2/5 182/2/5 176/2/5
f 177/2/6 183/2/6 181/2/6
f 183/2/6 177/2/6 142/2/6

