# Created by Kenney (www.kenney.nl)

mtllib Player_Body_1.mtl

v 3 8 -0.5
v 3 7 -0.5
v 3 8 0.5
v 3 7 0.5
v -3 8 -0.5
v -3 8 0.5
v -3 7 0.5
v -3 7 -0.5
v 4 7 -1
v 4 6 -1
v 4 7 1
v 4 6 1
v 2 7 -1
v 2 7 1
v 2 6 1
v 2 6 -1
v 2 7 -0.5
v 2 6 -0.5
v 2 7 0.5
v 2 6 0.5
v -2 7 -0.5
v -2 7 0.5
v -2 6 0.5
v -2 6 -0.5
v -2 7 -1
v -2 5 -1
v -2 7 1
v -2 5 1
v -3 7 -1
v -3 7 1
v -3 5 1
v -3 5 -1
v -3 6 -1
v -3 6 1
v -4 7 -1
v -4 7 1
v -4 6 1
v -4 6 -1
v 5 6 -1
v 5 2 -1
v 5 6 1
v 5 2 1
v 4 2 1
v 4 2 -1
v 4 -4 -1
v 4 -4 1
v 3 6 -1
v 3 6 1
v 3 -4 1
v 3 -4 -1
v 3 5 -1
v 3 5 1
v -2 6 -1
v -2 6 1
v -3 -4 -1
v -3 -4 1
v -4 -4 1
v -4 -4 -1
v -4 2 -1
v -4 2 1
v -5 6 -1
v -5 6 1
v -5 2 1
v -5 2 -1
v 3 -3 -1
v 3 -3 1
v 2 5 -1
v 2 5 1
v 2 -3 1
v 2 -3 -1
v 2 1 -1
v 2 1 1
v 1 5 -1
v 1 5 1
v 1 1 1
v 1 1 -1
v 1 4 -1
v 1 4 1
v 0 5 -1
v 0 5 1
v 0 4 1
v 0 4 -1
v -1 5 -1
v -1 5 1
v -1 4 1
v -1 4 -1
v -1 1 -1
v -1 1 1
v -2 1 1
v -2 1 -1
v -2 -3 -1
v -2 -3 1
v -3 -3 1
v -3 -3 -1
v 1 3 -1
v 1 3 1
v 0 3 1
v 0 3 -1
v -1 3 1
v -1 3 -1
v 1 2 -1
v 1 2 1
v 0 2 1
v 0 2 -1
v -1 2 1
v -1 2 -1
v 6 2 -1
v 6 -2 -1
v 6 2 1
v 6 -2 1
v 5 -2 1
v 5 -2 -1
v 5 -3 -1
v 5 -3 1
v 4 -3 1
v 4 -3 -1
v 0 1 1
v 0 1 -1
v -4 -3 -1
v -4 -3 1
v -5 -3 1
v -5 -3 -1
v -5 -2 -1
v -5 -2 1
v -6 2 -1
v -6 2 1
v -6 -2 1
v -6 -2 -1
v 2 0 -1
v 2 0 1
v 0 0 1
v 0 0 -1
v -1 0 1
v -1 0 -1
v -2 0 1
v -2 0 -1
v 2 -1 -1
v 2 -1 1
v 1 0 -1
v 1 0 1
v 1 -1 1
v 1 -1 -1
v 0 -1 1
v 0 -1 -1
v -1 -1 1
v -1 -1 -1
v -2 -1 1
v -2 -1 -1
v 2 -2 -1
v 2 -2 1
v 0 -2 1
v 0 -2 -1
v -1 -2 1
v -1 -2 -1
v -2 -2 1
v -2 -2 -1
v 7 -2 -1
v 7 -6 -1
v 7 -2 1
v 7 -6 1
v 6 -6 1
v 6 -6 -1
v 6 -5 -1
v 6 -5 1
v 5 -5 1
v 5 -5 -1
v 2 -2 -1.5
v 2 -3 -1.5
v 1 -2 -1.5
v 1 -2 1
v 1 -3 1
v 1 -3 -1.5
v 0 -2 -1.5
v 0 -3 1
v 0 -3 -1.5
v -2 -2 -1.5
v -2 -3 -1.5
v -5 -5 -1
v -5 -5 1
v -6 -5 1
v -6 -5 -1
v -6 -6 -1
v -6 -6 1
v -7 -2 -1
v -7 -2 1
v -7 -6 1
v -7 -6 -1
v 5 -6 -1
v 5 -6 1
v 4 -6 1
v 4 -6 -1
v 3 -3 -1.5
v 3 -5 -1.5
v 3 -5 1
v 2 -5 1
v 2 -5 -1.5
v 2 -4 -1.5
v 2 -4 1
v 0 -4 1
v 0 -4 -1.5
v -1 -3 -1.5
v -1 -3 1
v -1 -4 1
v -1 -4 -1.5
v -2 -4 1
v -2 -4 -1.5
v -2 -5 -1.5
v -2 -5 1
v -3 -3 -1.5
v -3 -5 1
v -3 -5 -1.5
v -4 -6 -1
v -4 -6 1
v -5 -6 1
v -5 -6 -1
v 4 -7 -1
v 4 -7 1
v 3 -7 1
v 3 -7 -1
v 1 -4 -1.5
v 1 -4 1
v 1 -5 1
v 1 -5 -1.5
v 0 -5 1
v 0 -5 -1.5
v -3 -7 -1
v -3 -7 1
v -4 -7 1
v -4 -7 -1
v 6 -7 -1
v 6 -7 1
v 5 -7 1
v 5 -7 -1
v 3 -6 -1.5
v 3 -6 1
v -3 -6 1
v -3 -6 -1.5
v -5 -7 -1
v -5 -7 1
v -6 -7 1
v -6 -7 -1
v 5 -8 -1
v 5 -8 1
v 4 -8 1
v 4 -8 -1
v 3 -6 -1
v -3 -6 -1
v -4 -8 -1
v -4 -8 1
v -5 -8 1
v -5 -8 -1

vn 1 0 0
vn 0 1 0
vn 0 -1 0
vn -1 0 0
vn 0 0 -1
vn 0 0 1

vt 0.0625 0.0625
vt 0.3125 0.0625
vt 0.1875 0.0625

usemtl Player_Body_1

f 3/1/1 2/1/1 1/1/1
f 2/1/1 3/1/1 4/1/1
f 5/1/2 3/1/2 1/1/2
f 3/1/2 5/1/2 6/1/2
f 7/1/3 2/1/3 4/1/3
f 2/1/3 7/1/3 8/1/3
f 7/1/4 5/1/4 8/1/4
f 5/1/4 7/1/4 6/1/4
f 5/1/5 2/1/5 8/1/5
f 2/1/5 5/1/5 1/1/5
f 3/1/6 7/1/6 4/1/6
f 7/1/6 3/1/6 6/1/6
f 11/1/1 10/1/1 9/1/1
f 10/1/1 11/1/1 12/1/1
f 13/1/2 11/1/2 9/1/2
f 11/1/2 13/1/2 14/1/2
f 15/1/3 10/1/3 12/1/3
f 10/1/3 15/1/3 16/1/3
f 15/1/4 13/1/4 16/1/4
f 13/1/4 15/1/4 14/1/4
f 13/1/5 10/1/5 16/1/5
f 10/1/5 13/1/5 9/1/5
f 11/1/6 15/1/6 12/1/6
f 15/1/6 11/1/6 14/1/6
f 19/2/1 18/2/1 17/2/1
f 18/2/1 19/2/1 20/2/1
f 21/2/2 19/2/2 17/2/2
f 19/2/2 21/2/2 22/2/2
f 23/2/3 18/2/3 20/2/3
f 18/2/3 23/2/3 24/2/3
f 23/2/4 21/2/4 24/2/4
f 21/2/4 23/2/4 22/2/4
f 21/2/5 18/2/5 24/2/5
f 18/2/5 21/2/5 17/2/5
f 19/2/6 23/2/6 20/2/6
f 23/2/6 19/2/6 22/2/6
f 27/1/1 26/1/1 25/1/1
f 26/1/1 27/1/1 28/1/1
f 29/1/2 27/1/2 25/1/2
f 27/1/2 29/1/2 30/1/2
f 31/1/3 26/1/3 28/1/3
f 26/1/3 31/1/3 32/1/3
f 31/1/4 29/1/4 32/1/4
f 29/1/4 31/1/4 30/1/4
f 29/1/5 26/1/5 32/1/5
f 26/1/5 29/1/5 25/1/5
f 27/1/6 31/1/6 28/1/6
f 31/1/6 27/1/6 30/1/6
f 30/1/1 33/1/1 29/1/1
f 33/1/1 30/1/1 34/1/1
f 35/1/2 30/1/2 29/1/2
f 30/1/2 35/1/2 36/1/2
f 37/1/3 33/1/3 34/1/3
f 33/1/3 37/1/3 38/1/3
f 37/1/4 35/1/4 38/1/4
f 35/1/4 37/1/4 36/1/4
f 35/1/5 33/1/5 38/1/5
f 33/1/5 35/1/5 29/1/5
f 30/1/6 37/1/6 34/1/6
f 37/1/6 30/1/6 36/1/6
f 41/1/1 40/1/1 39/1/1
f 40/1/1 41/1/1 42/1/1
f 10/1/2 41/1/2 39/1/2
f 41/1/2 10/1/2 12/1/2
f 43/1/3 40/1/3 42/1/3
f 40/1/3 43/1/3 44/1/3
f 43/1/4 10/1/4 44/1/4
f 10/1/4 43/1/4 12/1/4
f 10/1/5 40/1/5 44/1/5
f 40/1/5 10/1/5 39/1/5
f 41/1/6 43/1/6 42/1/6
f 43/1/6 41/1/6 12/1/6
f 12/3/1 45/3/1 10/3/1
f 45/3/1 12/3/1 46/3/1
f 47/3/2 12/3/2 10/3/2
f 12/3/2 47/3/2 48/3/2
f 49/3/3 45/3/3 46/3/3
f 45/3/3 49/3/3 50/3/3
f 49/3/4 47/3/4 50/3/4
f 47/3/4 49/3/4 48/3/4
f 47/3/5 45/3/5 50/3/5
f 45/3/5 47/3/5 10/3/5
f 12/3/6 49/3/6 46/3/6
f 49/3/6 12/3/6 48/3/6
f 48/1/1 51/1/1 47/1/1
f 51/1/1 48/1/1 52/1/1
f 53/1/2 48/1/2 47/1/2
f 48/1/2 53/1/2 54/1/2
f 28/1/3 51/1/3 52/1/3
f 51/1/3 28/1/3 26/1/3
f 28/1/4 53/1/4 26/1/4
f 53/1/4 28/1/4 54/1/4
f 53/1/5 51/1/5 26/1/5
f 51/1/5 53/1/5 47/1/5
f 48/1/6 28/1/6 52/1/6
f 28/1/6 48/1/6 54/1/6
f 34/3/1 55/3/1 33/3/1
f 55/3/1 34/3/1 56/3/1
f 38/3/2 34/3/2 33/3/2
f 34/3/2 38/3/2 37/3/2
f 57/3/3 55/3/3 56/3/3
f 55/3/3 57/3/3 58/3/3
f 57/3/4 38/3/4 58/3/4
f 38/3/4 57/3/4 37/3/4
f 38/3/5 55/3/5 58/3/5
f 55/3/5 38/3/5 33/3/5
f 34/3/6 57/3/6 56/3/6
f 57/3/6 34/3/6 37/3/6
f 37/1/1 59/1/1 38/1/1
f 59/1/1 37/1/1 60/1/1
f 61/1/2 37/1/2 38/1/2
f 37/1/2 61/1/2 62/1/2
f 63/1/3 59/1/3 60/1/3
f 59/1/3 63/1/3 64/1/3
f 63/1/4 61/1/4 64/1/4
f 61/1/4 63/1/4 62/1/4
f 61/1/5 59/1/5 64/1/5
f 59/1/5 61/1/5 38/1/5
f 37/1/6 63/1/6 60/1/6
f 63/1/6 37/1/6 62/1/6
f 52/3/1 65/3/1 51/3/1
f 65/3/1 52/3/1 66/3/1
f 67/3/2 52/3/2 51/3/2
f 52/3/2 67/3/2 68/3/2
f 69/3/3 65/3/3 66/3/3
f 65/3/3 69/3/3 70/3/3
f 69/3/4 67/3/4 70/3/4
f 67/3/4 69/3/4 68/3/4
f 67/3/5 65/3/5 70/3/5
f 65/3/5 67/3/5 51/3/5
f 52/3/6 69/3/6 66/3/6
f 69/3/6 52/3/6 68/3/6
f 68/1/1 71/1/1 67/1/1
f 71/1/1 68/1/1 72/1/1
f 73/1/2 68/1/2 67/1/2
f 68/1/2 73/1/2 74/1/2
f 75/1/3 71/1/3 72/1/3
f 71/1/3 75/1/3 76/1/3
f 75/1/4 73/1/4 76/1/4
f 73/1/4 75/1/4 74/1/4
f 73/1/5 71/1/5 76/1/5
f 71/1/5 73/1/5 67/1/5
f 68/1/6 75/1/6 72/1/6
f 75/1/6 68/1/6 74/1/6
f 74/3/1 77/3/1 73/3/1
f 77/3/1 74/3/1 78/3/1
f 79/3/2 74/3/2 73/3/2
f 74/3/2 79/3/2 80/3/2
f 81/3/3 77/3/3 78/3/3
f 77/3/3 81/3/3 82/3/3
f 81/3/4 79/3/4 82/3/4
f 79/3/4 81/3/4 80/3/4
f 79/3/5 77/3/5 82/3/5
f 77/3/5 79/3/5 73/3/5
f 74/3/6 81/3/6 78/3/6
f 81/3/6 74/3/6 80/3/6
f 80/3/1 82/3/1 79/3/1
f 82/3/1 80/3/1 81/3/1
f 83/3/2 80/3/2 79/3/2
f 80/3/2 83/3/2 84/3/2
f 85/3/3 82/3/3 81/3/3
f 82/3/3 85/3/3 86/3/3
f 85/3/4 83/3/4 86/3/4
f 83/3/4 85/3/4 84/3/4
f 83/3/5 82/3/5 86/3/5
f 82/3/5 83/3/5 79/3/5
f 80/3/6 85/3/6 81/3/6
f 85/3/6 80/3/6 84/3/6
f 84/1/1 87/1/1 83/1/1
f 87/1/1 84/1/1 88/1/1
f 26/1/2 84/1/2 83/1/2
f 84/1/2 26/1/2 28/1/2
f 89/1/3 87/1/3 88/1/3
f 87/1/3 89/1/3 90/1/3
f 89/1/4 26/1/4 90/1/4
f 26/1/4 89/1/4 28/1/4
f 26/1/5 87/1/5 90/1/5
f 87/1/5 26/1/5 83/1/5
f 84/1/6 89/1/6 88/1/6
f 89/1/6 84/1/6 28/1/6
f 28/3/1 91/3/1 26/3/1
f 91/3/1 28/3/1 92/3/1
f 32/3/2 28/3/2 26/3/2
f 28/3/2 32/3/2 31/3/2
f 93/3/3 91/3/3 92/3/3
f 91/3/3 93/3/3 94/3/3
f 93/3/4 32/3/4 94/3/4
f 32/3/4 93/3/4 31/3/4
f 32/3/5 91/3/5 94/3/5
f 91/3/5 32/3/5 26/3/5
f 28/3/6 93/3/6 92/3/6
f 93/3/6 28/3/6 31/3/6
f 78/3/1 95/3/1 77/3/1
f 95/3/1 78/3/1 96/3/1
f 82/3/2 78/3/2 77/3/2
f 78/3/2 82/3/2 81/3/2
f 97/3/3 95/3/3 96/3/3
f 95/3/3 97/3/3 98/3/3
f 97/3/4 82/3/4 98/3/4
f 82/3/4 97/3/4 81/3/4
f 82/3/5 95/3/5 98/3/5
f 95/3/5 82/3/5 77/3/5
f 78/3/6 97/3/6 96/3/6
f 97/3/6 78/3/6 81/3/6
f 81/3/1 98/3/1 82/3/1
f 98/3/1 81/3/1 97/3/1
f 86/3/2 81/3/2 82/3/2
f 81/3/2 86/3/2 85/3/2
f 99/3/3 98/3/3 97/3/3
f 98/3/3 99/3/3 100/3/3
f 99/3/4 86/3/4 100/3/4
f 86/3/4 99/3/4 85/3/4
f 86/3/5 98/3/5 100/3/5
f 98/3/5 86/3/5 82/3/5
f 81/3/6 99/3/6 97/3/6
f 99/3/6 81/3/6 85/3/6
f 96/3/1 101/3/1 95/3/1
f 101/3/1 96/3/1 102/3/1
f 98/3/2 96/3/2 95/3/2
f 96/3/2 98/3/2 97/3/2
f 103/3/3 101/3/3 102/3/3
f 101/3/3 103/3/3 104/3/3
f 103/3/4 98/3/4 104/3/4
f 98/3/4 103/3/4 97/3/4
f 98/3/5 101/3/5 104/3/5
f 101/3/5 98/3/5 95/3/5
f 96/3/6 103/3/6 102/3/6
f 103/3/6 96/3/6 97/3/6
f 97/3/1 104/3/1 98/3/1
f 104/3/1 97/3/1 103/3/1
f 100/3/2 97/3/2 98/3/2
f 97/3/2 100/3/2 99/3/2
f 105/3/3 104/3/3 103/3/3
f 104/3/3 105/3/3 106/3/3
f 105/3/4 100/3/4 106/3/4
f 100/3/4 105/3/4 99/3/4
f 100/3/5 104/3/5 106/3/5
f 104/3/5 100/3/5 98/3/5
f 97/3/6 105/3/6 103/3/6
f 105/3/6 97/3/6 99/3/6
f 109/1/1 108/1/1 107/1/1
f 108/1/1 109/1/1 110/1/1
f 40/1/2 109/1/2 107/1/2
f 109/1/2 40/1/2 42/1/2
f 111/1/3 108/1/3 110/1/3
f 108/1/3 111/1/3 112/1/3
f 111/1/4 40/1/4 112/1/4
f 40/1/4 111/1/4 42/1/4
f 40/1/5 108/1/5 112/1/5
f 108/1/5 40/1/5 107/1/5
f 109/1/6 111/1/6 110/1/6
f 111/1/6 109/1/6 42/1/6
f 42/3/1 113/3/1 40/3/1
f 113/3/1 42/3/1 114/3/1
f 44/3/2 42/3/2 40/3/2
f 42/3/2 44/3/2 43/3/2
f 115/3/3 113/3/3 114/3/3
f 113/3/3 115/3/3 116/3/3
f 115/3/4 44/3/4 116/3/4
f 44/3/4 115/3/4 43/3/4
f 44/3/5 113/3/5 116/3/5
f 113/3/5 44/3/5 40/3/5
f 42/3/6 115/3/6 114/3/6
f 115/3/6 42/3/6 43/3/6
f 102/3/1 76/3/1 101/3/1
f 76/3/1 102/3/1 75/3/1
f 104/3/2 102/3/2 101/3/2
f 102/3/2 104/3/2 103/3/2
f 117/3/3 76/3/3 75/3/3
f 76/3/3 117/3/3 118/3/3
f 117/3/4 104/3/4 118/3/4
f 104/3/4 117/3/4 103/3/4
f 104/3/5 76/3/5 118/3/5
f 76/3/5 104/3/5 101/3/5
f 102/3/6 117/3/6 75/3/6
f 117/3/6 102/3/6 103/3/6
f 103/3/1 118/3/1 104/3/1
f 118/3/1 103/3/1 117/3/1
f 106/3/2 103/3/2 104/3/2
f 103/3/2 106/3/2 105/3/2
f 88/3/3 118/3/3 117/3/3
f 118/3/3 88/3/3 87/3/3
f 88/3/4 106/3/4 87/3/4
f 106/3/4 88/3/4 105/3/4
f 106/3/5 118/3/5 87/3/5
f 118/3/5 106/3/5 104/3/5
f 103/3/6 88/3/6 117/3/6
f 88/3/6 103/3/6 105/3/6
f 60/3/1 119/3/1 59/3/1
f 119/3/1 60/3/1 120/3/1
f 64/3/2 60/3/2 59/3/2
f 60/3/2 64/3/2 63/3/2
f 121/3/3 119/3/3 120/3/3
f 119/3/3 121/3/3 122/3/3
f 121/3/4 64/3/4 122/3/4
f 64/3/4 121/3/4 63/3/4
f 64/3/5 119/3/5 122/3/5
f 119/3/5 64/3/5 59/3/5
f 60/3/6 121/3/6 120/3/6
f 121/3/6 60/3/6 63/3/6
f 63/1/1 123/1/1 64/1/1
f 123/1/1 63/1/1 124/1/1
f 125/1/2 63/1/2 64/1/2
f 63/1/2 125/1/2 126/1/2
f 127/1/3 123/1/3 124/1/3
f 123/1/3 127/1/3 128/1/3
f 127/1/4 125/1/4 128/1/4
f 125/1/4 127/1/4 126/1/4
f 125/1/5 123/1/5 128/1/5
f 123/1/5 125/1/5 64/1/5
f 63/1/6 127/1/6 124/1/6
f 127/1/6 63/1/6 126/1/6
f 72/3/1 129/3/1 71/3/1
f 129/3/1 72/3/1 130/3/1
f 118/3/2 72/3/2 71/3/2
f 72/3/2 118/3/2 117/3/2
f 131/3/3 129/3/3 130/3/3
f 129/3/3 131/3/3 132/3/3
f 131/3/4 118/3/4 132/3/4
f 118/3/4 131/3/4 117/3/4
f 118/3/5 129/3/5 132/3/5
f 129/3/5 118/3/5 71/3/5
f 72/3/6 131/3/6 130/3/6
f 131/3/6 72/3/6 117/3/6
f 117/3/1 132/3/1 118/3/1
f 132/3/1 117/3/1 131/3/1
f 87/3/2 117/3/2 118/3/2
f 117/3/2 87/3/2 88/3/2
f 133/3/3 132/3/3 131/3/3
f 132/3/3 133/3/3 134/3/3
f 133/3/4 87/3/4 134/3/4
f 87/3/4 133/3/4 88/3/4
f 87/3/5 132/3/5 134/3/5
f 132/3/5 87/3/5 118/3/5
f 117/3/6 133/3/6 131/3/6
f 133/3/6 117/3/6 88/3/6
f 88/3/1 134/3/1 87/3/1
f 134/3/1 88/3/1 133/3/1
f 90/3/2 88/3/2 87/3/2
f 88/3/2 90/3/2 89/3/2
f 135/3/3 134/3/3 133/3/3
f 134/3/3 135/3/3 136/3/3
f 135/3/4 90/3/4 136/3/4
f 90/3/4 135/3/4 89/3/4
f 90/3/5 134/3/5 136/3/5
f 134/3/5 90/3/5 87/3/5
f 88/3/6 135/3/6 133/3/6
f 135/3/6 88/3/6 89/3/6
f 130/1/1 137/1/1 129/1/1
f 137/1/1 130/1/1 138/1/1
f 139/1/2 130/1/2 129/1/2
f 130/1/2 139/1/2 140/1/2
f 141/1/3 137/1/3 138/1/3
f 137/1/3 141/1/3 142/1/3
f 141/1/4 139/1/4 142/1/4
f 139/1/4 141/1/4 140/1/4
f 139/1/5 137/1/5 142/1/5
f 137/1/5 139/1/5 129/1/5
f 130/1/6 141/1/6 138/1/6
f 141/1/6 130/1/6 140/1/6
f 140/3/1 142/3/1 139/3/1
f 142/3/1 140/3/1 141/3/1
f 132/3/2 140/3/2 139/3/2
f 140/3/2 132/3/2 131/3/2
f 143/3/3 142/3/3 141/3/3
f 142/3/3 143/3/3 144/3/3
f 143/3/4 132/3/4 144/3/4
f 132/3/4 143/3/4 131/3/4
f 132/3/5 142/3/5 144/3/5
f 142/3/5 132/3/5 139/3/5
f 140/3/6 143/3/6 141/3/6
f 143/3/6 140/3/6 131/3/6
f 131/3/1 144/3/1 132/3/1
f 144/3/1 131/3/1 143/3/1
f 134/3/2 131/3/2 132/3/2
f 131/3/2 134/3/2 133/3/2
f 145/3/3 144/3/3 143/3/3
f 144/3/3 145/3/3 146/3/3
f 145/3/4 134/3/4 146/3/4
f 134/3/4 145/3/4 133/3/4
f 134/3/5 144/3/5 146/3/5
f 144/3/5 134/3/5 132/3/5
f 131/3/6 145/3/6 143/3/6
f 145/3/6 131/3/6 133/3/6
f 133/1/1 146/1/1 134/1/1
f 146/1/1 133/1/1 145/1/1
f 136/1/2 133/1/2 134/1/2
f 133/1/2 136/1/2 135/1/2
f 147/1/3 146/1/3 145/1/3
f 146/1/3 147/1/3 148/1/3
f 147/1/4 136/1/4 148/1/4
f 136/1/4 147/1/4 135/1/4
f 136/1/5 146/1/5 148/1/5
f 146/1/5 136/1/5 134/1/5
f 133/1/6 147/1/6 145/1/6
f 147/1/6 133/1/6 135/1/6
f 138/3/1 149/3/1 137/3/1
f 149/3/1 138/3/1 150/3/1
f 144/3/2 138/3/2 137/3/2
f 138/3/2 144/3/2 143/3/2
f 151/3/3 149/3/3 150/3/3
f 149/3/3 151/3/3 152/3/3
f 151/3/4 144/3/4 152/3/4
f 144/3/4 151/3/4 143/3/4
f 144/3/5 149/3/5 152/3/5
f 149/3/5 144/3/5 137/3/5
f 138/3/6 151/3/6 150/3/6
f 151/3/6 138/3/6 143/3/6
f 143/3/1 152/3/1 144/3/1
f 152/3/1 143/3/1 151/3/1
f 146/3/2 143/3/2 144/3/2
f 143/3/2 146/3/2 145/3/2
f 153/3/3 152/3/3 151/3/3
f 152/3/3 153/3/3 154/3/3
f 153/3/4 146/3/4 154/3/4
f 146/3/4 153/3/4 145/3/4
f 146/3/5 152/3/5 154/3/5
f 152/3/5 146/3/5 144/3/5
f 143/3/6 153/3/6 151/3/6
f 153/3/6 143/3/6 145/3/6
f 145/3/1 154/3/1 146/3/1
f 154/3/1 145/3/1 153/3/1
f 148/3/2 145/3/2 146/3/2
f 145/3/2 148/3/2 147/3/2
f 155/3/3 154/3/3 153/3/3
f 154/3/3 155/3/3 156/3/3
f 155/3/4 148/3/4 156/3/4
f 148/3/4 155/3/4 147/3/4
f 148/3/5 154/3/5 156/3/5
f 154/3/5 148/3/5 146/3/5
f 145/3/6 155/3/6 153/3/6
f 155/3/6 145/3/6 147/3/6
f 159/1/1 158/1/1 157/1/1
f 158/1/1 159/1/1 160/1/1
f 108/1/2 159/1/2 157/1/2
f 159/1/2 108/1/2 110/1/2
f 161/1/3 158/1/3 160/1/3
f 158/1/3 161/1/3 162/1/3
f 161/1/4 108/1/4 162/1/4
f 108/1/4 161/1/4 110/1/4
f 108/1/5 158/1/5 162/1/5
f 158/1/5 108/1/5 157/1/5
f 159/1/6 161/1/6 160/1/6
f 161/1/6 159/1/6 110/1/6
f 110/2/1 163/2/1 108/2/1
f 163/2/1 110/2/1 164/2/1
f 112/2/2 110/2/2 108/2/2
f 110/2/2 112/2/2 111/2/2
f 165/2/3 163/2/3 164/2/3
f 163/2/3 165/2/3 166/2/3
f 165/2/4 112/2/4 166/2/4
f 112/2/4 165/2/4 111/2/4
f 112/2/5 163/2/5 166/2/5
f 163/2/5 112/2/5 108/2/5
f 110/2/6 165/2/6 164/2/6
f 165/2/6 110/2/6 111/2/6
f 150/1/1 168/1/1 167/1/1
f 168/1/1 150/1/1 69/1/1
f 169/1/2 150/1/2 167/1/2
f 150/1/2 169/1/2 170/1/2
f 171/1/3 168/1/3 69/1/3
f 168/1/3 171/1/3 172/1/3
f 171/1/4 169/1/4 172/1/4
f 169/1/4 171/1/4 170/1/4
f 169/1/5 168/1/5 172/1/5
f 168/1/5 169/1/5 167/1/5
f 150/1/6 171/1/6 69/1/6
f 171/1/6 150/1/6 170/1/6
f 170/1/1 172/1/1 169/1/1
f 172/1/1 170/1/1 171/1/1
f 173/1/2 170/1/2 169/1/2
f 170/1/2 173/1/2 151/1/2
f 174/1/3 172/1/3 171/1/3
f 172/1/3 174/1/3 175/1/3
f 174/1/4 173/1/4 175/1/4
f 173/1/4 174/1/4 151/1/4
f 173/1/5 172/1/5 175/1/5
f 172/1/5 173/1/5 169/1/5
f 170/1/6 174/1/6 171/1/6
f 174/1/6 170/1/6 151/1/6
f 151/1/1 175/1/1 173/1/1
f 175/1/1 151/1/1 174/1/1
f 176/1/2 151/1/2 173/1/2
f 151/1/2 176/1/2 155/1/2
f 92/1/3 175/1/3 174/1/3
f 175/1/3 92/1/3 177/1/3
f 92/1/4 176/1/4 177/1/4
f 176/1/4 92/1/4 155/1/4
f 176/1/5 175/1/5 177/1/5
f 175/1/5 176/1/5 173/1/5
f 151/1/6 92/1/6 174/1/6
f 92/1/6 151/1/6 155/1/6
f 124/2/1 178/2/1 123/2/1
f 178/2/1 124/2/1 179/2/1
f 128/2/2 124/2/2 123/2/2
f 124/2/2 128/2/2 127/2/2
f 180/2/3 178/2/3 179/2/3
f 178/2/3 180/2/3 181/2/3
f 180/2/4 128/2/4 181/2/4
f 128/2/4 180/2/4 127/2/4
f 128/2/5 178/2/5 181/2/5
f 178/2/5 128/2/5 123/2/5
f 124/2/6 180/2/6 179/2/6
f 180/2/6 124/2/6 127/2/6
f 127/1/1 182/1/1 128/1/1
f 182/1/1 127/1/1 183/1/1
f 184/1/2 127/1/2 128/1/2
f 127/1/2 184/1/2 185/1/2
f 186/1/3 182/1/3 183/1/3
f 182/1/3 186/1/3 187/1/3
f 186/1/4 184/1/4 187/1/4
f 184/1/4 186/1/4 185/1/4
f 184/1/5 182/1/5 187/1/5
f 182/1/5 184/1/5 128/1/5
f 127/1/6 186/1/6 183/1/6
f 186/1/6 127/1/6 185/1/6
f 114/2/1 188/2/1 113/2/1
f 188/2/1 114/2/1 189/2/1
f 116/2/2 114/2/2 113/2/2
f 114/2/2 116/2/2 115/2/2
f 190/2/3 188/2/3 189/2/3
f 188/2/3 190/2/3 191/2/3
f 190/2/4 116/2/4 191/2/4
f 116/2/4 190/2/4 115/2/4
f 116/2/5 188/2/5 191/2/5
f 188/2/5 116/2/5 113/2/5
f 114/2/6 190/2/6 189/2/6
f 190/2/6 114/2/6 115/2/6
f 66/1/1 193/1/1 192/1/1
f 193/1/1 66/1/1 194/1/1
f 168/1/2 66/1/2 192/1/2
f 66/1/2 168/1/2 69/1/2
f 195/1/3 193/1/3 194/1/3
f 193/1/3 195/1/3 196/1/3
f 195/1/4 168/1/4 196/1/4
f 168/1/4 195/1/4 69/1/4
f 168/1/5 193/1/5 196/1/5
f 193/1/5 168/1/5 192/1/5
f 66/1/6 195/1/6 194/1/6
f 195/1/6 66/1/6 69/1/6
f 69/3/1 197/3/1 168/3/1
f 197/3/1 69/3/1 198/3/1
f 175/3/2 69/3/2 168/3/2
f 69/3/2 175/3/2 174/3/2
f 199/3/3 197/3/3 198/3/3
f 197/3/3 199/3/3 200/3/3
f 199/3/4 175/3/4 200/3/4
f 175/3/4 199/3/4 174/3/4
f 175/3/5 197/3/5 200/3/5
f 197/3/5 175/3/5 168/3/5
f 69/3/6 199/3/6 198/3/6
f 199/3/6 69/3/6 174/3/6
f 174/3/1 200/3/1 175/3/1
f 200/3/1 174/3/1 199/3/1
f 201/3/2 174/3/2 175/3/2
f 174/3/2 201/3/2 202/3/2
f 203/3/3 200/3/3 199/3/3
f 200/3/3 203/3/3 204/3/3
f 203/3/4 201/3/4 204/3/4
f 201/3/4 203/3/4 202/3/4
f 201/3/5 200/3/5 204/3/5
f 200/3/5 201/3/5 175/3/5
f 174/3/6 203/3/6 199/3/6
f 203/3/6 174/3/6 202/3/6
f 202/3/1 204/3/1 201/3/1
f 204/3/1 202/3/1 203/3/1
f 177/3/2 202/3/2 201/3/2
f 202/3/2 177/3/2 92/3/2
f 205/3/3 204/3/3 203/3/3
f 204/3/3 205/3/3 206/3/3
f 205/3/4 177/3/4 206/3/4
f 177/3/4 205/3/4 92/3/4
f 177/3/5 204/3/5 206/3/5
f 204/3/5 177/3/5 201/3/5
f 202/3/6 205/3/6 203/3/6
f 205/3/6 202/3/6 92/3/6
f 92/1/1 207/1/1 177/1/1
f 207/1/1 92/1/1 208/1/1
f 209/1/2 92/1/2 177/1/2
f 92/1/2 209/1/2 93/1/2
f 210/1/3 207/1/3 208/1/3
f 207/1/3 210/1/3 211/1/3
f 210/1/4 209/1/4 211/1/4
f 209/1/4 210/1/4 93/1/4
f 209/1/5 207/1/5 211/1/5
f 207/1/5 209/1/5 177/1/5
f 92/1/6 210/1/6 208/1/6
f 210/1/6 92/1/6 93/1/6
f 120/2/1 212/2/1 119/2/1
f 212/2/1 120/2/1 213/2/1
f 122/2/2 120/2/2 119/2/2
f 120/2/2 122/2/2 121/2/2
f 214/2/3 212/2/3 213/2/3
f 212/2/3 214/2/3 215/2/3
f 214/2/4 122/2/4 215/2/4
f 122/2/4 214/2/4 121/2/4
f 122/2/5 212/2/5 215/2/5
f 212/2/5 122/2/5 119/2/5
f 120/2/6 214/2/6 213/2/6
f 214/2/6 120/2/6 121/2/6
f 46/2/1 216/2/1 45/2/1
f 216/2/1 46/2/1 217/2/1
f 50/2/2 46/2/2 45/2/2
f 46/2/2 50/2/2 49/2/2
f 218/2/3 216/2/3 217/2/3
f 216/2/3 218/2/3 219/2/3
f 218/2/4 50/2/4 219/2/4
f 50/2/4 218/2/4 49/2/4
f 50/2/5 216/2/5 219/2/5
f 216/2/5 50/2/5 45/2/5
f 46/2/6 218/2/6 217/2/6
f 218/2/6 46/2/6 49/2/6
f 198/2/1 196/2/1 197/2/1
f 196/2/1 198/2/1 195/2/1
f 220/2/2 198/2/2 197/2/2
f 198/2/2 220/2/2 221/2/2
f 222/2/3 196/2/3 195/2/3
f 196/2/3 222/2/3 223/2/3
f 222/2/4 220/2/4 223/2/4
f 220/2/4 222/2/4 221/2/4
f 220/2/5 196/2/5 223/2/5
f 196/2/5 220/2/5 197/2/5
f 198/2/6 222/2/6 195/2/6
f 222/2/6 198/2/6 221/2/6
f 221/2/1 223/2/1 220/2/1
f 223/2/1 221/2/1 222/2/1
f 200/2/2 221/2/2 220/2/2
f 221/2/2 200/2/2 199/2/2
f 224/2/3 223/2/3 222/2/3
f 223/2/3 224/2/3 225/2/3
f 224/2/4 200/2/4 225/2/4
f 200/2/4 224/2/4 199/2/4
f 200/2/5 223/2/5 225/2/5
f 223/2/5 200/2/5 220/2/5
f 221/2/6 224/2/6 222/2/6
f 224/2/6 221/2/6 199/2/6
f 199/2/1 225/2/1 200/2/1
f 225/2/1 199/2/1 224/2/1
f 206/2/2 199/2/2 200/2/2
f 199/2/2 206/2/2 205/2/2
f 208/2/3 225/2/3 224/2/3
f 225/2/3 208/2/3 207/2/3
f 208/2/4 206/2/4 207/2/4
f 206/2/4 208/2/4 205/2/4
f 206/2/5 225/2/5 207/2/5
f 225/2/5 206/2/5 200/2/5
f 199/2/6 208/2/6 224/2/6
f 208/2/6 199/2/6 205/2/6
f 56/2/1 226/2/1 55/2/1
f 226/2/1 56/2/1 227/2/1
f 58/2/2 56/2/2 55/2/2
f 56/2/2 58/2/2 57/2/2
f 228/2/3 226/2/3 227/2/3
f 226/2/3 228/2/3 229/2/3
f 228/2/4 58/2/4 229/2/4
f 58/2/4 228/2/4 57/2/4
f 58/2/5 226/2/5 229/2/5
f 226/2/5 58/2/5 55/2/5
f 56/2/6 228/2/6 227/2/6
f 228/2/6 56/2/6 57/2/6
f 164/1/1 230/1/1 163/1/1
f 230/1/1 164/1/1 231/1/1
f 166/1/2 164/1/2 163/1/2
f 164/1/2 166/1/2 165/1/2
f 232/1/3 230/1/3 231/1/3
f 230/1/3 232/1/3 233/1/3
f 232/1/4 166/1/4 233/1/4
f 166/1/4 232/1/4 165/1/4
f 166/1/5 230/1/5 233/1/5
f 230/1/5 166/1/5 163/1/5
f 164/1/6 232/1/6 231/1/6
f 232/1/6 164/1/6 165/1/6
f 194/1/1 234/1/1 193/1/1
f 234/1/1 194/1/1 235/1/1
f 211/1/2 194/1/2 193/1/2
f 194/1/2 211/1/2 210/1/2
f 236/1/3 234/1/3 235/1/3
f 234/1/3 236/1/3 237/1/3
f 236/1/4 211/1/4 237/1/4
f 211/1/4 236/1/4 210/1/4
f 211/1/5 234/1/5 237/1/5
f 234/1/5 211/1/5 193/1/5
f 194/1/6 236/1/6 235/1/6
f 236/1/6 194/1/6 210/1/6
f 179/1/1 238/1/1 178/1/1
f 238/1/1 179/1/1 239/1/1
f 181/1/2 179/1/2 178/1/2
f 179/1/2 181/1/2 180/1/2
f 240/1/3 238/1/3 239/1/3
f 238/1/3 240/1/3 241/1/3
f 240/1/4 181/1/4 241/1/4
f 181/1/4 240/1/4 180/1/4
f 181/1/5 238/1/5 241/1/5
f 238/1/5 181/1/5 178/1/5
f 179/1/6 240/1/6 239/1/6
f 240/1/6 179/1/6 180/1/6
f 189/1/1 242/1/1 188/1/1
f 242/1/1 189/1/1 243/1/1
f 191/1/2 189/1/2 188/1/2
f 189/1/2 191/1/2 190/1/2
f 244/1/3 242/1/3 243/1/3
f 242/1/3 244/1/3 245/1/3
f 244/1/4 191/1/4 245/1/4
f 191/1/4 244/1/4 190/1/4
f 191/1/5 242/1/5 245/1/5
f 242/1/5 191/1/5 188/1/5
f 189/1/6 244/1/6 243/1/6
f 244/1/6 189/1/6 190/1/6
f 235/2/1 219/2/1 246/2/1
f 219/2/1 235/2/1 218/2/1
f 247/2/2 235/2/2 246/2/2
f 235/2/2 247/2/2 236/2/2
f 227/2/3 219/2/3 218/2/3
f 219/2/3 227/2/3 226/2/3
f 227/2/4 247/2/4 226/2/4
f 247/2/4 227/2/4 236/2/4
f 247/2/5 219/2/5 226/2/5
f 219/2/5 247/2/5 246/2/5
f 235/2/6 227/2/6 218/2/6
f 227/2/6 235/2/6 236/2/6
f 213/1/1 248/1/1 212/1/1
f 248/1/1 213/1/1 249/1/1
f 215/1/2 213/1/2 212/1/2
f 213/1/2 215/1/2 214/1/2
f 250/1/3 248/1/3 249/1/3
f 248/1/3 250/1/3 251/1/3
f 250/1/4 215/1/4 251/1/4
f 215/1/4 250/1/4 214/1/4
f 215/1/5 248/1/5 251/1/5
f 248/1/5 215/1/5 212/1/5
f 213/1/6 250/1/6 249/1/6
f 250/1/6 213/1/6 214/1/6
f 217/1/1 245/1/1 216/1/1
f 245/1/1 217/1/1 244/1/1
f 229/1/2 217/1/2 216/1/2
f 217/1/2 229/1/2 228/1/2
f 249/1/3 245/1/3 244/1/3
f 245/1/3 249/1/3 248/1/3
f 249/1/4 229/1/4 248/1/4
f 229/1/4 249/1/4 228/1/4
f 229/1/5 245/1/5 248/1/5
f 245/1/5 229/1/5 216/1/5
f 217/1/6 249/1/6 244/1/6
f 249/1/6 217/1/6 228/1/6
f 30/1/1 33/1/1 29/1/1
f 33/1/1 30/1/1 34/1/1
f 35/1/2 30/1/2 29/1/2
f 30/1/2 35/1/2 36/1/2
f 37/1/3 33/1/3 34/1/3
f 33/1/3 37/1/3 38/1/3
f 37/1/4 35/1/4 38/1/4
f 35/1/4 37/1/4 36/1/4
f 35/1/5 33/1/5 38/1/5
f 33/1/5 35/1/5 29/1/5
f 30/1/6 37/1/6 34/1/6
f 37/1/6 30/1/6 36/1/6

