# Created by Kenney (www.kenney.nl)

mtllib Tentacle_Monster_Middle.mtl

v 5 8 -2
v 5 6 -2
v 5 8 0.5
v 5 6 0.5
v 3 8 -2
v 3 8 0.5
v 3 6 0.5
v 3 6 -2
v 3 8 -2.5
v 3 6 -2.5
v 2 8 -2.5
v 2 8 0.5
v 2 6 0.5
v 2 6 -2.5
v 2 8 -2
v 2 7 -2
v 2 7 0.5
v 1 8 -2
v 1 8 0.5
v 1 7 0.5
v 1 7 -2
v 1 8 -2.5
v 1 7 -2.5
v 0 8 -2.5
v 0 8 0.5
v 0 7 0.5
v 0 7 -2.5
v 0 8 -2
v 0 7 -2
v -1 8 -2
v -1 8 0.5
v -1 7 0.5
v -1 7 -2
v -1 8 -1
v -1 5 -1
v -1 5 0.5
v -2 8 -1
v -2 8 0.5
v -2 5 0.5
v -2 5 -1
v -2 8 -0.5
v -2 6 -0.5
v -2 6 0.5
v -4 8 -0.5
v -4 8 0.5
v -4 6 0.5
v -4 6 -0.5
v 2 7 -2.5
v 1 6 0.5
v 1 6 -2.5
v 1 5 -2
v 1 5 0.5
v 0 5 0.5
v 0 5 -2
v 0 7 -1.5
v 0 4 -1.5
v 0 4 0.5
v -1 7 -1.5
v -1 4 0.5
v -1 4 -1.5
v -4 7 -0.5
v -4 1 -0.5
v -4 7 0.5
v -4 1 0.5
v -5 7 -0.5
v -5 7 0.5
v -5 1 0.5
v -5 1 -0.5
v 4 6 -2
v 4 5 -2
v 4 6 0.5
v 4 5 0.5
v 1 6 -2
v -2 6 -1
v -2 4 -1
v -2 4 0.5
v -3 6 -1
v -3 6 0.5
v -3 4 0.5
v -3 4 -1
v -3 6 -0.5
v -3 5 -0.5
v -3 5 0.5
v -4 5 0.5
v -4 5 -0.5
v 4 5 -0.5
v 4 3 -0.5
v 4 3 0.5
v 3 5 -0.5
v 3 5 0.5
v 3 3 0.5
v 3 3 -0.5
v 3 5 -1
v 3 3 -1
v 2 5 -1
v 2 5 0.5
v 2 3 0.5
v 2 3 -1
v 2 5 -1.5
v 2 4 -1.5
v 2 4 0.5
v 0 5 -1.5
v -1 5 -1.5
v -2 5 -1.5
v -2 4 -1.5
v -3 5 -1
v -3 3 -1
v -3 3 0.5
v -4 5 -1
v -4 3 0.5
v -4 3 -1
v 2 4 -1
v 2 -4 -1
v 2 -4 0.5
v 1 4 -1
v 1 4 0.5
v 1 -4 0.5
v 1 -4 -1
v 1 4 -1.5
v 1 2 -1.5
v 1 2 0.5
v 0 2 0.5
v 0 2 -1.5
v 0 4 -2
v 0 1 -2
v 0 1 0.5
v -1 4 -2
v -1 1 0.5
v -1 1 -2
v -1 3 -2
v -1 3 0.5
v -3 4 -2
v -3 3 -2
v -5 4 -0.5
v -5 -7 -0.5
v -5 4 0.5
v -5 -7 0.5
v -6 4 -0.5
v -6 4 0.5
v -6 -7 0.5
v -6 -7 -0.5
v 3 -3 -0.5
v 3 -3 0.5
v 2 3 -0.5
v 2 -3 0.5
v 2 -3 -0.5
v -1 2 -2
v -1 2 0.5
v -3 2 0.5
v -3 2 -2
v -3 3 -0.5
v -3 2 -0.5
v -4 3 -0.5
v -4 2 0.5
v -4 2 -0.5
v 1 2 -2
v 1 -1 -2
v 1 -1 0.5
v 0 2 -2
v 0 -1 0.5
v 0 -1 -2
v -1 2 -2.5
v -1 0 -2.5
v -1 0 0.5
v -2 2 -2.5
v -2 2 0.5
v -2 0 0.5
v -2 0 -2.5
v -2 2 -2
v -2 1 -2
v -2 1 0.5
v -4 2 -2
v -4 1 -2
v -6 2 -0.5
v -6 -5 -0.5
v -6 2 0.5
v -6 -5 0.5
v -7 2 -0.5
v -7 2 0.5
v -7 -5 0.5
v -7 -5 -0.5
v 0 1 -2.5
v 0 -1 -2.5
v -1 1 -2.5
v -1 -1 0.5
v -1 -1 -2.5
v -2 1 -2.5
v -3 1 -2.5
v -3 1 0.5
v -3 0 0.5
v -3 0 -2.5
v -3 1 -2
v -3 0 -2
v -5 1 -2
v -5 0 0.5
v -5 0 -2
v -1 -3 -2.5
v -1 -3 0.5
v -2 -3 0.5
v -2 -3 -2.5
v -2 0 -2
v -2 -3 -2
v -3 -3 0.5
v -3 -3 -2
v -3 -4 -2.5
v -3 -4 0.5
v -4 0 -2.5
v -4 0 0.5
v -4 -4 0.5
v -4 -4 -2.5
v -4 0 -2
v -4 -5 -2
v -4 -5 0.5
v -5 -5 0.5
v -5 -5 -2
v 1 -1 -1.5
v 1 -8 -1.5
v 1 -8 0.5
v 0 -1 -1.5
v 0 -8 0.5
v 0 -8 -1.5
v 0 -4 -2
v 0 -4 0.5
v -1 -1 -2
v -1 -4 0.5
v -1 -4 -2
v 4 -2 -0.5
v 4 -5 -0.5
v 4 -2 0.5
v 4 -5 0.5
v 3 -2 -0.5
v 3 -2 0.5
v 3 -5 0.5
v 3 -5 -0.5
v 3 -3 -1
v 3 -5 -1
v 2 -3 -1
v 2 -5 0.5
v 2 -5 -1
v -1 -3 -2
v -1 -6 -2
v -1 -6 0.5
v -2 -6 0.5
v -2 -6 -2
v -2 -5 -2.5
v -2 -5 0.5
v -3 -3 -2.5
v -3 -5 0.5
v -3 -5 -2.5
v 2 -4 -1.5
v 2 -5 -1.5
v 1 -4 -1.5
v 1 -5 0.5
v 1 -5 -1.5
v 0 -4 -1.5
v -1 -4 -1.5
v -1 -8 0.5
v -1 -8 -1.5
v -3 -4 -2
v -3 -6 -2
v -3 -6 0.5
v -4 -4 -2
v -4 -6 0.5
v -4 -6 -2
v 4 -5 -2
v 4 -7 -2
v 4 -7 0.5
v 3 -5 -2
v 3 -7 0.5
v 3 -7 -2
v 3 -6 -2
v 3 -6 0.5
v 1 -5 -2
v 1 -6 0.5
v 1 -6 -2
v -2 -5 -2
v -3 -5 -2
v -4 -5 -0.5
v -4 -8 -0.5
v -4 -8 0.5
v -5 -5 -0.5
v -5 -8 0.5
v -5 -8 -0.5
v 5 -6 -2
v 5 -8 -2
v 5 -6 0.5
v 5 -8 0.5
v 4 -6 -2
v 4 -6 0.5
v 4 -8 0.5
v 4 -8 -2
v 3 -6 -2.5
v 3 -8 -2.5
v 3 -8 0.5
v 2 -6 -2.5
v 2 -6 0.5
v 2 -8 0.5
v 2 -8 -2.5
v 2 -6 -2
v 2 -8 -2
v 1 -8 -2
v -1 -6 -1
v -1 -8 -1
v -2 -6 -1
v -2 -8 0.5
v -2 -8 -1
v -2 -7 -1
v -2 -7 0.5
v -3 -6 -1
v -3 -7 0.5
v -3 -7 -1
v -3 -6 -0.5
v -3 -8 -0.5
v -3 -8 0.5
v -4 -6 -0.5
v 6 -7 -2
v 6 -8 -2
v 6 -7 0.5
v 6 -8 0.5
v 5 -7 -2
v 5 -7 0.5
v 4 -7 -2.5
v 4 -8 -2.5
v 3 -7 -2.5
v -2 -7 -0.5
v -2 -8 -0.5
v -3 -7 -0.5

vn 1 0 0
vn 0 1 0
vn 0 -1 0
vn -1 0 0
vn 0 0 -1
vn 0 0 1

vt 0.0625 0.0625
vt 0.3125 0.0625
vt 0.1875 0.0625

usemtl Tentacle_Monster_Middle

f 3/1/1 2/1/1 1/1/1
f 2/1/1 3/1/1 4/1/1
f 5/1/2 3/1/2 1/1/2
f 3/1/2 5/1/2 6/1/2
f 7/1/3 2/1/3 4/1/3
f 2/1/3 7/1/3 8/1/3
f 7/1/4 5/1/4 8/1/4
f 5/1/4 7/1/4 6/1/4
f 5/1/5 2/1/5 8/1/5
f 2/1/5 5/1/5 1/1/5
f 3/1/6 7/1/6 4/1/6
f 7/1/6 3/1/6 6/1/6
f 6/2/1 10/2/1 9/2/1
f 10/2/1 6/2/1 7/2/1
f 11/2/2 6/2/2 9/2/2
f 6/2/2 11/2/2 12/2/2
f 13/2/3 10/2/3 7/2/3
f 10/2/3 13/2/3 14/2/3
f 13/2/4 11/2/4 14/2/4
f 11/2/4 13/2/4 12/2/4
f 11/2/5 10/2/5 14/2/5
f 10/2/5 11/2/5 9/2/5
f 6/2/6 13/2/6 7/2/6
f 13/2/6 6/2/6 12/2/6
f 12/1/1 16/1/1 15/1/1
f 16/1/1 12/1/1 17/1/1
f 18/1/2 12/1/2 15/1/2
f 12/1/2 18/1/2 19/1/2
f 20/1/3 16/1/3 17/1/3
f 16/1/3 20/1/3 21/1/3
f 20/1/4 18/1/4 21/1/4
f 18/1/4 20/1/4 19/1/4
f 18/1/5 16/1/5 21/1/5
f 16/1/5 18/1/5 15/1/5
f 12/1/6 20/1/6 17/1/6
f 20/1/6 12/1/6 19/1/6
f 19/3/1 23/3/1 22/3/1
f 23/3/1 19/3/1 20/3/1
f 24/3/2 19/3/2 22/3/2
f 19/3/2 24/3/2 25/3/2
f 26/3/3 23/3/3 20/3/3
f 23/3/3 26/3/3 27/3/3
f 26/3/4 24/3/4 27/3/4
f 24/3/4 26/3/4 25/3/4
f 24/3/5 23/3/5 27/3/5
f 23/3/5 24/3/5 22/3/5
f 19/3/6 26/3/6 20/3/6
f 26/3/6 19/3/6 25/3/6
f 25/1/1 29/1/1 28/1/1
f 29/1/1 25/1/1 26/1/1
f 30/1/2 25/1/2 28/1/2
f 25/1/2 30/1/2 31/1/2
f 32/1/3 29/1/3 26/1/3
f 29/1/3 32/1/3 33/1/3
f 32/1/4 30/1/4 33/1/4
f 30/1/4 32/1/4 31/1/4
f 30/1/5 29/1/5 33/1/5
f 29/1/5 30/1/5 28/1/5
f 25/1/6 32/1/6 26/1/6
f 32/1/6 25/1/6 31/1/6
f 31/2/1 35/2/1 34/2/1
f 35/2/1 31/2/1 36/2/1
f 37/2/2 31/2/2 34/2/2
f 31/2/2 37/2/2 38/2/2
f 39/2/3 35/2/3 36/2/3
f 35/2/3 39/2/3 40/2/3
f 39/2/4 37/2/4 40/2/4
f 37/2/4 39/2/4 38/2/4
f 37/2/5 35/2/5 40/2/5
f 35/2/5 37/2/5 34/2/5
f 31/2/6 39/2/6 36/2/6
f 39/2/6 31/2/6 38/2/6
f 38/1/1 42/1/1 41/1/1
f 42/1/1 38/1/1 43/1/1
f 44/1/2 38/1/2 41/1/2
f 38/1/2 44/1/2 45/1/2
f 46/1/3 42/1/3 43/1/3
f 42/1/3 46/1/3 47/1/3
f 46/1/4 44/1/4 47/1/4
f 44/1/4 46/1/4 45/1/4
f 44/1/5 42/1/5 47/1/5
f 42/1/5 44/1/5 41/1/5
f 38/1/6 46/1/6 43/1/6
f 46/1/6 38/1/6 45/1/6
f 17/2/1 14/2/1 48/2/1
f 14/2/1 17/2/1 13/2/1
f 23/2/2 17/2/2 48/2/2
f 17/2/2 23/2/2 20/2/2
f 49/2/3 14/2/3 13/2/3
f 14/2/3 49/2/3 50/2/3
f 49/2/4 23/2/4 50/2/4
f 23/2/4 49/2/4 20/2/4
f 23/2/5 14/2/5 50/2/5
f 14/2/5 23/2/5 48/2/5
f 17/2/6 49/2/6 13/2/6
f 49/2/6 17/2/6 20/2/6
f 20/1/1 51/1/1 21/1/1
f 51/1/1 20/1/1 52/1/1
f 29/1/2 20/1/2 21/1/2
f 20/1/2 29/1/2 26/1/2
f 53/1/3 51/1/3 52/1/3
f 51/1/3 53/1/3 54/1/3
f 53/1/4 29/1/4 54/1/4
f 29/1/4 53/1/4 26/1/4
f 29/1/5 51/1/5 54/1/5
f 51/1/5 29/1/5 21/1/5
f 20/1/6 53/1/6 52/1/6
f 53/1/6 20/1/6 26/1/6
f 26/3/1 56/3/1 55/3/1
f 56/3/1 26/3/1 57/3/1
f 58/3/2 26/3/2 55/3/2
f 26/3/2 58/3/2 32/3/2
f 59/3/3 56/3/3 57/3/3
f 56/3/3 59/3/3 60/3/3
f 59/3/4 58/3/4 60/3/4
f 58/3/4 59/3/4 32/3/4
f 58/3/5 56/3/5 60/3/5
f 56/3/5 58/3/5 55/3/5
f 26/3/6 59/3/6 57/3/6
f 59/3/6 26/3/6 32/3/6
f 63/1/1 62/1/1 61/1/1
f 62/1/1 63/1/1 64/1/1
f 65/1/2 63/1/2 61/1/2
f 63/1/2 65/1/2 66/1/2
f 67/1/3 62/1/3 64/1/3
f 62/1/3 67/1/3 68/1/3
f 67/1/4 65/1/4 68/1/4
f 65/1/4 67/1/4 66/1/4
f 65/1/5 62/1/5 68/1/5
f 62/1/5 65/1/5 61/1/5
f 63/1/6 67/1/6 64/1/6
f 67/1/6 63/1/6 66/1/6
f 71/1/1 70/1/1 69/1/1
f 70/1/1 71/1/1 72/1/1
f 73/1/2 71/1/2 69/1/2
f 71/1/2 73/1/2 49/1/2
f 52/1/3 70/1/3 72/1/3
f 70/1/3 52/1/3 51/1/3
f 52/1/4 73/1/4 51/1/4
f 73/1/4 52/1/4 49/1/4
f 73/1/5 70/1/5 51/1/5
f 70/1/5 73/1/5 69/1/5
f 71/1/6 52/1/6 72/1/6
f 52/1/6 71/1/6 49/1/6
f 43/2/1 75/2/1 74/2/1
f 75/2/1 43/2/1 76/2/1
f 77/2/2 43/2/2 74/2/2
f 43/2/2 77/2/2 78/2/2
f 79/2/3 75/2/3 76/2/3
f 75/2/3 79/2/3 80/2/3
f 79/2/4 77/2/4 80/2/4
f 77/2/4 79/2/4 78/2/4
f 77/2/5 75/2/5 80/2/5
f 75/2/5 77/2/5 74/2/5
f 43/2/6 79/2/6 76/2/6
f 79/2/6 43/2/6 78/2/6
f 78/1/1 82/1/1 81/1/1
f 82/1/1 78/1/1 83/1/1
f 47/1/2 78/1/2 81/1/2
f 78/1/2 47/1/2 46/1/2
f 84/1/3 82/1/3 83/1/3
f 82/1/3 84/1/3 85/1/3
f 84/1/4 47/1/4 85/1/4
f 47/1/4 84/1/4 46/1/4
f 47/1/5 82/1/5 85/1/5
f 82/1/5 47/1/5 81/1/5
f 78/1/6 84/1/6 83/1/6
f 84/1/6 78/1/6 46/1/6
f 72/1/1 87/1/1 86/1/1
f 87/1/1 72/1/1 88/1/1
f 89/1/2 72/1/2 86/1/2
f 72/1/2 89/1/2 90/1/2
f 91/1/3 87/1/3 88/1/3
f 87/1/3 91/1/3 92/1/3
f 91/1/4 89/1/4 92/1/4
f 89/1/4 91/1/4 90/1/4
f 89/1/5 87/1/5 92/1/5
f 87/1/5 89/1/5 86/1/5
f 72/1/6 91/1/6 88/1/6
f 91/1/6 72/1/6 90/1/6
f 90/2/1 94/2/1 93/2/1
f 94/2/1 90/2/1 91/2/1
f 95/2/2 90/2/2 93/2/2
f 90/2/2 95/2/2 96/2/2
f 97/2/3 94/2/3 91/2/3
f 94/2/3 97/2/3 98/2/3
f 97/2/4 95/2/4 98/2/4
f 95/2/4 97/2/4 96/2/4
f 95/2/5 94/2/5 98/2/5
f 94/2/5 95/2/5 93/2/5
f 90/2/6 97/2/6 91/2/6
f 97/2/6 90/2/6 96/2/6
f 96/3/1 100/3/1 99/3/1
f 100/3/1 96/3/1 101/3/1
f 102/3/2 96/3/2 99/3/2
f 96/3/2 102/3/2 53/3/2
f 57/3/3 100/3/3 101/3/3
f 100/3/3 57/3/3 56/3/3
f 57/3/4 102/3/4 56/3/4
f 102/3/4 57/3/4 53/3/4
f 102/3/5 100/3/5 56/3/5
f 100/3/5 102/3/5 99/3/5
f 96/3/6 57/3/6 101/3/6
f 57/3/6 96/3/6 53/3/6
f 36/3/1 60/3/1 103/3/1
f 60/3/1 36/3/1 59/3/1
f 104/3/2 36/3/2 103/3/2
f 36/3/2 104/3/2 39/3/2
f 76/3/3 60/3/3 59/3/3
f 60/3/3 76/3/3 105/3/3
f 76/3/4 104/3/4 105/3/4
f 104/3/4 76/3/4 39/3/4
f 104/3/5 60/3/5 105/3/5
f 60/3/5 104/3/5 103/3/5
f 36/3/6 76/3/6 59/3/6
f 76/3/6 36/3/6 39/3/6
f 83/2/1 107/2/1 106/2/1
f 107/2/1 83/2/1 108/2/1
f 109/2/2 83/2/2 106/2/2
f 83/2/2 109/2/2 84/2/2
f 110/2/3 107/2/3 108/2/3
f 107/2/3 110/2/3 111/2/3
f 110/2/4 109/2/4 111/2/4
f 109/2/4 110/2/4 84/2/4
f 109/2/5 107/2/5 111/2/5
f 107/2/5 109/2/5 106/2/5
f 83/2/6 110/2/6 108/2/6
f 110/2/6 83/2/6 84/2/6
f 101/2/1 113/2/1 112/2/1
f 113/2/1 101/2/1 114/2/1
f 115/2/2 101/2/2 112/2/2
f 101/2/2 115/2/2 116/2/2
f 117/2/3 113/2/3 114/2/3
f 113/2/3 117/2/3 118/2/3
f 117/2/4 115/2/4 118/2/4
f 115/2/4 117/2/4 116/2/4
f 115/2/5 113/2/5 118/2/5
f 113/2/5 115/2/5 112/2/5
f 101/2/6 117/2/6 114/2/6
f 117/2/6 101/2/6 116/2/6
f 116/3/1 120/3/1 119/3/1
f 120/3/1 116/3/1 121/3/1
f 56/3/2 116/3/2 119/3/2
f 116/3/2 56/3/2 57/3/2
f 122/3/3 120/3/3 121/3/3
f 120/3/3 122/3/3 123/3/3
f 122/3/4 56/3/4 123/3/4
f 56/3/4 122/3/4 57/3/4
f 56/3/5 120/3/5 123/3/5
f 120/3/5 56/3/5 119/3/5
f 116/3/6 122/3/6 121/3/6
f 122/3/6 116/3/6 57/3/6
f 57/1/1 125/1/1 124/1/1
f 125/1/1 57/1/1 126/1/1
f 127/1/2 57/1/2 124/1/2
f 57/1/2 127/1/2 59/1/2
f 128/1/3 125/1/3 126/1/3
f 125/1/3 128/1/3 129/1/3
f 128/1/4 127/1/4 129/1/4
f 127/1/4 128/1/4 59/1/4
f 127/1/5 125/1/5 129/1/5
f 125/1/5 127/1/5 124/1/5
f 57/1/6 128/1/6 126/1/6
f 128/1/6 57/1/6 59/1/6
f 59/1/1 130/1/1 127/1/1
f 130/1/1 59/1/1 131/1/1
f 132/1/2 59/1/2 127/1/2
f 59/1/2 132/1/2 79/1/2
f 108/1/3 130/1/3 131/1/3
f 130/1/3 108/1/3 133/1/3
f 108/1/4 132/1/4 133/1/4
f 132/1/4 108/1/4 79/1/4
f 132/1/5 130/1/5 133/1/5
f 130/1/5 132/1/5 127/1/5
f 59/1/6 108/1/6 131/1/6
f 108/1/6 59/1/6 79/1/6
f 136/1/1 135/1/1 134/1/1
f 135/1/1 136/1/1 137/1/1
f 138/1/2 136/1/2 134/1/2
f 136/1/2 138/1/2 139/1/2
f 140/1/3 135/1/3 137/1/3
f 135/1/3 140/1/3 141/1/3
f 140/1/4 138/1/4 141/1/4
f 138/1/4 140/1/4 139/1/4
f 138/1/5 135/1/5 141/1/5
f 135/1/5 138/1/5 134/1/5
f 136/1/6 140/1/6 137/1/6
f 140/1/6 136/1/6 139/1/6
f 91/1/1 142/1/1 92/1/1
f 142/1/1 91/1/1 143/1/1
f 144/1/2 91/1/2 92/1/2
f 91/1/2 144/1/2 97/1/2
f 145/1/3 142/1/3 143/1/3
f 142/1/3 145/1/3 146/1/3
f 145/1/4 144/1/4 146/1/4
f 144/1/4 145/1/4 97/1/4
f 144/1/5 142/1/5 146/1/5
f 142/1/5 144/1/5 92/1/5
f 91/1/6 145/1/6 143/1/6
f 145/1/6 91/1/6 97/1/6
f 131/1/1 147/1/1 130/1/1
f 147/1/1 131/1/1 148/1/1
f 133/1/2 131/1/2 130/1/2
f 131/1/2 133/1/2 108/1/2
f 149/1/3 147/1/3 148/1/3
f 147/1/3 149/1/3 150/1/3
f 149/1/4 133/1/4 150/1/4
f 133/1/4 149/1/4 108/1/4
f 133/1/5 147/1/5 150/1/5
f 147/1/5 133/1/5 130/1/5
f 131/1/6 149/1/6 148/1/6
f 149/1/6 131/1/6 108/1/6
f 108/1/1 152/1/1 151/1/1
f 152/1/1 108/1/1 149/1/1
f 153/1/2 108/1/2 151/1/2
f 108/1/2 153/1/2 110/1/2
f 154/1/3 152/1/3 149/1/3
f 152/1/3 154/1/3 155/1/3
f 154/1/4 153/1/4 155/1/4
f 153/1/4 154/1/4 110/1/4
f 153/1/5 152/1/5 155/1/5
f 152/1/5 153/1/5 151/1/5
f 108/1/6 154/1/6 149/1/6
f 154/1/6 108/1/6 110/1/6
f 121/1/1 157/1/1 156/1/1
f 157/1/1 121/1/1 158/1/1
f 159/1/2 121/1/2 156/1/2
f 121/1/2 159/1/2 122/1/2
f 160/1/3 157/1/3 158/1/3
f 157/1/3 160/1/3 161/1/3
f 160/1/4 159/1/4 161/1/4
f 159/1/4 160/1/4 122/1/4
f 159/1/5 157/1/5 161/1/5
f 157/1/5 159/1/5 156/1/5
f 121/1/6 160/1/6 158/1/6
f 160/1/6 121/1/6 122/1/6
f 148/3/1 163/3/1 162/3/1
f 163/3/1 148/3/1 164/3/1
f 165/3/2 148/3/2 162/3/2
f 148/3/2 165/3/2 166/3/2
f 167/3/3 163/3/3 164/3/3
f 163/3/3 167/3/3 168/3/3
f 167/3/4 165/3/4 168/3/4
f 165/3/4 167/3/4 166/3/4
f 165/3/5 163/3/5 168/3/5
f 163/3/5 165/3/5 162/3/5
f 148/3/6 167/3/6 164/3/6
f 167/3/6 148/3/6 166/3/6
f 166/1/1 170/1/1 169/1/1
f 170/1/1 166/1/1 171/1/1
f 172/1/2 166/1/2 169/1/2
f 166/1/2 172/1/2 154/1/2
f 64/1/3 170/1/3 171/1/3
f 170/1/3 64/1/3 173/1/3
f 64/1/4 172/1/4 173/1/4
f 172/1/4 64/1/4 154/1/4
f 172/1/5 170/1/5 173/1/5
f 170/1/5 172/1/5 169/1/5
f 166/1/6 64/1/6 171/1/6
f 64/1/6 166/1/6 154/1/6
f 176/1/1 175/1/1 174/1/1
f 175/1/1 176/1/1 177/1/1
f 178/1/2 176/1/2 174/1/2
f 176/1/2 178/1/2 179/1/2
f 180/1/3 175/1/3 177/1/3
f 175/1/3 180/1/3 181/1/3
f 180/1/4 178/1/4 181/1/4
f 178/1/4 180/1/4 179/1/4
f 178/1/5 175/1/5 181/1/5
f 175/1/5 178/1/5 174/1/5
f 176/1/6 180/1/6 177/1/6
f 180/1/6 176/1/6 179/1/6
f 126/2/1 183/2/1 182/2/1
f 183/2/1 126/2/1 160/2/1
f 184/2/2 126/2/2 182/2/2
f 126/2/2 184/2/2 128/2/2
f 185/2/3 183/2/3 160/2/3
f 183/2/3 185/2/3 186/2/3
f 185/2/4 184/2/4 186/2/4
f 184/2/4 185/2/4 128/2/4
f 184/2/5 183/2/5 186/2/5
f 183/2/5 184/2/5 182/2/5
f 126/2/6 185/2/6 160/2/6
f 185/2/6 126/2/6 128/2/6
f 171/3/1 168/3/1 187/3/1
f 168/3/1 171/3/1 167/3/1
f 188/3/2 171/3/2 187/3/2
f 171/3/2 188/3/2 189/3/2
f 190/3/3 168/3/3 167/3/3
f 168/3/3 190/3/3 191/3/3
f 190/3/4 188/3/4 191/3/4
f 188/3/4 190/3/4 189/3/4
f 188/3/5 168/3/5 191/3/5
f 168/3/5 188/3/5 187/3/5
f 171/3/6 190/3/6 167/3/6
f 190/3/6 171/3/6 189/3/6
f 189/1/1 193/1/1 192/1/1
f 193/1/1 189/1/1 190/1/1
f 194/1/2 189/1/2 192/1/2
f 189/1/2 194/1/2 67/1/2
f 195/1/3 193/1/3 190/1/3
f 193/1/3 195/1/3 196/1/3
f 195/1/4 194/1/4 196/1/4
f 194/1/4 195/1/4 67/1/4
f 194/1/5 193/1/5 196/1/5
f 193/1/5 194/1/5 192/1/5
f 189/1/6 195/1/6 190/1/6
f 195/1/6 189/1/6 67/1/6
f 164/2/1 197/2/1 163/2/1
f 197/2/1 164/2/1 198/2/1
f 168/2/2 164/2/2 163/2/2
f 164/2/2 168/2/2 167/2/2
f 199/2/3 197/2/3 198/2/3
f 197/2/3 199/2/3 200/2/3
f 199/2/4 168/2/4 200/2/4
f 168/2/4 199/2/4 167/2/4
f 168/2/5 197/2/5 200/2/5
f 197/2/5 168/2/5 163/2/5
f 164/2/6 199/2/6 198/2/6
f 199/2/6 164/2/6 167/2/6
f 167/1/1 202/1/1 201/1/1
f 202/1/1 167/1/1 199/1/1
f 193/1/2 167/1/2 201/1/2
f 167/1/2 193/1/2 190/1/2
f 203/1/3 202/1/3 199/1/3
f 202/1/3 203/1/3 204/1/3
f 203/1/4 193/1/4 204/1/4
f 193/1/4 203/1/4 190/1/4
f 193/1/5 202/1/5 204/1/5
f 202/1/5 193/1/5 201/1/5
f 167/1/6 203/1/6 199/1/6
f 203/1/6 167/1/6 190/1/6
f 190/2/1 205/2/1 191/2/1
f 205/2/1 190/2/1 206/2/1
f 207/2/2 190/2/2 191/2/2
f 190/2/2 207/2/2 208/2/2
f 209/2/3 205/2/3 206/2/3
f 205/2/3 209/2/3 210/2/3
f 209/2/4 207/2/4 210/2/4
f 207/2/4 209/2/4 208/2/4
f 207/2/5 205/2/5 210/2/5
f 205/2/5 207/2/5 191/2/5
f 190/2/6 209/2/6 206/2/6
f 209/2/6 190/2/6 208/2/6
f 208/1/1 212/1/1 211/1/1
f 212/1/1 208/1/1 213/1/1
f 196/1/2 208/1/2 211/1/2
f 208/1/2 196/1/2 195/1/2
f 214/1/3 212/1/3 213/1/3
f 212/1/3 214/1/3 215/1/3
f 214/1/4 196/1/4 215/1/4
f 196/1/4 214/1/4 195/1/4
f 196/1/5 212/1/5 215/1/5
f 212/1/5 196/1/5 211/1/5
f 208/1/6 214/1/6 213/1/6
f 214/1/6 208/1/6 195/1/6
f 158/3/1 217/3/1 216/3/1
f 217/3/1 158/3/1 218/3/1
f 219/3/2 158/3/2 216/3/2
f 158/3/2 219/3/2 160/3/2
f 220/3/3 217/3/3 218/3/3
f 217/3/3 220/3/3 221/3/3
f 220/3/4 219/3/4 221/3/4
f 219/3/4 220/3/4 160/3/4
f 219/3/5 217/3/5 221/3/5
f 217/3/5 219/3/5 216/3/5
f 158/3/6 220/3/6 218/3/6
f 220/3/6 158/3/6 160/3/6
f 160/1/1 222/1/1 161/1/1
f 222/1/1 160/1/1 223/1/1
f 224/1/2 160/1/2 161/1/2
f 160/1/2 224/1/2 185/1/2
f 225/1/3 222/1/3 223/1/3
f 222/1/3 225/1/3 226/1/3
f 225/1/4 224/1/4 226/1/4
f 224/1/4 225/1/4 185/1/4
f 224/1/5 222/1/5 226/1/5
f 222/1/5 224/1/5 161/1/5
f 160/1/6 225/1/6 223/1/6
f 225/1/6 160/1/6 185/1/6
f 229/1/1 228/1/1 227/1/1
f 228/1/1 229/1/1 230/1/1
f 231/1/2 229/1/2 227/1/2
f 229/1/2 231/1/2 232/1/2
f 233/1/3 228/1/3 230/1/3
f 228/1/3 233/1/3 234/1/3
f 233/1/4 231/1/4 234/1/4
f 231/1/4 233/1/4 232/1/4
f 231/1/5 228/1/5 234/1/5
f 228/1/5 231/1/5 227/1/5
f 229/1/6 233/1/6 230/1/6
f 233/1/6 229/1/6 232/1/6
f 143/2/1 236/2/1 235/2/1
f 236/2/1 143/2/1 233/2/1
f 237/2/2 143/2/2 235/2/2
f 143/2/2 237/2/2 145/2/2
f 238/2/3 236/2/3 233/2/3
f 236/2/3 238/2/3 239/2/3
f 238/2/4 237/2/4 239/2/4
f 237/2/4 238/2/4 145/2/4
f 237/2/5 236/2/5 239/2/5
f 236/2/5 237/2/5 235/2/5
f 143/2/6 238/2/6 233/2/6
f 238/2/6 143/2/6 145/2/6
f 198/1/1 241/1/1 240/1/1
f 241/1/1 198/1/1 242/1/1
f 202/1/2 198/1/2 240/1/2
f 198/1/2 202/1/2 199/1/2
f 243/1/3 241/1/3 242/1/3
f 241/1/3 243/1/3 244/1/3
f 243/1/4 202/1/4 244/1/4
f 202/1/4 243/1/4 199/1/4
f 202/1/5 241/1/5 244/1/5
f 241/1/5 202/1/5 240/1/5
f 198/1/6 243/1/6 242/1/6
f 243/1/6 198/1/6 199/1/6
f 199/2/1 245/2/1 200/2/1
f 245/2/1 199/2/1 246/2/1
f 247/2/2 199/2/2 200/2/2
f 199/2/2 247/2/2 203/2/2
f 248/2/3 245/2/3 246/2/3
f 245/2/3 248/2/3 249/2/3
f 248/2/4 247/2/4 249/2/4
f 247/2/4 248/2/4 203/2/4
f 247/2/5 245/2/5 249/2/5
f 245/2/5 247/2/5 200/2/5
f 199/2/6 248/2/6 246/2/6
f 248/2/6 199/2/6 203/2/6
f 114/3/1 251/3/1 250/3/1
f 251/3/1 114/3/1 238/3/1
f 252/3/2 114/3/2 250/3/2
f 114/3/2 252/3/2 117/3/2
f 253/3/3 251/3/3 238/3/3
f 251/3/3 253/3/3 254/3/3
f 253/3/4 252/3/4 254/3/4
f 252/3/4 253/3/4 117/3/4
f 252/3/5 251/3/5 254/3/5
f 251/3/5 252/3/5 250/3/5
f 114/3/6 253/3/6 238/3/6
f 253/3/6 114/3/6 117/3/6
f 223/3/1 221/3/1 255/3/1
f 221/3/1 223/3/1 220/3/1
f 256/3/2 223/3/2 255/3/2
f 223/3/2 256/3/2 225/3/2
f 257/3/3 221/3/3 220/3/3
f 221/3/3 257/3/3 258/3/3
f 257/3/4 256/3/4 258/3/4
f 256/3/4 257/3/4 225/3/4
f 256/3/5 221/3/5 258/3/5
f 221/3/5 256/3/5 255/3/5
f 223/3/6 257/3/6 220/3/6
f 257/3/6 223/3/6 225/3/6
f 206/1/1 260/1/1 259/1/1
f 260/1/1 206/1/1 261/1/1
f 262/1/2 206/1/2 259/1/2
f 206/1/2 262/1/2 209/1/2
f 263/1/3 260/1/3 261/1/3
f 260/1/3 263/1/3 264/1/3
f 263/1/4 262/1/4 264/1/4
f 262/1/4 263/1/4 209/1/4
f 262/1/5 260/1/5 264/1/5
f 260/1/5 262/1/5 259/1/5
f 206/1/6 263/1/6 261/1/6
f 263/1/6 206/1/6 209/1/6
f 230/1/1 266/1/1 265/1/1
f 266/1/1 230/1/1 267/1/1
f 268/1/2 230/1/2 265/1/2
f 230/1/2 268/1/2 233/1/2
f 269/1/3 266/1/3 267/1/3
f 266/1/3 269/1/3 270/1/3
f 269/1/4 268/1/4 270/1/4
f 268/1/4 269/1/4 233/1/4
f 268/1/5 266/1/5 270/1/5
f 266/1/5 268/1/5 265/1/5
f 230/1/6 269/1/6 267/1/6
f 269/1/6 230/1/6 233/1/6
f 233/1/1 271/1/1 268/1/1
f 271/1/1 233/1/1 272/1/1
f 273/1/2 233/1/2 268/1/2
f 233/1/2 273/1/2 253/1/2
f 274/1/3 271/1/3 272/1/3
f 271/1/3 274/1/3 275/1/3
f 274/1/4 273/1/4 275/1/4
f 273/1/4 274/1/4 253/1/4
f 273/1/5 271/1/5 275/1/5
f 271/1/5 273/1/5 268/1/5
f 233/1/6 274/1/6 272/1/6
f 274/1/6 233/1/6 253/1/6
f 246/1/1 244/1/1 276/1/1
f 244/1/1 246/1/1 243/1/1
f 277/1/2 246/1/2 276/1/2
f 246/1/2 277/1/2 248/1/2
f 261/1/3 244/1/3 243/1/3
f 244/1/3 261/1/3 260/1/3
f 261/1/4 277/1/4 260/1/4
f 277/1/4 261/1/4 248/1/4
f 277/1/5 244/1/5 260/1/5
f 244/1/5 277/1/5 276/1/5
f 246/1/6 261/1/6 243/1/6
f 261/1/6 246/1/6 248/1/6
f 213/1/1 279/1/1 278/1/1
f 279/1/1 213/1/1 280/1/1
f 281/1/2 213/1/2 278/1/2
f 213/1/2 281/1/2 214/1/2
f 282/1/3 279/1/3 280/1/3
f 279/1/3 282/1/3 283/1/3
f 282/1/4 281/1/4 283/1/4
f 281/1/4 282/1/4 214/1/4
f 281/1/5 279/1/5 283/1/5
f 279/1/5 281/1/5 278/1/5
f 213/1/6 282/1/6 280/1/6
f 282/1/6 213/1/6 214/1/6
f 286/1/1 285/1/1 284/1/1
f 285/1/1 286/1/1 287/1/1
f 288/1/2 286/1/2 284/1/2
f 286/1/2 288/1/2 289/1/2
f 290/1/3 285/1/3 287/1/3
f 285/1/3 290/1/3 291/1/3
f 290/1/4 288/1/4 291/1/4
f 288/1/4 290/1/4 289/1/4
f 288/1/5 285/1/5 291/1/5
f 285/1/5 288/1/5 284/1/5
f 286/1/6 290/1/6 287/1/6
f 290/1/6 286/1/6 289/1/6
f 272/2/1 293/2/1 292/2/1
f 293/2/1 272/2/1 294/2/1
f 295/2/2 272/2/2 292/2/2
f 272/2/2 295/2/2 296/2/2
f 297/2/3 293/2/3 294/2/3
f 293/2/3 297/2/3 298/2/3
f 297/2/4 295/2/4 298/2/4
f 295/2/4 297/2/4 296/2/4
f 295/2/5 293/2/5 298/2/5
f 293/2/5 295/2/5 292/2/5
f 272/2/6 297/2/6 294/2/6
f 297/2/6 272/2/6 296/2/6
f 296/1/1 300/1/1 299/1/1
f 300/1/1 296/1/1 297/1/1
f 275/1/2 296/1/2 299/1/2
f 296/1/2 275/1/2 274/1/2
f 218/1/3 300/1/3 297/1/3
f 300/1/3 218/1/3 301/1/3
f 218/1/4 275/1/4 301/1/4
f 275/1/4 218/1/4 274/1/4
f 275/1/5 300/1/5 301/1/5
f 300/1/5 275/1/5 299/1/5
f 296/1/6 218/1/6 297/1/6
f 218/1/6 296/1/6 274/1/6
f 242/2/1 303/2/1 302/2/1
f 303/2/1 242/2/1 257/2/1
f 304/2/2 242/2/2 302/2/2
f 242/2/2 304/2/2 243/2/2
f 305/2/3 303/2/3 257/2/3
f 303/2/3 305/2/3 306/2/3
f 305/2/4 304/2/4 306/2/4
f 304/2/4 305/2/4 243/2/4
f 304/2/5 303/2/5 306/2/5
f 303/2/5 304/2/5 302/2/5
f 242/2/6 305/2/6 257/2/6
f 305/2/6 242/2/6 243/2/6
f 243/2/1 307/2/1 304/2/1
f 307/2/1 243/2/1 308/2/1
f 309/2/2 243/2/2 304/2/2
f 243/2/2 309/2/2 261/2/2
f 310/2/3 307/2/3 308/2/3
f 307/2/3 310/2/3 311/2/3
f 310/2/4 309/2/4 311/2/4
f 309/2/4 310/2/4 261/2/4
f 309/2/5 307/2/5 311/2/5
f 307/2/5 309/2/5 304/2/5
f 243/2/6 310/2/6 308/2/6
f 310/2/6 243/2/6 261/2/6
f 261/1/1 313/1/1 312/1/1
f 313/1/1 261/1/1 314/1/1
f 315/1/2 261/1/2 312/1/2
f 261/1/2 315/1/2 263/1/2
f 280/1/3 313/1/3 314/1/3
f 313/1/3 280/1/3 279/1/3
f 280/1/4 315/1/4 279/1/4
f 315/1/4 280/1/4 263/1/4
f 315/1/5 313/1/5 279/1/5
f 313/1/5 315/1/5 312/1/5
f 261/1/6 280/1/6 314/1/6
f 280/1/6 261/1/6 263/1/6
f 318/1/1 317/1/1 316/1/1
f 317/1/1 318/1/1 319/1/1
f 320/1/2 318/1/2 316/1/2
f 318/1/2 320/1/2 321/1/2
f 287/1/3 317/1/3 319/1/3
f 317/1/3 287/1/3 285/1/3
f 287/1/4 320/1/4 285/1/4
f 320/1/4 287/1/4 321/1/4
f 320/1/5 317/1/5 285/1/5
f 317/1/5 320/1/5 316/1/5
f 318/1/6 287/1/6 319/1/6
f 287/1/6 318/1/6 321/1/6
f 267/3/1 323/3/1 322/3/1
f 323/3/1 267/3/1 290/3/1
f 324/3/2 267/3/2 322/3/2
f 267/3/2 324/3/2 269/3/2
f 294/3/3 323/3/3 290/3/3
f 323/3/3 294/3/3 293/3/3
f 294/3/4 324/3/4 293/3/4
f 324/3/4 294/3/4 269/3/4
f 324/3/5 323/3/5 293/3/5
f 323/3/5 324/3/5 322/3/5
f 267/3/6 294/3/6 290/3/6
f 294/3/6 267/3/6 269/3/6
f 308/1/1 326/1/1 325/1/1
f 326/1/1 308/1/1 305/1/1
f 327/1/2 308/1/2 325/1/2
f 308/1/2 327/1/2 310/1/2
f 314/1/3 326/1/3 305/1/3
f 326/1/3 314/1/3 313/1/3
f 314/1/4 327/1/4 313/1/4
f 327/1/4 314/1/4 310/1/4
f 327/1/5 326/1/5 313/1/5
f 326/1/5 327/1/5 325/1/5
f 308/1/6 314/1/6 305/1/6
f 314/1/6 308/1/6 310/1/6
f 59/1/1 130/1/1 127/1/1
f 130/1/1 59/1/1 131/1/1
f 132/1/2 59/1/2 127/1/2
f 59/1/2 132/1/2 79/1/2
f 108/1/3 130/1/3 131/1/3
f 130/1/3 108/1/3 133/1/3
f 108/1/4 132/1/4 133/1/4
f 132/1/4 108/1/4 79/1/4
f 132/1/5 130/1/5 133/1/5
f 130/1/5 132/1/5 127/1/5
f 59/1/6 108/1/6 131/1/6
f 108/1/6 59/1/6 79/1/6
f 233/1/1 271/1/1 268/1/1
f 271/1/1 233/1/1 272/1/1
f 273/1/2 233/1/2 268/1/2
f 233/1/2 273/1/2 253/1/2
f 274/1/3 271/1/3 272/1/3
f 271/1/3 274/1/3 275/1/3
f 274/1/4 273/1/4 275/1/4
f 273/1/4 274/1/4 253/1/4
f 273/1/5 271/1/5 275/1/5
f 271/1/5 273/1/5 268/1/5
f 233/1/6 274/1/6 272/1/6
f 274/1/6 233/1/6 253/1/6
f 243/2/1 307/2/1 304/2/1
f 307/2/1 243/2/1 308/2/1
f 309/2/2 243/2/2 304/2/2
f 243/2/2 309/2/2 261/2/2
f 310/2/3 307/2/3 308/2/3
f 307/2/3 310/2/3 311/2/3
f 310/2/4 309/2/4 311/2/4
f 309/2/4 310/2/4 261/2/4
f 309/2/5 307/2/5 311/2/5
f 307/2/5 309/2/5 304/2/5
f 243/2/6 310/2/6 308/2/6
f 310/2/6 243/2/6 261/2/6

