# MagicaVoxel @ Ephtracy

# group
o Trash-Parcel

# material
mtllib Trash Obstacle Assets.vox-1-Trash-Parcel.mtl
usemtl palette

# normals
vn -1 0 0
vn 1 0 0
vn 0 0 1
vn 0 0 -1
vn 0 -1 0
vn 0 1 0

# texcoords
vt 0.00195312 0.5
vt 0.00585938 0.5
vt 0.00976562 0.5

# verts
v -0.5 0 0.8
v -0.5 0 -0.8
v -0.5 0.1 0.3
v -0.5 0.1 -0.3
v -0.5 0.2 0.2
v -0.5 0.2 0.1
v -0.5 0.2 -0.1
v -0.5 0.2 -0.2
v -0.5 0.3 0.1
v -0.5 0.3 0
v -0.5 0.4 0.2
v -0.5 0.4 0
v -0.5 0.4 -0.1
v -0.5 0.4 -0.2
v -0.5 0.5 0.3
v -0.5 0.5 -0.3
v -0.5 0.6 0.8
v -0.5 0.6 -0.8
v 0.5 0 0.8
v 0.5 0 -0.8
v 0.5 0.1 0.3
v 0.5 0.1 -0.3
v 0.5 0.2 0.2
v 0.5 0.2 0.1
v 0.5 0.2 -0.1
v 0.5 0.2 -0.2
v 0.5 0.3 0.1
v 0.5 0.3 0
v 0.5 0.4 0.2
v 0.5 0.4 0
v 0.5 0.4 -0.1
v 0.5 0.4 -0.2
v 0.5 0.5 0.3
v 0.5 0.5 -0.3
v 0.5 0.6 0.8
v 0.5 0.6 -0.8
v -0.5 0 0.8
v -0.5 0.6 0.8
v -0.1 0.4 0.8
v -0.1 0.6 0.8
v 0.1 0.4 0.8
v 0.1 0.6 0.8
v 0.5 0 0.8
v 0.5 0.6 0.8
v -0.5 0 -0.8
v -0.5 0.6 -0.8
v -0.1 0.4 -0.8
v -0.1 0.6 -0.8
v 0.1 0.4 -0.8
v 0.1 0.6 -0.8
v 0.5 0 -0.8
v 0.5 0.6 -0.8
v -0.5 0 0.8
v 0.5 0 0.8
v -0.5 0 -0.8
v 0.5 0 -0.8
v -0.5 0.6 0.8
v -0.1 0.6 0.8
v 0.1 0.6 0.8
v 0.5 0.6 0.8
v -0.5 0.6 -0.8
v -0.1 0.6 -0.8
v 0.1 0.6 -0.8
v 0.5 0.6 -0.8

# faces
f 3/2/1 2/2/1 1/2/1
f 4/2/1 2/2/1 3/2/1
f 5/3/1 4/3/1 3/3/1
f 6/3/1 4/3/1 5/3/1
f 7/3/1 4/3/1 6/3/1
f 8/3/1 4/3/1 7/3/1
f 9/1/1 6/1/1 5/1/1
f 9/3/1 7/3/1 6/3/1
f 10/3/1 7/3/1 9/3/1
f 11/3/1 5/3/1 3/3/1
f 11/1/1 9/1/1 5/1/1
f 11/1/1 10/1/1 9/1/1
f 12/3/1 7/3/1 10/3/1
f 12/1/1 10/1/1 11/1/1
f 13/1/1 8/1/1 7/1/1
f 13/3/1 7/3/1 12/3/1
f 14/3/1 4/3/1 8/3/1
f 14/1/1 8/1/1 13/1/1
f 15/2/1 3/2/1 1/2/1
f 15/3/1 11/3/1 3/3/1
f 15/3/1 14/3/1 13/3/1
f 15/3/1 12/3/1 11/3/1
f 15/3/1 13/3/1 12/3/1
f 16/3/1 4/3/1 14/3/1
f 16/3/1 14/3/1 15/3/1
f 16/2/1 2/2/1 4/2/1
f 17/2/1 15/2/1 1/2/1
f 17/2/1 16/2/1 15/2/1
f 18/2/1 2/2/1 16/2/1
f 18/2/1 16/2/1 17/2/1
f 19/2/2 20/2/2 21/2/2
f 21/2/2 20/2/2 22/2/2
f 21/3/2 22/3/2 23/3/2
f 23/3/2 22/3/2 24/3/2
f 24/3/2 22/3/2 25/3/2
f 25/3/2 22/3/2 26/3/2
f 23/1/2 24/1/2 27/1/2
f 24/3/2 25/3/2 27/3/2
f 27/3/2 25/3/2 28/3/2
f 21/3/2 23/3/2 29/3/2
f 23/1/2 27/1/2 29/1/2
f 27/1/2 28/1/2 29/1/2
f 28/3/2 25/3/2 30/3/2
f 29/1/2 28/1/2 30/1/2
f 25/1/2 26/1/2 31/1/2
f 30/3/2 25/3/2 31/3/2
f 26/3/2 22/3/2 32/3/2
f 31/1/2 26/1/2 32/1/2
f 19/2/2 21/2/2 33/2/2
f 21/3/2 29/3/2 33/3/2
f 31/3/2 32/3/2 33/3/2
f 29/3/2 30/3/2 33/3/2
f 30/3/2 31/3/2 33/3/2
f 32/3/2 22/3/2 34/3/2
f 33/3/2 32/3/2 34/3/2
f 22/2/2 20/2/2 34/2/2
f 19/2/2 33/2/2 35/2/2
f 33/2/2 34/2/2 35/2/2
f 34/2/2 20/2/2 36/2/2
f 35/2/2 34/2/2 36/2/2
f 39/2/3 38/2/3 37/2/3
f 40/2/3 38/2/3 39/2/3
f 41/2/3 39/2/3 37/2/3
f 41/3/3 40/3/3 39/3/3
f 42/3/3 40/3/3 41/3/3
f 43/2/3 41/2/3 37/2/3
f 43/2/3 42/2/3 41/2/3
f 44/2/3 42/2/3 43/2/3
f 45/2/4 46/2/4 47/2/4
f 47/2/4 46/2/4 48/2/4
f 45/2/4 47/2/4 49/2/4
f 47/3/4 48/3/4 49/3/4
f 49/3/4 48/3/4 50/3/4
f 45/2/4 49/2/4 51/2/4
f 49/2/4 50/2/4 51/2/4
f 51/2/4 50/2/4 52/2/4
f 55/2/5 54/2/5 53/2/5
f 56/2/5 54/2/5 55/2/5
f 57/2/6 58/2/6 61/2/6
f 58/3/6 59/3/6 62/3/6
f 61/2/6 58/2/6 62/2/6
f 59/2/6 60/2/6 63/2/6
f 62/3/6 59/3/6 63/3/6
f 63/2/6 60/2/6 64/2/6
