# MagicaVoxel @ Ephtracy

# group
o Sewer-Pipe-T-Shape

# material
mtllib Sewer Pipes.vox-1-Sewer-Pipe-T-Shape.mtl
usemtl palette

# normals
vn -1 0 0
vn 1 0 0
vn 0 0 1
vn 0 0 -1
vn 0 -1 0
vn 0 1 0

# texcoords
vt 0.00585938 0.5
vt 0.00976562 0.5

# verts
v -1.5 0.4 1.6
v -1.5 0.4 1.5
v -1.5 0.4 -1.5
v -1.5 0.4 -1.6
v -1.5 2.8 1.6
v -1.5 2.8 1.5
v -1.5 2.8 -1.5
v -1.5 2.8 -1.6
v -1.5 3.1 1.2
v -1.5 3.1 -1.2
v -1.5 3.2 1.2
v -1.5 3.2 -1.2
v -1.4 0.5 1.5
v -1.4 0.5 -1.5
v -1.4 2.7 1.5
v -1.4 2.7 1.1
v -1.4 2.7 -1.1
v -1.4 2.7 -1.5
v -1.4 3.1 1.1
v -1.4 3.1 -1.1
v -1.3 0.2 1.6
v -1.3 0.2 1.5
v -1.3 0.2 -1.5
v -1.3 0.2 -1.6
v -1.3 0.4 1.6
v -1.3 0.4 1.5
v -1.3 0.4 -1.5
v -1.3 0.4 -1.6
v -1.3 2.8 1.6
v -1.3 2.8 1.5
v -1.3 2.8 -1.5
v -1.3 2.8 -1.6
v -1.3 3 1.6
v -1.3 3 1.5
v -1.3 3 -1.5
v -1.3 3 -1.6
v -1.3 3.1 1.4
v -1.3 3.1 1.2
v -1.3 3.1 -1.2
v -1.3 3.1 -1.4
v -1.3 3.2 1.4
v -1.3 3.2 1.2
v -1.3 3.2 -1.2
v -1.3 3.2 -1.4
v -1.2 0.3 1.5
v -1.2 0.3 -1.5
v -1.2 0.5 1.5
v -1.2 0.5 -1.5
v -1.2 2.7 1.5
v -1.2 2.7 1.1
v -1.2 2.7 -1.1
v -1.2 2.7 -1.5
v -1.2 2.9 1.5
v -1.2 2.9 1.3
v -1.2 2.9 -1.3
v -1.2 2.9 -1.5
v -1.2 3.1 1.3
v -1.2 3.1 1.1
v -1.2 3.1 -1.1
v -1.2 3.1 -1.3
v 1 0.5 1.6
v 1 0.5 1.5
v 1 0.5 -1.5
v 1 0.5 -1.6
v 1 0.7 1.6
v 1 0.7 1.5
v 1 0.7 -1.5
v 1 0.7 -1.6
v 1 2.5 1.6
v 1 2.5 1.5
v 1 2.5 0.9
v 1 2.5 -0.9
v 1 2.5 -1.5
v 1 2.5 -1.6
v 1 2.7 1.6
v 1 2.7 1.5
v 1 2.7 1.1
v 1 2.7 -1.1
v 1 2.7 -1.5
v 1 2.7 -1.6
v 1 3.1 1.1
v 1 3.1 0.9
v 1 3.1 -0.9
v 1 3.1 -1.1
v 1 3.2 1.1
v 1 3.2 0.9
v 1 3.2 -0.9
v 1 3.2 -1.1
v 1.2 0.7 1.6
v 1.2 0.7 1.5
v 1.2 0.7 -1.5
v 1.2 0.7 -1.6
v 1.2 2.5 1.6
v 1.2 2.5 1.5
v 1.2 2.5 0.9
v 1.2 2.5 -0.9
v 1.2 2.5 -1.5
v 1.2 2.5 -1.6
v 1.2 3.1 0.9
v 1.2 3.1 -0.9
v 1.2 3.2 0.9
v 1.2 3.2 -0.9
v -1.2 0.7 1.6
v -1.2 0.7 1.5
v -1.2 0.7 -1.5
v -1.2 0.7 -1.6
v -1.2 2.5 1.6
v -1.2 2.5 1.5
v -1.2 2.5 0.9
v -1.2 2.5 -0.9
v -1.2 2.5 -1.5
v -1.2 2.5 -1.6
v -1.2 3.1 0.9
v -1.2 3.1 -0.9
v -1.2 3.2 0.9
v -1.2 3.2 -0.9
v -1 0.5 1.6
v -1 0.5 1.5
v -1 0.5 -1.5
v -1 0.5 -1.6
v -1 0.7 1.6
v -1 0.7 1.5
v -1 0.7 -1.5
v -1 0.7 -1.6
v -1 2.5 1.6
v -1 2.5 1.5
v -1 2.5 0.9
v -1 2.5 -0.9
v -1 2.5 -1.5
v -1 2.5 -1.6
v -1 2.7 1.6
v -1 2.7 1.5
v -1 2.7 1.1
v -1 2.7 -1.1
v -1 2.7 -1.5
v -1 2.7 -1.6
v -1 3.1 1.1
v -1 3.1 0.9
v -1 3.1 -0.9
v -1 3.1 -1.1
v -1 3.2 1.1
v -1 3.2 0.9
v -1 3.2 -0.9
v -1 3.2 -1.1
v 1.2 0.3 1.5
v 1.2 0.3 -1.5
v 1.2 0.5 1.5
v 1.2 0.5 -1.5
v 1.2 2.7 1.5
v 1.2 2.7 1.1
v 1.2 2.7 -1.1
v 1.2 2.7 -1.5
v 1.2 2.9 1.5
v 1.2 2.9 1.3
v 1.2 2.9 -1.3
v 1.2 2.9 -1.5
v 1.2 3.1 1.3
v 1.2 3.1 1.1
v 1.2 3.1 -1.1
v 1.2 3.1 -1.3
v 1.3 0.2 1.6
v 1.3 0.2 1.5
v 1.3 0.2 -1.5
v 1.3 0.2 -1.6
v 1.3 0.4 1.6
v 1.3 0.4 1.5
v 1.3 0.4 -1.5
v 1.3 0.4 -1.6
v 1.3 2.8 1.6
v 1.3 2.8 1.5
v 1.3 2.8 -1.5
v 1.3 2.8 -1.6
v 1.3 3 1.6
v 1.3 3 1.5
v 1.3 3 -1.5
v 1.3 3 -1.6
v 1.3 3.1 1.4
v 1.3 3.1 1.2
v 1.3 3.1 -1.2
v 1.3 3.1 -1.4
v 1.3 3.2 1.4
v 1.3 3.2 1.2
v 1.3 3.2 -1.2
v 1.3 3.2 -1.4
v 1.4 0.5 1.5
v 1.4 0.5 -1.5
v 1.4 2.7 1.5
v 1.4 2.7 1.1
v 1.4 2.7 -1.1
v 1.4 2.7 -1.5
v 1.4 3.1 1.1
v 1.4 3.1 -1.1
v 1.5 0.4 1.6
v 1.5 0.4 1.5
v 1.5 0.4 -1.5
v 1.5 0.4 -1.6
v 1.5 2.8 1.6
v 1.5 2.8 1.5
v 1.5 2.8 -1.5
v 1.5 2.8 -1.6
v 1.5 3.1 1.2
v 1.5 3.1 -1.2
v 1.5 3.2 1.2
v 1.5 3.2 -1.2
v -1.5 0.4 1.6
v -1.5 2.8 1.6
v -1.3 0.2 1.6
v -1.3 0.4 1.6
v -1.3 2.8 1.6
v -1.3 3 1.6
v -1.2 0.7 1.6
v -1.2 2.5 1.6
v -1 0.5 1.6
v -1 0.7 1.6
v -1 2.5 1.6
v -1 2.7 1.6
v 1 0.5 1.6
v 1 0.7 1.6
v 1 2.5 1.6
v 1 2.7 1.6
v 1.2 0.7 1.6
v 1.2 2.5 1.6
v 1.3 0.2 1.6
v 1.3 0.4 1.6
v 1.3 2.8 1.6
v 1.3 3 1.6
v 1.5 0.4 1.6
v 1.5 2.8 1.6
v -1.3 3.1 1.4
v -1.3 3.2 1.4
v 1.3 3.1 1.4
v 1.3 3.2 1.4
v -1.2 2.9 1.3
v -1.2 3.1 1.3
v 1.2 2.9 1.3
v 1.2 3.1 1.3
v -1.5 3.1 1.2
v -1.5 3.2 1.2
v -1.3 3.1 1.2
v -1.3 3.2 1.2
v 1.3 3.1 1.2
v 1.3 3.2 1.2
v 1.5 3.1 1.2
v 1.5 3.2 1.2
v -1.4 2.7 1.1
v -1.4 3.1 1.1
v -1.2 2.7 1.1
v -1.2 3.1 1.1
v 1.2 2.7 1.1
v 1.2 3.1 1.1
v 1.4 2.7 1.1
v 1.4 3.1 1.1
v -1.2 2.5 -0.9
v -1.2 3.1 -0.9
v -1.2 3.2 -0.9
v -1 2.5 -0.9
v -1 3.1 -0.9
v -1 3.2 -0.9
v 1 2.5 -0.9
v 1 3.1 -0.9
v 1 3.2 -0.9
v 1.2 2.5 -0.9
v 1.2 3.1 -0.9
v 1.2 3.2 -0.9
v -1 2.7 -1.1
v -1 3.1 -1.1
v -1 3.2 -1.1
v 1 2.7 -1.1
v 1 3.1 -1.1
v 1 3.2 -1.1
v -1.5 0.4 -1.5
v -1.5 2.8 -1.5
v -1.4 0.5 -1.5
v -1.4 2.7 -1.5
v -1.3 0.2 -1.5
v -1.3 0.4 -1.5
v -1.3 2.8 -1.5
v -1.3 3 -1.5
v -1.2 0.3 -1.5
v -1.2 0.5 -1.5
v -1.2 2.7 -1.5
v -1.2 2.9 -1.5
v 1.2 0.3 -1.5
v 1.2 0.5 -1.5
v 1.2 2.7 -1.5
v 1.2 2.9 -1.5
v 1.3 0.2 -1.5
v 1.3 0.4 -1.5
v 1.3 2.8 -1.5
v 1.3 3 -1.5
v 1.4 0.5 -1.5
v 1.4 2.7 -1.5
v 1.5 0.4 -1.5
v 1.5 2.8 -1.5
v -1.5 0.4 1.5
v -1.5 2.8 1.5
v -1.4 0.5 1.5
v -1.4 2.7 1.5
v -1.3 0.2 1.5
v -1.3 0.4 1.5
v -1.3 2.8 1.5
v -1.3 3 1.5
v -1.2 0.3 1.5
v -1.2 0.5 1.5
v -1.2 2.7 1.5
v -1.2 2.9 1.5
v 1.2 0.3 1.5
v 1.2 0.5 1.5
v 1.2 2.7 1.5
v 1.2 2.9 1.5
v 1.3 0.2 1.5
v 1.3 0.4 1.5
v 1.3 2.8 1.5
v 1.3 3 1.5
v 1.4 0.5 1.5
v 1.4 2.7 1.5
v 1.5 0.4 1.5
v 1.5 2.8 1.5
v -1 2.7 1.1
v -1 3.1 1.1
v -1 3.2 1.1
v 1 2.7 1.1
v 1 3.1 1.1
v 1 3.2 1.1
v -1.2 2.5 0.9
v -1.2 3.1 0.9
v -1.2 3.2 0.9
v -1 2.5 0.9
v -1 3.1 0.9
v -1 3.2 0.9
v 1 2.5 0.9
v 1 3.1 0.9
v 1 3.2 0.9
v 1.2 2.5 0.9
v 1.2 3.1 0.9
v 1.2 3.2 0.9
v -1.4 2.7 -1.1
v -1.4 3.1 -1.1
v -1.2 2.7 -1.1
v -1.2 3.1 -1.1
v 1.2 2.7 -1.1
v 1.2 3.1 -1.1
v 1.4 2.7 -1.1
v 1.4 3.1 -1.1
v -1.5 3.1 -1.2
v -1.5 3.2 -1.2
v -1.3 3.1 -1.2
v -1.3 3.2 -1.2
v 1.3 3.1 -1.2
v 1.3 3.2 -1.2
v 1.5 3.1 -1.2
v 1.5 3.2 -1.2
v -1.2 2.9 -1.3
v -1.2 3.1 -1.3
v 1.2 2.9 -1.3
v 1.2 3.1 -1.3
v -1.3 3.1 -1.4
v -1.3 3.2 -1.4
v 1.3 3.1 -1.4
v 1.3 3.2 -1.4
v -1.5 0.4 -1.6
v -1.5 2.8 -1.6
v -1.3 0.2 -1.6
v -1.3 0.4 -1.6
v -1.3 2.8 -1.6
v -1.3 3 -1.6
v -1.2 0.7 -1.6
v -1.2 2.5 -1.6
v -1 0.5 -1.6
v -1 0.7 -1.6
v -1 2.5 -1.6
v -1 2.7 -1.6
v 1 0.5 -1.6
v 1 0.7 -1.6
v 1 2.5 -1.6
v 1 2.7 -1.6
v 1.2 0.7 -1.6
v 1.2 2.5 -1.6
v 1.3 0.2 -1.6
v 1.3 0.4 -1.6
v 1.3 2.8 -1.6
v 1.3 3 -1.6
v 1.5 0.4 -1.6
v 1.5 2.8 -1.6
v -1.3 0.2 1.6
v 1.3 0.2 1.6
v -1.3 0.2 1.5
v 1.3 0.2 1.5
v -1.3 0.2 -1.5
v 1.3 0.2 -1.5
v -1.3 0.2 -1.6
v 1.3 0.2 -1.6
v -1.2 0.3 1.5
v 1.2 0.3 1.5
v -1.2 0.3 -1.5
v 1.2 0.3 -1.5
v -1.5 0.4 1.6
v -1.3 0.4 1.6
v 1.3 0.4 1.6
v 1.5 0.4 1.6
v -1.5 0.4 1.5
v -1.3 0.4 1.5
v 1.3 0.4 1.5
v 1.5 0.4 1.5
v -1.5 0.4 -1.5
v -1.3 0.4 -1.5
v 1.3 0.4 -1.5
v 1.5 0.4 -1.5
v -1.5 0.4 -1.6
v -1.3 0.4 -1.6
v 1.3 0.4 -1.6
v 1.5 0.4 -1.6
v -1.4 0.5 1.5
v -1.2 0.5 1.5
v 1.2 0.5 1.5
v 1.4 0.5 1.5
v -1.4 0.5 -1.5
v -1.2 0.5 -1.5
v 1.2 0.5 -1.5
v 1.4 0.5 -1.5
v -1.2 2.5 1.6
v -1 2.5 1.6
v 1 2.5 1.6
v 1.2 2.5 1.6
v -1.2 2.5 1.5
v -1 2.5 1.5
v 1 2.5 1.5
v 1.2 2.5 1.5
v -1.2 2.5 0.9
v -1 2.5 0.9
v 1 2.5 0.9
v 1.2 2.5 0.9
v -1.2 2.5 -0.9
v -1 2.5 -0.9
v 1 2.5 -0.9
v 1.2 2.5 -0.9
v -1.2 2.5 -1.5
v -1 2.5 -1.5
v 1 2.5 -1.5
v 1.2 2.5 -1.5
v -1.2 2.5 -1.6
v -1 2.5 -1.6
v 1 2.5 -1.6
v 1.2 2.5 -1.6
v -1 2.7 1.6
v 1 2.7 1.6
v -1 2.7 1.5
v 1 2.7 1.5
v -1 2.7 1.1
v 1 2.7 1.1
v -1 2.7 -1.1
v 1 2.7 -1.1
v -1 2.7 -1.5
v 1 2.7 -1.5
v -1 2.7 -1.6
v 1 2.7 -1.6
v -1.3 3.1 1.4
v 1.3 3.1 1.4
v -1.2 3.1 1.3
v 1.2 3.1 1.3
v -1.5 3.1 1.2
v -1.3 3.1 1.2
v 1.3 3.1 1.2
v 1.5 3.1 1.2
v -1.4 3.1 1.1
v -1.2 3.1 1.1
v 1.2 3.1 1.1
v 1.4 3.1 1.1
v -1.4 3.1 -1.1
v -1.2 3.1 -1.1
v 1.2 3.1 -1.1
v 1.4 3.1 -1.1
v -1.5 3.1 -1.2
v -1.3 3.1 -1.2
v 1.3 3.1 -1.2
v 1.5 3.1 -1.2
v -1.2 3.1 -1.3
v 1.2 3.1 -1.3
v -1.3 3.1 -1.4
v 1.3 3.1 -1.4
v -1 0.5 1.6
v 1 0.5 1.6
v -1 0.5 1.5
v 1 0.5 1.5
v -1 0.5 -1.5
v 1 0.5 -1.5
v -1 0.5 -1.6
v 1 0.5 -1.6
v -1.2 0.7 1.6
v -1 0.7 1.6
v 1 0.7 1.6
v 1.2 0.7 1.6
v -1.2 0.7 1.5
v -1 0.7 1.5
v 1 0.7 1.5
v 1.2 0.7 1.5
v -1.2 0.7 -1.5
v -1 0.7 -1.5
v 1 0.7 -1.5
v 1.2 0.7 -1.5
v -1.2 0.7 -1.6
v -1 0.7 -1.6
v 1 0.7 -1.6
v 1.2 0.7 -1.6
v -1.4 2.7 1.5
v -1.2 2.7 1.5
v 1.2 2.7 1.5
v 1.4 2.7 1.5
v -1.4 2.7 1.1
v -1.2 2.7 1.1
v 1.2 2.7 1.1
v 1.4 2.7 1.1
v -1.4 2.7 -1.1
v -1.2 2.7 -1.1
v 1.2 2.7 -1.1
v 1.4 2.7 -1.1
v -1.4 2.7 -1.5
v -1.2 2.7 -1.5
v 1.2 2.7 -1.5
v 1.4 2.7 -1.5
v -1.5 2.8 1.6
v -1.3 2.8 1.6
v 1.3 2.8 1.6
v 1.5 2.8 1.6
v -1.5 2.8 1.5
v -1.3 2.8 1.5
v 1.3 2.8 1.5
v 1.5 2.8 1.5
v -1.5 2.8 -1.5
v -1.3 2.8 -1.5
v 1.3 2.8 -1.5
v 1.5 2.8 -1.5
v -1.5 2.8 -1.6
v -1.3 2.8 -1.6
v 1.3 2.8 -1.6
v 1.5 2.8 -1.6
v -1.2 2.9 1.5
v 1.2 2.9 1.5
v -1.2 2.9 1.3
v 1.2 2.9 1.3
v -1.2 2.9 -1.3
v 1.2 2.9 -1.3
v -1.2 2.9 -1.5
v 1.2 2.9 -1.5
v -1.3 3 1.6
v 1.3 3 1.6
v -1.3 3 1.5
v 1.3 3 1.5
v -1.3 3 -1.5
v 1.3 3 -1.5
v -1.3 3 -1.6
v 1.3 3 -1.6
v -1.3 3.2 1.4
v 1.3 3.2 1.4
v -1.5 3.2 1.2
v -1.3 3.2 1.2
v 1.3 3.2 1.2
v 1.5 3.2 1.2
v -1 3.2 1.1
v 1 3.2 1.1
v -1.2 3.2 0.9
v -1 3.2 0.9
v 1 3.2 0.9
v 1.2 3.2 0.9
v -1.2 3.2 -0.9
v -1 3.2 -0.9
v 1 3.2 -0.9
v 1.2 3.2 -0.9
v -1 3.2 -1.1
v 1 3.2 -1.1
v -1.5 3.2 -1.2
v -1.3 3.2 -1.2
v 1.3 3.2 -1.2
v 1.5 3.2 -1.2
v -1.3 3.2 -1.4
v 1.3 3.2 -1.4

# faces
f 5/2/1 2/2/1 1/2/1
f 6/2/1 2/2/1 5/2/1
f 7/2/1 4/2/1 3/2/1
f 8/2/1 4/2/1 7/2/1
f 11/2/1 10/2/1 9/2/1
f 12/2/1 10/2/1 11/2/1
f 15/1/1 14/1/1 13/1/1
f 16/1/1 14/1/1 15/1/1
f 17/1/1 14/1/1 16/1/1
f 18/1/1 14/1/1 17/1/1
f 19/1/1 17/1/1 16/1/1
f 20/1/1 17/1/1 19/1/1
f 25/2/1 22/2/1 21/2/1
f 26/2/1 22/2/1 25/2/1
f 27/2/1 24/2/1 23/2/1
f 28/2/1 24/2/1 27/2/1
f 33/2/1 30/2/1 29/2/1
f 34/2/1 30/2/1 33/2/1
f 35/2/1 32/2/1 31/2/1
f 36/2/1 32/2/1 35/2/1
f 41/2/1 38/2/1 37/2/1
f 42/2/1 38/2/1 41/2/1
f 43/2/1 40/2/1 39/2/1
f 44/2/1 40/2/1 43/2/1
f 47/1/1 46/1/1 45/1/1
f 48/1/1 46/1/1 47/1/1
f 53/1/1 50/1/1 49/1/1
f 54/1/1 50/1/1 53/1/1
f 55/1/1 52/1/1 51/1/1
f 56/1/1 52/1/1 55/1/1
f 57/1/1 50/1/1 54/1/1
f 58/1/1 50/1/1 57/1/1
f 59/1/1 55/1/1 51/1/1
f 60/1/1 55/1/1 59/1/1
f 65/2/1 62/2/1 61/2/1
f 66/1/1 63/1/1 62/1/1
f 66/2/1 62/2/1 65/2/1
f 67/2/1 64/2/1 63/2/1
f 67/1/1 63/1/1 66/1/1
f 68/2/1 64/2/1 67/2/1
f 75/2/1 70/2/1 69/2/1
f 76/1/1 71/1/1 70/1/1
f 76/2/1 70/2/1 75/2/1
f 77/1/1 71/1/1 76/1/1
f 78/1/1 73/1/1 72/1/1
f 79/2/1 74/2/1 73/2/1
f 79/1/1 73/1/1 78/1/1
f 80/2/1 74/2/1 79/2/1
f 81/1/1 71/1/1 77/1/1
f 82/1/1 71/1/1 81/1/1
f 83/1/1 78/1/1 72/1/1
f 84/1/1 78/1/1 83/1/1
f 85/2/1 82/2/1 81/2/1
f 86/2/1 82/2/1 85/2/1
f 87/2/1 84/2/1 83/2/1
f 88/2/1 84/2/1 87/2/1
f 93/2/1 90/2/1 89/2/1
f 94/1/1 91/1/1 90/1/1
f 94/2/1 90/2/1 93/2/1
f 95/1/1 91/1/1 94/1/1
f 96/1/1 91/1/1 95/1/1
f 97/2/1 92/2/1 91/2/1
f 97/1/1 91/1/1 96/1/1
f 98/2/1 92/2/1 97/2/1
f 99/1/1 96/1/1 95/1/1
f 100/1/1 96/1/1 99/1/1
f 101/2/1 100/2/1 99/2/1
f 102/2/1 100/2/1 101/2/1
f 103/2/2 104/2/2 107/2/2
f 104/1/2 105/1/2 108/1/2
f 107/2/2 104/2/2 108/2/2
f 108/1/2 105/1/2 109/1/2
f 109/1/2 105/1/2 110/1/2
f 105/2/2 106/2/2 111/2/2
f 110/1/2 105/1/2 111/1/2
f 111/2/2 106/2/2 112/2/2
f 109/1/2 110/1/2 113/1/2
f 113/1/2 110/1/2 114/1/2
f 113/2/2 114/2/2 115/2/2
f 115/2/2 114/2/2 116/2/2
f 117/2/2 118/2/2 121/2/2
f 118/1/2 119/1/2 122/1/2
f 121/2/2 118/2/2 122/2/2
f 119/2/2 120/2/2 123/2/2
f 122/1/2 119/1/2 123/1/2
f 123/2/2 120/2/2 124/2/2
f 125/2/2 126/2/2 131/2/2
f 126/1/2 127/1/2 132/1/2
f 131/2/2 126/2/2 132/2/2
f 132/1/2 127/1/2 133/1/2
f 128/1/2 129/1/2 134/1/2
f 129/2/2 130/2/2 135/2/2
f 134/1/2 129/1/2 135/1/2
f 135/2/2 130/2/2 136/2/2
f 133/1/2 127/1/2 137/1/2
f 137/1/2 127/1/2 138/1/2
f 128/1/2 134/1/2 139/1/2
f 139/1/2 134/1/2 140/1/2
f 137/2/2 138/2/2 141/2/2
f 141/2/2 138/2/2 142/2/2
f 139/2/2 140/2/2 143/2/2
f 143/2/2 140/2/2 144/2/2
f 145/1/2 146/1/2 147/1/2
f 147/1/2 146/1/2 148/1/2
f 149/1/2 150/1/2 153/1/2
f 153/1/2 150/1/2 154/1/2
f 151/1/2 152/1/2 155/1/2
f 155/1/2 152/1/2 156/1/2
f 154/1/2 150/1/2 157/1/2
f 157/1/2 150/1/2 158/1/2
f 151/1/2 155/1/2 159/1/2
f 159/1/2 155/1/2 160/1/2
f 161/2/2 162/2/2 165/2/2
f 165/2/2 162/2/2 166/2/2
f 163/2/2 164/2/2 167/2/2
f 167/2/2 164/2/2 168/2/2
f 169/2/2 170/2/2 173/2/2
f 173/2/2 170/2/2 174/2/2
f 171/2/2 172/2/2 175/2/2
f 175/2/2 172/2/2 176/2/2
f 177/2/2 178/2/2 181/2/2
f 181/2/2 178/2/2 182/2/2
f 179/2/2 180/2/2 183/2/2
f 183/2/2 180/2/2 184/2/2
f 185/1/2 186/1/2 187/1/2
f 187/1/2 186/1/2 188/1/2
f 188/1/2 186/1/2 189/1/2
f 189/1/2 186/1/2 190/1/2
f 188/1/2 189/1/2 191/1/2
f 191/1/2 189/1/2 192/1/2
f 193/2/2 194/2/2 197/2/2
f 197/2/2 194/2/2 198/2/2
f 195/2/2 196/2/2 199/2/2
f 199/2/2 196/2/2 200/2/2
f 201/2/2 202/2/2 203/2/2
f 203/2/2 202/2/2 204/2/2
f 208/2/3 206/2/3 205/2/3
f 209/2/3 206/2/3 208/2/3
f 211/2/3 208/2/3 207/2/3
f 211/2/3 210/2/3 209/2/3
f 211/2/3 209/2/3 208/2/3
f 212/2/3 210/2/3 211/2/3
f 213/2/3 211/2/3 207/2/3
f 214/2/3 211/2/3 213/2/3
f 215/2/3 210/2/3 212/2/3
f 216/2/3 210/2/3 215/2/3
f 217/2/3 213/2/3 207/2/3
f 220/2/3 210/2/3 216/2/3
f 221/2/3 218/2/3 217/2/3
f 222/2/3 220/2/3 219/2/3
f 223/2/3 221/2/3 217/2/3
f 223/2/3 222/2/3 221/2/3
f 223/2/3 217/2/3 207/2/3
f 224/2/3 222/2/3 223/2/3
f 225/2/3 220/2/3 222/2/3
f 225/2/3 222/2/3 224/2/3
f 225/2/3 210/2/3 220/2/3
f 226/2/3 210/2/3 225/2/3
f 227/2/3 225/2/3 224/2/3
f 228/2/3 225/2/3 227/2/3
f 231/2/3 230/2/3 229/2/3
f 232/2/3 230/2/3 231/2/3
f 235/1/3 234/1/3 233/1/3
f 236/1/3 234/1/3 235/1/3
f 239/2/3 238/2/3 237/2/3
f 240/2/3 238/2/3 239/2/3
f 243/2/3 242/2/3 241/2/3
f 244/2/3 242/2/3 243/2/3
f 247/1/3 246/1/3 245/1/3
f 248/1/3 246/1/3 247/1/3
f 251/1/3 250/1/3 249/1/3
f 252/1/3 250/1/3 251/1/3
f 256/1/3 254/1/3 253/1/3
f 257/2/3 255/2/3 254/2/3
f 257/1/3 254/1/3 256/1/3
f 258/2/3 255/2/3 257/2/3
f 262/1/3 260/1/3 259/1/3
f 263/2/3 261/2/3 260/2/3
f 263/1/3 260/1/3 262/1/3
f 264/2/3 261/2/3 263/2/3
f 268/1/3 266/1/3 265/1/3
f 269/2/3 267/2/3 266/2/3
f 269/1/3 266/1/3 268/1/3
f 270/2/3 267/2/3 269/2/3
f 273/2/3 272/2/3 271/2/3
f 274/2/3 272/2/3 273/2/3
f 276/2/3 273/2/3 271/2/3
f 277/2/3 272/2/3 274/2/3
f 279/2/3 276/2/3 275/2/3
f 280/2/3 273/2/3 276/2/3
f 280/2/3 276/2/3 279/2/3
f 281/2/3 278/2/3 277/2/3
f 281/2/3 277/2/3 274/2/3
f 282/2/3 278/2/3 281/2/3
f 283/2/3 279/2/3 275/2/3
f 286/2/3 278/2/3 282/2/3
f 287/2/3 284/2/3 283/2/3
f 287/2/3 283/2/3 275/2/3
f 288/2/3 284/2/3 287/2/3
f 289/2/3 286/2/3 285/2/3
f 290/2/3 278/2/3 286/2/3
f 290/2/3 286/2/3 289/2/3
f 291/2/3 284/2/3 288/2/3
f 292/2/3 289/2/3 285/2/3
f 293/2/3 291/2/3 288/2/3
f 293/2/3 292/2/3 291/2/3
f 294/2/3 289/2/3 292/2/3
f 294/2/3 292/2/3 293/2/3
f 295/2/4 296/2/4 297/2/4
f 297/2/4 296/2/4 298/2/4
f 295/2/4 297/2/4 300/2/4
f 298/2/4 296/2/4 301/2/4
f 299/2/4 300/2/4 303/2/4
f 300/2/4 297/2/4 304/2/4
f 303/2/4 300/2/4 304/2/4
f 301/2/4 302/2/4 305/2/4
f 298/2/4 301/2/4 305/2/4
f 305/2/4 302/2/4 306/2/4
f 299/2/4 303/2/4 307/2/4
f 306/2/4 302/2/4 310/2/4
f 307/2/4 308/2/4 311/2/4
f 299/2/4 307/2/4 311/2/4
f 311/2/4 308/2/4 312/2/4
f 309/2/4 310/2/4 313/2/4
f 310/2/4 302/2/4 314/2/4
f 313/2/4 310/2/4 314/2/4
f 312/2/4 308/2/4 315/2/4
f 309/2/4 313/2/4 316/2/4
f 312/2/4 315/2/4 317/2/4
f 315/2/4 316/2/4 317/2/4
f 316/2/4 313/2/4 318/2/4
f 317/2/4 316/2/4 318/2/4
f 319/1/4 320/1/4 322/1/4
f 320/2/4 321/2/4 323/2/4
f 322/1/4 320/1/4 323/1/4
f 323/2/4 321/2/4 324/2/4
f 325/1/4 326/1/4 328/1/4
f 326/2/4 327/2/4 329/2/4
f 328/1/4 326/1/4 329/1/4
f 329/2/4 327/2/4 330/2/4
f 331/1/4 332/1/4 334/1/4
f 332/2/4 333/2/4 335/2/4
f 334/1/4 332/1/4 335/1/4
f 335/2/4 333/2/4 336/2/4
f 337/1/4 338/1/4 339/1/4
f 339/1/4 338/1/4 340/1/4
f 341/1/4 342/1/4 343/1/4
f 343/1/4 342/1/4 344/1/4
f 345/2/4 346/2/4 347/2/4
f 347/2/4 346/2/4 348/2/4
f 349/2/4 350/2/4 351/2/4
f 351/2/4 350/2/4 352/2/4
f 353/1/4 354/1/4 355/1/4
f 355/1/4 354/1/4 356/1/4
f 357/2/4 358/2/4 359/2/4
f 359/2/4 358/2/4 360/2/4
f 361/2/4 362/2/4 364/2/4
f 364/2/4 362/2/4 365/2/4
f 363/2/4 364/2/4 367/2/4
f 365/2/4 366/2/4 367/2/4
f 364/2/4 365/2/4 367/2/4
f 367/2/4 366/2/4 368/2/4
f 363/2/4 367/2/4 369/2/4
f 369/2/4 367/2/4 370/2/4
f 368/2/4 366/2/4 371/2/4
f 371/2/4 366/2/4 372/2/4
f 363/2/4 369/2/4 373/2/4
f 372/2/4 366/2/4 376/2/4
f 373/2/4 374/2/4 377/2/4
f 375/2/4 376/2/4 378/2/4
f 373/2/4 377/2/4 379/2/4
f 377/2/4 378/2/4 379/2/4
f 363/2/4 373/2/4 379/2/4
f 379/2/4 378/2/4 380/2/4
f 378/2/4 376/2/4 381/2/4
f 380/2/4 378/2/4 381/2/4
f 376/2/4 366/2/4 381/2/4
f 381/2/4 366/2/4 382/2/4
f 380/2/4 381/2/4 383/2/4
f 383/2/4 381/2/4 384/2/4
f 387/2/5 386/2/5 385/2/5
f 388/2/5 386/2/5 387/2/5
f 391/2/5 390/2/5 389/2/5
f 392/2/5 390/2/5 391/2/5
f 395/1/5 394/1/5 393/1/5
f 396/1/5 394/1/5 395/1/5
f 401/2/5 398/2/5 397/2/5
f 402/2/5 398/2/5 401/2/5
f 403/2/5 400/2/5 399/2/5
f 404/2/5 400/2/5 403/2/5
f 409/2/5 406/2/5 405/2/5
f 410/2/5 406/2/5 409/2/5
f 411/2/5 408/2/5 407/2/5
f 412/2/5 408/2/5 411/2/5
f 417/1/5 414/1/5 413/1/5
f 418/1/5 414/1/5 417/1/5
f 419/1/5 416/1/5 415/1/5
f 420/1/5 416/1/5 419/1/5
f 425/2/5 422/2/5 421/2/5
f 426/2/5 422/2/5 425/2/5
f 427/2/5 424/2/5 423/2/5
f 428/2/5 424/2/5 427/2/5
f 429/1/5 426/1/5 425/1/5
f 430/1/5 426/1/5 429/1/5
f 431/1/5 428/1/5 427/1/5
f 432/1/5 428/1/5 431/1/5
f 437/1/5 434/1/5 433/1/5
f 438/1/5 434/1/5 437/1/5
f 439/1/5 436/1/5 435/1/5
f 440/1/5 436/1/5 439/1/5
f 441/2/5 438/2/5 437/2/5
f 442/2/5 438/2/5 441/2/5
f 443/2/5 440/2/5 439/2/5
f 444/2/5 440/2/5 443/2/5
f 447/2/5 446/2/5 445/2/5
f 448/2/5 446/2/5 447/2/5
f 449/1/5 448/1/5 447/1/5
f 450/1/5 448/1/5 449/1/5
f 453/1/5 452/1/5 451/1/5
f 454/1/5 452/1/5 453/1/5
f 455/2/5 454/2/5 453/2/5
f 456/2/5 454/2/5 455/2/5
f 459/2/5 458/2/5 457/2/5
f 460/2/5 458/2/5 459/2/5
f 462/2/5 459/2/5 457/2/5
f 463/2/5 458/2/5 460/2/5
f 465/2/5 462/2/5 461/2/5
f 466/2/5 459/2/5 462/2/5
f 466/2/5 462/2/5 465/2/5
f 467/2/5 464/2/5 463/2/5
f 467/2/5 463/2/5 460/2/5
f 468/2/5 464/2/5 467/2/5
f 469/2/5 465/2/5 461/2/5
f 472/2/5 464/2/5 468/2/5
f 473/2/5 470/2/5 469/2/5
f 473/2/5 469/2/5 461/2/5
f 474/2/5 470/2/5 473/2/5
f 475/2/5 472/2/5 471/2/5
f 476/2/5 464/2/5 472/2/5
f 476/2/5 472/2/5 475/2/5
f 477/2/5 470/2/5 474/2/5
f 478/2/5 475/2/5 471/2/5
f 479/2/5 477/2/5 474/2/5
f 479/2/5 478/2/5 477/2/5
f 480/2/5 475/2/5 478/2/5
f 480/2/5 478/2/5 479/2/5
f 481/2/6 482/2/6 483/2/6
f 483/2/6 482/2/6 484/2/6
f 483/1/6 484/1/6 485/1/6
f 485/1/6 484/1/6 486/1/6
f 485/2/6 486/2/6 487/2/6
f 487/2/6 486/2/6 488/2/6
f 489/2/6 490/2/6 493/2/6
f 493/2/6 490/2/6 494/2/6
f 491/2/6 492/2/6 495/2/6
f 495/2/6 492/2/6 496/2/6
f 493/1/6 494/1/6 497/1/6
f 497/1/6 494/1/6 498/1/6
f 495/1/6 496/1/6 499/1/6
f 499/1/6 496/1/6 500/1/6
f 497/2/6 498/2/6 501/2/6
f 501/2/6 498/2/6 502/2/6
f 499/2/6 500/2/6 503/2/6
f 503/2/6 500/2/6 504/2/6
f 505/1/6 506/1/6 509/1/6
f 509/1/6 506/1/6 510/1/6
f 507/1/6 508/1/6 511/1/6
f 511/1/6 508/1/6 512/1/6
f 513/1/6 514/1/6 517/1/6
f 517/1/6 514/1/6 518/1/6
f 515/1/6 516/1/6 519/1/6
f 519/1/6 516/1/6 520/1/6
f 521/2/6 522/2/6 525/2/6
f 525/2/6 522/2/6 526/2/6
f 523/2/6 524/2/6 527/2/6
f 527/2/6 524/2/6 528/2/6
f 529/2/6 530/2/6 533/2/6
f 533/2/6 530/2/6 534/2/6
f 531/2/6 532/2/6 535/2/6
f 535/2/6 532/2/6 536/2/6
f 537/1/6 538/1/6 539/1/6
f 539/1/6 538/1/6 540/1/6
f 541/1/6 542/1/6 543/1/6
f 543/1/6 542/1/6 544/1/6
f 545/2/6 546/2/6 547/2/6
f 547/2/6 546/2/6 548/2/6
f 549/2/6 550/2/6 551/2/6
f 551/2/6 550/2/6 552/2/6
f 553/2/6 554/2/6 556/2/6
f 556/2/6 554/2/6 557/2/6
f 555/2/6 556/2/6 559/2/6
f 557/2/6 558/2/6 559/2/6
f 556/2/6 557/2/6 559/2/6
f 559/2/6 558/2/6 560/2/6
f 555/2/6 559/2/6 561/2/6
f 561/2/6 559/2/6 562/2/6
f 560/2/6 558/2/6 563/2/6
f 563/2/6 558/2/6 564/2/6
f 555/2/6 561/2/6 565/2/6
f 564/2/6 558/2/6 568/2/6
f 565/2/6 566/2/6 569/2/6
f 567/2/6 568/2/6 570/2/6
f 565/2/6 569/2/6 571/2/6
f 569/2/6 570/2/6 571/2/6
f 555/2/6 565/2/6 571/2/6
f 571/2/6 570/2/6 572/2/6
f 570/2/6 568/2/6 573/2/6
f 572/2/6 570/2/6 573/2/6
f 568/2/6 558/2/6 573/2/6
f 573/2/6 558/2/6 574/2/6
f 572/2/6 573/2/6 575/2/6
f 575/2/6 573/2/6 576/2/6
