# MagicaVoxel @ Ephtracy

# group
o Sewer-Pipe-Curve-0

# material
mtllib Sewer Pipes.vox-2-Sewer-Pipe-Curve-0.mtl
usemtl palette

# normals
vn -1 0 0
vn 1 0 0
vn 0 0 1
vn 0 0 -1
vn 0 -1 0
vn 0 1 0

# texcoords
vt 0.00585938 0.5
vt 0.00976562 0.5

# verts
v -1.5 0.4 -1.5
v -1.5 0.4 -1.6
v -1.5 2.8 -1.5
v -1.5 2.8 -1.6
v -1.5 3.1 1.2
v -1.5 3.1 -1.2
v -1.5 3.2 1.2
v -1.5 3.2 -1.2
v -1.4 0.5 0.9
v -1.4 0.5 -1.5
v -1.4 0.7 1.1
v -1.4 0.7 0.9
v -1.4 2.7 -1.1
v -1.4 2.7 -1.5
v -1.4 3.1 1.1
v -1.4 3.1 -1.1
v -1.3 0.2 -1.5
v -1.3 0.2 -1.6
v -1.3 0.4 -1.5
v -1.3 0.4 -1.6
v -1.3 2.8 -1.5
v -1.3 2.8 -1.6
v -1.3 3 -1.5
v -1.3 3 -1.6
v -1.3 3.1 1.4
v -1.3 3.1 1.2
v -1.3 3.1 -1.2
v -1.3 3.1 -1.4
v -1.3 3.2 1.4
v -1.3 3.2 1.2
v -1.3 3.2 -1.2
v -1.3 3.2 -1.4
v -1.2 0.3 1.1
v -1.2 0.3 -1.5
v -1.2 0.5 1.3
v -1.2 0.5 1.1
v -1.2 0.5 0.9
v -1.2 0.5 -1.5
v -1.2 0.7 1.1
v -1.2 0.7 0.9
v -1.2 2.7 -1.1
v -1.2 2.7 -1.5
v -1.2 2.9 -1.3
v -1.2 2.9 -1.5
v -1.2 3.1 1.3
v -1.2 3.1 1.1
v -1.2 3.1 -1.1
v -1.2 3.1 -1.3
v 1 0.5 1.1
v 1 0.5 -1.5
v 1 0.5 -1.6
v 1 0.7 0.9
v 1 0.7 -1.5
v 1 0.7 -1.6
v 1 2.5 -0.9
v 1 2.5 -1.5
v 1 2.5 -1.6
v 1 2.7 -1.1
v 1 2.7 -1.5
v 1 2.7 -1.6
v 1 3.1 1.1
v 1 3.1 0.9
v 1 3.1 -0.9
v 1 3.1 -1.1
v 1 3.2 1.1
v 1 3.2 0.9
v 1 3.2 -0.9
v 1 3.2 -1.1
v 1.2 0.7 0.9
v 1.2 0.7 -1.5
v 1.2 0.7 -1.6
v 1.2 2.5 -0.9
v 1.2 2.5 -1.5
v 1.2 2.5 -1.6
v 1.2 3.1 0.9
v 1.2 3.1 -0.9
v 1.2 3.2 0.9
v 1.2 3.2 -0.9
v -1.2 0.7 0.9
v -1.2 0.7 -1.5
v -1.2 0.7 -1.6
v -1.2 2.5 -0.9
v -1.2 2.5 -1.5
v -1.2 2.5 -1.6
v -1.2 3.1 0.9
v -1.2 3.1 -0.9
v -1.2 3.2 0.9
v -1.2 3.2 -0.9
v -1 0.5 1.1
v -1 0.5 -1.5
v -1 0.5 -1.6
v -1 0.7 0.9
v -1 0.7 -1.5
v -1 0.7 -1.6
v -1 2.5 -0.9
v -1 2.5 -1.5
v -1 2.5 -1.6
v -1 2.7 -1.1
v -1 2.7 -1.5
v -1 2.7 -1.6
v -1 3.1 1.1
v -1 3.1 0.9
v -1 3.1 -0.9
v -1 3.1 -1.1
v -1 3.2 1.1
v -1 3.2 0.9
v -1 3.2 -0.9
v -1 3.2 -1.1
v 1.2 0.3 1.1
v 1.2 0.3 -1.5
v 1.2 0.5 1.3
v 1.2 0.5 1.1
v 1.2 0.5 0.9
v 1.2 0.5 -1.5
v 1.2 0.7 1.1
v 1.2 0.7 0.9
v 1.2 2.7 -1.1
v 1.2 2.7 -1.5
v 1.2 2.9 -1.3
v 1.2 2.9 -1.5
v 1.2 3.1 1.3
v 1.2 3.1 1.1
v 1.2 3.1 -1.1
v 1.2 3.1 -1.3
v 1.3 0.2 -1.5
v 1.3 0.2 -1.6
v 1.3 0.4 -1.5
v 1.3 0.4 -1.6
v 1.3 2.8 -1.5
v 1.3 2.8 -1.6
v 1.3 3 -1.5
v 1.3 3 -1.6
v 1.3 3.1 1.4
v 1.3 3.1 1.2
v 1.3 3.1 -1.2
v 1.3 3.1 -1.4
v 1.3 3.2 1.4
v 1.3 3.2 1.2
v 1.3 3.2 -1.2
v 1.3 3.2 -1.4
v 1.4 0.5 0.9
v 1.4 0.5 -1.5
v 1.4 0.7 1.1
v 1.4 0.7 0.9
v 1.4 2.7 -1.1
v 1.4 2.7 -1.5
v 1.4 3.1 1.1
v 1.4 3.1 -1.1
v 1.5 0.4 -1.5
v 1.5 0.4 -1.6
v 1.5 2.8 -1.5
v 1.5 2.8 -1.6
v 1.5 3.1 1.2
v 1.5 3.1 -1.2
v 1.5 3.2 1.2
v 1.5 3.2 -1.2
v -1.3 3.1 1.4
v -1.3 3.2 1.4
v 1.3 3.1 1.4
v 1.3 3.2 1.4
v -1.2 0.5 1.3
v -1.2 3.1 1.3
v 1.2 0.5 1.3
v 1.2 3.1 1.3
v -1.5 3.1 1.2
v -1.5 3.2 1.2
v -1.3 3.1 1.2
v -1.3 3.2 1.2
v 1.3 3.1 1.2
v 1.3 3.2 1.2
v 1.5 3.1 1.2
v 1.5 3.2 1.2
v -1.4 0.7 1.1
v -1.4 3.1 1.1
v -1.2 0.3 1.1
v -1.2 0.5 1.1
v -1.2 0.7 1.1
v -1.2 3.1 1.1
v 1.2 0.3 1.1
v 1.2 0.5 1.1
v 1.2 0.7 1.1
v 1.2 3.1 1.1
v 1.4 0.7 1.1
v 1.4 3.1 1.1
v -1.4 0.5 0.9
v -1.4 0.7 0.9
v -1.2 0.5 0.9
v -1.2 0.7 0.9
v 1.2 0.5 0.9
v 1.2 0.7 0.9
v 1.4 0.5 0.9
v 1.4 0.7 0.9
v -1.2 2.5 -0.9
v -1.2 3.1 -0.9
v -1.2 3.2 -0.9
v -1 2.5 -0.9
v -1 3.1 -0.9
v -1 3.2 -0.9
v 1 2.5 -0.9
v 1 3.1 -0.9
v 1 3.2 -0.9
v 1.2 2.5 -0.9
v 1.2 3.1 -0.9
v 1.2 3.2 -0.9
v -1 2.7 -1.1
v -1 3.1 -1.1
v -1 3.2 -1.1
v 1 2.7 -1.1
v 1 3.1 -1.1
v 1 3.2 -1.1
v -1.5 0.4 -1.5
v -1.5 2.8 -1.5
v -1.4 0.5 -1.5
v -1.4 2.7 -1.5
v -1.3 0.2 -1.5
v -1.3 0.4 -1.5
v -1.3 2.8 -1.5
v -1.3 3 -1.5
v -1.2 0.3 -1.5
v -1.2 0.5 -1.5
v -1.2 2.7 -1.5
v -1.2 2.9 -1.5
v 1.2 0.3 -1.5
v 1.2 0.5 -1.5
v 1.2 2.7 -1.5
v 1.2 2.9 -1.5
v 1.3 0.2 -1.5
v 1.3 0.4 -1.5
v 1.3 2.8 -1.5
v 1.3 3 -1.5
v 1.4 0.5 -1.5
v 1.4 2.7 -1.5
v 1.5 0.4 -1.5
v 1.5 2.8 -1.5
v -1 0.5 1.1
v -1 3.1 1.1
v -1 3.2 1.1
v 1 0.5 1.1
v 1 3.1 1.1
v 1 3.2 1.1
v -1.2 0.7 0.9
v -1.2 3.1 0.9
v -1.2 3.2 0.9
v -1 0.7 0.9
v -1 3.1 0.9
v -1 3.2 0.9
v 1 0.7 0.9
v 1 3.1 0.9
v 1 3.2 0.9
v 1.2 0.7 0.9
v 1.2 3.1 0.9
v 1.2 3.2 0.9
v -1.4 2.7 -1.1
v -1.4 3.1 -1.1
v -1.2 2.7 -1.1
v -1.2 3.1 -1.1
v 1.2 2.7 -1.1
v 1.2 3.1 -1.1
v 1.4 2.7 -1.1
v 1.4 3.1 -1.1
v -1.5 3.1 -1.2
v -1.5 3.2 -1.2
v -1.3 3.1 -1.2
v -1.3 3.2 -1.2
v 1.3 3.1 -1.2
v 1.3 3.2 -1.2
v 1.5 3.1 -1.2
v 1.5 3.2 -1.2
v -1.2 2.9 -1.3
v -1.2 3.1 -1.3
v 1.2 2.9 -1.3
v 1.2 3.1 -1.3
v -1.3 3.1 -1.4
v -1.3 3.2 -1.4
v 1.3 3.1 -1.4
v 1.3 3.2 -1.4
v -1.5 0.4 -1.6
v -1.5 2.8 -1.6
v -1.3 0.2 -1.6
v -1.3 0.4 -1.6
v -1.3 2.8 -1.6
v -1.3 3 -1.6
v -1.2 0.7 -1.6
v -1.2 2.5 -1.6
v -1 0.5 -1.6
v -1 0.7 -1.6
v -1 2.5 -1.6
v -1 2.7 -1.6
v 1 0.5 -1.6
v 1 0.7 -1.6
v 1 2.5 -1.6
v 1 2.7 -1.6
v 1.2 0.7 -1.6
v 1.2 2.5 -1.6
v 1.3 0.2 -1.6
v 1.3 0.4 -1.6
v 1.3 2.8 -1.6
v 1.3 3 -1.6
v 1.5 0.4 -1.6
v 1.5 2.8 -1.6
v -1.3 0.2 -1.5
v 1.3 0.2 -1.5
v -1.3 0.2 -1.6
v 1.3 0.2 -1.6
v -1.2 0.3 1.1
v 1.2 0.3 1.1
v -1.2 0.3 -1.5
v 1.2 0.3 -1.5
v -1.5 0.4 -1.5
v -1.3 0.4 -1.5
v 1.3 0.4 -1.5
v 1.5 0.4 -1.5
v -1.5 0.4 -1.6
v -1.3 0.4 -1.6
v 1.3 0.4 -1.6
v 1.5 0.4 -1.6
v -1.2 0.5 1.3
v 1.2 0.5 1.3
v -1.2 0.5 1.1
v 1.2 0.5 1.1
v -1.4 0.5 0.9
v -1.2 0.5 0.9
v 1.2 0.5 0.9
v 1.4 0.5 0.9
v -1.4 0.5 -1.5
v -1.2 0.5 -1.5
v 1.2 0.5 -1.5
v 1.4 0.5 -1.5
v -1.4 0.7 1.1
v -1.2 0.7 1.1
v 1.2 0.7 1.1
v 1.4 0.7 1.1
v -1.4 0.7 0.9
v -1.2 0.7 0.9
v 1.2 0.7 0.9
v 1.4 0.7 0.9
v -1.2 2.5 -0.9
v -1 2.5 -0.9
v 1 2.5 -0.9
v 1.2 2.5 -0.9
v -1.2 2.5 -1.5
v -1 2.5 -1.5
v 1 2.5 -1.5
v 1.2 2.5 -1.5
v -1.2 2.5 -1.6
v -1 2.5 -1.6
v 1 2.5 -1.6
v 1.2 2.5 -1.6
v -1 2.7 -1.1
v 1 2.7 -1.1
v -1 2.7 -1.5
v 1 2.7 -1.5
v -1 2.7 -1.6
v 1 2.7 -1.6
v -1.3 3.1 1.4
v 1.3 3.1 1.4
v -1.2 3.1 1.3
v 1.2 3.1 1.3
v -1.5 3.1 1.2
v -1.3 3.1 1.2
v 1.3 3.1 1.2
v 1.5 3.1 1.2
v -1.4 3.1 1.1
v -1.2 3.1 1.1
v 1.2 3.1 1.1
v 1.4 3.1 1.1
v -1.4 3.1 -1.1
v -1.2 3.1 -1.1
v 1.2 3.1 -1.1
v 1.4 3.1 -1.1
v -1.5 3.1 -1.2
v -1.3 3.1 -1.2
v 1.3 3.1 -1.2
v 1.5 3.1 -1.2
v -1.2 3.1 -1.3
v 1.2 3.1 -1.3
v -1.3 3.1 -1.4
v 1.3 3.1 -1.4
v -1 0.5 1.1
v 1 0.5 1.1
v -1 0.5 -1.5
v 1 0.5 -1.5
v -1 0.5 -1.6
v 1 0.5 -1.6
v -1.2 0.7 0.9
v -1 0.7 0.9
v 1 0.7 0.9
v 1.2 0.7 0.9
v -1.2 0.7 -1.5
v -1 0.7 -1.5
v 1 0.7 -1.5
v 1.2 0.7 -1.5
v -1.2 0.7 -1.6
v -1 0.7 -1.6
v 1 0.7 -1.6
v 1.2 0.7 -1.6
v -1.4 2.7 -1.1
v -1.2 2.7 -1.1
v 1.2 2.7 -1.1
v 1.4 2.7 -1.1
v -1.4 2.7 -1.5
v -1.2 2.7 -1.5
v 1.2 2.7 -1.5
v 1.4 2.7 -1.5
v -1.5 2.8 -1.5
v -1.3 2.8 -1.5
v 1.3 2.8 -1.5
v 1.5 2.8 -1.5
v -1.5 2.8 -1.6
v -1.3 2.8 -1.6
v 1.3 2.8 -1.6
v 1.5 2.8 -1.6
v -1.2 2.9 -1.3
v 1.2 2.9 -1.3
v -1.2 2.9 -1.5
v 1.2 2.9 -1.5
v -1.3 3 -1.5
v 1.3 3 -1.5
v -1.3 3 -1.6
v 1.3 3 -1.6
v -1.3 3.2 1.4
v 1.3 3.2 1.4
v -1.5 3.2 1.2
v -1.3 3.2 1.2
v 1.3 3.2 1.2
v 1.5 3.2 1.2
v -1 3.2 1.1
v 1 3.2 1.1
v -1.2 3.2 0.9
v -1 3.2 0.9
v 1 3.2 0.9
v 1.2 3.2 0.9
v -1.2 3.2 -0.9
v -1 3.2 -0.9
v 1 3.2 -0.9
v 1.2 3.2 -0.9
v -1 3.2 -1.1
v 1 3.2 -1.1
v -1.5 3.2 -1.2
v -1.3 3.2 -1.2
v 1.3 3.2 -1.2
v 1.5 3.2 -1.2
v -1.3 3.2 -1.4
v 1.3 3.2 -1.4

# faces
f 3/2/1 2/2/1 1/2/1
f 4/2/1 2/2/1 3/2/1
f 7/2/1 6/2/1 5/2/1
f 8/2/1 6/2/1 7/2/1
f 12/1/1 10/1/1 9/1/1
f 13/1/1 10/1/1 12/1/1
f 13/1/1 12/1/1 11/1/1
f 14/1/1 10/1/1 13/1/1
f 15/1/1 13/1/1 11/1/1
f 16/1/1 13/1/1 15/1/1
f 19/2/1 18/2/1 17/2/1
f 20/2/1 18/2/1 19/2/1
f 23/2/1 22/2/1 21/2/1
f 24/2/1 22/2/1 23/2/1
f 29/2/1 26/2/1 25/2/1
f 30/2/1 26/2/1 29/2/1
f 31/2/1 28/2/1 27/2/1
f 32/2/1 28/2/1 31/2/1
f 36/1/1 34/1/1 33/1/1
f 37/1/1 34/1/1 36/1/1
f 38/1/1 34/1/1 37/1/1
f 39/1/1 36/1/1 35/1/1
f 39/1/1 37/1/1 36/1/1
f 40/1/1 37/1/1 39/1/1
f 43/1/1 42/1/1 41/1/1
f 44/1/1 42/1/1 43/1/1
f 45/1/1 39/1/1 35/1/1
f 46/1/1 39/1/1 45/1/1
f 47/1/1 43/1/1 41/1/1
f 48/1/1 43/1/1 47/1/1
f 52/1/1 50/1/1 49/1/1
f 53/2/1 51/2/1 50/2/1
f 53/1/1 50/1/1 52/1/1
f 54/2/1 51/2/1 53/2/1
f 58/1/1 56/1/1 55/1/1
f 59/2/1 57/2/1 56/2/1
f 59/1/1 56/1/1 58/1/1
f 60/2/1 57/2/1 59/2/1
f 61/1/1 52/1/1 49/1/1
f 62/1/1 52/1/1 61/1/1
f 63/1/1 58/1/1 55/1/1
f 64/1/1 58/1/1 63/1/1
f 65/2/1 62/2/1 61/2/1
f 66/2/1 62/2/1 65/2/1
f 67/2/1 64/2/1 63/2/1
f 68/2/1 64/2/1 67/2/1
f 72/1/1 70/1/1 69/1/1
f 73/2/1 71/2/1 70/2/1
f 73/1/1 70/1/1 72/1/1
f 74/2/1 71/2/1 73/2/1
f 75/1/1 72/1/1 69/1/1
f 76/1/1 72/1/1 75/1/1
f 77/2/1 76/2/1 75/2/1
f 78/2/1 76/2/1 77/2/1
f 79/1/2 80/1/2 82/1/2
f 80/2/2 81/2/2 83/2/2
f 82/1/2 80/1/2 83/1/2
f 83/2/2 81/2/2 84/2/2
f 79/1/2 82/1/2 85/1/2
f 85/1/2 82/1/2 86/1/2
f 85/2/2 86/2/2 87/2/2
f 87/2/2 86/2/2 88/2/2
f 89/1/2 90/1/2 92/1/2
f 90/2/2 91/2/2 93/2/2
f 92/1/2 90/1/2 93/1/2
f 93/2/2 91/2/2 94/2/2
f 95/1/2 96/1/2 98/1/2
f 96/2/2 97/2/2 99/2/2
f 98/1/2 96/1/2 99/1/2
f 99/2/2 97/2/2 100/2/2
f 89/1/2 92/1/2 101/1/2
f 101/1/2 92/1/2 102/1/2
f 95/1/2 98/1/2 103/1/2
f 103/1/2 98/1/2 104/1/2
f 101/2/2 102/2/2 105/2/2
f 105/2/2 102/2/2 106/2/2
f 103/2/2 104/2/2 107/2/2
f 107/2/2 104/2/2 108/2/2
f 109/1/2 110/1/2 112/1/2
f 112/1/2 110/1/2 113/1/2
f 113/1/2 110/1/2 114/1/2
f 111/1/2 112/1/2 115/1/2
f 112/1/2 113/1/2 115/1/2
f 115/1/2 113/1/2 116/1/2
f 117/1/2 118/1/2 119/1/2
f 119/1/2 118/1/2 120/1/2
f 111/1/2 115/1/2 121/1/2
f 121/1/2 115/1/2 122/1/2
f 117/1/2 119/1/2 123/1/2
f 123/1/2 119/1/2 124/1/2
f 125/2/2 126/2/2 127/2/2
f 127/2/2 126/2/2 128/2/2
f 129/2/2 130/2/2 131/2/2
f 131/2/2 130/2/2 132/2/2
f 133/2/2 134/2/2 137/2/2
f 137/2/2 134/2/2 138/2/2
f 135/2/2 136/2/2 139/2/2
f 139/2/2 136/2/2 140/2/2
f 141/1/2 142/1/2 144/1/2
f 144/1/2 142/1/2 145/1/2
f 143/1/2 144/1/2 145/1/2
f 145/1/2 142/1/2 146/1/2
f 143/1/2 145/1/2 147/1/2
f 147/1/2 145/1/2 148/1/2
f 149/2/2 150/2/2 151/2/2
f 151/2/2 150/2/2 152/2/2
f 153/2/2 154/2/2 155/2/2
f 155/2/2 154/2/2 156/2/2
f 159/2/3 158/2/3 157/2/3
f 160/2/3 158/2/3 159/2/3
f 163/1/3 162/1/3 161/1/3
f 164/1/3 162/1/3 163/1/3
f 167/2/3 166/2/3 165/2/3
f 168/2/3 166/2/3 167/2/3
f 171/2/3 170/2/3 169/2/3
f 172/2/3 170/2/3 171/2/3
f 177/1/3 174/1/3 173/1/3
f 178/1/3 174/1/3 177/1/3
f 179/1/3 176/1/3 175/1/3
f 180/1/3 176/1/3 179/1/3
f 183/1/3 182/1/3 181/1/3
f 184/1/3 182/1/3 183/1/3
f 187/1/3 186/1/3 185/1/3
f 188/1/3 186/1/3 187/1/3
f 191/1/3 190/1/3 189/1/3
f 192/1/3 190/1/3 191/1/3
f 196/1/3 194/1/3 193/1/3
f 197/2/3 195/2/3 194/2/3
f 197/1/3 194/1/3 196/1/3
f 198/2/3 195/2/3 197/2/3
f 202/1/3 200/1/3 199/1/3
f 203/2/3 201/2/3 200/2/3
f 203/1/3 200/1/3 202/1/3
f 204/2/3 201/2/3 203/2/3
f 208/1/3 206/1/3 205/1/3
f 209/2/3 207/2/3 206/2/3
f 209/1/3 206/1/3 208/1/3
f 210/2/3 207/2/3 209/2/3
f 213/2/3 212/2/3 211/2/3
f 214/2/3 212/2/3 213/2/3
f 216/2/3 213/2/3 211/2/3
f 217/2/3 212/2/3 214/2/3
f 219/2/3 216/2/3 215/2/3
f 220/2/3 213/2/3 216/2/3
f 220/2/3 216/2/3 219/2/3
f 221/2/3 218/2/3 217/2/3
f 221/2/3 217/2/3 214/2/3
f 222/2/3 218/2/3 221/2/3
f 223/2/3 219/2/3 215/2/3
f 226/2/3 218/2/3 222/2/3
f 227/2/3 224/2/3 223/2/3
f 227/2/3 223/2/3 215/2/3
f 228/2/3 224/2/3 227/2/3
f 229/2/3 226/2/3 225/2/3
f 230/2/3 218/2/3 226/2/3
f 230/2/3 226/2/3 229/2/3
f 231/2/3 224/2/3 228/2/3
f 232/2/3 229/2/3 225/2/3
f 233/2/3 231/2/3 228/2/3
f 233/2/3 232/2/3 231/2/3
f 234/2/3 229/2/3 232/2/3
f 234/2/3 232/2/3 233/2/3
f 235/1/4 236/1/4 238/1/4
f 236/2/4 237/2/4 239/2/4
f 238/1/4 236/1/4 239/1/4
f 239/2/4 237/2/4 240/2/4
f 241/1/4 242/1/4 244/1/4
f 242/2/4 243/2/4 245/2/4
f 244/1/4 242/1/4 245/1/4
f 245/2/4 243/2/4 246/2/4
f 247/1/4 248/1/4 250/1/4
f 248/2/4 249/2/4 251/2/4
f 250/1/4 248/1/4 251/1/4
f 251/2/4 249/2/4 252/2/4
f 253/1/4 254/1/4 255/1/4
f 255/1/4 254/1/4 256/1/4
f 257/1/4 258/1/4 259/1/4
f 259/1/4 258/1/4 260/1/4
f 261/2/4 262/2/4 263/2/4
f 263/2/4 262/2/4 264/2/4
f 265/2/4 266/2/4 267/2/4
f 267/2/4 266/2/4 268/2/4
f 269/1/4 270/1/4 271/1/4
f 271/1/4 270/1/4 272/1/4
f 273/2/4 274/2/4 275/2/4
f 275/2/4 274/2/4 276/2/4
f 277/2/4 278/2/4 280/2/4
f 280/2/4 278/2/4 281/2/4
f 279/2/4 280/2/4 283/2/4
f 281/2/4 282/2/4 283/2/4
f 280/2/4 281/2/4 283/2/4
f 283/2/4 282/2/4 284/2/4
f 279/2/4 283/2/4 285/2/4
f 285/2/4 283/2/4 286/2/4
f 284/2/4 282/2/4 287/2/4
f 287/2/4 282/2/4 288/2/4
f 279/2/4 285/2/4 289/2/4
f 288/2/4 282/2/4 292/2/4
f 289/2/4 290/2/4 293/2/4
f 291/2/4 292/2/4 294/2/4
f 289/2/4 293/2/4 295/2/4
f 293/2/4 294/2/4 295/2/4
f 279/2/4 289/2/4 295/2/4
f 295/2/4 294/2/4 296/2/4
f 294/2/4 292/2/4 297/2/4
f 296/2/4 294/2/4 297/2/4
f 292/2/4 282/2/4 297/2/4
f 297/2/4 282/2/4 298/2/4
f 296/2/4 297/2/4 299/2/4
f 299/2/4 297/2/4 300/2/4
f 303/2/5 302/2/5 301/2/5
f 304/2/5 302/2/5 303/2/5
f 307/1/5 306/1/5 305/1/5
f 308/1/5 306/1/5 307/1/5
f 313/2/5 310/2/5 309/2/5
f 314/2/5 310/2/5 313/2/5
f 315/2/5 312/2/5 311/2/5
f 316/2/5 312/2/5 315/2/5
f 319/1/5 318/1/5 317/1/5
f 320/1/5 318/1/5 319/1/5
f 325/1/5 322/1/5 321/1/5
f 326/1/5 322/1/5 325/1/5
f 327/1/5 324/1/5 323/1/5
f 328/1/5 324/1/5 327/1/5
f 333/1/5 330/1/5 329/1/5
f 334/1/5 330/1/5 333/1/5
f 335/1/5 332/1/5 331/1/5
f 336/1/5 332/1/5 335/1/5
f 341/1/5 338/1/5 337/1/5
f 342/1/5 338/1/5 341/1/5
f 343/1/5 340/1/5 339/1/5
f 344/1/5 340/1/5 343/1/5
f 345/2/5 342/2/5 341/2/5
f 346/2/5 342/2/5 345/2/5
f 347/2/5 344/2/5 343/2/5
f 348/2/5 344/2/5 347/2/5
f 351/1/5 350/1/5 349/1/5
f 352/1/5 350/1/5 351/1/5
f 353/2/5 352/2/5 351/2/5
f 354/2/5 352/2/5 353/2/5
f 357/2/5 356/2/5 355/2/5
f 358/2/5 356/2/5 357/2/5
f 360/2/5 357/2/5 355/2/5
f 361/2/5 356/2/5 358/2/5
f 363/2/5 360/2/5 359/2/5
f 364/2/5 357/2/5 360/2/5
f 364/2/5 360/2/5 363/2/5
f 365/2/5 362/2/5 361/2/5
f 365/2/5 361/2/5 358/2/5
f 366/2/5 362/2/5 365/2/5
f 367/2/5 363/2/5 359/2/5
f 370/2/5 362/2/5 366/2/5
f 371/2/5 368/2/5 367/2/5
f 371/2/5 367/2/5 359/2/5
f 372/2/5 368/2/5 371/2/5
f 373/2/5 370/2/5 369/2/5
f 374/2/5 362/2/5 370/2/5
f 374/2/5 370/2/5 373/2/5
f 375/2/5 368/2/5 372/2/5
f 376/2/5 373/2/5 369/2/5
f 377/2/5 375/2/5 372/2/5
f 377/2/5 376/2/5 375/2/5
f 378/2/5 373/2/5 376/2/5
f 378/2/5 376/2/5 377/2/5
f 379/1/6 380/1/6 381/1/6
f 381/1/6 380/1/6 382/1/6
f 381/2/6 382/2/6 383/2/6
f 383/2/6 382/2/6 384/2/6
f 385/1/6 386/1/6 389/1/6
f 389/1/6 386/1/6 390/1/6
f 387/1/6 388/1/6 391/1/6
f 391/1/6 388/1/6 392/1/6
f 389/2/6 390/2/6 393/2/6
f 393/2/6 390/2/6 394/2/6
f 391/2/6 392/2/6 395/2/6
f 395/2/6 392/2/6 396/2/6
f 397/1/6 398/1/6 401/1/6
f 401/1/6 398/1/6 402/1/6
f 399/1/6 400/1/6 403/1/6
f 403/1/6 400/1/6 404/1/6
f 405/2/6 406/2/6 409/2/6
f 409/2/6 406/2/6 410/2/6
f 407/2/6 408/2/6 411/2/6
f 411/2/6 408/2/6 412/2/6
f 413/1/6 414/1/6 415/1/6
f 415/1/6 414/1/6 416/1/6
f 417/2/6 418/2/6 419/2/6
f 419/2/6 418/2/6 420/2/6
f 421/2/6 422/2/6 424/2/6
f 424/2/6 422/2/6 425/2/6
f 423/2/6 424/2/6 427/2/6
f 425/2/6 426/2/6 427/2/6
f 424/2/6 425/2/6 427/2/6
f 427/2/6 426/2/6 428/2/6
f 423/2/6 427/2/6 429/2/6
f 429/2/6 427/2/6 430/2/6
f 428/2/6 426/2/6 431/2/6
f 431/2/6 426/2/6 432/2/6
f 423/2/6 429/2/6 433/2/6
f 432/2/6 426/2/6 436/2/6
f 433/2/6 434/2/6 437/2/6
f 435/2/6 436/2/6 438/2/6
f 433/2/6 437/2/6 439/2/6
f 437/2/6 438/2/6 439/2/6
f 423/2/6 433/2/6 439/2/6
f 439/2/6 438/2/6 440/2/6
f 438/2/6 436/2/6 441/2/6
f 440/2/6 438/2/6 441/2/6
f 436/2/6 426/2/6 441/2/6
f 441/2/6 426/2/6 442/2/6
f 440/2/6 441/2/6 443/2/6
f 443/2/6 441/2/6 444/2/6
