# Created by Kenney (www.kenney.nl)

mtllib Player_Feet_1.mtl

v 3 5 -0.5
v 3 3 -0.5
v 3 5 0.5
v 3 3 0.5
v 2 5 -0.5
v 2 5 0.5
v 2 3 0.5
v 2 3 -0.5
v 2 4 -0.5
v 2 4 0.5
v 1 5 -0.5
v 1 5 0.5
v 1 4 0.5
v 1 4 -0.5
v -1 5 -0.5
v -1 4 -0.5
v -1 5 0.5
v -1 4 0.5
v -3 5 -0.5
v -3 5 0.5
v -3 4 0.5
v -3 4 -0.5
v 3 4 -0.5
v 3 4 0.5
v 1 3 -0.5
v 1 3 0.5
v -1 3 0.5
v -1 3 -0.5
v -2 4 -0.5
v -2 3 -0.5
v -2 4 0.5
v -2 3 0.5
v -3 3 0.5
v -3 3 -0.5
v 3 3 -1
v 3 1 -1
v 3 3 1
v 3 1 1
v 2 3 -1
v 2 3 1
v 2 1 1
v 2 1 -1
v 2 2 -1
v 2 2 1
v -3 3 -1
v -3 3 1
v -3 2 1
v -3 2 -1
v 4 2 -1
v 4 0 -1
v 4 2 1
v 4 0 1
v 3 2 -1
v 3 2 1
v 3 0 1
v 3 0 -1
v 2 0 -1
v 2 0 1
v 1 2 -1
v 1 2 1
v 1 0 1
v 1 0 -1
v 1 1 -1
v 1 1 1
v -1 2 -1
v -1 2 1
v -1 1 1
v -1 1 -1
v -1 0 -1
v -1 0 1
v -2 2 -1
v -2 2 1
v -2 0 1
v -2 0 -1
v -2 1 -1
v -2 1 1
v -4 2 -1
v -4 2 1
v -4 1 1
v -4 1 -1
v -3 1 -1
v -3 1 1
v -3 0 1
v -3 0 -1
v -4 0 1
v -4 0 -1
v 5 0 -1
v 5 -2 -1
v 5 0 1
v 5 -2 1
v 4 -2 1
v 4 -2 -1
v 4 -1 -1
v 4 -1 1
v 3 -1 1
v 3 -1 -1
v 3 0 -1.5
v 3 -1 -1.5
v 1 0 -1.5
v 1 -1 1
v 1 -1 -1.5
v -1 0 -1.5
v -1 -1 1
v -1 -1 -1.5
v -3 0 -1.5
v -3 -1 1
v -3 -1 -1.5
v -3 -1 -1
v -4 -1 1
v -4 -1 -1
v -4 -2 -1
v -4 -2 1
v -5 0 -1
v -5 0 1
v -5 -2 1
v -5 -2 -1
v 4 -1 -1.5
v 4 -2 -1.5
v -4 -1 -1.5
v -4 -2 -1.5
v 5 -2 -1.5
v 5 -5 -1.5
v 5 -5 1
v 4 -5 1
v 4 -5 -1.5
v 4 -3 -1.5
v 4 -3 1
v -5 -2 -1.5
v -5 -3 1
v -5 -3 -1.5
v 4 -4 -1.5
v 4 -4 1
v -4 -3 -1.5
v -4 -3 1
v -4 -4 1
v -4 -4 -1.5
v -4 -5 -1.5
v -4 -5 1
v -5 -5 1
v -5 -5 -1.5

vn 1 0 0
vn 0 1 0
vn 0 -1 0
vn -1 0 0
vn 0 0 -1
vn 0 0 1

vt 0.0625 0.0625
vt 0.1875 0.0625
vt 0.3125 0.0625

usemtl Player_Feet_1

f 3/1/1 2/1/1 1/1/1
f 2/1/1 3/1/1 4/1/1
f 5/1/2 3/1/2 1/1/2
f 3/1/2 5/1/2 6/1/2
f 7/1/3 2/1/3 4/1/3
f 2/1/3 7/1/3 8/1/3
f 7/1/4 5/1/4 8/1/4
f 5/1/4 7/1/4 6/1/4
f 5/1/5 2/1/5 8/1/5
f 2/1/5 5/1/5 1/1/5
f 3/1/6 7/1/6 4/1/6
f 7/1/6 3/1/6 6/1/6
f 6/1/1 9/1/1 5/1/1
f 9/1/1 6/1/1 10/1/1
f 11/1/2 6/1/2 5/1/2
f 6/1/2 11/1/2 12/1/2
f 13/1/3 9/1/3 10/1/3
f 9/1/3 13/1/3 14/1/3
f 13/1/4 11/1/4 14/1/4
f 11/1/4 13/1/4 12/1/4
f 11/1/5 9/1/5 14/1/5
f 9/1/5 11/1/5 5/1/5
f 6/1/6 13/1/6 10/1/6
f 13/1/6 6/1/6 12/1/6
f 17/1/1 16/1/1 15/1/1
f 16/1/1 17/1/1 18/1/1
f 19/1/2 17/1/2 15/1/2
f 17/1/2 19/1/2 20/1/2
f 21/1/3 16/1/3 18/1/3
f 16/1/3 21/1/3 22/1/3
f 21/1/4 19/1/4 22/1/4
f 19/1/4 21/1/4 20/1/4
f 19/1/5 16/1/5 22/1/5
f 16/1/5 19/1/5 15/1/5
f 17/1/6 21/1/6 18/1/6
f 21/1/6 17/1/6 20/1/6
f 3/1/1 23/1/1 1/1/1
f 23/1/1 3/1/1 24/1/1
f 11/1/2 3/1/2 1/1/2
f 3/1/2 11/1/2 12/1/2
f 13/1/3 23/1/3 24/1/3
f 23/1/3 13/1/3 14/1/3
f 13/1/4 11/1/4 14/1/4
f 11/1/4 13/1/4 12/1/4
f 11/1/5 23/1/5 14/1/5
f 23/1/5 11/1/5 1/1/5
f 3/1/6 13/1/6 24/1/6
f 13/1/6 3/1/6 12/1/6
f 13/1/1 25/1/1 14/1/1
f 25/1/1 13/1/1 26/1/1
f 16/1/2 13/1/2 14/1/2
f 13/1/2 16/1/2 18/1/2
f 27/1/3 25/1/3 26/1/3
f 25/1/3 27/1/3 28/1/3
f 27/1/4 16/1/4 28/1/4
f 16/1/4 27/1/4 18/1/4
f 16/1/5 25/1/5 28/1/5
f 25/1/5 16/1/5 14/1/5
f 13/1/6 27/1/6 26/1/6
f 27/1/6 13/1/6 18/1/6
f 31/1/1 30/1/1 29/1/1
f 30/1/1 31/1/1 32/1/1
f 22/1/2 31/1/2 29/1/2
f 31/1/2 22/1/2 21/1/2
f 33/1/3 30/1/3 32/1/3
f 30/1/3 33/1/3 34/1/3
f 33/1/4 22/1/4 34/1/4
f 22/1/4 33/1/4 21/1/4
f 22/1/5 30/1/5 34/1/5
f 30/1/5 22/1/5 29/1/5
f 31/1/6 33/1/6 32/1/6
f 33/1/6 31/1/6 21/1/6
f 37/1/1 36/1/1 35/1/1
f 36/1/1 37/1/1 38/1/1
f 39/1/2 37/1/2 35/1/2
f 37/1/2 39/1/2 40/1/2
f 41/1/3 36/1/3 38/1/3
f 36/1/3 41/1/3 42/1/3
f 41/1/4 39/1/4 42/1/4
f 39/1/4 41/1/4 40/1/4
f 39/1/5 36/1/5 42/1/5
f 36/1/5 39/1/5 35/1/5
f 37/1/6 41/1/6 38/1/6
f 41/1/6 37/1/6 40/1/6
f 40/1/1 43/1/1 39/1/1
f 43/1/1 40/1/1 44/1/1
f 45/1/2 40/1/2 39/1/2
f 40/1/2 45/1/2 46/1/2
f 47/1/3 43/1/3 44/1/3
f 43/1/3 47/1/3 48/1/3
f 47/1/4 45/1/4 48/1/4
f 45/1/4 47/1/4 46/1/4
f 45/1/5 43/1/5 48/1/5
f 43/1/5 45/1/5 39/1/5
f 40/1/6 47/1/6 44/1/6
f 47/1/6 40/1/6 46/1/6
f 51/1/1 50/1/1 49/1/1
f 50/1/1 51/1/1 52/1/1
f 53/1/2 51/1/2 49/1/2
f 51/1/2 53/1/2 54/1/2
f 55/1/3 50/1/3 52/1/3
f 50/1/3 55/1/3 56/1/3
f 55/1/4 53/1/4 56/1/4
f 53/1/4 55/1/4 54/1/4
f 53/1/5 50/1/5 56/1/5
f 50/1/5 53/1/5 49/1/5
f 51/1/6 55/1/6 52/1/6
f 55/1/6 51/1/6 54/1/6
f 44/2/1 57/2/1 43/2/1
f 57/2/1 44/2/1 58/2/1
f 59/2/2 44/2/2 43/2/2
f 44/2/2 59/2/2 60/2/2
f 61/2/3 57/2/3 58/2/3
f 57/2/3 61/2/3 62/2/3
f 61/2/4 59/2/4 62/2/4
f 59/2/4 61/2/4 60/2/4
f 59/2/5 57/2/5 62/2/5
f 57/2/5 59/2/5 43/2/5
f 44/2/6 61/2/6 58/2/6
f 61/2/6 44/2/6 60/2/6
f 60/2/1 63/2/1 59/2/1
f 63/2/1 60/2/1 64/2/1
f 65/2/2 60/2/2 59/2/2
f 60/2/2 65/2/2 66/2/2
f 67/2/3 63/2/3 64/2/3
f 63/2/3 67/2/3 68/2/3
f 67/2/4 65/2/4 68/2/4
f 65/2/4 67/2/4 66/2/4
f 65/2/5 63/2/5 68/2/5
f 63/2/5 65/2/5 59/2/5
f 60/2/6 67/2/6 64/2/6
f 67/2/6 60/2/6 66/2/6
f 66/2/1 69/2/1 65/2/1
f 69/2/1 66/2/1 70/2/1
f 71/2/2 66/2/2 65/2/2
f 66/2/2 71/2/2 72/2/2
f 73/2/3 69/2/3 70/2/3
f 69/2/3 73/2/3 74/2/3
f 73/2/4 71/2/4 74/2/4
f 71/2/4 73/2/4 72/2/4
f 71/2/5 69/2/5 74/2/5
f 69/2/5 71/2/5 65/2/5
f 66/2/6 73/2/6 70/2/6
f 73/2/6 66/2/6 72/2/6
f 72/1/1 75/1/1 71/1/1
f 75/1/1 72/1/1 76/1/1
f 77/1/2 72/1/2 71/1/2
f 72/1/2 77/1/2 78/1/2
f 79/1/3 75/1/3 76/1/3
f 75/1/3 79/1/3 80/1/3
f 79/1/4 77/1/4 80/1/4
f 77/1/4 79/1/4 78/1/4
f 77/1/5 75/1/5 80/1/5
f 75/1/5 77/1/5 71/1/5
f 72/1/6 79/1/6 76/1/6
f 79/1/6 72/1/6 78/1/6
f 38/2/1 56/2/1 36/2/1
f 56/2/1 38/2/1 55/2/1
f 42/2/2 38/2/2 36/2/2
f 38/2/2 42/2/2 41/2/2
f 58/2/3 56/2/3 55/2/3
f 56/2/3 58/2/3 57/2/3
f 58/2/4 42/2/4 57/2/4
f 42/2/4 58/2/4 41/2/4
f 42/2/5 56/2/5 57/2/5
f 56/2/5 42/2/5 36/2/5
f 38/2/6 58/2/6 55/2/6
f 58/2/6 38/2/6 41/2/6
f 64/2/1 62/2/1 63/2/1
f 62/2/1 64/2/1 61/2/1
f 68/2/2 64/2/2 63/2/2
f 64/2/2 68/2/2 67/2/2
f 70/2/3 62/2/3 61/2/3
f 62/2/3 70/2/3 69/2/3
f 70/2/4 68/2/4 69/2/4
f 68/2/4 70/2/4 67/2/4
f 68/2/5 62/2/5 69/2/5
f 62/2/5 68/2/5 63/2/5
f 64/2/6 70/2/6 61/2/6
f 70/2/6 64/2/6 67/2/6
f 76/2/1 74/2/1 75/2/1
f 74/2/1 76/2/1 73/2/1
f 81/2/2 76/2/2 75/2/2
f 76/2/2 81/2/2 82/2/2
f 83/2/3 74/2/3 73/2/3
f 74/2/3 83/2/3 84/2/3
f 83/2/4 81/2/4 84/2/4
f 81/2/4 83/2/4 82/2/4
f 81/2/5 74/2/5 84/2/5
f 74/2/5 81/2/5 75/2/5
f 76/2/6 83/2/6 73/2/6
f 83/2/6 76/2/6 82/2/6
f 82/1/1 84/1/1 81/1/1
f 84/1/1 82/1/1 83/1/1
f 80/1/2 82/1/2 81/1/2
f 82/1/2 80/1/2 79/1/2
f 85/1/3 84/1/3 83/1/3
f 84/1/3 85/1/3 86/1/3
f 85/1/4 80/1/4 86/1/4
f 80/1/4 85/1/4 79/1/4
f 80/1/5 84/1/5 86/1/5
f 84/1/5 80/1/5 81/1/5
f 82/1/6 85/1/6 83/1/6
f 85/1/6 82/1/6 79/1/6
f 89/1/1 88/1/1 87/1/1
f 88/1/1 89/1/1 90/1/1
f 50/1/2 89/1/2 87/1/2
f 89/1/2 50/1/2 52/1/2
f 91/1/3 88/1/3 90/1/3
f 88/1/3 91/1/3 92/1/3
f 91/1/4 50/1/4 92/1/4
f 50/1/4 91/1/4 52/1/4
f 50/1/5 88/1/5 92/1/5
f 88/1/5 50/1/5 87/1/5
f 89/1/6 91/1/6 90/1/6
f 91/1/6 89/1/6 52/1/6
f 52/2/1 93/2/1 50/2/1
f 93/2/1 52/2/1 94/2/1
f 56/2/2 52/2/2 50/2/2
f 52/2/2 56/2/2 55/2/2
f 95/2/3 93/2/3 94/2/3
f 93/2/3 95/2/3 96/2/3
f 95/2/4 56/2/4 96/2/4
f 56/2/4 95/2/4 55/2/4
f 56/2/5 93/2/5 96/2/5
f 93/2/5 56/2/5 50/2/5
f 52/2/6 95/2/6 94/2/6
f 95/2/6 52/2/6 55/2/6
f 55/2/1 98/2/1 97/2/1
f 98/2/1 55/2/1 95/2/1
f 99/2/2 55/2/2 97/2/2
f 55/2/2 99/2/2 61/2/2
f 100/2/3 98/2/3 95/2/3
f 98/2/3 100/2/3 101/2/3
f 100/2/4 99/2/4 101/2/4
f 99/2/4 100/2/4 61/2/4
f 99/2/5 98/2/5 101/2/5
f 98/2/5 99/2/5 97/2/5
f 55/2/6 100/2/6 95/2/6
f 100/2/6 55/2/6 61/2/6
f 61/1/1 101/1/1 99/1/1
f 101/1/1 61/1/1 100/1/1
f 102/1/2 61/1/2 99/1/2
f 61/1/2 102/1/2 70/1/2
f 103/1/3 101/1/3 100/1/3
f 101/1/3 103/1/3 104/1/3
f 103/1/4 102/1/4 104/1/4
f 102/1/4 103/1/4 70/1/4
f 102/1/5 101/1/5 104/1/5
f 101/1/5 102/1/5 99/1/5
f 61/1/6 103/1/6 100/1/6
f 103/1/6 61/1/6 70/1/6
f 70/2/1 104/2/1 102/2/1
f 104/2/1 70/2/1 103/2/1
f 105/2/2 70/2/2 102/2/2
f 70/2/2 105/2/2 83/2/2
f 106/2/3 104/2/3 103/2/3
f 104/2/3 106/2/3 107/2/3
f 106/2/4 105/2/4 107/2/4
f 105/2/4 106/2/4 83/2/4
f 105/2/5 104/2/5 107/2/5
f 104/2/5 105/2/5 102/2/5
f 70/2/6 106/2/6 103/2/6
f 106/2/6 70/2/6 83/2/6
f 83/2/1 108/2/1 84/2/1
f 108/2/1 83/2/1 106/2/1
f 86/2/2 83/2/2 84/2/2
f 83/2/2 86/2/2 85/2/2
f 109/2/3 108/2/3 106/2/3
f 108/2/3 109/2/3 110/2/3
f 109/2/4 86/2/4 110/2/4
f 86/2/4 109/2/4 85/2/4
f 86/2/5 108/2/5 110/2/5
f 108/2/5 86/2/5 84/2/5
f 83/2/6 109/2/6 106/2/6
f 109/2/6 83/2/6 85/2/6
f 85/1/1 111/1/1 86/1/1
f 111/1/1 85/1/1 112/1/1
f 113/1/2 85/1/2 86/1/2
f 85/1/2 113/1/2 114/1/2
f 115/1/3 111/1/3 112/1/3
f 111/1/3 115/1/3 116/1/3
f 115/1/4 113/1/4 116/1/4
f 113/1/4 115/1/4 114/1/4
f 113/1/5 111/1/5 116/1/5
f 111/1/5 113/1/5 86/1/5
f 85/1/6 115/1/6 112/1/6
f 115/1/6 85/1/6 114/1/6
f 94/3/1 118/3/1 117/3/1
f 118/3/1 94/3/1 91/3/1
f 119/3/2 94/3/2 117/3/2
f 94/3/2 119/3/2 109/3/2
f 112/3/3 118/3/3 91/3/3
f 118/3/3 112/3/3 120/3/3
f 112/3/4 119/3/4 120/3/4
f 119/3/4 112/3/4 109/3/4
f 119/3/5 118/3/5 120/3/5
f 118/3/5 119/3/5 117/3/5
f 94/3/6 112/3/6 91/3/6
f 112/3/6 94/3/6 109/3/6
f 90/1/1 122/1/1 121/1/1
f 122/1/1 90/1/1 123/1/1
f 118/1/2 90/1/2 121/1/2
f 90/1/2 118/1/2 91/1/2
f 124/1/3 122/1/3 123/1/3
f 122/1/3 124/1/3 125/1/3
f 124/1/4 118/1/4 125/1/4
f 118/1/4 124/1/4 91/1/4
f 118/1/5 122/1/5 125/1/5
f 122/1/5 118/1/5 121/1/5
f 90/1/6 124/1/6 123/1/6
f 124/1/6 90/1/6 91/1/6
f 91/1/1 126/1/1 118/1/1
f 126/1/1 91/1/1 127/1/1
f 128/1/2 91/1/2 118/1/2
f 91/1/2 128/1/2 115/1/2
f 129/1/3 126/1/3 127/1/3
f 126/1/3 129/1/3 130/1/3
f 129/1/4 128/1/4 130/1/4
f 128/1/4 129/1/4 115/1/4
f 128/1/5 126/1/5 130/1/5
f 126/1/5 128/1/5 118/1/5
f 91/1/6 129/1/6 127/1/6
f 129/1/6 91/1/6 115/1/6
f 127/3/1 131/3/1 126/3/1
f 131/3/1 127/3/1 132/3/1
f 133/3/2 127/3/2 126/3/2
f 127/3/2 133/3/2 134/3/2
f 135/3/3 131/3/3 132/3/3
f 131/3/3 135/3/3 136/3/3
f 135/3/4 133/3/4 136/3/4
f 133/3/4 135/3/4 134/3/4
f 133/3/5 131/3/5 136/3/5
f 131/3/5 133/3/5 126/3/5
f 127/3/6 135/3/6 132/3/6
f 135/3/6 127/3/6 134/3/6
f 134/1/1 137/1/1 133/1/1
f 137/1/1 134/1/1 138/1/1
f 130/1/2 134/1/2 133/1/2
f 134/1/2 130/1/2 129/1/2
f 139/1/3 137/1/3 138/1/3
f 137/1/3 139/1/3 140/1/3
f 139/1/4 130/1/4 140/1/4
f 130/1/4 139/1/4 129/1/4
f 130/1/5 137/1/5 140/1/5
f 137/1/5 130/1/5 133/1/5
f 134/1/6 139/1/6 138/1/6
f 139/1/6 134/1/6 129/1/6
f 132/1/1 125/1/1 131/1/1
f 125/1/1 132/1/1 124/1/1
f 136/1/2 132/1/2 131/1/2
f 132/1/2 136/1/2 135/1/2
f 138/1/3 125/1/3 124/1/3
f 125/1/3 138/1/3 137/1/3
f 138/1/4 136/1/4 137/1/4
f 136/1/4 138/1/4 135/1/4
f 136/1/5 125/1/5 137/1/5
f 125/1/5 136/1/5 131/1/5
f 132/1/6 138/1/6 124/1/6
f 138/1/6 132/1/6 135/1/6
f 40/1/1 43/1/1 39/1/1
f 43/1/1 40/1/1 44/1/1
f 45/1/2 40/1/2 39/1/2
f 40/1/2 45/1/2 46/1/2
f 47/1/3 43/1/3 44/1/3
f 43/1/3 47/1/3 48/1/3
f 47/1/4 45/1/4 48/1/4
f 45/1/4 47/1/4 46/1/4
f 45/1/5 43/1/5 48/1/5
f 43/1/5 45/1/5 39/1/5
f 40/1/6 47/1/6 44/1/6
f 47/1/6 40/1/6 46/1/6
f 91/1/1 126/1/1 118/1/1
f 126/1/1 91/1/1 127/1/1
f 128/1/2 91/1/2 118/1/2
f 91/1/2 128/1/2 115/1/2
f 129/1/3 126/1/3 127/1/3
f 126/1/3 129/1/3 130/1/3
f 129/1/4 128/1/4 130/1/4
f 128/1/4 129/1/4 115/1/4
f 128/1/5 126/1/5 130/1/5
f 126/1/5 128/1/5 118/1/5
f 91/1/6 129/1/6 127/1/6
f 129/1/6 91/1/6 115/1/6

