# Created by Kenney (www.kenney.nl)

mtllib Player_Hands_R_1.mtl

v 4 4 -1
v 4 3 -1
v 4 4 1.5
v 4 3 1.5
v -3 4 -1
v -3 4 1.5
v -3 3 1.5
v -3 3 -1
v 3 4 -1
v 3 4 1.5
v 3 3 1.5
v 3 3 -1
v 5 3 -1
v 5 2 -1
v 5 3 1.5
v 5 2 1.5
v 4 2 1.5
v 4 2 -1
v 4 1 -1
v 4 1 1.5
v 2 3 -1
v 2 3 1.5
v 2 1 1.5
v 2 1 -1
v 2 2 -1
v 2 2 1.5
v -3 2 1.5
v -3 2 -1
v -3 -1 -1
v -3 3 1
v -3 -1 1
v -4 3 -1
v -4 3 1
v -4 -1 1
v -4 -1 -1
v -4 3 -0.5
v -4 2 -0.5
v -4 3 0.5
v -4 2 0.5
v -6 3 -0.5
v -6 3 0.5
v -6 2 0.5
v -6 2 -0.5
v 6 2 -1
v 6 1 -1
v 6 2 1.5
v 6 1 1.5
v 5 1 1.5
v 5 1 -1
v 5 0 -1
v 5 0 1.5
v 4 0 1.5
v 4 0 -1
v 1 2 -1
v 1 2 1.5
v 1 1 1.5
v 1 1 -1
v -1 2 -1
v -1 2 1.5
v -1 1 1.5
v -1 1 -1
v -2 2 -1
v -2 2 1.5
v -2 1 1.5
v -2 1 -1
v -2 2 -1.5
v -2 1 -1.5
v -3 2 -1.5
v -3 1 1.5
v -3 1 -1.5
v -4 1 -0.5
v -4 1 0.5
v -5 2 -0.5
v -5 2 0.5
v -5 1 0.5
v -5 1 -0.5
v -5 -1 -0.5
v -5 -1 0.5
v -6 -1 0.5
v -6 -1 -0.5
v 7 1 -1
v 7 -1 -1
v 7 1 1.5
v 7 -1 1.5
v 6 -1 1.5
v 6 -1 -1
v 5 -1 1.5
v 5 -1 -1
v 2 0 1.5
v 2 0 -1
v 1 0 1.5
v 1 0 -1
v 0 1 -1
v 0 1 1.5
v 0 0 1.5
v 0 0 -1
v 0 1 -1.5
v 0 0 -1.5
v -1 1 -1.5
v -1 0 1.5
v -1 0 -1.5
v -3 0 1.5
v -3 0 -1.5
v -4 0 -0.5
v -4 0 0.5
v -5 0 0.5
v -5 0 -0.5
v 4 -1 1.5
v 4 -1 -1
v 2 -1 1.5
v 2 -1 -1
v 2 0 -1.5
v 2 -1 -1.5
v 1 0 -1.5
v 1 -1 1.5
v 1 -1 -1.5
v 0 -1 1.5
v 0 -1 -1.5
v 0 -2 -1.5
v 0 0 1
v 0 -2 1
v -1 0 1
v -1 -2 1
v -1 -2 -1.5
v -1 -1 -1.5
v -1 -1 1
v -3 0 1
v -3 -1 -1.5
v -4 -1 -0.5
v -4 -1 0.5
v 6 -2 -1
v 6 -2 1.5
v 4 -2 1.5
v 4 -2 -1
v 4 -1 1
v 4 -2 1
v 3 -1 -1
v 3 -1 1
v 3 -2 1
v 3 -2 -1
v 2 -2 -1.5
v 2 -1 1
v 2 -2 1
v 1 -1 1
v 1 -2 1
v 1 -2 -1.5
v 0 -1 1
v -3 -2 1
v -3 -2 -1.5
v 2 -2 -1
v 2 -3 -1
v 2 -3 1
v 1 -2 -1
v 1 -3 1
v 1 -3 -1
v 1 -3 -1.5
v 0 -3 1
v 0 -3 -1.5
v 0 -2 -1
v 0 -3 -1
v -1 -2 -1
v -1 -3 1
v -1 -3 -1

vn 1 0 0
vn 0 1 0
vn 0 -1 0
vn -1 0 0
vn 0 0 -1
vn 0 0 1

vt 0.0625 0.0625
vt 0.1875 0.0625
vt 0.3125 0.0625

usemtl Player_Hands_R_1

f 3/1/1 2/1/1 1/1/1
f 2/1/1 3/1/1 4/1/1
f 5/1/2 3/1/2 1/1/2
f 3/1/2 5/1/2 6/1/2
f 7/1/3 2/1/3 4/1/3
f 2/1/3 7/1/3 8/1/3
f 7/1/4 5/1/4 8/1/4
f 5/1/4 7/1/4 6/1/4
f 5/1/5 2/1/5 8/1/5
f 2/1/5 5/1/5 1/1/5
f 3/1/6 7/1/6 4/1/6
f 7/1/6 3/1/6 6/1/6
f 3/1/1 2/1/1 1/1/1
f 2/1/1 3/1/1 4/1/1
f 9/1/2 3/1/2 1/1/2
f 3/1/2 9/1/2 10/1/2
f 11/1/3 2/1/3 4/1/3
f 2/1/3 11/1/3 12/1/3
f 11/1/4 9/1/4 12/1/4
f 9/1/4 11/1/4 10/1/4
f 9/1/5 2/1/5 12/1/5
f 2/1/5 9/1/5 1/1/5
f 3/1/6 11/1/6 4/1/6
f 11/1/6 3/1/6 10/1/6
f 15/1/1 14/1/1 13/1/1
f 14/1/1 15/1/1 16/1/1
f 2/1/2 15/1/2 13/1/2
f 15/1/2 2/1/2 4/1/2
f 17/1/3 14/1/3 16/1/3
f 14/1/3 17/1/3 18/1/3
f 17/1/4 2/1/4 18/1/4
f 2/1/4 17/1/4 4/1/4
f 2/1/5 14/1/5 18/1/5
f 14/1/5 2/1/5 13/1/5
f 15/1/6 17/1/6 16/1/6
f 17/1/6 15/1/6 4/1/6
f 4/2/1 19/2/1 2/2/1
f 19/2/1 4/2/1 20/2/1
f 21/2/2 4/2/2 2/2/2
f 4/2/2 21/2/2 22/2/2
f 23/2/3 19/2/3 20/2/3
f 19/2/3 23/2/3 24/2/3
f 23/2/4 21/2/4 24/2/4
f 21/2/4 23/2/4 22/2/4
f 21/2/5 19/2/5 24/2/5
f 19/2/5 21/2/5 2/2/5
f 4/2/6 23/2/6 20/2/6
f 23/2/6 4/2/6 22/2/6
f 22/2/1 25/2/1 21/2/1
f 25/2/1 22/2/1 26/2/1
f 8/2/2 22/2/2 21/2/2
f 22/2/2 8/2/2 7/2/2
f 27/2/3 25/2/3 26/2/3
f 25/2/3 27/2/3 28/2/3
f 27/2/4 8/2/4 28/2/4
f 8/2/4 27/2/4 7/2/4
f 8/2/5 25/2/5 28/2/5
f 25/2/5 8/2/5 21/2/5
f 22/2/6 27/2/6 26/2/6
f 27/2/6 22/2/6 7/2/6
f 30/1/1 29/1/1 8/1/1
f 29/1/1 30/1/1 31/1/1
f 32/1/2 30/1/2 8/1/2
f 30/1/2 32/1/2 33/1/2
f 34/1/3 29/1/3 31/1/3
f 29/1/3 34/1/3 35/1/3
f 34/1/4 32/1/4 35/1/4
f 32/1/4 34/1/4 33/1/4
f 32/1/5 29/1/5 35/1/5
f 29/1/5 32/1/5 8/1/5
f 30/1/6 34/1/6 31/1/6
f 34/1/6 30/1/6 33/1/6
f 38/1/1 37/1/1 36/1/1
f 37/1/1 38/1/1 39/1/1
f 40/1/2 38/1/2 36/1/2
f 38/1/2 40/1/2 41/1/2
f 42/1/3 37/1/3 39/1/3
f 37/1/3 42/1/3 43/1/3
f 42/1/4 40/1/4 43/1/4
f 40/1/4 42/1/4 41/1/4
f 40/1/5 37/1/5 43/1/5
f 37/1/5 40/1/5 36/1/5
f 38/1/6 42/1/6 39/1/6
f 42/1/6 38/1/6 41/1/6
f 46/1/1 45/1/1 44/1/1
f 45/1/1 46/1/1 47/1/1
f 14/1/2 46/1/2 44/1/2
f 46/1/2 14/1/2 16/1/2
f 48/1/3 45/1/3 47/1/3
f 45/1/3 48/1/3 49/1/3
f 48/1/4 14/1/4 49/1/4
f 14/1/4 48/1/4 16/1/4
f 14/1/5 45/1/5 49/1/5
f 45/1/5 14/1/5 44/1/5
f 46/1/6 48/1/6 47/1/6
f 48/1/6 46/1/6 16/1/6
f 16/2/1 50/2/1 14/2/1
f 50/2/1 16/2/1 51/2/1
f 18/2/2 16/2/2 14/2/2
f 16/2/2 18/2/2 17/2/2
f 52/2/3 50/2/3 51/2/3
f 50/2/3 52/2/3 53/2/3
f 52/2/4 18/2/4 53/2/4
f 18/2/4 52/2/4 17/2/4
f 18/2/5 50/2/5 53/2/5
f 50/2/5 18/2/5 14/2/5
f 16/2/6 52/2/6 51/2/6
f 52/2/6 16/2/6 17/2/6
f 26/3/1 24/3/1 25/3/1
f 24/3/1 26/3/1 23/3/1
f 54/3/2 26/3/2 25/3/2
f 26/3/2 54/3/2 55/3/2
f 56/3/3 24/3/3 23/3/3
f 24/3/3 56/3/3 57/3/3
f 56/3/4 54/3/4 57/3/4
f 54/3/4 56/3/4 55/3/4
f 54/3/5 24/3/5 57/3/5
f 24/3/5 54/3/5 25/3/5
f 26/3/6 56/3/6 23/3/6
f 56/3/6 26/3/6 55/3/6
f 55/1/1 57/1/1 54/1/1
f 57/1/1 55/1/1 56/1/1
f 58/1/2 55/1/2 54/1/2
f 55/1/2 58/1/2 59/1/2
f 60/1/3 57/1/3 56/1/3
f 57/1/3 60/1/3 61/1/3
f 60/1/4 58/1/4 61/1/4
f 58/1/4 60/1/4 59/1/4
f 58/1/5 57/1/5 61/1/5
f 57/1/5 58/1/5 54/1/5
f 55/1/6 60/1/6 56/1/6
f 60/1/6 55/1/6 59/1/6
f 59/2/1 61/2/1 58/2/1
f 61/2/1 59/2/1 60/2/1
f 62/2/2 59/2/2 58/2/2
f 59/2/2 62/2/2 63/2/2
f 64/2/3 61/2/3 60/2/3
f 61/2/3 64/2/3 65/2/3
f 64/2/4 62/2/4 65/2/4
f 62/2/4 64/2/4 63/2/4
f 62/2/5 61/2/5 65/2/5
f 61/2/5 62/2/5 58/2/5
f 59/2/6 64/2/6 60/2/6
f 64/2/6 59/2/6 63/2/6
f 63/2/1 67/2/1 66/2/1
f 67/2/1 63/2/1 64/2/1
f 68/2/2 63/2/2 66/2/2
f 63/2/2 68/2/2 27/2/2
f 69/2/3 67/2/3 64/2/3
f 67/2/3 69/2/3 70/2/3
f 69/2/4 68/2/4 70/2/4
f 68/2/4 69/2/4 27/2/4
f 68/2/5 67/2/5 70/2/5
f 67/2/5 68/2/5 66/2/5
f 63/2/6 69/2/6 64/2/6
f 69/2/6 63/2/6 27/2/6
f 39/2/1 71/2/1 37/2/1
f 71/2/1 39/2/1 72/2/1
f 73/2/2 39/2/2 37/2/2
f 39/2/2 73/2/2 74/2/2
f 75/2/3 71/2/3 72/2/3
f 71/2/3 75/2/3 76/2/3
f 75/2/4 73/2/4 76/2/4
f 73/2/4 75/2/4 74/2/4
f 73/2/5 71/2/5 76/2/5
f 71/2/5 73/2/5 37/2/5
f 39/2/6 75/2/6 72/2/6
f 75/2/6 39/2/6 74/2/6
f 74/1/1 77/1/1 73/1/1
f 77/1/1 74/1/1 78/1/1
f 43/1/2 74/1/2 73/1/2
f 74/1/2 43/1/2 42/1/2
f 79/1/3 77/1/3 78/1/3
f 77/1/3 79/1/3 80/1/3
f 79/1/4 43/1/4 80/1/4
f 43/1/4 79/1/4 42/1/4
f 43/1/5 77/1/5 80/1/5
f 77/1/5 43/1/5 73/1/5
f 74/1/6 79/1/6 78/1/6
f 79/1/6 74/1/6 42/1/6
f 83/1/1 82/1/1 81/1/1
f 82/1/1 83/1/1 84/1/1
f 45/1/2 83/1/2 81/1/2
f 83/1/2 45/1/2 47/1/2
f 85/1/3 82/1/3 84/1/3
f 82/1/3 85/1/3 86/1/3
f 85/1/4 45/1/4 86/1/4
f 45/1/4 85/1/4 47/1/4
f 45/1/5 82/1/5 86/1/5
f 82/1/5 45/1/5 81/1/5
f 83/1/6 85/1/6 84/1/6
f 85/1/6 83/1/6 47/1/6
f 47/3/1 86/3/1 45/3/1
f 86/3/1 47/3/1 85/3/1
f 49/3/2 47/3/2 45/3/2
f 47/3/2 49/3/2 48/3/2
f 87/3/3 86/3/3 85/3/3
f 86/3/3 87/3/3 88/3/3
f 87/3/4 49/3/4 88/3/4
f 49/3/4 87/3/4 48/3/4
f 49/3/5 86/3/5 88/3/5
f 86/3/5 49/3/5 45/3/5
f 47/3/6 87/3/6 85/3/6
f 87/3/6 47/3/6 48/3/6
f 20/3/1 53/3/1 19/3/1
f 53/3/1 20/3/1 52/3/1
f 24/3/2 20/3/2 19/3/2
f 20/3/2 24/3/2 23/3/2
f 89/3/3 53/3/3 52/3/3
f 53/3/3 89/3/3 90/3/3
f 89/3/4 24/3/4 90/3/4
f 24/3/4 89/3/4 23/3/4
f 24/3/5 53/3/5 90/3/5
f 53/3/5 24/3/5 19/3/5
f 20/3/6 89/3/6 52/3/6
f 89/3/6 20/3/6 23/3/6
f 23/1/1 90/1/1 24/1/1
f 90/1/1 23/1/1 89/1/1
f 57/1/2 23/1/2 24/1/2
f 23/1/2 57/1/2 56/1/2
f 91/1/3 90/1/3 89/1/3
f 90/1/3 91/1/3 92/1/3
f 91/1/4 57/1/4 92/1/4
f 57/1/4 91/1/4 56/1/4
f 57/1/5 90/1/5 92/1/5
f 90/1/5 57/1/5 24/1/5
f 23/1/6 91/1/6 89/1/6
f 91/1/6 23/1/6 56/1/6
f 56/1/1 92/1/1 57/1/1
f 92/1/1 56/1/1 91/1/1
f 93/1/2 56/1/2 57/1/2
f 56/1/2 93/1/2 94/1/2
f 95/1/3 92/1/3 91/1/3
f 92/1/3 95/1/3 96/1/3
f 95/1/4 93/1/4 96/1/4
f 93/1/4 95/1/4 94/1/4
f 93/1/5 92/1/5 96/1/5
f 92/1/5 93/1/5 57/1/5
f 56/1/6 95/1/6 91/1/6
f 95/1/6 56/1/6 94/1/6
f 94/3/1 98/3/1 97/3/1
f 98/3/1 94/3/1 95/3/1
f 99/3/2 94/3/2 97/3/2
f 94/3/2 99/3/2 60/3/2
f 100/3/3 98/3/3 95/3/3
f 98/3/3 100/3/3 101/3/3
f 100/3/4 99/3/4 101/3/4
f 99/3/4 100/3/4 60/3/4
f 99/3/5 98/3/5 101/3/5
f 98/3/5 99/3/5 97/3/5
f 94/3/6 100/3/6 95/3/6
f 100/3/6 94/3/6 60/3/6
f 60/2/1 101/2/1 99/2/1
f 101/2/1 60/2/1 100/2/1
f 70/2/2 60/2/2 99/2/2
f 60/2/2 70/2/2 69/2/2
f 102/2/3 101/2/3 100/2/3
f 101/2/3 102/2/3 103/2/3
f 102/2/4 70/2/4 103/2/4
f 70/2/4 102/2/4 69/2/4
f 70/2/5 101/2/5 103/2/5
f 101/2/5 70/2/5 99/2/5
f 60/2/6 102/2/6 100/2/6
f 102/2/6 60/2/6 69/2/6
f 72/3/1 104/3/1 71/3/1
f 104/3/1 72/3/1 105/3/1
f 76/3/2 72/3/2 71/3/2
f 72/3/2 76/3/2 75/3/2
f 106/3/3 104/3/3 105/3/3
f 104/3/3 106/3/3 107/3/3
f 106/3/4 76/3/4 107/3/4
f 76/3/4 106/3/4 75/3/4
f 76/3/5 104/3/5 107/3/5
f 104/3/5 76/3/5 71/3/5
f 72/3/6 106/3/6 105/3/6
f 106/3/6 72/3/6 75/3/6
f 51/3/1 88/3/1 50/3/1
f 88/3/1 51/3/1 87/3/1
f 53/3/2 51/3/2 50/3/2
f 51/3/2 53/3/2 52/3/2
f 108/3/3 88/3/3 87/3/3
f 88/3/3 108/3/3 109/3/3
f 108/3/4 53/3/4 109/3/4
f 53/3/4 108/3/4 52/3/4
f 53/3/5 88/3/5 109/3/5
f 88/3/5 53/3/5 50/3/5
f 51/3/6 108/3/6 87/3/6
f 108/3/6 51/3/6 52/3/6
f 52/1/1 109/1/1 53/1/1
f 109/1/1 52/1/1 108/1/1
f 90/1/2 52/1/2 53/1/2
f 52/1/2 90/1/2 89/1/2
f 110/1/3 109/1/3 108/1/3
f 109/1/3 110/1/3 111/1/3
f 110/1/4 90/1/4 111/1/4
f 90/1/4 110/1/4 89/1/4
f 90/1/5 109/1/5 111/1/5
f 109/1/5 90/1/5 53/1/5
f 52/1/6 110/1/6 108/1/6
f 110/1/6 52/1/6 89/1/6
f 89/1/1 113/1/1 112/1/1
f 113/1/1 89/1/1 110/1/1
f 114/1/2 89/1/2 112/1/2
f 89/1/2 114/1/2 91/1/2
f 115/1/3 113/1/3 110/1/3
f 113/1/3 115/1/3 116/1/3
f 115/1/4 114/1/4 116/1/4
f 114/1/4 115/1/4 91/1/4
f 114/1/5 113/1/5 116/1/5
f 113/1/5 114/1/5 112/1/5
f 89/1/6 115/1/6 110/1/6
f 115/1/6 89/1/6 91/1/6
f 91/3/1 116/3/1 114/3/1
f 116/3/1 91/3/1 115/3/1
f 98/3/2 91/3/2 114/3/2
f 91/3/2 98/3/2 95/3/2
f 117/3/3 116/3/3 115/3/3
f 116/3/3 117/3/3 118/3/3
f 117/3/4 98/3/4 118/3/4
f 98/3/4 117/3/4 95/3/4
f 98/3/5 116/3/5 118/3/5
f 116/3/5 98/3/5 114/3/5
f 91/3/6 117/3/6 115/3/6
f 117/3/6 91/3/6 95/3/6
f 120/3/1 119/3/1 98/3/1
f 119/3/1 120/3/1 121/3/1
f 101/3/2 120/3/2 98/3/2
f 120/3/2 101/3/2 122/3/2
f 123/3/3 119/3/3 121/3/3
f 119/3/3 123/3/3 124/3/3
f 123/3/4 101/3/4 124/3/4
f 101/3/4 123/3/4 122/3/4
f 101/3/5 119/3/5 124/3/5
f 119/3/5 101/3/5 98/3/5
f 120/3/6 123/3/6 121/3/6
f 123/3/6 120/3/6 122/3/6
f 122/3/1 125/3/1 101/3/1
f 125/3/1 122/3/1 126/3/1
f 103/3/2 122/3/2 101/3/2
f 122/3/2 103/3/2 127/3/2
f 31/3/3 125/3/3 126/3/3
f 125/3/3 31/3/3 128/3/3
f 31/3/4 103/3/4 128/3/4
f 103/3/4 31/3/4 127/3/4
f 103/3/5 125/3/5 128/3/5
f 125/3/5 103/3/5 101/3/5
f 122/3/6 31/3/6 126/3/6
f 31/3/6 122/3/6 127/3/6
f 105/1/1 129/1/1 104/1/1
f 129/1/1 105/1/1 130/1/1
f 107/1/2 105/1/2 104/1/2
f 105/1/2 107/1/2 106/1/2
f 78/1/3 129/1/3 130/1/3
f 129/1/3 78/1/3 77/1/3
f 78/1/4 107/1/4 77/1/4
f 107/1/4 78/1/4 106/1/4
f 107/1/5 129/1/5 77/1/5
f 129/1/5 107/1/5 104/1/5
f 105/1/6 78/1/6 130/1/6
f 78/1/6 105/1/6 106/1/6
f 85/1/1 131/1/1 86/1/1
f 131/1/1 85/1/1 132/1/1
f 109/1/2 85/1/2 86/1/2
f 85/1/2 109/1/2 108/1/2
f 133/1/3 131/1/3 132/1/3
f 131/1/3 133/1/3 134/1/3
f 133/1/4 109/1/4 134/1/4
f 109/1/4 133/1/4 108/1/4
f 109/1/5 131/1/5 134/1/5
f 131/1/5 109/1/5 86/1/5
f 85/1/6 133/1/6 132/1/6
f 133/1/6 85/1/6 108/1/6
f 135/1/1 134/1/1 109/1/1
f 134/1/1 135/1/1 136/1/1
f 137/1/2 135/1/2 109/1/2
f 135/1/2 137/1/2 138/1/2
f 139/1/3 134/1/3 136/1/3
f 134/1/3 139/1/3 140/1/3
f 139/1/4 137/1/4 140/1/4
f 137/1/4 139/1/4 138/1/4
f 137/1/5 134/1/5 140/1/5
f 134/1/5 137/1/5 109/1/5
f 135/1/6 139/1/6 136/1/6
f 139/1/6 135/1/6 138/1/6
f 142/1/1 141/1/1 113/1/1
f 141/1/1 142/1/1 143/1/1
f 116/1/2 142/1/2 113/1/2
f 142/1/2 116/1/2 144/1/2
f 145/1/3 141/1/3 143/1/3
f 141/1/3 145/1/3 146/1/3
f 145/1/4 116/1/4 146/1/4
f 116/1/4 145/1/4 144/1/4
f 116/1/5 141/1/5 146/1/5
f 141/1/5 116/1/5 113/1/5
f 142/1/6 145/1/6 143/1/6
f 145/1/6 142/1/6 144/1/6
f 144/3/1 146/3/1 116/3/1
f 146/3/1 144/3/1 145/3/1
f 118/3/2 144/3/2 116/3/2
f 144/3/2 118/3/2 147/3/2
f 121/3/3 146/3/3 145/3/3
f 146/3/3 121/3/3 119/3/3
f 121/3/4 118/3/4 119/3/4
f 118/3/4 121/3/4 147/3/4
f 118/3/5 146/3/5 119/3/5
f 146/3/5 118/3/5 116/3/5
f 144/3/6 121/3/6 145/3/6
f 121/3/6 144/3/6 147/3/6
f 126/1/1 124/1/1 125/1/1
f 124/1/1 126/1/1 123/1/1
f 128/1/2 126/1/2 125/1/2
f 126/1/2 128/1/2 31/1/2
f 148/1/3 124/1/3 123/1/3
f 124/1/3 148/1/3 149/1/3
f 148/1/4 128/1/4 149/1/4
f 128/1/4 148/1/4 31/1/4
f 128/1/5 124/1/5 149/1/5
f 124/1/5 128/1/5 125/1/5
f 126/1/6 148/1/6 123/1/6
f 148/1/6 126/1/6 31/1/6
f 143/1/1 151/1/1 150/1/1
f 151/1/1 143/1/1 152/1/1
f 153/1/2 143/1/2 150/1/2
f 143/1/2 153/1/2 145/1/2
f 154/1/3 151/1/3 152/1/3
f 151/1/3 154/1/3 155/1/3
f 154/1/4 153/1/4 155/1/4
f 153/1/4 154/1/4 145/1/4
f 153/1/5 151/1/5 155/1/5
f 151/1/5 153/1/5 150/1/5
f 143/1/6 154/1/6 152/1/6
f 154/1/6 143/1/6 145/1/6
f 145/1/1 156/1/1 146/1/1
f 156/1/1 145/1/1 154/1/1
f 119/1/2 145/1/2 146/1/2
f 145/1/2 119/1/2 121/1/2
f 157/1/3 156/1/3 154/1/3
f 156/1/3 157/1/3 158/1/3
f 157/1/4 119/1/4 158/1/4
f 119/1/4 157/1/4 121/1/4
f 119/1/5 156/1/5 158/1/5
f 156/1/5 119/1/5 146/1/5
f 145/1/6 157/1/6 154/1/6
f 157/1/6 145/1/6 121/1/6
f 121/1/1 160/1/1 159/1/1
f 160/1/1 121/1/1 157/1/1
f 161/1/2 121/1/2 159/1/2
f 121/1/2 161/1/2 123/1/2
f 162/1/3 160/1/3 157/1/3
f 160/1/3 162/1/3 163/1/3
f 162/1/4 161/1/4 163/1/4
f 161/1/4 162/1/4 123/1/4
f 161/1/5 160/1/5 163/1/5
f 160/1/5 161/1/5 159/1/5
f 121/1/6 162/1/6 157/1/6
f 162/1/6 121/1/6 123/1/6
f 22/2/1 25/2/1 21/2/1
f 25/2/1 22/2/1 26/2/1
f 8/2/2 22/2/2 21/2/2
f 22/2/2 8/2/2 7/2/2
f 27/2/3 25/2/3 26/2/3
f 25/2/3 27/2/3 28/2/3
f 27/2/4 8/2/4 28/2/4
f 8/2/4 27/2/4 7/2/4
f 8/2/5 25/2/5 28/2/5
f 25/2/5 8/2/5 21/2/5
f 22/2/6 27/2/6 26/2/6
f 27/2/6 22/2/6 7/2/6
f 122/3/1 125/3/1 101/3/1
f 125/3/1 122/3/1 126/3/1
f 103/3/2 122/3/2 101/3/2
f 122/3/2 103/3/2 127/3/2
f 31/3/3 125/3/3 126/3/3
f 125/3/3 31/3/3 128/3/3
f 31/3/4 103/3/4 128/3/4
f 103/3/4 31/3/4 127/3/4
f 103/3/5 125/3/5 128/3/5
f 125/3/5 103/3/5 101/3/5
f 122/3/6 31/3/6 126/3/6
f 31/3/6 122/3/6 127/3/6

