# Created by Kenney (www.kenney.nl)

mtllib Player_Feet_3.mtl

v 4 7 -1
v 4 3 -1
v 4 7 1
v 4 3 1
v 3 7 -1
v 3 7 1
v 3 3 1
v 3 3 -1
v 3 6 -1
v 3 6 1
v -4 7 -1
v -4 7 1
v -4 6 1
v -4 6 -1
v 4 6 -1
v 4 6 1
v 3 5 -1
v 3 5 1
v -3 6 -1
v -3 6 1
v -3 5 1
v -3 5 -1
v -3 3 -1
v -3 3 1
v -4 3 1
v -4 3 -1
v 3 4 -1
v 3 4 1
v -3 4 1
v -3 4 -1
v 3 3 -0.5
v 3 2 -0.5
v 3 3 0.5
v 3 2 0.5
v 2 3 -0.5
v 2 3 0.5
v 2 2 0.5
v 2 2 -0.5
v -2 3 -0.5
v -2 3 0.5
v -2 2 0.5
v -2 2 -0.5
v -3 3 -0.5
v -3 3 0.5
v -3 2 0.5
v -3 2 -0.5
v 3 2 -1
v 3 0 -1
v 3 0 0.5
v 2 2 -1
v 2 0 0.5
v 2 0 -1
v 2 1 -1
v 2 1 0.5
v -2 2 -1
v -2 1 0.5
v -2 1 -1
v -2 0 -1
v -2 0 0.5
v -3 2 -1
v -3 0 0.5
v -3 0 -1
v 4 1 -1
v 4 -1 -1
v 4 1 0.5
v 4 -1 0.5
v 3 1 -1
v 3 1 0.5
v 3 -1 0.5
v 3 -1 -1
v 2 -1 -1
v 2 -1 0.5
v -2 -1 0.5
v -2 -1 -1
v -3 1 -1
v -3 -1 -1
v -3 1 0.5
v -3 -1 0.5
v -4 1 -1
v -4 1 0.5
v -4 -1 0.5
v -4 -1 -1
v 5 0 -1
v 5 -4 -1
v 5 0 0.5
v 5 -4 0.5
v 4 0 -1
v 4 0 0.5
v 4 -4 0.5
v 4 -4 -1
v 3 -2 -1
v 3 -2 0.5
v 2 -2 0.5
v 2 -2 -1
v -2 -2 -1
v -2 -2 0.5
v -3 -2 0.5
v -3 -2 -1
v -4 0 -1
v -4 -4 -1
v -4 0 0.5
v -4 -4 0.5
v -5 0 -1
v -5 0 0.5
v -5 -4 0.5
v -5 -4 -1
v 4 -3 -1
v 4 -3 0.5
v 3 -3 0.5
v 3 -3 -1
v 2 -1 -1.5
v 2 -2 -1.5
v 1 -1 -1.5
v 1 -1 0.5
v 1 -2 0.5
v 1 -2 -1.5
v 1 -3 -1.5
v 1 -3 0.5
v -1 -1 -1.5
v -1 -1 0.5
v -1 -3 0.5
v -1 -3 -1.5
v -1 -2 -1.5
v -1 -2 0.5
v -2 -1 -1.5
v -2 -2 -1.5
v -3 -3 -1
v -3 -3 0.5
v -4 -3 0.5
v -4 -3 -1
v 3 -2 -1.5
v 3 -4 -1.5
v 3 -4 0.5
v 2 -4 0.5
v 2 -4 -1.5
v 2 -3 -1.5
v 2 -3 0.5
v -2 -3 0.5
v -2 -3 -1.5
v -2 -4 -1.5
v -2 -4 0.5
v -3 -2 -1.5
v -3 -4 0.5
v -3 -4 -1.5
v 4 -3 -1.5
v 4 -4 -1.5
v 3 -3 -1.5
v -3 -3 -1.5
v -4 -3 -1.5
v -4 -4 -1.5
v 5 -4 -1.5
v 5 -7 -1.5
v 5 -4 1
v 5 -7 1
v 4 -4 1
v 4 -7 1
v 4 -7 -1.5
v 4 -5 -1.5
v 4 -5 1
v -5 -4 -1.5
v -5 -4 1
v -5 -5 1
v -5 -5 -1.5
v 4 -6 -1.5
v 4 -6 1
v 1 -5 -1.5
v 1 -5 1
v 1 -6 1
v 1 -6 -1.5
v -1 -5 -1.5
v -1 -5 1
v -1 -6 1
v -1 -6 -1.5
v -4 -5 -1.5
v -4 -5 1
v -4 -6 1
v -4 -6 -1.5
v -4 -7 -1.5
v -4 -7 1
v -5 -7 1
v -5 -7 -1.5

vn 1 0 0
vn 0 1 0
vn 0 -1 0
vn -1 0 0
vn 0 0 -1
vn 0 0 1

vt 0.0625 0.0625
vt 0.1875 0.0625
vt 0.3125 0.0625

usemtl Player_Feet_3

f 3/1/1 2/1/1 1/1/1
f 2/1/1 3/1/1 4/1/1
f 5/1/2 3/1/2 1/1/2
f 3/1/2 5/1/2 6/1/2
f 7/1/3 2/1/3 4/1/3
f 2/1/3 7/1/3 8/1/3
f 7/1/4 5/1/4 8/1/4
f 5/1/4 7/1/4 6/1/4
f 5/1/5 2/1/5 8/1/5
f 2/1/5 5/1/5 1/1/5
f 3/1/6 7/1/6 4/1/6
f 7/1/6 3/1/6 6/1/6
f 6/1/1 9/1/1 5/1/1
f 9/1/1 6/1/1 10/1/1
f 11/1/2 6/1/2 5/1/2
f 6/1/2 11/1/2 12/1/2
f 13/1/3 9/1/3 10/1/3
f 9/1/3 13/1/3 14/1/3
f 13/1/4 11/1/4 14/1/4
f 11/1/4 13/1/4 12/1/4
f 11/1/5 9/1/5 14/1/5
f 9/1/5 11/1/5 5/1/5
f 6/1/6 13/1/6 10/1/6
f 13/1/6 6/1/6 12/1/6
f 3/1/1 15/1/1 1/1/1
f 15/1/1 3/1/1 16/1/1
f 11/1/2 3/1/2 1/1/2
f 3/1/2 11/1/2 12/1/2
f 13/1/3 15/1/3 16/1/3
f 15/1/3 13/1/3 14/1/3
f 13/1/4 11/1/4 14/1/4
f 11/1/4 13/1/4 12/1/4
f 11/1/5 15/1/5 14/1/5
f 15/1/5 11/1/5 1/1/5
f 3/1/6 13/1/6 16/1/6
f 13/1/6 3/1/6 12/1/6
f 10/2/1 17/2/1 9/2/1
f 17/2/1 10/2/1 18/2/1
f 19/2/2 10/2/2 9/2/2
f 10/2/2 19/2/2 20/2/2
f 21/2/3 17/2/3 18/2/3
f 17/2/3 21/2/3 22/2/3
f 21/2/4 19/2/4 22/2/4
f 19/2/4 21/2/4 20/2/4
f 19/2/5 17/2/5 22/2/5
f 17/2/5 19/2/5 9/2/5
f 10/2/6 21/2/6 18/2/6
f 21/2/6 10/2/6 20/2/6
f 20/1/1 23/1/1 19/1/1
f 23/1/1 20/1/1 24/1/1
f 14/1/2 20/1/2 19/1/2
f 20/1/2 14/1/2 13/1/2
f 25/1/3 23/1/3 24/1/3
f 23/1/3 25/1/3 26/1/3
f 25/1/4 14/1/4 26/1/4
f 14/1/4 25/1/4 13/1/4
f 14/1/5 23/1/5 26/1/5
f 23/1/5 14/1/5 19/1/5
f 20/1/6 25/1/6 24/1/6
f 25/1/6 20/1/6 13/1/6
f 18/3/1 27/3/1 17/3/1
f 27/3/1 18/3/1 28/3/1
f 22/3/2 18/3/2 17/3/2
f 18/3/2 22/3/2 21/3/2
f 29/3/3 27/3/3 28/3/3
f 27/3/3 29/3/3 30/3/3
f 29/3/4 22/3/4 30/3/4
f 22/3/4 29/3/4 21/3/4
f 22/3/5 27/3/5 30/3/5
f 27/3/5 22/3/5 17/3/5
f 18/3/6 29/3/6 28/3/6
f 29/3/6 18/3/6 21/3/6
f 28/1/1 8/1/1 27/1/1
f 8/1/1 28/1/1 7/1/1
f 30/1/2 28/1/2 27/1/2
f 28/1/2 30/1/2 29/1/2
f 24/1/3 8/1/3 7/1/3
f 8/1/3 24/1/3 23/1/3
f 24/1/4 30/1/4 23/1/4
f 30/1/4 24/1/4 29/1/4
f 30/1/5 8/1/5 23/1/5
f 8/1/5 30/1/5 27/1/5
f 28/1/6 24/1/6 7/1/6
f 24/1/6 28/1/6 29/1/6
f 33/1/1 32/1/1 31/1/1
f 32/1/1 33/1/1 34/1/1
f 35/1/2 33/1/2 31/1/2
f 33/1/2 35/1/2 36/1/2
f 37/1/3 32/1/3 34/1/3
f 32/1/3 37/1/3 38/1/3
f 37/1/4 35/1/4 38/1/4
f 35/1/4 37/1/4 36/1/4
f 35/1/5 32/1/5 38/1/5
f 32/1/5 35/1/5 31/1/5
f 33/1/6 37/1/6 34/1/6
f 37/1/6 33/1/6 36/1/6
f 36/3/1 38/3/1 35/3/1
f 38/3/1 36/3/1 37/3/1
f 39/3/2 36/3/2 35/3/2
f 36/3/2 39/3/2 40/3/2
f 41/3/3 38/3/3 37/3/3
f 38/3/3 41/3/3 42/3/3
f 41/3/4 39/3/4 42/3/4
f 39/3/4 41/3/4 40/3/4
f 39/3/5 38/3/5 42/3/5
f 38/3/5 39/3/5 35/3/5
f 36/3/6 41/3/6 37/3/6
f 41/3/6 36/3/6 40/3/6
f 40/1/1 42/1/1 39/1/1
f 42/1/1 40/1/1 41/1/1
f 43/1/2 40/1/2 39/1/2
f 40/1/2 43/1/2 44/1/2
f 45/1/3 42/1/3 41/1/3
f 42/1/3 45/1/3 46/1/3
f 45/1/4 43/1/4 46/1/4
f 43/1/4 45/1/4 44/1/4
f 43/1/5 42/1/5 46/1/5
f 42/1/5 43/1/5 39/1/5
f 40/1/6 45/1/6 41/1/6
f 45/1/6 40/1/6 44/1/6
f 34/1/1 48/1/1 47/1/1
f 48/1/1 34/1/1 49/1/1
f 50/1/2 34/1/2 47/1/2
f 34/1/2 50/1/2 37/1/2
f 51/1/3 48/1/3 49/1/3
f 48/1/3 51/1/3 52/1/3
f 51/1/4 50/1/4 52/1/4
f 50/1/4 51/1/4 37/1/4
f 50/1/5 48/1/5 52/1/5
f 48/1/5 50/1/5 47/1/5
f 34/1/6 51/1/6 49/1/6
f 51/1/6 34/1/6 37/1/6
f 37/1/1 53/1/1 50/1/1
f 53/1/1 37/1/1 54/1/1
f 55/1/2 37/1/2 50/1/2
f 37/1/2 55/1/2 41/1/2
f 56/1/3 53/1/3 54/1/3
f 53/1/3 56/1/3 57/1/3
f 56/1/4 55/1/4 57/1/4
f 55/1/4 56/1/4 41/1/4
f 55/1/5 53/1/5 57/1/5
f 53/1/5 55/1/5 50/1/5
f 37/1/6 56/1/6 54/1/6
f 56/1/6 37/1/6 41/1/6
f 41/1/1 58/1/1 55/1/1
f 58/1/1 41/1/1 59/1/1
f 60/1/2 41/1/2 55/1/2
f 41/1/2 60/1/2 45/1/2
f 61/1/3 58/1/3 59/1/3
f 58/1/3 61/1/3 62/1/3
f 61/1/4 60/1/4 62/1/4
f 60/1/4 61/1/4 45/1/4
f 60/1/5 58/1/5 62/1/5
f 58/1/5 60/1/5 55/1/5
f 41/1/6 61/1/6 59/1/6
f 61/1/6 41/1/6 45/1/6
f 65/1/1 64/1/1 63/1/1
f 64/1/1 65/1/1 66/1/1
f 67/1/2 65/1/2 63/1/2
f 65/1/2 67/1/2 68/1/2
f 69/1/3 64/1/3 66/1/3
f 64/1/3 69/1/3 70/1/3
f 69/1/4 67/1/4 70/1/4
f 67/1/4 69/1/4 68/1/4
f 67/1/5 64/1/5 70/1/5
f 64/1/5 67/1/5 63/1/5
f 65/1/6 69/1/6 66/1/6
f 69/1/6 65/1/6 68/1/6
f 54/2/1 71/2/1 53/2/1
f 71/2/1 54/2/1 72/2/1
f 57/2/2 54/2/2 53/2/2
f 54/2/2 57/2/2 56/2/2
f 73/2/3 71/2/3 72/2/3
f 71/2/3 73/2/3 74/2/3
f 73/2/4 57/2/4 74/2/4
f 57/2/4 73/2/4 56/2/4
f 57/2/5 71/2/5 74/2/5
f 71/2/5 57/2/5 53/2/5
f 54/2/6 73/2/6 72/2/6
f 73/2/6 54/2/6 56/2/6
f 77/1/1 76/1/1 75/1/1
f 76/1/1 77/1/1 78/1/1
f 79/1/2 77/1/2 75/1/2
f 77/1/2 79/1/2 80/1/2
f 81/1/3 76/1/3 78/1/3
f 76/1/3 81/1/3 82/1/3
f 81/1/4 79/1/4 82/1/4
f 79/1/4 81/1/4 80/1/4
f 79/1/5 76/1/5 82/1/5
f 76/1/5 79/1/5 75/1/5
f 77/1/6 81/1/6 78/1/6
f 81/1/6 77/1/6 80/1/6
f 85/1/1 84/1/1 83/1/1
f 84/1/1 85/1/1 86/1/1
f 87/1/2 85/1/2 83/1/2
f 85/1/2 87/1/2 88/1/2
f 89/1/3 84/1/3 86/1/3
f 84/1/3 89/1/3 90/1/3
f 89/1/4 87/1/4 90/1/4
f 87/1/4 89/1/4 88/1/4
f 87/1/5 84/1/5 90/1/5
f 84/1/5 87/1/5 83/1/5
f 85/1/6 89/1/6 86/1/6
f 89/1/6 85/1/6 88/1/6
f 49/2/1 91/2/1 48/2/1
f 91/2/1 49/2/1 92/2/1
f 52/2/2 49/2/2 48/2/2
f 49/2/2 52/2/2 51/2/2
f 93/2/3 91/2/3 92/2/3
f 91/2/3 93/2/3 94/2/3
f 93/2/4 52/2/4 94/2/4
f 52/2/4 93/2/4 51/2/4
f 52/2/5 91/2/5 94/2/5
f 91/2/5 52/2/5 48/2/5
f 49/2/6 93/2/6 92/2/6
f 93/2/6 49/2/6 51/2/6
f 59/2/1 95/2/1 58/2/1
f 95/2/1 59/2/1 96/2/1
f 62/2/2 59/2/2 58/2/2
f 59/2/2 62/2/2 61/2/2
f 97/2/3 95/2/3 96/2/3
f 95/2/3 97/2/3 98/2/3
f 97/2/4 62/2/4 98/2/4
f 62/2/4 97/2/4 61/2/4
f 62/2/5 95/2/5 98/2/5
f 95/2/5 62/2/5 58/2/5
f 59/2/6 97/2/6 96/2/6
f 97/2/6 59/2/6 61/2/6
f 101/1/1 100/1/1 99/1/1
f 100/1/1 101/1/1 102/1/1
f 103/1/2 101/1/2 99/1/2
f 101/1/2 103/1/2 104/1/2
f 105/1/3 100/1/3 102/1/3
f 100/1/3 105/1/3 106/1/3
f 105/1/4 103/1/4 106/1/4
f 103/1/4 105/1/4 104/1/4
f 103/1/5 100/1/5 106/1/5
f 100/1/5 103/1/5 99/1/5
f 101/1/6 105/1/6 102/1/6
f 105/1/6 101/1/6 104/1/6
f 66/3/1 107/3/1 64/3/1
f 107/3/1 66/3/1 108/3/1
f 70/3/2 66/3/2 64/3/2
f 66/3/2 70/3/2 69/3/2
f 109/3/3 107/3/3 108/3/3
f 107/3/3 109/3/3 110/3/3
f 109/3/4 70/3/4 110/3/4
f 70/3/4 109/3/4 69/3/4
f 70/3/5 107/3/5 110/3/5
f 107/3/5 70/3/5 64/3/5
f 66/3/6 109/3/6 108/3/6
f 109/3/6 66/3/6 69/3/6
f 72/2/1 112/2/1 111/2/1
f 112/2/1 72/2/1 93/2/1
f 113/2/2 72/2/2 111/2/2
f 72/2/2 113/2/2 114/2/2
f 115/2/3 112/2/3 93/2/3
f 112/2/3 115/2/3 116/2/3
f 115/2/4 113/2/4 116/2/4
f 113/2/4 115/2/4 114/2/4
f 113/2/5 112/2/5 116/2/5
f 112/2/5 113/2/5 111/2/5
f 72/2/6 115/2/6 93/2/6
f 115/2/6 72/2/6 114/2/6
f 114/2/1 117/2/1 113/2/1
f 117/2/1 114/2/1 118/2/1
f 119/2/2 114/2/2 113/2/2
f 114/2/2 119/2/2 120/2/2
f 121/2/3 117/2/3 118/2/3
f 117/2/3 121/2/3 122/2/3
f 121/2/4 119/2/4 122/2/4
f 119/2/4 121/2/4 120/2/4
f 119/2/5 117/2/5 122/2/5
f 117/2/5 119/2/5 113/2/5
f 114/2/6 121/2/6 118/2/6
f 121/2/6 114/2/6 120/2/6
f 120/2/1 123/2/1 119/2/1
f 123/2/1 120/2/1 124/2/1
f 125/2/2 120/2/2 119/2/2
f 120/2/2 125/2/2 73/2/2
f 96/2/3 123/2/3 124/2/3
f 123/2/3 96/2/3 126/2/3
f 96/2/4 125/2/4 126/2/4
f 125/2/4 96/2/4 73/2/4
f 125/2/5 123/2/5 126/2/5
f 123/2/5 125/2/5 119/2/5
f 120/2/6 96/2/6 124/2/6
f 96/2/6 120/2/6 73/2/6
f 78/3/1 127/3/1 76/3/1
f 127/3/1 78/3/1 128/3/1
f 82/3/2 78/3/2 76/3/2
f 78/3/2 82/3/2 81/3/2
f 129/3/3 127/3/3 128/3/3
f 127/3/3 129/3/3 130/3/3
f 129/3/4 82/3/4 130/3/4
f 82/3/4 129/3/4 81/3/4
f 82/3/5 127/3/5 130/3/5
f 127/3/5 82/3/5 76/3/5
f 78/3/6 129/3/6 128/3/6
f 129/3/6 78/3/6 81/3/6
f 92/3/1 132/3/1 131/3/1
f 132/3/1 92/3/1 133/3/1
f 112/3/2 92/3/2 131/3/2
f 92/3/2 112/3/2 93/3/2
f 134/3/3 132/3/3 133/3/3
f 132/3/3 134/3/3 135/3/3
f 134/3/4 112/3/4 135/3/4
f 112/3/4 134/3/4 93/3/4
f 112/3/5 132/3/5 135/3/5
f 132/3/5 112/3/5 131/3/5
f 92/3/6 134/3/6 133/3/6
f 134/3/6 92/3/6 93/3/6
f 93/2/1 136/2/1 112/2/1
f 136/2/1 93/2/1 137/2/1
f 116/2/2 93/2/2 112/2/2
f 93/2/2 116/2/2 115/2/2
f 118/2/3 136/2/3 137/2/3
f 136/2/3 118/2/3 117/2/3
f 118/2/4 116/2/4 117/2/4
f 116/2/4 118/2/4 115/2/4
f 116/2/5 136/2/5 117/2/5
f 136/2/5 116/2/5 112/2/5
f 93/2/6 118/2/6 137/2/6
f 118/2/6 93/2/6 115/2/6
f 124/2/1 122/2/1 123/2/1
f 122/2/1 124/2/1 121/2/1
f 126/2/2 124/2/2 123/2/2
f 124/2/2 126/2/2 96/2/2
f 138/2/3 122/2/3 121/2/3
f 122/2/3 138/2/3 139/2/3
f 138/2/4 126/2/4 139/2/4
f 126/2/4 138/2/4 96/2/4
f 126/2/5 122/2/5 139/2/5
f 122/2/5 126/2/5 123/2/5
f 124/2/6 138/2/6 121/2/6
f 138/2/6 124/2/6 96/2/6
f 96/3/1 140/3/1 126/3/1
f 140/3/1 96/3/1 141/3/1
f 142/3/2 96/3/2 126/3/2
f 96/3/2 142/3/2 97/3/2
f 143/3/3 140/3/3 141/3/3
f 140/3/3 143/3/3 144/3/3
f 143/3/4 142/3/4 144/3/4
f 142/3/4 143/3/4 97/3/4
f 142/3/5 140/3/5 144/3/5
f 140/3/5 142/3/5 126/3/5
f 96/3/6 143/3/6 141/3/6
f 143/3/6 96/3/6 97/3/6
f 108/3/1 146/3/1 145/3/1
f 146/3/1 108/3/1 89/3/1
f 147/3/2 108/3/2 145/3/2
f 108/3/2 147/3/2 109/3/2
f 133/3/3 146/3/3 89/3/3
f 146/3/3 133/3/3 132/3/3
f 133/3/4 147/3/4 132/3/4
f 147/3/4 133/3/4 109/3/4
f 147/3/5 146/3/5 132/3/5
f 146/3/5 147/3/5 145/3/5
f 108/3/6 133/3/6 89/3/6
f 133/3/6 108/3/6 109/3/6
f 137/3/1 135/3/1 136/3/1
f 135/3/1 137/3/1 134/3/1
f 139/3/2 137/3/2 136/3/2
f 137/3/2 139/3/2 138/3/2
f 141/3/3 135/3/3 134/3/3
f 135/3/3 141/3/3 140/3/3
f 141/3/4 139/3/4 140/3/4
f 139/3/4 141/3/4 138/3/4
f 139/3/5 135/3/5 140/3/5
f 135/3/5 139/3/5 136/3/5
f 137/3/6 141/3/6 134/3/6
f 141/3/6 137/3/6 138/3/6
f 128/3/1 144/3/1 148/3/1
f 144/3/1 128/3/1 143/3/1
f 149/3/2 128/3/2 148/3/2
f 128/3/2 149/3/2 129/3/2
f 102/3/3 144/3/3 143/3/3
f 144/3/3 102/3/3 150/3/3
f 102/3/4 149/3/4 150/3/4
f 149/3/4 102/3/4 129/3/4
f 149/3/5 144/3/5 150/3/5
f 144/3/5 149/3/5 148/3/5
f 128/3/6 102/3/6 143/3/6
f 102/3/6 128/3/6 129/3/6
f 153/1/1 152/1/1 151/1/1
f 152/1/1 153/1/1 154/1/1
f 146/1/2 153/1/2 151/1/2
f 153/1/2 146/1/2 155/1/2
f 156/1/3 152/1/3 154/1/3
f 152/1/3 156/1/3 157/1/3
f 156/1/4 146/1/4 157/1/4
f 146/1/4 156/1/4 155/1/4
f 146/1/5 152/1/5 157/1/5
f 152/1/5 146/1/5 151/1/5
f 153/1/6 156/1/6 154/1/6
f 156/1/6 153/1/6 155/1/6
f 155/1/1 158/1/1 146/1/1
f 158/1/1 155/1/1 159/1/1
f 160/1/2 155/1/2 146/1/2
f 155/1/2 160/1/2 161/1/2
f 162/1/3 158/1/3 159/1/3
f 158/1/3 162/1/3 163/1/3
f 162/1/4 160/1/4 163/1/4
f 160/1/4 162/1/4 161/1/4
f 160/1/5 158/1/5 163/1/5
f 158/1/5 160/1/5 146/1/5
f 155/1/6 162/1/6 159/1/6
f 162/1/6 155/1/6 161/1/6
f 159/3/1 164/3/1 158/3/1
f 164/3/1 159/3/1 165/3/1
f 166/3/2 159/3/2 158/3/2
f 159/3/2 166/3/2 167/3/2
f 168/3/3 164/3/3 165/3/3
f 164/3/3 168/3/3 169/3/3
f 168/3/4 166/3/4 169/3/4
f 166/3/4 168/3/4 167/3/4
f 166/3/5 164/3/5 169/3/5
f 164/3/5 166/3/5 158/3/5
f 159/3/6 168/3/6 165/3/6
f 168/3/6 159/3/6 167/3/6
f 167/2/1 169/2/1 166/2/1
f 169/2/1 167/2/1 168/2/1
f 170/2/2 167/2/2 166/2/2
f 167/2/2 170/2/2 171/2/2
f 172/2/3 169/2/3 168/2/3
f 169/2/3 172/2/3 173/2/3
f 172/2/4 170/2/4 173/2/4
f 170/2/4 172/2/4 171/2/4
f 170/2/5 169/2/5 173/2/5
f 169/2/5 170/2/5 166/2/5
f 167/2/6 172/2/6 168/2/6
f 172/2/6 167/2/6 171/2/6
f 171/3/1 173/3/1 170/3/1
f 173/3/1 171/3/1 172/3/1
f 174/3/2 171/3/2 170/3/2
f 171/3/2 174/3/2 175/3/2
f 176/3/3 173/3/3 172/3/3
f 173/3/3 176/3/3 177/3/3
f 176/3/4 174/3/4 177/3/4
f 174/3/4 176/3/4 175/3/4
f 174/3/5 173/3/5 177/3/5
f 173/3/5 174/3/5 170/3/5
f 171/3/6 176/3/6 172/3/6
f 176/3/6 171/3/6 175/3/6
f 175/1/1 178/1/1 174/1/1
f 178/1/1 175/1/1 179/1/1
f 163/1/2 175/1/2 174/1/2
f 175/1/2 163/1/2 162/1/2
f 180/1/3 178/1/3 179/1/3
f 178/1/3 180/1/3 181/1/3
f 180/1/4 163/1/4 181/1/4
f 163/1/4 180/1/4 162/1/4
f 163/1/5 178/1/5 181/1/5
f 178/1/5 163/1/5 174/1/5
f 175/1/6 180/1/6 179/1/6
f 180/1/6 175/1/6 162/1/6
f 165/1/1 157/1/1 164/1/1
f 157/1/1 165/1/1 156/1/1
f 177/1/2 165/1/2 164/1/2
f 165/1/2 177/1/2 176/1/2
f 179/1/3 157/1/3 156/1/3
f 157/1/3 179/1/3 178/1/3
f 179/1/4 177/1/4 178/1/4
f 177/1/4 179/1/4 176/1/4
f 177/1/5 157/1/5 178/1/5
f 157/1/5 177/1/5 164/1/5
f 165/1/6 179/1/6 156/1/6
f 179/1/6 165/1/6 176/1/6
f 155/1/1 158/1/1 146/1/1
f 158/1/1 155/1/1 159/1/1
f 160/1/2 155/1/2 146/1/2
f 155/1/2 160/1/2 161/1/2
f 162/1/3 158/1/3 159/1/3
f 158/1/3 162/1/3 163/1/3
f 162/1/4 160/1/4 163/1/4
f 160/1/4 162/1/4 161/1/4
f 160/1/5 158/1/5 163/1/5
f 158/1/5 160/1/5 146/1/5
f 155/1/6 162/1/6 159/1/6
f 162/1/6 155/1/6 161/1/6

