# Created by Kenney (www.kenney.nl)

mtllib Player_Hands_L_1.mtl

v 3 4 -1
v 3 3 -1
v 3 4 1.5
v 3 3 1.5
v -4 4 -1
v -4 4 1.5
v -4 3 1.5
v -4 3 -1
v 6 3 -0.5
v 6 -1 -0.5
v 6 3 0.5
v 6 -1 0.5
v 5 3 -0.5
v 5 3 0.5
v 5 -1 0.5
v 5 -1 -0.5
v 5 2 -0.5
v 5 2 0.5
v 4 3 -0.5
v 4 3 0.5
v 4 2 0.5
v 4 2 -0.5
v 4 3 -1
v 4 -1 -1
v 4 3 1
v 4 -1 1
v 3 3 1
v 3 -1 1
v 3 -1 -1
v 3 2 -1
v 3 2 1.5
v -4 2 1.5
v -4 2 -1
v -5 3 -1
v -5 3 1.5
v -5 2 1.5
v -5 2 -1
v 5 1 -0.5
v 5 1 0.5
v 4 1 0.5
v 4 1 -0.5
v 3 1 -1
v 3 1 1.5
v 2 2 -1
v 2 2 1.5
v 2 1 1.5
v 2 1 -1
v 2 2 -1.5
v 2 1 -1.5
v 1 2 -1.5
v 1 2 1.5
v 1 1 1.5
v 1 1 -1.5
v -1 2 -1.5
v -1 2 1.5
v -1 1 1.5
v -1 1 -1.5
v -1 2 -1
v -1 1 -1
v -2 2 -1
v -2 2 1.5
v -2 1 1.5
v -2 1 -1
v -5 1 1.5
v -5 1 -1
v -6 2 -1
v -6 2 1.5
v -6 1 1.5
v -6 1 -1
v 5 0 -0.5
v 5 0 0.5
v 4 0 0.5
v 4 0 -0.5
v 3 1 -1.5
v 3 0 -1.5
v 3 0 1.5
v 1 0 1.5
v 1 0 -1.5
v 0 1 -1.5
v 0 1 1.5
v 0 0 1.5
v 0 0 -1.5
v -1 0 1.5
v -1 0 -1.5
v -2 1 -1.5
v -2 0 1.5
v -2 0 -1.5
v -2 0 -1
v -4 1 -1
v -4 1 1.5
v -4 0 1.5
v -4 0 -1
v -5 0 1.5
v -5 0 -1
v -5 -1 -1
v -5 -1 1.5
v -6 -1 1.5
v -6 -1 -1
v -7 1 -1
v -7 1 1.5
v -7 -1 1.5
v -7 -1 -1
v 4 -1 0.5
v 4 -1 -0.5
v 3 -1 -1.5
v 3 0 1
v 0 0 1
v 0 -1 1
v 0 -1 -1.5
v 0 -1 1.5
v -1 -1 1.5
v -1 -1 -1.5
v -2 -1 1.5
v -2 -1 -1.5
v -2 -1 -1
v -4 -1 1.5
v -4 -1 -1
v 3 -2 -1.5
v 3 -2 1
v 1 -1 -1.5
v 1 -1 1
v 1 -2 1
v 1 -2 -1.5
v -1 -1 1
v -1 -2 1
v -1 -2 -1.5
v -1 -3 -1.5
v -1 -3 1
v -2 -1 1
v -2 -3 1
v -2 -3 -1.5
v -3 -1 -1
v -3 -2 -1
v -3 -1 1.5
v -3 -2 1.5
v -6 -2 1.5
v -6 -2 -1
v 1 -3 -1.5
v 1 -3 1

vn 1 0 0
vn 0 1 0
vn 0 -1 0
vn -1 0 0
vn 0 0 -1
vn 0 0 1

vt 0.0625 0.0625
vt 0.1875 0.0625
vt 0.3125 0.0625

usemtl Player_Hands_L_1

f 3/1/1 2/1/1 1/1/1
f 2/1/1 3/1/1 4/1/1
f 5/1/2 3/1/2 1/1/2
f 3/1/2 5/1/2 6/1/2
f 7/1/3 2/1/3 4/1/3
f 2/1/3 7/1/3 8/1/3
f 7/1/4 5/1/4 8/1/4
f 5/1/4 7/1/4 6/1/4
f 5/1/5 2/1/5 8/1/5
f 2/1/5 5/1/5 1/1/5
f 3/1/6 7/1/6 4/1/6
f 7/1/6 3/1/6 6/1/6
f 11/1/1 10/1/1 9/1/1
f 10/1/1 11/1/1 12/1/1
f 13/1/2 11/1/2 9/1/2
f 11/1/2 13/1/2 14/1/2
f 15/1/3 10/1/3 12/1/3
f 10/1/3 15/1/3 16/1/3
f 15/1/4 13/1/4 16/1/4
f 13/1/4 15/1/4 14/1/4
f 13/1/5 10/1/5 16/1/5
f 10/1/5 13/1/5 9/1/5
f 11/1/6 15/1/6 12/1/6
f 15/1/6 11/1/6 14/1/6
f 14/1/1 17/1/1 13/1/1
f 17/1/1 14/1/1 18/1/1
f 19/1/2 14/1/2 13/1/2
f 14/1/2 19/1/2 20/1/2
f 21/1/3 17/1/3 18/1/3
f 17/1/3 21/1/3 22/1/3
f 21/1/4 19/1/4 22/1/4
f 19/1/4 21/1/4 20/1/4
f 19/1/5 17/1/5 22/1/5
f 17/1/5 19/1/5 13/1/5
f 14/1/6 21/1/6 18/1/6
f 21/1/6 14/1/6 20/1/6
f 25/1/1 24/1/1 23/1/1
f 24/1/1 25/1/1 26/1/1
f 2/1/2 25/1/2 23/1/2
f 25/1/2 2/1/2 27/1/2
f 28/1/3 24/1/3 26/1/3
f 24/1/3 28/1/3 29/1/3
f 28/1/4 2/1/4 29/1/4
f 2/1/4 28/1/4 27/1/4
f 2/1/5 24/1/5 29/1/5
f 24/1/5 2/1/5 23/1/5
f 25/1/6 28/1/6 26/1/6
f 28/1/6 25/1/6 27/1/6
f 4/2/1 30/2/1 2/2/1
f 30/2/1 4/2/1 31/2/1
f 8/2/2 4/2/2 2/2/2
f 4/2/2 8/2/2 7/2/2
f 32/2/3 30/2/3 31/2/3
f 30/2/3 32/2/3 33/2/3
f 32/2/4 8/2/4 33/2/4
f 8/2/4 32/2/4 7/2/4
f 8/2/5 30/2/5 33/2/5
f 30/2/5 8/2/5 2/2/5
f 4/2/6 32/2/6 31/2/6
f 32/2/6 4/2/6 7/2/6
f 7/1/1 33/1/1 8/1/1
f 33/1/1 7/1/1 32/1/1
f 34/1/2 7/1/2 8/1/2
f 7/1/2 34/1/2 35/1/2
f 36/1/3 33/1/3 32/1/3
f 33/1/3 36/1/3 37/1/3
f 36/1/4 34/1/4 37/1/4
f 34/1/4 36/1/4 35/1/4
f 34/1/5 33/1/5 37/1/5
f 33/1/5 34/1/5 8/1/5
f 7/1/6 36/1/6 32/1/6
f 36/1/6 7/1/6 35/1/6
f 18/2/1 38/2/1 17/2/1
f 38/2/1 18/2/1 39/2/1
f 22/2/2 18/2/2 17/2/2
f 18/2/2 22/2/2 21/2/2
f 40/2/3 38/2/3 39/2/3
f 38/2/3 40/2/3 41/2/3
f 40/2/4 22/2/4 41/2/4
f 22/2/4 40/2/4 21/2/4
f 22/2/5 38/2/5 41/2/5
f 38/2/5 22/2/5 17/2/5
f 18/2/6 40/2/6 39/2/6
f 40/2/6 18/2/6 21/2/6
f 31/2/1 42/2/1 30/2/1
f 42/2/1 31/2/1 43/2/1
f 44/2/2 31/2/2 30/2/2
f 31/2/2 44/2/2 45/2/2
f 46/2/3 42/2/3 43/2/3
f 42/2/3 46/2/3 47/2/3
f 46/2/4 44/2/4 47/2/4
f 44/2/4 46/2/4 45/2/4
f 44/2/5 42/2/5 47/2/5
f 42/2/5 44/2/5 30/2/5
f 31/2/6 46/2/6 43/2/6
f 46/2/6 31/2/6 45/2/6
f 45/2/1 49/2/1 48/2/1
f 49/2/1 45/2/1 46/2/1
f 50/2/2 45/2/2 48/2/2
f 45/2/2 50/2/2 51/2/2
f 52/2/3 49/2/3 46/2/3
f 49/2/3 52/2/3 53/2/3
f 52/2/4 50/2/4 53/2/4
f 50/2/4 52/2/4 51/2/4
f 50/2/5 49/2/5 53/2/5
f 49/2/5 50/2/5 48/2/5
f 45/2/6 52/2/6 46/2/6
f 52/2/6 45/2/6 51/2/6
f 51/1/1 53/1/1 50/1/1
f 53/1/1 51/1/1 52/1/1
f 54/1/2 51/1/2 50/1/2
f 51/1/2 54/1/2 55/1/2
f 56/1/3 53/1/3 52/1/3
f 53/1/3 56/1/3 57/1/3
f 56/1/4 54/1/4 57/1/4
f 54/1/4 56/1/4 55/1/4
f 54/1/5 53/1/5 57/1/5
f 53/1/5 54/1/5 50/1/5
f 51/1/6 56/1/6 52/1/6
f 56/1/6 51/1/6 55/1/6
f 55/3/1 59/3/1 58/3/1
f 59/3/1 55/3/1 56/3/1
f 60/3/2 55/3/2 58/3/2
f 55/3/2 60/3/2 61/3/2
f 62/3/3 59/3/3 56/3/3
f 59/3/3 62/3/3 63/3/3
f 62/3/4 60/3/4 63/3/4
f 60/3/4 62/3/4 61/3/4
f 60/3/5 59/3/5 63/3/5
f 59/3/5 60/3/5 58/3/5
f 55/3/6 62/3/6 56/3/6
f 62/3/6 55/3/6 61/3/6
f 61/2/1 63/2/1 60/2/1
f 63/2/1 61/2/1 62/2/1
f 37/2/2 61/2/2 60/2/2
f 61/2/2 37/2/2 36/2/2
f 64/2/3 63/2/3 62/2/3
f 63/2/3 64/2/3 65/2/3
f 64/2/4 37/2/4 65/2/4
f 37/2/4 64/2/4 36/2/4
f 37/2/5 63/2/5 65/2/5
f 63/2/5 37/2/5 60/2/5
f 61/2/6 64/2/6 62/2/6
f 64/2/6 61/2/6 36/2/6
f 36/1/1 65/1/1 37/1/1
f 65/1/1 36/1/1 64/1/1
f 66/1/2 36/1/2 37/1/2
f 36/1/2 66/1/2 67/1/2
f 68/1/3 65/1/3 64/1/3
f 65/1/3 68/1/3 69/1/3
f 68/1/4 66/1/4 69/1/4
f 66/1/4 68/1/4 67/1/4
f 66/1/5 65/1/5 69/1/5
f 65/1/5 66/1/5 37/1/5
f 36/1/6 68/1/6 64/1/6
f 68/1/6 36/1/6 67/1/6
f 39/3/1 70/3/1 38/3/1
f 70/3/1 39/3/1 71/3/1
f 41/3/2 39/3/2 38/3/2
f 39/3/2 41/3/2 40/3/2
f 72/3/3 70/3/3 71/3/3
f 70/3/3 72/3/3 73/3/3
f 72/3/4 41/3/4 73/3/4
f 41/3/4 72/3/4 40/3/4
f 41/3/5 70/3/5 73/3/5
f 70/3/5 41/3/5 38/3/5
f 39/3/6 72/3/6 71/3/6
f 72/3/6 39/3/6 40/3/6
f 43/2/1 75/2/1 74/2/1
f 75/2/1 43/2/1 76/2/1
f 53/2/2 43/2/2 74/2/2
f 43/2/2 53/2/2 52/2/2
f 77/2/3 75/2/3 76/2/3
f 75/2/3 77/2/3 78/2/3
f 77/2/4 53/2/4 78/2/4
f 53/2/4 77/2/4 52/2/4
f 53/2/5 75/2/5 78/2/5
f 75/2/5 53/2/5 74/2/5
f 43/2/6 77/2/6 76/2/6
f 77/2/6 43/2/6 52/2/6
f 52/3/1 78/3/1 53/3/1
f 78/3/1 52/3/1 77/3/1
f 79/3/2 52/3/2 53/3/2
f 52/3/2 79/3/2 80/3/2
f 81/3/3 78/3/3 77/3/3
f 78/3/3 81/3/3 82/3/3
f 81/3/4 79/3/4 82/3/4
f 79/3/4 81/3/4 80/3/4
f 79/3/5 78/3/5 82/3/5
f 78/3/5 79/3/5 53/3/5
f 52/3/6 81/3/6 77/3/6
f 81/3/6 52/3/6 80/3/6
f 80/1/1 82/1/1 79/1/1
f 82/1/1 80/1/1 81/1/1
f 57/1/2 80/1/2 79/1/2
f 80/1/2 57/1/2 56/1/2
f 83/1/3 82/1/3 81/1/3
f 82/1/3 83/1/3 84/1/3
f 83/1/4 57/1/4 84/1/4
f 57/1/4 83/1/4 56/1/4
f 57/1/5 82/1/5 84/1/5
f 82/1/5 57/1/5 79/1/5
f 80/1/6 83/1/6 81/1/6
f 83/1/6 80/1/6 56/1/6
f 56/1/1 84/1/1 57/1/1
f 84/1/1 56/1/1 83/1/1
f 85/1/2 56/1/2 57/1/2
f 56/1/2 85/1/2 62/1/2
f 86/1/3 84/1/3 83/1/3
f 84/1/3 86/1/3 87/1/3
f 86/1/4 85/1/4 87/1/4
f 85/1/4 86/1/4 62/1/4
f 85/1/5 84/1/5 87/1/5
f 84/1/5 85/1/5 57/1/5
f 56/1/6 86/1/6 83/1/6
f 86/1/6 56/1/6 62/1/6
f 62/3/1 88/3/1 63/3/1
f 88/3/1 62/3/1 86/3/1
f 89/3/2 62/3/2 63/3/2
f 62/3/2 89/3/2 90/3/2
f 91/3/3 88/3/3 86/3/3
f 88/3/3 91/3/3 92/3/3
f 91/3/4 89/3/4 92/3/4
f 89/3/4 91/3/4 90/3/4
f 89/3/5 88/3/5 92/3/5
f 88/3/5 89/3/5 63/3/5
f 62/3/6 91/3/6 86/3/6
f 91/3/6 62/3/6 90/3/6
f 90/2/1 92/2/1 89/2/1
f 92/2/1 90/2/1 91/2/1
f 65/2/2 90/2/2 89/2/2
f 90/2/2 65/2/2 64/2/2
f 93/2/3 92/2/3 91/2/3
f 92/2/3 93/2/3 94/2/3
f 93/2/4 65/2/4 94/2/4
f 65/2/4 93/2/4 64/2/4
f 65/2/5 92/2/5 94/2/5
f 92/2/5 65/2/5 89/2/5
f 90/2/6 93/2/6 91/2/6
f 93/2/6 90/2/6 64/2/6
f 64/3/1 95/3/1 65/3/1
f 95/3/1 64/3/1 96/3/1
f 69/3/2 64/3/2 65/3/2
f 64/3/2 69/3/2 68/3/2
f 97/3/3 95/3/3 96/3/3
f 95/3/3 97/3/3 98/3/3
f 97/3/4 69/3/4 98/3/4
f 69/3/4 97/3/4 68/3/4
f 69/3/5 95/3/5 98/3/5
f 95/3/5 69/3/5 65/3/5
f 64/3/6 97/3/6 96/3/6
f 97/3/6 64/3/6 68/3/6
f 68/1/1 98/1/1 69/1/1
f 98/1/1 68/1/1 97/1/1
f 99/1/2 68/1/2 69/1/2
f 68/1/2 99/1/2 100/1/2
f 101/1/3 98/1/3 97/1/3
f 98/1/3 101/1/3 102/1/3
f 101/1/4 99/1/4 102/1/4
f 99/1/4 101/1/4 100/1/4
f 99/1/5 98/1/5 102/1/5
f 98/1/5 99/1/5 69/1/5
f 68/1/6 101/1/6 97/1/6
f 101/1/6 68/1/6 100/1/6
f 71/1/1 16/1/1 70/1/1
f 16/1/1 71/1/1 15/1/1
f 73/1/2 71/1/2 70/1/2
f 71/1/2 73/1/2 72/1/2
f 103/1/3 16/1/3 15/1/3
f 16/1/3 103/1/3 104/1/3
f 103/1/4 73/1/4 104/1/4
f 73/1/4 103/1/4 72/1/4
f 73/1/5 16/1/5 104/1/5
f 16/1/5 73/1/5 70/1/5
f 71/1/6 103/1/6 15/1/6
f 103/1/6 71/1/6 72/1/6
f 106/3/1 105/3/1 75/3/1
f 105/3/1 106/3/1 28/3/1
f 82/3/2 106/3/2 75/3/2
f 106/3/2 82/3/2 107/3/2
f 108/3/3 105/3/3 28/3/3
f 105/3/3 108/3/3 109/3/3
f 108/3/4 82/3/4 109/3/4
f 82/3/4 108/3/4 107/3/4
f 82/3/5 105/3/5 109/3/5
f 105/3/5 82/3/5 75/3/5
f 106/3/6 108/3/6 28/3/6
f 108/3/6 106/3/6 107/3/6
f 81/3/1 109/3/1 82/3/1
f 109/3/1 81/3/1 110/3/1
f 84/3/2 81/3/2 82/3/2
f 81/3/2 84/3/2 83/3/2
f 111/3/3 109/3/3 110/3/3
f 109/3/3 111/3/3 112/3/3
f 111/3/4 84/3/4 112/3/4
f 84/3/4 111/3/4 83/3/4
f 84/3/5 109/3/5 112/3/5
f 109/3/5 84/3/5 82/3/5
f 81/3/6 111/3/6 110/3/6
f 111/3/6 81/3/6 83/3/6
f 83/1/1 112/1/1 84/1/1
f 112/1/1 83/1/1 111/1/1
f 87/1/2 83/1/2 84/1/2
f 83/1/2 87/1/2 86/1/2
f 113/1/3 112/1/3 111/1/3
f 112/1/3 113/1/3 114/1/3
f 113/1/4 87/1/4 114/1/4
f 87/1/4 113/1/4 86/1/4
f 87/1/5 112/1/5 114/1/5
f 112/1/5 87/1/5 84/1/5
f 83/1/6 113/1/6 111/1/6
f 113/1/6 83/1/6 86/1/6
f 86/1/1 115/1/1 88/1/1
f 115/1/1 86/1/1 113/1/1
f 92/1/2 86/1/2 88/1/2
f 86/1/2 92/1/2 91/1/2
f 116/1/3 115/1/3 113/1/3
f 115/1/3 116/1/3 117/1/3
f 116/1/4 92/1/4 117/1/4
f 92/1/4 116/1/4 91/1/4
f 92/1/5 115/1/5 117/1/5
f 115/1/5 92/1/5 88/1/5
f 86/1/6 116/1/6 113/1/6
f 116/1/6 86/1/6 91/1/6
f 91/3/1 117/3/1 92/3/1
f 117/3/1 91/3/1 116/3/1
f 94/3/2 91/3/2 92/3/2
f 91/3/2 94/3/2 93/3/2
f 96/3/3 117/3/3 116/3/3
f 117/3/3 96/3/3 95/3/3
f 96/3/4 94/3/4 95/3/4
f 94/3/4 96/3/4 93/3/4
f 94/3/5 117/3/5 95/3/5
f 117/3/5 94/3/5 92/3/5
f 91/3/6 96/3/6 116/3/6
f 96/3/6 91/3/6 93/3/6
f 28/1/1 118/1/1 105/1/1
f 118/1/1 28/1/1 119/1/1
f 120/1/2 28/1/2 105/1/2
f 28/1/2 120/1/2 121/1/2
f 122/1/3 118/1/3 119/1/3
f 118/1/3 122/1/3 123/1/3
f 122/1/4 120/1/4 123/1/4
f 120/1/4 122/1/4 121/1/4
f 120/1/5 118/1/5 123/1/5
f 118/1/5 120/1/5 105/1/5
f 28/1/6 122/1/6 119/1/6
f 122/1/6 28/1/6 121/1/6
f 121/3/1 123/3/1 120/3/1
f 123/3/1 121/3/1 122/3/1
f 112/3/2 121/3/2 120/3/2
f 121/3/2 112/3/2 124/3/2
f 125/3/3 123/3/3 122/3/3
f 123/3/3 125/3/3 126/3/3
f 125/3/4 112/3/4 126/3/4
f 112/3/4 125/3/4 124/3/4
f 112/3/5 123/3/5 126/3/5
f 123/3/5 112/3/5 120/3/5
f 121/3/6 125/3/6 122/3/6
f 125/3/6 121/3/6 124/3/6
f 124/1/1 127/1/1 112/1/1
f 127/1/1 124/1/1 128/1/1
f 114/1/2 124/1/2 112/1/2
f 124/1/2 114/1/2 129/1/2
f 130/1/3 127/1/3 128/1/3
f 127/1/3 130/1/3 131/1/3
f 130/1/4 114/1/4 131/1/4
f 114/1/4 130/1/4 129/1/4
f 114/1/5 127/1/5 131/1/5
f 127/1/5 114/1/5 112/1/5
f 124/1/6 130/1/6 128/1/6
f 130/1/6 124/1/6 129/1/6
f 134/1/1 133/1/1 132/1/1
f 133/1/1 134/1/1 135/1/1
f 98/1/2 134/1/2 132/1/2
f 134/1/2 98/1/2 97/1/2
f 136/1/3 133/1/3 135/1/3
f 133/1/3 136/1/3 137/1/3
f 136/1/4 98/1/4 137/1/4
f 98/1/4 136/1/4 97/1/4
f 98/1/5 133/1/5 137/1/5
f 133/1/5 98/1/5 132/1/5
f 134/1/6 136/1/6 135/1/6
f 136/1/6 134/1/6 97/1/6
f 122/1/1 138/1/1 123/1/1
f 138/1/1 122/1/1 139/1/1
f 126/1/2 122/1/2 123/1/2
f 122/1/2 126/1/2 125/1/2
f 128/1/3 138/1/3 139/1/3
f 138/1/3 128/1/3 127/1/3
f 128/1/4 126/1/4 127/1/4
f 126/1/4 128/1/4 125/1/4
f 126/1/5 138/1/5 127/1/5
f 138/1/5 126/1/5 123/1/5
f 122/1/6 128/1/6 139/1/6
f 128/1/6 122/1/6 125/1/6
f 14/1/1 17/1/1 13/1/1
f 17/1/1 14/1/1 18/1/1
f 19/1/2 14/1/2 13/1/2
f 14/1/2 19/1/2 20/1/2
f 21/1/3 17/1/3 18/1/3
f 17/1/3 21/1/3 22/1/3
f 21/1/4 19/1/4 22/1/4
f 19/1/4 21/1/4 20/1/4
f 19/1/5 17/1/5 22/1/5
f 17/1/5 19/1/5 13/1/5
f 14/1/6 21/1/6 18/1/6
f 21/1/6 14/1/6 20/1/6

