# MagicaVoxel @ Ephtracy

# group
o Sewer Tunnel - 0

# material
mtllib Sewer Tunnel - 0 (PROTOTYPE 2).vox-1-Sewer Tunnel - 0.mtl
usemtl palette

# normals
vn -1 0 0
vn 1 0 0
vn 0 0 1
vn 0 0 -1
vn 0 -1 0
vn 0 1 0

# texcoords
vt 0.00195312 0.5
vt 0.00585938 0.5
vt 0.00976562 0.5

# verts
v -3.2 0 6.4
v -3.2 0 0
v -3.2 0.2 6.4
v -3.2 0.2 0
v -3.2 0.3 5.9
v -3.2 0.3 5.6
v -3.2 0.3 5.2
v -3.2 0.3 4.8
v -3.2 0.3 4.4
v -3.2 0.3 4
v -3.2 0.3 3.6
v -3.2 0.3 3.2
v -3.2 0.3 2.8
v -3.2 0.3 2.4
v -3.2 0.3 2
v -3.2 0.3 1.6
v -3.2 0.3 1.2
v -3.2 0.3 0.8
v -3.2 0.3 0.4
v -3.2 0.3 0
v -3.2 0.4 6.4
v -3.2 0.4 5.9
v -3.2 0.4 5.6
v -3.2 0.4 5.2
v -3.2 0.4 4.8
v -3.2 0.4 4.4
v -3.2 0.4 4
v -3.2 0.4 3.6
v -3.2 0.4 3.2
v -3.2 0.4 2.8
v -3.2 0.4 2.4
v -3.2 0.4 2
v -3.2 0.4 1.6
v -3.2 0.4 1.2
v -3.2 0.4 0.8
v -3.2 0.4 0.4
v -3.2 4.8 6.4
v -3.2 4.8 0
v -2.9 0.9 6.4
v -2.9 0.9 6.2
v -2.9 0.9 5.8
v -2.9 0.9 3.7
v -2.9 0.9 3.3
v -2.9 0.9 0
v -2.9 1.2 4.9
v -2.9 1.2 4.5
v -2.9 1.4 4.9
v -2.9 1.4 4.5
v -2.9 1.4 1.7
v -2.9 1.4 1.3
v -2.9 1.6 1.7
v -2.9 1.6 1.3
v -2.9 2.1 6.4
v -2.9 2.1 4
v -2.9 2.1 3.6
v -2.9 2.1 0
v -2.8 0.7 6.4
v -2.8 0.7 6.2
v -2.8 0.7 5.8
v -2.8 0.7 3.7
v -2.8 0.7 3.3
v -2.8 0.7 0.5
v -2.8 0.7 0.0999999
v -2.8 0.7 0
v -2.8 0.9 6.4
v -2.8 0.9 6.2
v -2.8 0.9 5.8
v -2.8 0.9 3.7
v -2.8 0.9 3.3
v -2.8 0.9 0
v -2.8 2.1 6.4
v -2.8 2.1 4
v -2.8 2.1 3.6
v -2.8 2.1 0
v -2.8 2.2 0.8
v -2.8 2.2 0.4
v -2.8 2.3 6.4
v -2.8 2.3 4
v -2.8 2.3 3.6
v -2.8 2.3 0.8
v -2.8 2.3 0.4
v -2.8 2.3 0
v -2.7 0.5 6.4
v -2.7 0.5 0.5
v -2.7 0.5 0.0999999
v -2.7 0.5 0
v -2.7 0.7 6.4
v -2.7 0.7 0.5
v -2.7 0.7 0.0999999
v -2.7 0.7 0
v -2.7 2.3 6.4
v -2.7 2.3 0.8
v -2.7 2.3 0.4
v -2.7 2.3 0
v -2.7 2.4 5.7
v -2.7 2.4 5.3
v -2.7 2.4 0.8
v -2.7 2.4 0.4
v -2.7 2.5 6.4
v -2.7 2.5 5.7
v -2.7 2.5 5.3
v -2.7 2.5 0
v -2.6 0.3 6.4
v -2.6 0.3 5.9
v -2.6 0.3 5.6
v -2.6 0.3 5.2
v -2.6 0.3 4.8
v -2.6 0.3 4.4
v -2.6 0.3 4
v -2.6 0.3 3.6
v -2.6 0.3 3.2
v -2.6 0.3 2.8
v -2.6 0.3 2.4
v -2.6 0.3 2
v -2.6 0.3 1.6
v -2.6 0.3 1.2
v -2.6 0.3 0.8
v -2.6 0.3 0.4
v -2.6 0.3 0
v -2.6 0.4 6.4
v -2.6 0.4 5.9
v -2.6 0.4 5.6
v -2.6 0.4 5.2
v -2.6 0.4 4.8
v -2.6 0.4 4.4
v -2.6 0.4 4
v -2.6 0.4 3.6
v -2.6 0.4 3.2
v -2.6 0.4 2.8
v -2.6 0.4 2.4
v -2.6 0.4 2
v -2.6 0.4 1.6
v -2.6 0.4 1.2
v -2.6 0.4 0.8
v -2.6 0.4 0.4
v -2.6 0.5 6.4
v -2.6 0.5 0
v -2.6 2.5 6.4
v -2.6 2.5 5.7
v -2.6 2.5 5.3
v -2.6 2.5 0
v -2.6 2.6 5.7
v -2.6 2.6 5.3
v -2.6 2.7 6.4
v -2.6 2.7 2.8
v -2.6 2.7 2.4
v -2.6 2.7 0
v -2.5 0.1 6.4
v -2.5 0.1 0
v -2.5 0.2 6.4
v -2.5 0.2 0
v -2.5 0.3 6.4
v -2.5 0.3 0
v -2.5 2.7 6.4
v -2.5 2.7 2.8
v -2.5 2.7 2.4
v -2.5 2.7 0
v -2.5 2.9 6.4
v -2.5 2.9 2.8
v -2.5 2.9 2.4
v -2.5 2.9 0
v -2.4 0 6.4
v -2.4 0 0
v -2.4 0.1 6.4
v -2.4 0.1 0
v -2.4 2.9 6.4
v -2.4 2.9 0
v -2.4 3.1 6.4
v -2.4 3.1 4.7
v -2.4 3.1 4.3
v -2.4 3.1 0
v -2.3 3.1 6.4
v -2.3 3.1 4.7
v -2.3 3.1 4.3
v -2.3 3.1 0
v -2.3 3.2 6.4
v -2.3 3.2 4.7
v -2.3 3.2 4.3
v -2.3 3.2 0
v -2.2 3.2 6.4
v -2.2 3.2 4.7
v -2.2 3.2 4.3
v -2.2 3.2 0
v -2.2 3.3 6.4
v -2.2 3.3 4.7
v -2.2 3.3 4.3
v -2.2 3.3 0
v -2.1 3.3 6.4
v -2.1 3.3 0
v -2.1 3.4 6.4
v -2.1 3.4 0
v -2 3.4 6.4
v -2 3.4 0
v -2 3.5 6.4
v -2 3.5 0
v -1.9 3.5 6.4
v -1.9 3.5 0
v -1.9 3.6 6.4
v -1.9 3.6 1.4
v -1.9 3.6 1
v -1.9 3.6 0
v -1.8 3.6 6.4
v -1.8 3.6 1.4
v -1.8 3.6 1
v -1.8 3.6 0
v -1.8 3.7 6.4
v -1.8 3.7 6
v -1.8 3.7 5.6
v -1.8 3.7 1.4
v -1.8 3.7 1
v -1.8 3.7 0
v -1.7 3.7 6.4
v -1.7 3.7 6
v -1.7 3.7 5.6
v -1.7 3.7 1.4
v -1.7 3.7 1
v -1.7 3.7 0
v -1.7 3.8 6.4
v -1.7 3.8 6
v -1.7 3.8 5.6
v -1.7 3.8 1.4
v -1.7 3.8 1
v -1.7 3.8 0
v -1.5 3.8 6.4
v -1.5 3.8 6
v -1.5 3.8 5.6
v -1.5 3.8 4
v -1.5 3.8 3.6
v -1.5 3.8 0
v -1.5 3.9 6.4
v -1.5 3.9 6
v -1.5 3.9 5.6
v -1.5 3.9 4
v -1.5 3.9 3.6
v -1.5 3.9 0
v -1.3 3.9 6.4
v -1.3 3.9 4
v -1.3 3.9 3.6
v -1.3 3.9 0
v -1.3 4 6.4
v -1.3 4 4
v -1.3 4 3.6
v -1.3 4 0
v -1.1 4 6.4
v -1.1 4 0
v -1.1 4.1 6.4
v -1.1 4.1 0
v -0.9 4.1 6.4
v -0.9 4.1 0
v -0.9 4.2 6.4
v -0.9 4.2 0.8
v -0.9 4.2 0.4
v -0.9 4.2 0
v -0.7 4.2 6.4
v -0.7 4.2 0.8
v -0.7 4.2 0.4
v -0.7 4.2 0
v -0.7 4.3 6.4
v -0.7 4.3 0.8
v -0.7 4.3 0.4
v -0.7 4.3 0
v -0.4 4.3 6.4
v -0.4 4.3 5.1
v -0.4 4.3 4.6
v -0.4 4.3 2.3
v -0.4 4.3 1.9
v -0.4 4.3 0
v -0.4 4.4 6.4
v -0.4 4.4 5.1
v -0.4 4.4 4.6
v -0.4 4.4 2.3
v -0.4 4.4 1.9
v -0.4 4.4 0
v 0 4.4 6.4
v 0 4.4 0
v 0 4.8 6.4
v 0 4.8 0
v -3.2 0 6.4
v -3.2 0.2 6.4
v -3.2 0.4 6.4
v -3.2 4.8 6.4
v -2.9 0.9 6.4
v -2.9 2.1 6.4
v -2.8 0.7 6.4
v -2.8 0.9 6.4
v -2.8 2.1 6.4
v -2.8 2.3 6.4
v -2.7 0.5 6.4
v -2.7 0.7 6.4
v -2.7 2.3 6.4
v -2.7 2.5 6.4
v -2.6 0.3 6.4
v -2.6 0.4 6.4
v -2.6 0.5 6.4
v -2.6 2.5 6.4
v -2.6 2.7 6.4
v -2.5 0.1 6.4
v -2.5 0.2 6.4
v -2.5 0.3 6.4
v -2.5 2.7 6.4
v -2.5 2.9 6.4
v -2.4 0 6.4
v -2.4 0.1 6.4
v -2.4 2.9 6.4
v -2.4 3.1 6.4
v -2.3 3.1 6.4
v -2.3 3.2 6.4
v -2.2 3.2 6.4
v -2.2 3.3 6.4
v -2.1 3.3 6.4
v -2.1 3.4 6.4
v -2 3.4 6.4
v -2 3.5 6.4
v -1.9 3.5 6.4
v -1.9 3.6 6.4
v -1.8 3.6 6.4
v -1.8 3.7 6.4
v -1.7 3.7 6.4
v -1.7 3.8 6.4
v -1.5 3.8 6.4
v -1.5 3.9 6.4
v -1.3 3.9 6.4
v -1.3 4 6.4
v -1.1 4 6.4
v -1.1 4.1 6.4
v -0.9 4.1 6.4
v -0.9 4.2 6.4
v -0.7 4.2 6.4
v -0.7 4.3 6.4
v -0.4 4.3 6.4
v -0.4 4.4 6.4
v 0 4.4 6.4
v 0 4.8 6.4
v -3.2 0 0
v -3.2 0.2 0
v -3.2 0.3 0
v -3.2 4.8 0
v -2.9 0.9 0
v -2.9 2.1 0
v -2.8 0.7 0
v -2.8 0.9 0
v -2.8 2.1 0
v -2.8 2.3 0
v -2.7 0.5 0
v -2.7 0.7 0
v -2.7 2.3 0
v -2.7 2.5 0
v -2.6 0.3 0
v -2.6 0.5 0
v -2.6 2.5 0
v -2.6 2.7 0
v -2.5 0.1 0
v -2.5 0.2 0
v -2.5 0.3 0
v -2.5 2.7 0
v -2.5 2.9 0
v -2.4 0 0
v -2.4 0.1 0
v -2.4 2.9 0
v -2.4 3.1 0
v -2.3 3.1 0
v -2.3 3.2 0
v -2.2 3.2 0
v -2.2 3.3 0
v -2.1 3.3 0
v -2.1 3.4 0
v -2 3.4 0
v -2 3.5 0
v -1.9 3.5 0
v -1.9 3.6 0
v -1.8 3.6 0
v -1.8 3.7 0
v -1.7 3.7 0
v -1.7 3.8 0
v -1.5 3.8 0
v -1.5 3.9 0
v -1.3 3.9 0
v -1.3 4 0
v -1.1 4 0
v -1.1 4.1 0
v -0.9 4.1 0
v -0.9 4.2 0
v -0.7 4.2 0
v -0.7 4.3 0
v -0.4 4.3 0
v -0.4 4.4 0
v 0 4.4 0
v 0 4.8 0
v -3.2 0 6.4
v -2.4 0 6.4
v -3.2 0 0
v -2.4 0 0
v -2.9 2.1 6.4
v -2.8 2.1 6.4
v -2.9 2.1 4
v -2.8 2.1 4
v -2.9 2.1 3.6
v -2.8 2.1 3.6
v -2.9 2.1 0
v -2.8 2.1 0
v -2.8 2.3 6.4
v -2.7 2.3 6.4
v -2.8 2.3 4
v -2.8 2.3 3.6
v -2.8 2.3 0.8
v -2.7 2.3 0.8
v -2.8 2.3 0.4
v -2.7 2.3 0.4
v -2.8 2.3 0
v -2.7 2.3 0
v -2.7 2.5 6.4
v -2.6 2.5 6.4
v -2.7 2.5 5.7
v -2.6 2.5 5.7
v -2.7 2.5 5.3
v -2.6 2.5 5.3
v -2.7 2.5 0
v -2.6 2.5 0
v -2.6 2.7 6.4
v -2.5 2.7 6.4
v -2.6 2.7 2.8
v -2.5 2.7 2.8
v -2.6 2.7 2.4
v -2.5 2.7 2.4
v -2.6 2.7 0
v -2.5 2.7 0
v -2.5 2.9 6.4
v -2.4 2.9 6.4
v -2.5 2.9 2.8
v -2.5 2.9 2.4
v -2.5 2.9 0
v -2.4 2.9 0
v -2.4 3.1 6.4
v -2.3 3.1 6.4
v -2.4 3.1 4.7
v -2.3 3.1 4.7
v -2.4 3.1 4.3
v -2.3 3.1 4.3
v -2.4 3.1 0
v -2.3 3.1 0
v -2.3 3.2 6.4
v -2.2 3.2 6.4
v -2.3 3.2 4.7
v -2.2 3.2 4.7
v -2.3 3.2 4.3
v -2.2 3.2 4.3
v -2.3 3.2 0
v -2.2 3.2 0
v -2.2 3.3 6.4
v -2.1 3.3 6.4
v -2.2 3.3 4.7
v -2.2 3.3 4.3
v -2.2 3.3 0
v -2.1 3.3 0
v -2.1 3.4 6.4
v -2 3.4 6.4
v -2.1 3.4 0
v -2 3.4 0
v -2 3.5 6.4
v -1.9 3.5 6.4
v -2 3.5 0
v -1.9 3.5 0
v -1.9 3.6 6.4
v -1.8 3.6 6.4
v -1.9 3.6 1.4
v -1.8 3.6 1.4
v -1.9 3.6 1
v -1.8 3.6 1
v -1.9 3.6 0
v -1.8 3.6 0
v -1.8 3.7 6.4
v -1.7 3.7 6.4
v -1.8 3.7 6
v -1.7 3.7 6
v -1.8 3.7 5.6
v -1.7 3.7 5.6
v -1.8 3.7 1.4
v -1.7 3.7 1.4
v -1.8 3.7 1
v -1.7 3.7 1
v -1.8 3.7 0
v -1.7 3.7 0
v -1.7 3.8 6.4
v -1.5 3.8 6.4
v -1.7 3.8 6
v -1.5 3.8 6
v -1.7 3.8 5.6
v -1.5 3.8 5.6
v -1.6 3.8 4
v -1.5 3.8 4
v -1.6 3.8 3.6
v -1.5 3.8 3.6
v -1.7 3.8 1.4
v -1.7 3.8 1
v -1.7 3.8 0
v -1.5 3.8 0
v -1.5 3.9 6.4
v -1.3 3.9 6.4
v -1.5 3.9 6
v -1.5 3.9 5.6
v -1.5 3.9 4
v -1.3 3.9 4
v -1.5 3.9 3.6
v -1.3 3.9 3.6
v -1.5 3.9 0
v -1.3 3.9 0
v -1.3 4 6.4
v -1.1 4 6.4
v -1.3 4 4
v -1.3 4 3.6
v -1.3 4 0
v -1.1 4 0
v -1.1 4.1 6.4
v -0.9 4.1 6.4
v -1.1 4.1 0
v -0.9 4.1 0
v -0.9 4.2 6.4
v -0.7 4.2 6.4
v -0.9 4.2 0.8
v -0.7 4.2 0.8
v -0.9 4.2 0.4
v -0.7 4.2 0.4
v -0.9 4.2 0
v -0.7 4.2 0
v -0.7 4.3 6.4
v -0.4 4.3 6.4
v -0.6 4.3 5.1
v -0.4 4.3 5.1
v -0.6 4.3 4.6
v -0.4 4.3 4.6
v -0.6 4.3 2.3
v -0.4 4.3 2.3
v -0.6 4.3 1.9
v -0.4 4.3 1.9
v -0.7 4.3 0.8
v -0.7 4.3 0.4
v -0.7 4.3 0
v -0.4 4.3 0
v -0.4 4.4 6.4
v 0 4.4 6.4
v -0.4 4.4 5.1
v -0.4 4.4 4.6
v -0.4 4.4 2.3
v -0.4 4.4 1.9
v -0.4 4.4 0
v 0 4.4 0
v -2.5 0.1 6.4
v -2.4 0.1 6.4
v -2.5 0.1 0
v -2.4 0.1 0
v -2.6 0.3 6.4
v -2.5 0.3 6.4
v -2.6 0.3 5.9
v -2.6 0.3 5.6
v -2.6 0.3 5.2
v -2.6 0.3 4.8
v -2.6 0.3 4.4
v -2.6 0.3 4
v -2.6 0.3 3.6
v -2.6 0.3 3.2
v -2.6 0.3 2.8
v -2.6 0.3 2.4
v -2.6 0.3 2
v -2.6 0.3 1.6
v -2.6 0.3 1.2
v -2.6 0.3 0.8
v -2.6 0.3 0.4
v -2.6 0.3 0
v -2.5 0.3 0
v -2.7 0.5 6.4
v -2.6 0.5 6.4
v -2.7 0.5 0.5
v -2.7 0.5 0.0999999
v -2.7 0.5 0
v -2.6 0.5 0
v -2.8 0.7 6.4
v -2.7 0.7 6.4
v -2.8 0.7 6.2
v -2.8 0.7 5.8
v -2.8 0.7 3.7
v -2.8 0.7 3.3
v -2.8 0.7 0.5
v -2.7 0.7 0.5
v -2.8 0.7 0.0999999
v -2.7 0.7 0.0999999
v -2.8 0.7 0
v -2.7 0.7 0
v -2.9 0.9 6.4
v -2.8 0.9 6.4
v -2.9 0.9 6.2
v -2.8 0.9 6.2
v -2.9 0.9 5.8
v -2.8 0.9 5.8
v -2.9 0.9 3.7
v -2.8 0.9 3.7
v -2.9 0.9 3.3
v -2.8 0.9 3.3
v -2.9 0.9 0
v -2.8 0.9 0
v -3.2 4.8 6.4
v 0 4.8 6.4
v -3.2 4.8 0
v 0 4.8 0

# faces
f 3/2/1 2/2/1 1/2/1
f 4/2/1 2/2/1 3/2/1
f 5/3/1 4/3/1 3/3/1
f 6/3/1 4/3/1 5/3/1
f 7/3/1 4/3/1 6/3/1
f 8/3/1 4/3/1 7/3/1
f 9/3/1 4/3/1 8/3/1
f 10/3/1 4/3/1 9/3/1
f 11/3/1 4/3/1 10/3/1
f 12/3/1 4/3/1 11/3/1
f 13/3/1 4/3/1 12/3/1
f 14/3/1 4/3/1 13/3/1
f 15/3/1 4/3/1 14/3/1
f 16/3/1 4/3/1 15/3/1
f 17/3/1 4/3/1 16/3/1
f 18/3/1 4/3/1 17/3/1
f 19/3/1 4/3/1 18/3/1
f 20/3/1 4/3/1 19/3/1
f 21/3/1 5/3/1 3/3/1
f 22/1/1 6/1/1 5/1/1
f 22/3/1 5/3/1 21/3/1
f 23/3/1 7/3/1 6/3/1
f 23/1/1 6/1/1 22/1/1
f 24/1/1 8/1/1 7/1/1
f 24/3/1 7/3/1 23/3/1
f 25/3/1 9/3/1 8/3/1
f 25/1/1 8/1/1 24/1/1
f 26/1/1 10/1/1 9/1/1
f 26/3/1 9/3/1 25/3/1
f 27/3/1 11/3/1 10/3/1
f 27/1/1 10/1/1 26/1/1
f 28/1/1 12/1/1 11/1/1
f 28/3/1 11/3/1 27/3/1
f 29/3/1 13/3/1 12/3/1
f 29/1/1 12/1/1 28/1/1
f 30/1/1 14/1/1 13/1/1
f 30/3/1 13/3/1 29/3/1
f 31/3/1 15/3/1 14/3/1
f 31/1/1 14/1/1 30/1/1
f 32/1/1 16/1/1 15/1/1
f 32/3/1 15/3/1 31/3/1
f 33/3/1 17/3/1 16/3/1
f 33/1/1 16/1/1 32/1/1
f 34/1/1 18/1/1 17/1/1
f 34/3/1 17/3/1 33/3/1
f 35/3/1 19/3/1 18/3/1
f 35/1/1 18/1/1 34/1/1
f 36/1/1 20/1/1 19/1/1
f 36/3/1 19/3/1 35/3/1
f 37/1/1 22/1/1 21/1/1
f 37/1/1 23/1/1 22/1/1
f 37/1/1 36/1/1 35/1/1
f 37/1/1 35/1/1 34/1/1
f 37/1/1 34/1/1 33/1/1
f 37/1/1 33/1/1 32/1/1
f 37/1/1 32/1/1 31/1/1
f 37/1/1 31/1/1 30/1/1
f 37/1/1 30/1/1 29/1/1
f 37/1/1 29/1/1 28/1/1
f 37/1/1 28/1/1 27/1/1
f 37/1/1 27/1/1 26/1/1
f 37/1/1 26/1/1 25/1/1
f 37/1/1 25/1/1 24/1/1
f 37/1/1 24/1/1 23/1/1
f 38/1/1 20/1/1 36/1/1
f 38/1/1 36/1/1 37/1/1
f 39/1/2 40/1/2 45/1/2
f 43/1/2 44/1/2 45/1/2
f 42/1/2 43/1/2 45/1/2
f 41/1/2 42/1/2 45/1/2
f 40/1/2 41/1/2 45/1/2
f 45/1/2 44/1/2 46/1/2
f 39/1/2 45/1/2 47/1/2
f 45/3/2 46/3/2 47/3/2
f 46/1/2 44/1/2 48/1/2
f 47/3/2 46/3/2 48/3/2
f 48/1/2 44/1/2 49/1/2
f 49/1/2 44/1/2 50/1/2
f 47/1/2 48/1/2 51/1/2
f 48/1/2 49/1/2 51/1/2
f 49/3/2 50/3/2 51/3/2
f 50/1/2 44/1/2 52/1/2
f 51/3/2 50/3/2 52/3/2
f 39/1/2 47/1/2 53/1/2
f 47/1/2 51/1/2 53/1/2
f 51/1/2 52/1/2 53/1/2
f 53/1/2 52/1/2 54/1/2
f 54/1/2 52/1/2 55/1/2
f 52/1/2 44/1/2 56/1/2
f 55/1/2 52/1/2 56/1/2
f 57/1/2 58/1/2 65/1/2
f 58/3/2 59/3/2 66/3/2
f 65/1/2 58/1/2 66/1/2
f 59/1/2 60/1/2 67/1/2
f 66/3/2 59/3/2 67/3/2
f 60/3/2 61/3/2 68/3/2
f 67/1/2 60/1/2 68/1/2
f 63/1/2 64/1/2 69/1/2
f 68/3/2 61/3/2 69/3/2
f 61/1/2 62/1/2 69/1/2
f 62/1/2 63/1/2 69/1/2
f 69/1/2 64/1/2 70/1/2
f 73/1/2 74/1/2 75/1/2
f 75/1/2 74/1/2 76/1/2
f 71/1/2 72/1/2 77/1/2
f 72/3/2 73/3/2 78/3/2
f 77/1/2 72/1/2 78/1/2
f 73/1/2 75/1/2 79/1/2
f 78/3/2 73/3/2 79/3/2
f 75/3/2 76/3/2 80/3/2
f 79/1/2 75/1/2 80/1/2
f 76/1/2 74/1/2 81/1/2
f 80/3/2 76/3/2 81/3/2
f 81/1/2 74/1/2 82/1/2
f 83/1/2 84/1/2 87/1/2
f 84/3/2 85/3/2 88/3/2
f 87/1/2 84/1/2 88/1/2
f 85/1/2 86/1/2 89/1/2
f 88/3/2 85/3/2 89/3/2
f 89/1/2 86/1/2 90/1/2
f 91/1/2 92/1/2 95/1/2
f 95/1/2 92/1/2 96/1/2
f 92/3/2 93/3/2 97/3/2
f 96/1/2 92/1/2 97/1/2
f 93/1/2 94/1/2 98/1/2
f 97/3/2 93/3/2 98/3/2
f 91/1/2 95/1/2 99/1/2
f 95/3/2 96/3/2 100/3/2
f 99/1/2 95/1/2 100/1/2
f 96/1/2 97/1/2 101/1/2
f 100/3/2 96/3/2 101/3/2
f 97/1/2 98/1/2 101/1/2
f 98/1/2 94/1/2 102/1/2
f 101/1/2 98/1/2 102/1/2
f 103/3/2 104/3/2 120/3/2
f 104/1/2 105/1/2 121/1/2
f 120/3/2 104/3/2 121/3/2
f 105/3/2 106/3/2 122/3/2
f 121/1/2 105/1/2 122/1/2
f 106/1/2 107/1/2 123/1/2
f 122/3/2 106/3/2 123/3/2
f 107/3/2 108/3/2 124/3/2
f 123/1/2 107/1/2 124/1/2
f 108/1/2 109/1/2 125/1/2
f 124/3/2 108/3/2 125/3/2
f 109/3/2 110/3/2 126/3/2
f 125/1/2 109/1/2 126/1/2
f 110/1/2 111/1/2 127/1/2
f 126/3/2 110/3/2 127/3/2
f 111/3/2 112/3/2 128/3/2
f 127/1/2 111/1/2 128/1/2
f 112/1/2 113/1/2 129/1/2
f 128/3/2 112/3/2 129/3/2
f 113/3/2 114/3/2 130/3/2
f 129/1/2 113/1/2 130/1/2
f 114/1/2 115/1/2 131/1/2
f 130/3/2 114/3/2 131/3/2
f 115/3/2 116/3/2 132/3/2
f 131/1/2 115/1/2 132/1/2
f 116/1/2 117/1/2 133/1/2
f 132/3/2 116/3/2 133/3/2
f 117/3/2 118/3/2 134/3/2
f 133/1/2 117/1/2 134/1/2
f 118/1/2 119/1/2 135/1/2
f 134/3/2 118/3/2 135/3/2
f 133/1/2 134/1/2 136/1/2
f 120/1/2 121/1/2 136/1/2
f 134/1/2 135/1/2 136/1/2
f 132/1/2 133/1/2 136/1/2
f 131/1/2 132/1/2 136/1/2
f 130/1/2 131/1/2 136/1/2
f 129/1/2 130/1/2 136/1/2
f 128/1/2 129/1/2 136/1/2
f 127/1/2 128/1/2 136/1/2
f 126/1/2 127/1/2 136/1/2
f 125/1/2 126/1/2 136/1/2
f 124/1/2 125/1/2 136/1/2
f 123/1/2 124/1/2 136/1/2
f 122/1/2 123/1/2 136/1/2
f 121/1/2 122/1/2 136/1/2
f 135/1/2 119/1/2 137/1/2
f 136/1/2 135/1/2 137/1/2
f 138/1/2 139/1/2 142/1/2
f 139/3/2 140/3/2 142/3/2
f 140/1/2 141/1/2 143/1/2
f 142/3/2 140/3/2 143/3/2
f 138/1/2 142/1/2 144/1/2
f 142/1/2 143/1/2 144/1/2
f 143/1/2 141/1/2 145/1/2
f 144/1/2 143/1/2 145/1/2
f 145/1/2 141/1/2 146/1/2
f 146/1/2 141/1/2 147/1/2
f 148/2/2 149/2/2 150/2/2
f 150/2/2 149/2/2 151/2/2
f 150/3/2 151/3/2 152/3/2
f 152/3/2 151/3/2 153/3/2
f 154/1/2 155/1/2 158/1/2
f 155/3/2 156/3/2 159/3/2
f 158/1/2 155/1/2 159/1/2
f 156/1/2 157/1/2 160/1/2
f 159/3/2 156/3/2 160/3/2
f 160/1/2 157/1/2 161/1/2
f 162/2/2 163/2/2 164/2/2
f 164/2/2 163/2/2 165/2/2
f 166/1/2 167/1/2 168/1/2
f 168/1/2 167/1/2 169/1/2
f 169/1/2 167/1/2 170/1/2
f 170/1/2 167/1/2 171/1/2
f 172/1/2 173/1/2 176/1/2
f 173/3/2 174/3/2 177/3/2
f 176/1/2 173/1/2 177/1/2
f 174/1/2 175/1/2 178/1/2
f 177/3/2 174/3/2 178/3/2
f 178/1/2 175/1/2 179/1/2
f 180/1/2 181/1/2 184/1/2
f 181/3/2 182/3/2 185/3/2
f 184/1/2 181/1/2 185/1/2
f 182/1/2 183/1/2 186/1/2
f 185/3/2 182/3/2 186/3/2
f 186/1/2 183/1/2 187/1/2
f 188/1/2 189/1/2 190/1/2
f 190/1/2 189/1/2 191/1/2
f 192/1/2 193/1/2 194/1/2
f 194/1/2 193/1/2 195/1/2
f 196/1/2 197/1/2 198/1/2
f 198/1/2 197/1/2 199/1/2
f 199/1/2 197/1/2 200/1/2
f 200/1/2 197/1/2 201/1/2
f 202/1/2 203/1/2 206/1/2
f 206/1/2 203/1/2 207/1/2
f 207/1/2 203/1/2 208/1/2
f 203/3/2 204/3/2 209/3/2
f 208/1/2 203/1/2 209/1/2
f 204/1/2 205/1/2 210/1/2
f 209/3/2 204/3/2 210/3/2
f 210/1/2 205/1/2 211/1/2
f 212/1/2 213/1/2 218/1/2
f 213/3/2 214/3/2 219/3/2
f 218/1/2 213/1/2 219/1/2
f 214/1/2 215/1/2 220/1/2
f 219/3/2 214/3/2 220/3/2
f 215/3/2 216/3/2 221/3/2
f 220/1/2 215/1/2 221/1/2
f 216/1/2 217/1/2 222/1/2
f 221/3/2 216/3/2 222/3/2
f 222/1/2 217/1/2 223/1/2
f 224/1/2 225/1/2 230/1/2
f 225/3/2 226/3/2 231/3/2
f 230/1/2 225/1/2 231/1/2
f 226/1/2 227/1/2 232/1/2
f 231/3/2 226/3/2 232/3/2
f 227/3/2 228/3/2 233/3/2
f 232/1/2 227/1/2 233/1/2
f 228/1/2 229/1/2 234/1/2
f 233/3/2 228/3/2 234/3/2
f 234/1/2 229/1/2 235/1/2
f 236/1/2 237/1/2 240/1/2
f 237/3/2 238/3/2 241/3/2
f 240/1/2 237/1/2 241/1/2
f 238/1/2 239/1/2 242/1/2
f 241/3/2 238/3/2 242/3/2
f 242/1/2 239/1/2 243/1/2
f 244/1/2 245/1/2 246/1/2
f 246/1/2 245/1/2 247/1/2
f 248/1/2 249/1/2 250/1/2
f 250/1/2 249/1/2 251/1/2
f 251/1/2 249/1/2 252/1/2
f 252/1/2 249/1/2 253/1/2
f 254/1/2 255/1/2 258/1/2
f 255/3/2 256/3/2 259/3/2
f 258/1/2 255/1/2 259/1/2
f 256/1/2 257/1/2 260/1/2
f 259/3/2 256/3/2 260/3/2
f 260/1/2 257/1/2 261/1/2
f 262/1/2 263/1/2 268/1/2
f 263/3/2 264/3/2 269/3/2
f 268/1/2 263/1/2 269/1/2
f 264/1/2 265/1/2 270/1/2
f 269/3/2 264/3/2 270/3/2
f 265/3/2 266/3/2 271/3/2
f 270/1/2 265/1/2 271/1/2
f 266/1/2 267/1/2 272/1/2
f 271/3/2 266/3/2 272/3/2
f 272/1/2 267/1/2 273/1/2
f 274/1/2 275/1/2 276/1/2
f 276/1/2 275/1/2 277/1/2
f 282/1/3 281/1/3 280/1/3
f 283/1/3 281/1/3 282/1/3
f 284/1/3 282/1/3 280/1/3
f 285/1/3 282/1/3 284/1/3
f 286/1/3 281/1/3 283/1/3
f 287/1/3 281/1/3 286/1/3
f 288/1/3 284/1/3 280/1/3
f 289/1/3 284/1/3 288/1/3
f 290/1/3 281/1/3 287/1/3
f 291/1/3 281/1/3 290/1/3
f 292/3/3 280/3/3 279/3/3
f 293/1/3 288/1/3 280/1/3
f 293/3/3 280/3/3 292/3/3
f 294/1/3 288/1/3 293/1/3
f 295/1/3 281/1/3 291/1/3
f 296/1/3 281/1/3 295/1/3
f 297/2/3 279/2/3 278/2/3
f 298/3/3 292/3/3 279/3/3
f 298/2/3 279/2/3 297/2/3
f 299/3/3 292/3/3 298/3/3
f 300/1/3 281/1/3 296/1/3
f 301/1/3 281/1/3 300/1/3
f 302/2/3 297/2/3 278/2/3
f 303/2/3 297/2/3 302/2/3
f 304/1/3 281/1/3 301/1/3
f 305/1/3 281/1/3 304/1/3
f 306/1/3 281/1/3 305/1/3
f 307/1/3 281/1/3 306/1/3
f 308/1/3 281/1/3 307/1/3
f 309/1/3 281/1/3 308/1/3
f 310/1/3 281/1/3 309/1/3
f 311/1/3 281/1/3 310/1/3
f 312/1/3 281/1/3 311/1/3
f 313/1/3 281/1/3 312/1/3
f 314/1/3 281/1/3 313/1/3
f 315/1/3 281/1/3 314/1/3
f 316/1/3 281/1/3 315/1/3
f 317/1/3 281/1/3 316/1/3
f 318/1/3 281/1/3 317/1/3
f 319/1/3 281/1/3 318/1/3
f 320/1/3 281/1/3 319/1/3
f 321/1/3 281/1/3 320/1/3
f 322/1/3 281/1/3 321/1/3
f 323/1/3 281/1/3 322/1/3
f 324/1/3 281/1/3 323/1/3
f 325/1/3 281/1/3 324/1/3
f 326/1/3 281/1/3 325/1/3
f 327/1/3 281/1/3 326/1/3
f 328/1/3 281/1/3 327/1/3
f 329/1/3 281/1/3 328/1/3
f 330/1/3 281/1/3 329/1/3
f 331/1/3 281/1/3 330/1/3
f 332/1/3 281/1/3 331/1/3
f 333/1/3 281/1/3 332/1/3
f 336/1/4 337/1/4 338/1/4
f 338/1/4 337/1/4 339/1/4
f 336/1/4 338/1/4 340/1/4
f 340/1/4 338/1/4 341/1/4
f 339/1/4 337/1/4 342/1/4
f 342/1/4 337/1/4 343/1/4
f 336/1/4 340/1/4 344/1/4
f 344/1/4 340/1/4 345/1/4
f 343/1/4 337/1/4 346/1/4
f 346/1/4 337/1/4 347/1/4
f 335/3/4 336/3/4 348/3/4
f 336/1/4 344/1/4 348/1/4
f 348/1/4 344/1/4 349/1/4
f 347/1/4 337/1/4 350/1/4
f 350/1/4 337/1/4 351/1/4
f 334/2/4 335/2/4 352/2/4
f 335/3/4 348/3/4 353/3/4
f 352/2/4 335/2/4 353/2/4
f 353/3/4 348/3/4 354/3/4
f 351/1/4 337/1/4 355/1/4
f 355/1/4 337/1/4 356/1/4
f 334/2/4 352/2/4 357/2/4
f 357/2/4 352/2/4 358/2/4
f 356/1/4 337/1/4 359/1/4
f 359/1/4 337/1/4 360/1/4
f 360/1/4 337/1/4 361/1/4
f 361/1/4 337/1/4 362/1/4
f 362/1/4 337/1/4 363/1/4
f 363/1/4 337/1/4 364/1/4
f 364/1/4 337/1/4 365/1/4
f 365/1/4 337/1/4 366/1/4
f 366/1/4 337/1/4 367/1/4
f 367/1/4 337/1/4 368/1/4
f 368/1/4 337/1/4 369/1/4
f 369/1/4 337/1/4 370/1/4
f 370/1/4 337/1/4 371/1/4
f 371/1/4 337/1/4 372/1/4
f 372/1/4 337/1/4 373/1/4
f 373/1/4 337/1/4 374/1/4
f 374/1/4 337/1/4 375/1/4
f 375/1/4 337/1/4 376/1/4
f 376/1/4 337/1/4 377/1/4
f 377/1/4 337/1/4 378/1/4
f 378/1/4 337/1/4 379/1/4
f 379/1/4 337/1/4 380/1/4
f 380/1/4 337/1/4 381/1/4
f 381/1/4 337/1/4 382/1/4
f 382/1/4 337/1/4 383/1/4
f 383/1/4 337/1/4 384/1/4
f 384/1/4 337/1/4 385/1/4
f 385/1/4 337/1/4 386/1/4
f 386/1/4 337/1/4 387/1/4
f 387/1/4 337/1/4 388/1/4
f 391/2/5 390/2/5 389/2/5
f 392/2/5 390/2/5 391/2/5
f 395/1/5 394/1/5 393/1/5
f 396/1/5 394/1/5 395/1/5
f 397/3/5 396/3/5 395/3/5
f 398/3/5 396/3/5 397/3/5
f 399/1/5 398/1/5 397/1/5
f 400/1/5 398/1/5 399/1/5
f 403/1/5 402/1/5 401/1/5
f 404/1/5 402/1/5 403/1/5
f 405/1/5 402/1/5 404/1/5
f 406/1/5 402/1/5 405/1/5
f 407/3/5 406/3/5 405/3/5
f 408/3/5 406/3/5 407/3/5
f 409/1/5 408/1/5 407/1/5
f 410/1/5 408/1/5 409/1/5
f 413/1/5 412/1/5 411/1/5
f 414/1/5 412/1/5 413/1/5
f 415/3/5 414/3/5 413/3/5
f 416/3/5 414/3/5 415/3/5
f 417/1/5 416/1/5 415/1/5
f 418/1/5 416/1/5 417/1/5
f 421/1/5 420/1/5 419/1/5
f 422/1/5 420/1/5 421/1/5
f 423/3/5 422/3/5 421/3/5
f 424/3/5 422/3/5 423/3/5
f 425/1/5 424/1/5 423/1/5
f 426/1/5 424/1/5 425/1/5
f 429/1/5 428/1/5 427/1/5
f 430/1/5 428/1/5 429/1/5
f 431/1/5 428/1/5 430/1/5
f 432/1/5 428/1/5 431/1/5
f 435/1/5 434/1/5 433/1/5
f 436/1/5 434/1/5 435/1/5
f 437/3/5 436/3/5 435/3/5
f 438/3/5 436/3/5 437/3/5
f 439/1/5 438/1/5 437/1/5
f 440/1/5 438/1/5 439/1/5
f 443/1/5 442/1/5 441/1/5
f 444/1/5 442/1/5 443/1/5
f 445/3/5 444/3/5 443/3/5
f 446/3/5 444/3/5 445/3/5
f 447/1/5 446/1/5 445/1/5
f 448/1/5 446/1/5 447/1/5
f 451/1/5 450/1/5 449/1/5
f 452/1/5 450/1/5 451/1/5
f 453/1/5 450/1/5 452/1/5
f 454/1/5 450/1/5 453/1/5
f 457/1/5 456/1/5 455/1/5
f 458/1/5 456/1/5 457/1/5
f 461/1/5 460/1/5 459/1/5
f 462/1/5 460/1/5 461/1/5
f 465/1/5 464/1/5 463/1/5
f 466/1/5 464/1/5 465/1/5
f 467/3/5 466/3/5 465/3/5
f 468/3/5 466/3/5 467/3/5
f 469/1/5 468/1/5 467/1/5
f 470/1/5 468/1/5 469/1/5
f 473/1/5 472/1/5 471/1/5
f 474/1/5 472/1/5 473/1/5
f 475/3/5 474/3/5 473/3/5
f 476/3/5 474/3/5 475/3/5
f 477/1/5 476/1/5 475/1/5
f 478/1/5 476/1/5 477/1/5
f 479/3/5 478/3/5 477/3/5
f 480/3/5 478/3/5 479/3/5
f 481/1/5 480/1/5 479/1/5
f 482/1/5 480/1/5 481/1/5
f 485/1/5 484/1/5 483/1/5
f 486/1/5 484/1/5 485/1/5
f 487/3/5 486/3/5 485/3/5
f 488/3/5 486/3/5 487/3/5
f 489/1/5 488/1/5 487/1/5
f 490/1/5 488/1/5 489/1/5
f 491/1/5 489/1/5 487/1/5
f 491/3/5 490/3/5 489/3/5
f 492/3/5 490/3/5 491/3/5
f 493/1/5 491/1/5 487/1/5
f 493/1/5 492/1/5 491/1/5
f 494/1/5 492/1/5 493/1/5
f 495/1/5 492/1/5 494/1/5
f 496/1/5 492/1/5 495/1/5
f 499/1/5 498/1/5 497/1/5
f 500/1/5 498/1/5 499/1/5
f 501/1/5 498/1/5 500/1/5
f 502/1/5 498/1/5 501/1/5
f 503/3/5 502/3/5 501/3/5
f 504/3/5 502/3/5 503/3/5
f 505/1/5 504/1/5 503/1/5
f 506/1/5 504/1/5 505/1/5
f 509/1/5 508/1/5 507/1/5
f 510/1/5 508/1/5 509/1/5
f 511/1/5 508/1/5 510/1/5
f 512/1/5 508/1/5 511/1/5
f 515/1/5 514/1/5 513/1/5
f 516/1/5 514/1/5 515/1/5
f 519/1/5 518/1/5 517/1/5
f 520/1/5 518/1/5 519/1/5
f 521/3/5 520/3/5 519/3/5
f 522/3/5 520/3/5 521/3/5
f 523/1/5 522/1/5 521/1/5
f 524/1/5 522/1/5 523/1/5
f 527/1/5 526/1/5 525/1/5
f 528/1/5 526/1/5 527/1/5
f 529/1/5 527/1/5 525/1/5
f 529/3/5 528/3/5 527/3/5
f 530/3/5 528/3/5 529/3/5
f 531/1/5 529/1/5 525/1/5
f 531/1/5 530/1/5 529/1/5
f 532/1/5 530/1/5 531/1/5
f 533/1/5 531/1/5 525/1/5
f 533/3/5 532/3/5 531/3/5
f 534/3/5 532/3/5 533/3/5
f 535/1/5 533/1/5 525/1/5
f 535/1/5 534/1/5 533/1/5
f 536/1/5 534/1/5 535/1/5
f 537/1/5 534/1/5 536/1/5
f 538/1/5 534/1/5 537/1/5
f 541/1/5 540/1/5 539/1/5
f 542/1/5 540/1/5 541/1/5
f 543/1/5 540/1/5 542/1/5
f 544/1/5 540/1/5 543/1/5
f 545/1/5 540/1/5 544/1/5
f 546/1/5 540/1/5 545/1/5
f 547/2/6 548/2/6 549/2/6
f 549/2/6 548/2/6 550/2/6
f 551/3/6 552/3/6 553/3/6
f 553/3/6 552/3/6 554/3/6
f 554/3/6 552/3/6 555/3/6
f 555/3/6 552/3/6 556/3/6
f 556/3/6 552/3/6 557/3/6
f 557/3/6 552/3/6 558/3/6
f 558/3/6 552/3/6 559/3/6
f 559/3/6 552/3/6 560/3/6
f 560/3/6 552/3/6 561/3/6
f 561/3/6 552/3/6 562/3/6
f 562/3/6 552/3/6 563/3/6
f 563/3/6 552/3/6 564/3/6
f 564/3/6 552/3/6 565/3/6
f 565/3/6 552/3/6 566/3/6
f 566/3/6 552/3/6 567/3/6
f 567/3/6 552/3/6 568/3/6
f 568/3/6 552/3/6 569/3/6
f 570/1/6 571/1/6 572/1/6
f 572/1/6 571/1/6 573/1/6
f 573/1/6 571/1/6 574/1/6
f 574/1/6 571/1/6 575/1/6
f 576/1/6 577/1/6 578/1/6
f 578/1/6 577/1/6 579/1/6
f 579/1/6 577/1/6 580/1/6
f 580/1/6 577/1/6 581/1/6
f 581/1/6 577/1/6 582/1/6
f 582/1/6 577/1/6 583/1/6
f 582/3/6 583/3/6 584/3/6
f 584/3/6 583/3/6 585/3/6
f 584/1/6 585/1/6 586/1/6
f 586/1/6 585/1/6 587/1/6
f 588/1/6 589/1/6 590/1/6
f 590/1/6 589/1/6 591/1/6
f 590/3/6 591/3/6 592/3/6
f 592/3/6 591/3/6 593/3/6
f 592/1/6 593/1/6 594/1/6
f 594/1/6 593/1/6 595/1/6
f 594/3/6 595/3/6 596/3/6
f 596/3/6 595/3/6 597/3/6
f 596/1/6 597/1/6 598/1/6
f 598/1/6 597/1/6 599/1/6
f 600/1/6 601/1/6 602/1/6
f 602/1/6 601/1/6 603/1/6
