# Created by Kenney (www.kenney.nl)

mtllib Croc_Body_1.mtl

v -2 8 -0.5
v -2 5 -0.5
v -2 8 0.5
v -2 5 0.5
v -6 8 -0.5
v -6 8 0.5
v -6 5 0.5
v -6 5 -0.5
v -1 7 -0.5
v -1 6 -0.5
v -1 7 0.5
v -1 6 0.5
v -2 7 -0.5
v -2 7 0.5
v -2 6 0.5
v -2 6 -0.5
v -6 7 -0.5
v -6 7 0.5
v -7 7 -0.5
v -7 7 0.5
v -7 5 0.5
v -7 5 -0.5
v 0 6 -1
v 0 1 -1
v 0 6 1
v 0 1 1
v -1 6 -1
v -1 6 1
v -1 1 1
v -1 1 -1
v -1 5 -1
v -1 5 1
v -2 6 -1
v -2 6 1
v -2 5 1
v -2 5 -1
v 1 5 -1
v 1 -7 -1
v 1 5 1
v 1 -7 1
v 0 5 -1
v 0 5 1
v 0 -7 1
v 0 -7 -1
v -1 4 -1
v -1 4 1
v -2 4 1
v -2 4 -1
v -2 5 -1.5
v -2 3 -1.5
v -2 5 1.5
v -2 3 1.5
v -3 5 -1.5
v -3 5 1.5
v -3 3 1.5
v -3 3 -1.5
v -3 4 -1.5
v -3 4 1.5
v -6 5 -1.5
v -6 5 1.5
v -6 4 1.5
v -6 4 -1.5
v -6 2 -1.5
v -6 2 1.5
v -7 5 -1.5
v -7 5 1.5
v -7 2 1.5
v -7 2 -1.5
v 2 4 -1
v 2 -3 -1
v 2 4 1
v 2 -3 1
v 1 4 -1
v 1 4 1
v 1 -3 1
v 1 -3 -1
v -1 4 -1.5
v -1 1 -1.5
v -1 4 1.5
v -1 1 1.5
v -2 4 -1.5
v -2 4 1.5
v -2 1 1.5
v -2 1 -1.5
v -5 4 -1.5
v -5 4 1.5
v -5 3 1.5
v -5 3 -1.5
v -6 3 1.5
v -6 3 -1.5
v 3 3 -1
v 3 -4 -1
v 3 3 1
v 3 -4 1
v 2 3 -1
v 2 3 1
v 2 -4 1
v 2 -4 -1
v -2 2 -1.5
v -2 2 1.5
v -6 1 1.5
v -6 1 -1.5
v 0 1 -1.5
v 0 -4 -1.5
v 0 1 1.5
v 0 -4 1.5
v -1 -4 1.5
v -1 -4 -1.5
v -1 -1 -1.5
v -1 -1 1.5
v -3 1 -1.5
v -3 1 1.5
v -3 -1 1.5
v -3 -1 -1.5
v -3 0 -1.5
v -3 0 1.5
v -5 1 -1.5
v -5 1 1.5
v -5 0 1.5
v -5 0 -1.5
v -6 0 1.5
v -6 0 -1.5
v -5 -1 1.5
v -5 -1 -1.5
v -5 -2 -1.5
v -5 -2 1.5
v -6 -2 1.5
v -6 -2 -1.5
v -7 0 -1.5
v -7 0 1.5
v -7 -2 1.5
v -7 -2 -1.5
v 8 -1 -1
v 8 -5 -1
v 8 -1 1
v 8 -5 1
v 7 -1 -1
v 7 -1 1
v 7 -5 1
v 7 -5 -1
v -1 -2 -1.5
v -1 -2 1.5
v -3 -2 1.5
v -3 -2 -1.5
v -3 -3 -1.5
v -3 -3 1.5
v -4 -1 -1.5
v -4 -1 1.5
v -4 -3 1.5
v -4 -3 -1.5
v -4 -2 -1.5
v -4 -2 1.5
v -7 -1 -1.5
v -7 -5 -1.5
v -7 -1 1.5
v -7 -5 1.5
v -8 -1 -1.5
v -8 -1 1.5
v -8 -5 1.5
v -8 -5 -1.5
v 7 -2 -1
v 7 -6 -1
v 7 -2 1
v 7 -6 1
v 6 -2 -1
v 6 -2 1
v 6 -6 1
v 6 -6 -1
v 4 -2 -1
v 4 -3 -1
v 4 -2 1
v 4 -3 1
v 3 -2 -1
v 3 -2 1
v 3 -3 1
v 3 -3 -1
v -2 -2 -1.5
v -2 -2 1.5
v -2 -4 1.5
v -2 -4 -1.5
v -2 -3 -1.5
v -2 -3 1.5
v -6 -3 1.5
v -6 -3 -1.5
v -6 -4 -1.5
v -6 -4 1.5
v -7 -4 1.5
v -7 -4 -1.5
v 6 -3 -0.5
v 6 -5 -0.5
v 6 -3 0.5
v 6 -5 0.5
v 3 -3 -0.5
v 3 -3 0.5
v 3 -5 0.5
v 3 -5 -0.5
v 2 -6 -1
v 2 -6 1
v 1 -6 1
v 1 -6 -1
v -3 -4 1.5
v -3 -4 -1.5
v -4 -4 1.5
v -4 -4 -1.5
v -4 -6 -1.5
v -4 -6 1.5
v -5 -3 -1.5
v -5 -3 1.5
v -5 -6 1.5
v -5 -6 -1.5
v -5 -4 -1.5
v -5 -4 1.5
v 3 -4 -0.5
v 3 -7 -0.5
v 3 -4 0.5
v 3 -7 0.5
v 2 -4 -0.5
v 2 -4 0.5
v 2 -7 0.5
v 2 -7 -0.5
v 0 -4 -1
v 0 -4 1
v -1 -4 -1
v -1 -4 1
v -1 -7 1
v -1 -7 -1
v -1 -6 -1.5
v -1 -6 1.5
v -2 -6 1.5
v -2 -6 -1.5
v -5 -5 -1.5
v -5 -5 1.5
v -6 -5 1.5
v -6 -5 -1.5
v -6 -6 -1.5
v -6 -6 1.5
v -7 -6 1.5
v -7 -6 -1.5
v 6 -5 -1
v 6 -5 1
v 5 -5 -1
v 5 -5 1
v 5 -6 1
v 5 -6 -1
v 5 -5 -0.5
v 5 -6 -0.5
v 5 -5 0.5
v 5 -6 0.5
v 4 -5 -0.5
v 4 -5 0.5
v 4 -6 0.5
v 4 -6 -0.5
v 4 -7 -0.5
v 4 -7 0.5
v 6 -7 -1
v 6 -7 1
v 4 -6 -1
v 4 -6 1
v 4 -7 1
v 4 -7 -1
v -1 -6 -1
v -1 -6 1
v -2 -6 -1
v -2 -6 1
v -2 -7 1
v -2 -7 -1
v -2 -7 -1.5
v -2 -7 1.5
v -6 -7 1.5
v -6 -7 -1.5

vn 1 0 0
vn 0 1 0
vn 0 -1 0
vn -1 0 0
vn 0 0 -1
vn 0 0 1

vt 0.3125 0.0625
vt 0.1875 0.0625
vt 0.0625 0.0625

usemtl Croc_Body_1

f 3/1/1 2/1/1 1/1/1
f 2/1/1 3/1/1 4/1/1
f 5/1/2 3/1/2 1/1/2
f 3/1/2 5/1/2 6/1/2
f 7/1/3 2/1/3 4/1/3
f 2/1/3 7/1/3 8/1/3
f 7/1/4 5/1/4 8/1/4
f 5/1/4 7/1/4 6/1/4
f 5/1/5 2/1/5 8/1/5
f 2/1/5 5/1/5 1/1/5
f 3/1/6 7/1/6 4/1/6
f 7/1/6 3/1/6 6/1/6
f 11/1/1 10/1/1 9/1/1
f 10/1/1 11/1/1 12/1/1
f 13/1/2 11/1/2 9/1/2
f 11/1/2 13/1/2 14/1/2
f 15/1/3 10/1/3 12/1/3
f 10/1/3 15/1/3 16/1/3
f 15/1/4 13/1/4 16/1/4
f 13/1/4 15/1/4 14/1/4
f 13/1/5 10/1/5 16/1/5
f 10/1/5 13/1/5 9/1/5
f 11/1/6 15/1/6 12/1/6
f 15/1/6 11/1/6 14/1/6
f 18/1/1 8/1/1 17/1/1
f 8/1/1 18/1/1 7/1/1
f 19/1/2 18/1/2 17/1/2
f 18/1/2 19/1/2 20/1/2
f 21/1/3 8/1/3 7/1/3
f 8/1/3 21/1/3 22/1/3
f 21/1/4 19/1/4 22/1/4
f 19/1/4 21/1/4 20/1/4
f 19/1/5 8/1/5 22/1/5
f 8/1/5 19/1/5 17/1/5
f 18/1/6 21/1/6 7/1/6
f 21/1/6 18/1/6 20/1/6
f 25/2/1 24/2/1 23/2/1
f 24/2/1 25/2/1 26/2/1
f 27/2/2 25/2/2 23/2/2
f 25/2/2 27/2/2 28/2/2
f 29/2/3 24/2/3 26/2/3
f 24/2/3 29/2/3 30/2/3
f 29/2/4 27/2/4 30/2/4
f 27/2/4 29/2/4 28/2/4
f 27/2/5 24/2/5 30/2/5
f 24/2/5 27/2/5 23/2/5
f 25/2/6 29/2/6 26/2/6
f 29/2/6 25/2/6 28/2/6
f 28/2/1 31/2/1 27/2/1
f 31/2/1 28/2/1 32/2/1
f 33/2/2 28/2/2 27/2/2
f 28/2/2 33/2/2 34/2/2
f 35/2/3 31/2/3 32/2/3
f 31/2/3 35/2/3 36/2/3
f 35/2/4 33/2/4 36/2/4
f 33/2/4 35/2/4 34/2/4
f 33/2/5 31/2/5 36/2/5
f 31/2/5 33/2/5 27/2/5
f 28/2/6 35/2/6 32/2/6
f 35/2/6 28/2/6 34/2/6
f 39/2/1 38/2/1 37/2/1
f 38/2/1 39/2/1 40/2/1
f 41/2/2 39/2/2 37/2/2
f 39/2/2 41/2/2 42/2/2
f 43/2/3 38/2/3 40/2/3
f 38/2/3 43/2/3 44/2/3
f 43/2/4 41/2/4 44/2/4
f 41/2/4 43/2/4 42/2/4
f 41/2/5 38/2/5 44/2/5
f 38/2/5 41/2/5 37/2/5
f 39/2/6 43/2/6 40/2/6
f 43/2/6 39/2/6 42/2/6
f 32/2/1 45/2/1 31/2/1
f 45/2/1 32/2/1 46/2/1
f 36/2/2 32/2/2 31/2/2
f 32/2/2 36/2/2 35/2/2
f 47/2/3 45/2/3 46/2/3
f 45/2/3 47/2/3 48/2/3
f 47/2/4 36/2/4 48/2/4
f 36/2/4 47/2/4 35/2/4
f 36/2/5 45/2/5 48/2/5
f 45/2/5 36/2/5 31/2/5
f 32/2/6 47/2/6 46/2/6
f 47/2/6 32/2/6 35/2/6
f 51/2/1 50/2/1 49/2/1
f 50/2/1 51/2/1 52/2/1
f 53/2/2 51/2/2 49/2/2
f 51/2/2 53/2/2 54/2/2
f 55/2/3 50/2/3 52/2/3
f 50/2/3 55/2/3 56/2/3
f 55/2/4 53/2/4 56/2/4
f 53/2/4 55/2/4 54/2/4
f 53/2/5 50/2/5 56/2/5
f 50/2/5 53/2/5 49/2/5
f 51/2/6 55/2/6 52/2/6
f 55/2/6 51/2/6 54/2/6
f 54/3/1 57/3/1 53/3/1
f 57/3/1 54/3/1 58/3/1
f 59/3/2 54/3/2 53/3/2
f 54/3/2 59/3/2 60/3/2
f 61/3/3 57/3/3 58/3/3
f 57/3/3 61/3/3 62/3/3
f 61/3/4 59/3/4 62/3/4
f 59/3/4 61/3/4 60/3/4
f 59/3/5 57/3/5 62/3/5
f 57/3/5 59/3/5 53/3/5
f 54/3/6 61/3/6 58/3/6
f 61/3/6 54/3/6 60/3/6
f 60/1/1 63/1/1 59/1/1
f 63/1/1 60/1/1 64/1/1
f 65/1/2 60/1/2 59/1/2
f 60/1/2 65/1/2 66/1/2
f 67/1/3 63/1/3 64/1/3
f 63/1/3 67/1/3 68/1/3
f 67/1/4 65/1/4 68/1/4
f 65/1/4 67/1/4 66/1/4
f 65/1/5 63/1/5 68/1/5
f 63/1/5 65/1/5 59/1/5
f 60/1/6 67/1/6 64/1/6
f 67/1/6 60/1/6 66/1/6
f 71/2/1 70/2/1 69/2/1
f 70/2/1 71/2/1 72/2/1
f 73/2/2 71/2/2 69/2/2
f 71/2/2 73/2/2 74/2/2
f 75/2/3 70/2/3 72/2/3
f 70/2/3 75/2/3 76/2/3
f 75/2/4 73/2/4 76/2/4
f 73/2/4 75/2/4 74/2/4
f 73/2/5 70/2/5 76/2/5
f 70/2/5 73/2/5 69/2/5
f 71/2/6 75/2/6 72/2/6
f 75/2/6 71/2/6 74/2/6
f 79/2/1 78/2/1 77/2/1
f 78/2/1 79/2/1 80/2/1
f 81/2/2 79/2/2 77/2/2
f 79/2/2 81/2/2 82/2/2
f 83/2/3 78/2/3 80/2/3
f 78/2/3 83/2/3 84/2/3
f 83/2/4 81/2/4 84/2/4
f 81/2/4 83/2/4 82/2/4
f 81/2/5 78/2/5 84/2/5
f 78/2/5 81/2/5 77/2/5
f 79/2/6 83/2/6 80/2/6
f 83/2/6 79/2/6 82/2/6
f 58/2/1 56/2/1 57/2/1
f 56/2/1 58/2/1 55/2/1
f 85/2/2 58/2/2 57/2/2
f 58/2/2 85/2/2 86/2/2
f 87/2/3 56/2/3 55/2/3
f 56/2/3 87/2/3 88/2/3
f 87/2/4 85/2/4 88/2/4
f 85/2/4 87/2/4 86/2/4
f 85/2/5 56/2/5 88/2/5
f 56/2/5 85/2/5 57/2/5
f 58/2/6 87/2/6 55/2/6
f 87/2/6 58/2/6 86/2/6
f 86/1/1 88/1/1 85/1/1
f 88/1/1 86/1/1 87/1/1
f 62/1/2 86/1/2 85/1/2
f 86/1/2 62/1/2 61/1/2
f 89/1/3 88/1/3 87/1/3
f 88/1/3 89/1/3 90/1/3
f 89/1/4 62/1/4 90/1/4
f 62/1/4 89/1/4 61/1/4
f 62/1/5 88/1/5 90/1/5
f 88/1/5 62/1/5 85/1/5
f 86/1/6 89/1/6 87/1/6
f 89/1/6 86/1/6 61/1/6
f 93/2/1 92/2/1 91/2/1
f 92/2/1 93/2/1 94/2/1
f 95/2/2 93/2/2 91/2/2
f 93/2/2 95/2/2 96/2/2
f 97/2/3 92/2/3 94/2/3
f 92/2/3 97/2/3 98/2/3
f 97/2/4 95/2/4 98/2/4
f 95/2/4 97/2/4 96/2/4
f 95/2/5 92/2/5 98/2/5
f 92/2/5 95/2/5 91/2/5
f 93/2/6 97/2/6 94/2/6
f 97/2/6 93/2/6 96/2/6
f 52/3/1 99/3/1 50/3/1
f 99/3/1 52/3/1 100/3/1
f 90/3/2 52/3/2 50/3/2
f 52/3/2 90/3/2 89/3/2
f 64/3/3 99/3/3 100/3/3
f 99/3/3 64/3/3 63/3/3
f 64/3/4 90/3/4 63/3/4
f 90/3/4 64/3/4 89/3/4
f 90/3/5 99/3/5 63/3/5
f 99/3/5 90/3/5 50/3/5
f 52/3/6 64/3/6 100/3/6
f 64/3/6 52/3/6 89/3/6
f 100/1/1 84/1/1 99/1/1
f 84/1/1 100/1/1 83/1/1
f 63/1/2 100/1/2 99/1/2
f 100/1/2 63/1/2 64/1/2
f 101/1/3 84/1/3 83/1/3
f 84/1/3 101/1/3 102/1/3
f 101/1/4 63/1/4 102/1/4
f 63/1/4 101/1/4 64/1/4
f 63/1/5 84/1/5 102/1/5
f 84/1/5 63/1/5 99/1/5
f 100/1/6 101/1/6 83/1/6
f 101/1/6 100/1/6 64/1/6
f 105/2/1 104/2/1 103/2/1
f 104/2/1 105/2/1 106/2/1
f 78/2/2 105/2/2 103/2/2
f 105/2/2 78/2/2 80/2/2
f 107/2/3 104/2/3 106/2/3
f 104/2/3 107/2/3 108/2/3
f 107/2/4 78/2/4 108/2/4
f 78/2/4 107/2/4 80/2/4
f 78/2/5 104/2/5 108/2/5
f 104/2/5 78/2/5 103/2/5
f 105/2/6 107/2/6 106/2/6
f 107/2/6 105/2/6 80/2/6
f 80/3/1 109/3/1 78/3/1
f 109/3/1 80/3/1 110/3/1
f 111/3/2 80/3/2 78/3/2
f 80/3/2 111/3/2 112/3/2
f 113/3/3 109/3/3 110/3/3
f 109/3/3 113/3/3 114/3/3
f 113/3/4 111/3/4 114/3/4
f 111/3/4 113/3/4 112/3/4
f 111/3/5 109/3/5 114/3/5
f 109/3/5 111/3/5 78/3/5
f 80/3/6 113/3/6 110/3/6
f 113/3/6 80/3/6 112/3/6
f 112/3/1 115/3/1 111/3/1
f 115/3/1 112/3/1 116/3/1
f 117/3/2 112/3/2 111/3/2
f 112/3/2 117/3/2 118/3/2
f 119/3/3 115/3/3 116/3/3
f 115/3/3 119/3/3 120/3/3
f 119/3/4 117/3/4 120/3/4
f 117/3/4 119/3/4 118/3/4
f 117/3/5 115/3/5 120/3/5
f 115/3/5 117/3/5 111/3/5
f 112/3/6 119/3/6 116/3/6
f 119/3/6 112/3/6 118/3/6
f 118/1/1 120/1/1 117/1/1
f 120/1/1 118/1/1 119/1/1
f 102/1/2 118/1/2 117/1/2
f 118/1/2 102/1/2 101/1/2
f 121/1/3 120/1/3 119/1/3
f 120/1/3 121/1/3 122/1/3
f 121/1/4 102/1/4 122/1/4
f 102/1/4 121/1/4 101/1/4
f 102/1/5 120/1/5 122/1/5
f 120/1/5 102/1/5 117/1/5
f 118/1/6 121/1/6 119/1/6
f 121/1/6 118/1/6 101/1/6
f 116/1/1 114/1/1 115/1/1
f 114/1/1 116/1/1 113/1/1
f 120/1/2 116/1/2 115/1/2
f 116/1/2 120/1/2 119/1/2
f 123/1/3 114/1/3 113/1/3
f 114/1/3 123/1/3 124/1/3
f 123/1/4 120/1/4 124/1/4
f 120/1/4 123/1/4 119/1/4
f 120/1/5 114/1/5 124/1/5
f 114/1/5 120/1/5 115/1/5
f 116/1/6 123/1/6 113/1/6
f 123/1/6 116/1/6 119/1/6
f 119/3/1 125/3/1 120/3/1
f 125/3/1 119/3/1 126/3/1
f 122/3/2 119/3/2 120/3/2
f 119/3/2 122/3/2 121/3/2
f 127/3/3 125/3/3 126/3/3
f 125/3/3 127/3/3 128/3/3
f 127/3/4 122/3/4 128/3/4
f 122/3/4 127/3/4 121/3/4
f 122/3/5 125/3/5 128/3/5
f 125/3/5 122/3/5 120/3/5
f 119/3/6 127/3/6 126/3/6
f 127/3/6 119/3/6 121/3/6
f 121/1/1 128/1/1 122/1/1
f 128/1/1 121/1/1 127/1/1
f 129/1/2 121/1/2 122/1/2
f 121/1/2 129/1/2 130/1/2
f 131/1/3 128/1/3 127/1/3
f 128/1/3 131/1/3 132/1/3
f 131/1/4 129/1/4 132/1/4
f 129/1/4 131/1/4 130/1/4
f 129/1/5 128/1/5 132/1/5
f 128/1/5 129/1/5 122/1/5
f 121/1/6 131/1/6 127/1/6
f 131/1/6 121/1/6 130/1/6
f 135/2/1 134/2/1 133/2/1
f 134/2/1 135/2/1 136/2/1
f 137/2/2 135/2/2 133/2/2
f 135/2/2 137/2/2 138/2/2
f 139/2/3 134/2/3 136/2/3
f 134/2/3 139/2/3 140/2/3
f 139/2/4 137/2/4 140/2/4
f 137/2/4 139/2/4 138/2/4
f 137/2/5 134/2/5 140/2/5
f 134/2/5 137/2/5 133/2/5
f 135/2/6 139/2/6 136/2/6
f 139/2/6 135/2/6 138/2/6
f 110/2/1 141/2/1 109/2/1
f 141/2/1 110/2/1 142/2/1
f 114/2/2 110/2/2 109/2/2
f 110/2/2 114/2/2 113/2/2
f 143/2/3 141/2/3 142/2/3
f 141/2/3 143/2/3 144/2/3
f 143/2/4 114/2/4 144/2/4
f 114/2/4 143/2/4 113/2/4
f 114/2/5 141/2/5 144/2/5
f 141/2/5 114/2/5 109/2/5
f 110/2/6 143/2/6 142/2/6
f 143/2/6 110/2/6 113/2/6
f 113/3/1 145/3/1 114/3/1
f 145/3/1 113/3/1 146/3/1
f 147/3/2 113/3/2 114/3/2
f 113/3/2 147/3/2 148/3/2
f 149/3/3 145/3/3 146/3/3
f 145/3/3 149/3/3 150/3/3
f 149/3/4 147/3/4 150/3/4
f 147/3/4 149/3/4 148/3/4
f 147/3/5 145/3/5 150/3/5
f 145/3/5 147/3/5 114/3/5
f 113/3/6 149/3/6 146/3/6
f 149/3/6 113/3/6 148/3/6
f 148/3/1 151/3/1 147/3/1
f 151/3/1 148/3/1 152/3/1
f 124/3/2 148/3/2 147/3/2
f 148/3/2 124/3/2 123/3/2
f 126/3/3 151/3/3 152/3/3
f 151/3/3 126/3/3 125/3/3
f 126/3/4 124/3/4 125/3/4
f 124/3/4 126/3/4 123/3/4
f 124/3/5 151/3/5 125/3/5
f 151/3/5 124/3/5 147/3/5
f 148/3/6 126/3/6 152/3/6
f 126/3/6 148/3/6 123/3/6
f 155/1/1 154/1/1 153/1/1
f 154/1/1 155/1/1 156/1/1
f 157/1/2 155/1/2 153/1/2
f 155/1/2 157/1/2 158/1/2
f 159/1/3 154/1/3 156/1/3
f 154/1/3 159/1/3 160/1/3
f 159/1/4 157/1/4 160/1/4
f 157/1/4 159/1/4 158/1/4
f 157/1/5 154/1/5 160/1/5
f 154/1/5 157/1/5 153/1/5
f 155/1/6 159/1/6 156/1/6
f 159/1/6 155/1/6 158/1/6
f 163/2/1 162/2/1 161/2/1
f 162/2/1 163/2/1 164/2/1
f 165/2/2 163/2/2 161/2/2
f 163/2/2 165/2/2 166/2/2
f 167/2/3 162/2/3 164/2/3
f 162/2/3 167/2/3 168/2/3
f 167/2/4 165/2/4 168/2/4
f 165/2/4 167/2/4 166/2/4
f 165/2/5 162/2/5 168/2/5
f 162/2/5 165/2/5 161/2/5
f 163/2/6 167/2/6 164/2/6
f 167/2/6 163/2/6 166/2/6
f 171/2/1 170/2/1 169/2/1
f 170/2/1 171/2/1 172/2/1
f 173/2/2 171/2/2 169/2/2
f 171/2/2 173/2/2 174/2/2
f 175/2/3 170/2/3 172/2/3
f 170/2/3 175/2/3 176/2/3
f 175/2/4 173/2/4 176/2/4
f 173/2/4 175/2/4 174/2/4
f 173/2/5 170/2/5 176/2/5
f 170/2/5 173/2/5 169/2/5
f 171/2/6 175/2/6 172/2/6
f 175/2/6 171/2/6 174/2/6
f 142/3/1 108/3/1 141/3/1
f 108/3/1 142/3/1 107/3/1
f 177/3/2 142/3/2 141/3/2
f 142/3/2 177/3/2 178/3/2
f 179/3/3 108/3/3 107/3/3
f 108/3/3 179/3/3 180/3/3
f 179/3/4 177/3/4 180/3/4
f 177/3/4 179/3/4 178/3/4
f 177/3/5 108/3/5 180/3/5
f 108/3/5 177/3/5 141/3/5
f 142/3/6 179/3/6 107/3/6
f 179/3/6 142/3/6 178/3/6
f 178/3/1 181/3/1 177/3/1
f 181/3/1 178/3/1 182/3/1
f 144/3/2 178/3/2 177/3/2
f 178/3/2 144/3/2 143/3/2
f 146/3/3 181/3/3 182/3/3
f 181/3/3 146/3/3 145/3/3
f 146/3/4 144/3/4 145/3/4
f 144/3/4 146/3/4 143/3/4
f 144/3/5 181/3/5 145/3/5
f 181/3/5 144/3/5 177/3/5
f 178/3/6 146/3/6 182/3/6
f 146/3/6 178/3/6 143/3/6
f 152/1/1 150/1/1 151/1/1
f 150/1/1 152/1/1 149/1/1
f 128/1/2 152/1/2 151/1/2
f 152/1/2 128/1/2 127/1/2
f 183/1/3 150/1/3 149/1/3
f 150/1/3 183/1/3 184/1/3
f 183/1/4 128/1/4 184/1/4
f 128/1/4 183/1/4 127/1/4
f 128/1/5 150/1/5 184/1/5
f 150/1/5 128/1/5 151/1/5
f 152/1/6 183/1/6 149/1/6
f 183/1/6 152/1/6 127/1/6
f 127/3/1 185/3/1 128/3/1
f 185/3/1 127/3/1 186/3/1
f 132/3/2 127/3/2 128/3/2
f 127/3/2 132/3/2 131/3/2
f 187/3/3 185/3/3 186/3/3
f 185/3/3 187/3/3 188/3/3
f 187/3/4 132/3/4 188/3/4
f 132/3/4 187/3/4 131/3/4
f 132/3/5 185/3/5 188/3/5
f 185/3/5 132/3/5 128/3/5
f 127/3/6 187/3/6 186/3/6
f 187/3/6 127/3/6 131/3/6
f 191/2/1 190/2/1 189/2/1
f 190/2/1 191/2/1 192/2/1
f 193/2/2 191/2/2 189/2/2
f 191/2/2 193/2/2 194/2/2
f 195/2/3 190/2/3 192/2/3
f 190/2/3 195/2/3 196/2/3
f 195/2/4 193/2/4 196/2/4
f 193/2/4 195/2/4 194/2/4
f 193/2/5 190/2/5 196/2/5
f 190/2/5 193/2/5 189/2/5
f 191/2/6 195/2/6 192/2/6
f 195/2/6 191/2/6 194/2/6
f 72/1/1 197/1/1 70/1/1
f 197/1/1 72/1/1 198/1/1
f 76/1/2 72/1/2 70/1/2
f 72/1/2 76/1/2 75/1/2
f 199/1/3 197/1/3 198/1/3
f 197/1/3 199/1/3 200/1/3
f 199/1/4 76/1/4 200/1/4
f 76/1/4 199/1/4 75/1/4
f 76/1/5 197/1/5 200/1/5
f 197/1/5 76/1/5 70/1/5
f 72/1/6 199/1/6 198/1/6
f 199/1/6 72/1/6 75/1/6
f 182/3/1 180/3/1 181/3/1
f 180/3/1 182/3/1 179/3/1
f 145/3/2 182/3/2 181/3/2
f 182/3/2 145/3/2 146/3/2
f 201/3/3 180/3/3 179/3/3
f 180/3/3 201/3/3 202/3/3
f 201/3/4 145/3/4 202/3/4
f 145/3/4 201/3/4 146/3/4
f 145/3/5 180/3/5 202/3/5
f 180/3/5 145/3/5 181/3/5
f 182/3/6 201/3/6 179/3/6
f 201/3/6 182/3/6 146/3/6
f 146/1/1 202/1/1 145/1/1
f 202/1/1 146/1/1 201/1/1
f 150/1/2 146/1/2 145/1/2
f 146/1/2 150/1/2 149/1/2
f 203/1/3 202/1/3 201/1/3
f 202/1/3 203/1/3 204/1/3
f 203/1/4 150/1/4 204/1/4
f 150/1/4 203/1/4 149/1/4
f 150/1/5 202/1/5 204/1/5
f 202/1/5 150/1/5 145/1/5
f 146/1/6 203/1/6 201/1/6
f 203/1/6 146/1/6 149/1/6
f 149/3/1 205/3/1 150/3/1
f 205/3/1 149/3/1 206/3/1
f 207/3/2 149/3/2 150/3/2
f 149/3/2 207/3/2 208/3/2
f 209/3/3 205/3/3 206/3/3
f 205/3/3 209/3/3 210/3/3
f 209/3/4 207/3/4 210/3/4
f 207/3/4 209/3/4 208/3/4
f 207/3/5 205/3/5 210/3/5
f 205/3/5 207/3/5 150/3/5
f 149/3/6 209/3/6 206/3/6
f 209/3/6 149/3/6 208/3/6
f 208/3/1 211/3/1 207/3/1
f 211/3/1 208/3/1 212/3/1
f 184/3/2 208/3/2 207/3/2
f 208/3/2 184/3/2 183/3/2
f 186/3/3 211/3/3 212/3/3
f 211/3/3 186/3/3 185/3/3
f 186/3/4 184/3/4 185/3/4
f 184/3/4 186/3/4 183/3/4
f 184/3/5 211/3/5 185/3/5
f 211/3/5 184/3/5 207/3/5
f 208/3/6 186/3/6 212/3/6
f 186/3/6 208/3/6 183/3/6
f 215/1/1 214/1/1 213/1/1
f 214/1/1 215/1/1 216/1/1
f 217/1/2 215/1/2 213/1/2
f 215/1/2 217/1/2 218/1/2
f 219/1/3 214/1/3 216/1/3
f 214/1/3 219/1/3 220/1/3
f 219/1/4 217/1/4 220/1/4
f 217/1/4 219/1/4 218/1/4
f 217/1/5 214/1/5 220/1/5
f 214/1/5 217/1/5 213/1/5
f 215/1/6 219/1/6 216/1/6
f 219/1/6 215/1/6 218/1/6
f 222/2/1 44/2/1 221/2/1
f 44/2/1 222/2/1 43/2/1
f 223/2/2 222/2/2 221/2/2
f 222/2/2 223/2/2 224/2/2
f 225/2/3 44/2/3 43/2/3
f 44/2/3 225/2/3 226/2/3
f 225/2/4 223/2/4 226/2/4
f 223/2/4 225/2/4 224/2/4
f 223/2/5 44/2/5 226/2/5
f 44/2/5 223/2/5 221/2/5
f 222/2/6 225/2/6 43/2/6
f 225/2/6 222/2/6 224/2/6
f 107/2/1 227/2/1 108/2/1
f 227/2/1 107/2/1 228/2/1
f 180/2/2 107/2/2 108/2/2
f 107/2/2 180/2/2 179/2/2
f 229/2/3 227/2/3 228/2/3
f 227/2/3 229/2/3 230/2/3
f 229/2/4 180/2/4 230/2/4
f 180/2/4 229/2/4 179/2/4
f 180/2/5 227/2/5 230/2/5
f 227/2/5 180/2/5 108/2/5
f 107/2/6 229/2/6 228/2/6
f 229/2/6 107/2/6 179/2/6
f 179/3/1 230/3/1 180/3/1
f 230/3/1 179/3/1 229/3/1
f 204/3/2 179/3/2 180/3/2
f 179/3/2 204/3/2 203/3/2
f 206/3/3 230/3/3 229/3/3
f 230/3/3 206/3/3 205/3/3
f 206/3/4 204/3/4 205/3/4
f 204/3/4 206/3/4 203/3/4
f 204/3/5 230/3/5 205/3/5
f 230/3/5 204/3/5 180/3/5
f 179/3/6 206/3/6 229/3/6
f 206/3/6 179/3/6 203/3/6
f 212/3/1 231/3/1 211/3/1
f 231/3/1 212/3/1 232/3/1
f 185/3/2 212/3/2 211/3/2
f 212/3/2 185/3/2 186/3/2
f 233/3/3 231/3/3 232/3/3
f 231/3/3 233/3/3 234/3/3
f 233/3/4 185/3/4 234/3/4
f 185/3/4 233/3/4 186/3/4
f 185/3/5 231/3/5 234/3/5
f 231/3/5 185/3/5 211/3/5
f 212/3/6 233/3/6 232/3/6
f 233/3/6 212/3/6 186/3/6
f 186/1/1 235/1/1 185/1/1
f 235/1/1 186/1/1 236/1/1
f 188/1/2 186/1/2 185/1/2
f 186/1/2 188/1/2 187/1/2
f 237/1/3 235/1/3 236/1/3
f 235/1/3 237/1/3 238/1/3
f 237/1/4 188/1/4 238/1/4
f 188/1/4 237/1/4 187/1/4
f 188/1/5 235/1/5 238/1/5
f 235/1/5 188/1/5 185/1/5
f 186/1/6 237/1/6 236/1/6
f 237/1/6 186/1/6 187/1/6
f 240/2/1 168/2/1 239/2/1
f 168/2/1 240/2/1 167/2/1
f 241/2/2 240/2/2 239/2/2
f 240/2/2 241/2/2 242/2/2
f 243/2/3 168/2/3 167/2/3
f 168/2/3 243/2/3 244/2/3
f 243/2/4 241/2/4 244/2/4
f 241/2/4 243/2/4 242/2/4
f 241/2/5 168/2/5 244/2/5
f 168/2/5 241/2/5 239/2/5
f 240/2/6 243/2/6 167/2/6
f 243/2/6 240/2/6 242/2/6
f 247/2/1 246/2/1 245/2/1
f 246/2/1 247/2/1 248/2/1
f 249/2/2 247/2/2 245/2/2
f 247/2/2 249/2/2 250/2/2
f 251/2/3 246/2/3 248/2/3
f 246/2/3 251/2/3 252/2/3
f 251/2/4 249/2/4 252/2/4
f 249/2/4 251/2/4 250/2/4
f 249/2/5 246/2/5 252/2/5
f 246/2/5 249/2/5 245/2/5
f 247/2/6 251/2/6 248/2/6
f 251/2/6 247/2/6 250/2/6
f 250/1/1 253/1/1 249/1/1
f 253/1/1 250/1/1 254/1/1
f 196/1/2 250/1/2 249/1/2
f 250/1/2 196/1/2 195/1/2
f 216/1/3 253/1/3 254/1/3
f 253/1/3 216/1/3 214/1/3
f 216/1/4 196/1/4 214/1/4
f 196/1/4 216/1/4 195/1/4
f 196/1/5 253/1/5 214/1/5
f 253/1/5 196/1/5 249/1/5
f 250/1/6 216/1/6 254/1/6
f 216/1/6 250/1/6 195/1/6
f 232/1/1 210/1/1 231/1/1
f 210/1/1 232/1/1 209/1/1
f 234/1/2 232/1/2 231/1/2
f 232/1/2 234/1/2 233/1/2
f 236/1/3 210/1/3 209/1/3
f 210/1/3 236/1/3 235/1/3
f 236/1/4 234/1/4 235/1/4
f 234/1/4 236/1/4 233/1/4
f 234/1/5 210/1/5 235/1/5
f 210/1/5 234/1/5 231/1/5
f 232/1/6 236/1/6 209/1/6
f 236/1/6 232/1/6 233/1/6
f 167/1/1 255/1/1 168/1/1
f 255/1/1 167/1/1 256/1/1
f 257/1/2 167/1/2 168/1/2
f 167/1/2 257/1/2 258/1/2
f 259/1/3 255/1/3 256/1/3
f 255/1/3 259/1/3 260/1/3
f 259/1/4 257/1/4 260/1/4
f 257/1/4 259/1/4 258/1/4
f 257/1/5 255/1/5 260/1/5
f 255/1/5 257/1/5 168/1/5
f 167/1/6 259/1/6 256/1/6
f 259/1/6 167/1/6 258/1/6
f 262/2/1 226/2/1 261/2/1
f 226/2/1 262/2/1 225/2/1
f 263/2/2 262/2/2 261/2/2
f 262/2/2 263/2/2 264/2/2
f 265/2/3 226/2/3 225/2/3
f 226/2/3 265/2/3 266/2/3
f 265/2/4 263/2/4 266/2/4
f 263/2/4 265/2/4 264/2/4
f 263/2/5 226/2/5 266/2/5
f 226/2/5 263/2/5 261/2/5
f 262/2/6 265/2/6 225/2/6
f 265/2/6 262/2/6 264/2/6
f 229/2/1 267/2/1 230/2/1
f 267/2/1 229/2/1 268/2/1
f 235/2/2 229/2/2 230/2/2
f 229/2/2 235/2/2 236/2/2
f 269/2/3 267/2/3 268/2/3
f 267/2/3 269/2/3 270/2/3
f 269/2/4 235/2/4 270/2/4
f 235/2/4 269/2/4 236/2/4
f 235/2/5 267/2/5 270/2/5
f 267/2/5 235/2/5 230/2/5
f 229/2/6 269/2/6 268/2/6
f 269/2/6 229/2/6 236/2/6
f 28/2/1 31/2/1 27/2/1
f 31/2/1 28/2/1 32/2/1
f 33/2/2 28/2/2 27/2/2
f 28/2/2 33/2/2 34/2/2
f 35/2/3 31/2/3 32/2/3
f 31/2/3 35/2/3 36/2/3
f 35/2/4 33/2/4 36/2/4
f 33/2/4 35/2/4 34/2/4
f 33/2/5 31/2/5 36/2/5
f 31/2/5 33/2/5 27/2/5
f 28/2/6 35/2/6 32/2/6
f 35/2/6 28/2/6 34/2/6
f 112/3/1 115/3/1 111/3/1
f 115/3/1 112/3/1 116/3/1
f 117/3/2 112/3/2 111/3/2
f 112/3/2 117/3/2 118/3/2
f 119/3/3 115/3/3 116/3/3
f 115/3/3 119/3/3 120/3/3
f 119/3/4 117/3/4 120/3/4
f 117/3/4 119/3/4 118/3/4
f 117/3/5 115/3/5 120/3/5
f 115/3/5 117/3/5 111/3/5
f 112/3/6 119/3/6 116/3/6
f 119/3/6 112/3/6 118/3/6
f 148/3/1 151/3/1 147/3/1
f 151/3/1 148/3/1 152/3/1
f 124/3/2 148/3/2 147/3/2
f 148/3/2 124/3/2 123/3/2
f 126/3/3 151/3/3 152/3/3
f 151/3/3 126/3/3 125/3/3
f 126/3/4 124/3/4 125/3/4
f 124/3/4 126/3/4 123/3/4
f 124/3/5 151/3/5 125/3/5
f 151/3/5 124/3/5 147/3/5
f 148/3/6 126/3/6 152/3/6
f 126/3/6 148/3/6 123/3/6
f 178/3/1 181/3/1 177/3/1
f 181/3/1 178/3/1 182/3/1
f 144/3/2 178/3/2 177/3/2
f 178/3/2 144/3/2 143/3/2
f 146/3/3 181/3/3 182/3/3
f 181/3/3 146/3/3 145/3/3
f 146/3/4 144/3/4 145/3/4
f 144/3/4 146/3/4 143/3/4
f 144/3/5 181/3/5 145/3/5
f 181/3/5 144/3/5 177/3/5
f 178/3/6 146/3/6 182/3/6
f 146/3/6 178/3/6 143/3/6
f 208/3/1 211/3/1 207/3/1
f 211/3/1 208/3/1 212/3/1
f 184/3/2 208/3/2 207/3/2
f 208/3/2 184/3/2 183/3/2
f 186/3/3 211/3/3 212/3/3
f 211/3/3 186/3/3 185/3/3
f 186/3/4 184/3/4 185/3/4
f 184/3/4 186/3/4 183/3/4
f 184/3/5 211/3/5 185/3/5
f 211/3/5 184/3/5 207/3/5
f 208/3/6 186/3/6 212/3/6
f 186/3/6 208/3/6 183/3/6

