# Created by Kenney (www.kenney.nl)

mtllib Croc_Hand_1.mtl

v 0 3 -1.5
v 0 1 -1.5
v 0 3 1.5
v 0 1 1.5
v -1 3 -1.5
v -1 3 1.5
v -1 1 1.5
v -1 1 -1.5
v -1 2 -1.5
v -1 2 1.5
v -2 3 -1.5
v -2 3 1.5
v -2 2 1.5
v -2 2 -1.5
v 0 2 -1.5
v 0 2 1.5
v 1 2 -1.5
v 1 -1 -1.5
v 1 2 1.5
v 1 -1 1.5
v 0 -1 1.5
v 0 -1 -1.5
v -1 2 -1
v -1 0 -1
v -1 2 1
v -1 0 1
v -3 2 -1
v -3 2 1
v -3 0 1
v -3 0 -1
v 2 1 -1.5
v 2 -2 -1.5
v 2 1 1.5
v 2 -2 1.5
v 1 1 -1.5
v 1 1 1.5
v 1 -2 1.5
v 1 -2 -1.5
v 0 1 -1
v 0 -2 -1
v 0 1 1
v 0 -2 1
v -1 1 -1
v -1 1 1
v -1 -2 1
v -1 -2 -1
v -2 0 -1
v -2 -1 -1
v -2 0 1
v -2 -1 1
v -3 -1 1
v -3 -1 -1
v 1 -1 -1
v 1 -2 -1
v 1 -1 1
v 1 -2 1
v 0 -1 -1
v 0 -1 1
v -2 -1 -0.5
v -2 -2 -0.5
v -2 -1 0.5
v -2 -2 0.5
v -3 -1 -0.5
v -3 -1 0.5
v -3 -2 0.5
v -3 -2 -0.5

vn 1 0 0
vn 0 1 0
vn 0 -1 0
vn -1 0 0
vn 0 0 -1
vn 0 0 1

vt 0.3125 0.0625
vt 0.0625 0.0625
vt 0.1875 0.0625

usemtl Croc_Hand_1

f 3/1/1 2/1/1 1/1/1
f 2/1/1 3/1/1 4/1/1
f 5/1/2 3/1/2 1/1/2
f 3/1/2 5/1/2 6/1/2
f 7/1/3 2/1/3 4/1/3
f 2/1/3 7/1/3 8/1/3
f 7/1/4 5/1/4 8/1/4
f 5/1/4 7/1/4 6/1/4
f 5/1/5 2/1/5 8/1/5
f 2/1/5 5/1/5 1/1/5
f 3/1/6 7/1/6 4/1/6
f 7/1/6 3/1/6 6/1/6
f 6/1/1 9/1/1 5/1/1
f 9/1/1 6/1/1 10/1/1
f 11/1/2 6/1/2 5/1/2
f 6/1/2 11/1/2 12/1/2
f 13/1/3 9/1/3 10/1/3
f 9/1/3 13/1/3 14/1/3
f 13/1/4 11/1/4 14/1/4
f 11/1/4 13/1/4 12/1/4
f 11/1/5 9/1/5 14/1/5
f 9/1/5 11/1/5 5/1/5
f 6/1/6 13/1/6 10/1/6
f 13/1/6 6/1/6 12/1/6
f 3/1/1 15/1/1 1/1/1
f 15/1/1 3/1/1 16/1/1
f 11/1/2 3/1/2 1/1/2
f 3/1/2 11/1/2 12/1/2
f 13/1/3 15/1/3 16/1/3
f 15/1/3 13/1/3 14/1/3
f 13/1/4 11/1/4 14/1/4
f 11/1/4 13/1/4 12/1/4
f 11/1/5 15/1/5 14/1/5
f 15/1/5 11/1/5 1/1/5
f 3/1/6 13/1/6 16/1/6
f 13/1/6 3/1/6 12/1/6
f 19/1/1 18/1/1 17/1/1
f 18/1/1 19/1/1 20/1/1
f 15/1/2 19/1/2 17/1/2
f 19/1/2 15/1/2 16/1/2
f 21/1/3 18/1/3 20/1/3
f 18/1/3 21/1/3 22/1/3
f 21/1/4 15/1/4 22/1/4
f 15/1/4 21/1/4 16/1/4
f 15/1/5 18/1/5 22/1/5
f 18/1/5 15/1/5 17/1/5
f 19/1/6 21/1/6 20/1/6
f 21/1/6 19/1/6 16/1/6
f 25/2/1 24/2/1 23/2/1
f 24/2/1 25/2/1 26/2/1
f 27/2/2 25/2/2 23/2/2
f 25/2/2 27/2/2 28/2/2
f 29/2/3 24/2/3 26/2/3
f 24/2/3 29/2/3 30/2/3
f 29/2/4 27/2/4 30/2/4
f 27/2/4 29/2/4 28/2/4
f 27/2/5 24/2/5 30/2/5
f 24/2/5 27/2/5 23/2/5
f 25/2/6 29/2/6 26/2/6
f 29/2/6 25/2/6 28/2/6
f 33/1/1 32/1/1 31/1/1
f 32/1/1 33/1/1 34/1/1
f 35/1/2 33/1/2 31/1/2
f 33/1/2 35/1/2 36/1/2
f 37/1/3 32/1/3 34/1/3
f 32/1/3 37/1/3 38/1/3
f 37/1/4 35/1/4 38/1/4
f 35/1/4 37/1/4 36/1/4
f 35/1/5 32/1/5 38/1/5
f 32/1/5 35/1/5 31/1/5
f 33/1/6 37/1/6 34/1/6
f 37/1/6 33/1/6 36/1/6
f 41/2/1 40/2/1 39/2/1
f 40/2/1 41/2/1 42/2/1
f 43/2/2 41/2/2 39/2/2
f 41/2/2 43/2/2 44/2/2
f 45/2/3 40/2/3 42/2/3
f 40/2/3 45/2/3 46/2/3
f 45/2/4 43/2/4 46/2/4
f 43/2/4 45/2/4 44/2/4
f 43/2/5 40/2/5 46/2/5
f 40/2/5 43/2/5 39/2/5
f 41/2/6 45/2/6 42/2/6
f 45/2/6 41/2/6 44/2/6
f 49/2/1 48/2/1 47/2/1
f 48/2/1 49/2/1 50/2/1
f 30/2/2 49/2/2 47/2/2
f 49/2/2 30/2/2 29/2/2
f 51/2/3 48/2/3 50/2/3
f 48/2/3 51/2/3 52/2/3
f 51/2/4 30/2/4 52/2/4
f 30/2/4 51/2/4 29/2/4
f 30/2/5 48/2/5 52/2/5
f 48/2/5 30/2/5 47/2/5
f 49/2/6 51/2/6 50/2/6
f 51/2/6 49/2/6 29/2/6
f 55/2/1 54/2/1 53/2/1
f 54/2/1 55/2/1 56/2/1
f 57/2/2 55/2/2 53/2/2
f 55/2/2 57/2/2 58/2/2
f 42/2/3 54/2/3 56/2/3
f 54/2/3 42/2/3 40/2/3
f 42/2/4 57/2/4 40/2/4
f 57/2/4 42/2/4 58/2/4
f 57/2/5 54/2/5 40/2/5
f 54/2/5 57/2/5 53/2/5
f 55/2/6 42/2/6 56/2/6
f 42/2/6 55/2/6 58/2/6
f 61/3/1 60/3/1 59/3/1
f 60/3/1 61/3/1 62/3/1
f 63/3/2 61/3/2 59/3/2
f 61/3/2 63/3/2 64/3/2
f 65/3/3 60/3/3 62/3/3
f 60/3/3 65/3/3 66/3/3
f 65/3/4 63/3/4 66/3/4
f 63/3/4 65/3/4 64/3/4
f 63/3/5 60/3/5 66/3/5
f 60/3/5 63/3/5 59/3/5
f 61/3/6 65/3/6 62/3/6
f 65/3/6 61/3/6 64/3/6

